/* XPM */
static const char *language_de_xpm[] = {
/* columns rows colors chars-per-pixel */
"16 12 127 2",
"   c black",
".  c #010101",
"X  c #020202",
"o  c #040404",
"O  c gray2",
"+  c #060606",
"@  c #070707",
"#  c #040A0A",
"$  c #050B0B",
"%  c #060C0C",
"&  c #070D0D",
"*  c gray3",
"=  c #090909",
"-  c gray4",
";  c #0B0B0B",
":  c #080E0E",
">  c #0C0C0C",
",  c gray5",
"<  c #0E0E0E",
"1  c gray6",
"2  c #0A1010",
"3  c #0B1111",
"4  c #0D1212",
"5  c #0E1313",
"6  c #0E1414",
"7  c #101010",
"8  c #111111",
"9  c gray7",
"0  c #131313",
"q  c #101616",
"w  c #121717",
"e  c gray8",
"r  c #151515",
"t  c #131818",
"y  c #141919",
"u  c gray12",
"i  c #232323",
"p  c #212626",
"a  c #A90E0E",
"s  c #AA0F0F",
"d  c #AA1010",
"f  c #AA1111",
"g  c #AB1313",
"h  c #AB1414",
"j  c #AC1616",
"k  c #AC1717",
"l  c #A11C1C",
"z  c #AD1818",
"x  c #AD1A1A",
"c  c #AE1C1C",
"v  c #AE1D1D",
"b  c #A72929",
"n  c #DE1212",
"m  c #DE1313",
"M  c #DE1414",
"N  c #DF1515",
"B  c #DF1616",
"V  c #DF1717",
"C  c #DF1A1A",
"Z  c #DF1B1B",
"A  c #DF1C1C",
"S  c #E01818",
"D  c #E01919",
"F  c #E01C1C",
"G  c #E01D1D",
"H  c #E01E1E",
"J  c #E11F1F",
"K  c #D02020",
"L  c #D02323",
"P  c #D22C2C",
"I  c #D23030",
"U  c #E12020",
"Y  c #E12121",
"T  c #E12222",
"R  c #E02323",
"E  c #E12424",
"W  c #E12525",
"Q  c #E8481A",
"!  c #E8491A",
"~  c #E84A1C",
"^  c #E84B1D",
"/  c #E84C1E",
"(  c #D84F27",
")  c #D95833",
"_  c #E84D20",
"`  c #E84E21",
"'  c #E84F22",
"]  c #E85023",
"[  c #E85124",
"{  c #E85226",
"}  c #E95227",
"|  c #E95428",
" . c #E95529",
".. c #E4BA0F",
"X. c #E4BA10",
"o. c #E4BB10",
"O. c #F5C500",
"+. c #F6C500",
"@. c #F6C600",
"#. c #F8C909",
"$. c #E7C41D",
"%. c #F9CC10",
"&. c #FACE16",
"*. c #FBCF1A",
"=. c #FCD019",
"-. c #FDD11C",
";. c #FCD01D",
":. c #FDD11E",
">. c #FDD11F",
",. c #FDD21F",
"<. c #FCD41C",
"1. c #FFD71E",
"2. c #FFD81F",
"3. c #E9C325",
"4. c #ECCA2A",
"5. c #FFD820",
"6. c #FFD821",
"7. c #FFD822",
"8. c #FFD924",
"9. c #FFD925",
"0. c #FFD926",
"q. c #FFD927",
"w. c #FFD928",
"e. c #FFDA28",
"r. c #FFDA2B",
"t. c #FFDB2D",
"y. c None",
/* pixels */
"y.y.y.y.y.y.y.y.y.y.y.y.y.y.y.y.",
"u 7 1 , > ; - = @ + O o X .   7 ",
"i r e 0 9 8 1 < , > ; = * @ + r ",
"p y t w q 6 5 4 3 2 : & % $ # y ",
"b v c x x z k j h h g f d s a l ",
"P Y U J H F Z C D S B N M m n K ",
"I W E R T U J H G A C D S V B L ",
")  .| } { [ ] ' ` _ / ^ ~ ! Q ( ",
"$.<.w.t.r.e.q.0.9.8.7.6.5.2.1.4.",
"X.O.O.@.#.%.&.*.;.>.,.,.:.-.=.3.",
"o.@.@.@.@.@.@.+.+.+.+.+.+.+.+...",
"y.y.y.y.y.y.y.y.y.y.y.y.y.y.y.y."
};
