/* XPM */
static const char *language_de_xpm[] = {
/* columns rows colors chars-per-pixel */
"16 16 16 1",
"  c black",
". c #00002B",
"X c #540000",
"o c #752D00",
"O c #54002B",
"+ c #752D2B",
"@ c #002D6C",
"# c #945100",
"$ c #005189",
"% c #2E71A5",
"& c #5490C0",
"* c #75ADC0",
"= c #D0C989",
"- c #D0C9A5",
"; c #B3C9C0",
": c None",
/* pixels */
"::::::::::::::::",
"::::::::::::::::",
"::::::::::::::::",
"::::::::::::::::",
"=o   $::=X   $::",
"=+*:-o@;=O*:::::",
"=+*::=X&=O*:::::",
"=+*:::#%=X  .*::",
"=+*:::#&=O*:::::",
"=+*::=O*=O*:::::",
"=+*::#@;=O*:::::",
"=o   $::=X   $::",
"::::::::::::::::",
"::::::::::::::::",
"::::::::::::::::",
"::::::::::::::::"
};
