/* XPM */
static const char *language_en_xpm[] = {
/* columns rows colors chars-per-pixel */
"16 12 122 2",
"   c #81446A",
".  c #83577B",
"X  c #CC4058",
"o  c #CC4158",
"O  c #CC4259",
"+  c #CD435A",
"@  c #CD445B",
"#  c #CE455C",
"$  c #CE465D",
"%  c #CE475D",
"&  c #C0485C",
"*  c #CF4A61",
"=  c #CF4B61",
"-  c #CF4C62",
";  c #CF4D63",
":  c #D04E64",
">  c #D04F64",
",  c #C25164",
"<  c #C55A6D",
"1  c #D05065",
"2  c #D05166",
"3  c #D05167",
"4  c #D15368",
"5  c #D15469",
"6  c #D1556A",
"7  c #D1566A",
"8  c #D2576B",
"9  c #C36877",
"0  c #C46878",
"q  c #CB6C7C",
"w  c #D06577",
"e  c #D06678",
"r  c #D96B7D",
"t  c #D96B7E",
"y  c #D96C7F",
"u  c #DA6D7F",
"i  c #2C4E83",
"p  c #2F5084",
"a  c #305085",
"s  c #315186",
"d  c #335386",
"f  c #345386",
"g  c #345487",
"h  c #355487",
"j  c #395582",
"k  c #3E5985",
"l  c #355588",
"z  c #365588",
"x  c #375688",
"c  c #395889",
"v  c #3B598A",
"b  c #3C5A8B",
"n  c #3D5B8C",
"m  c #3D5D8E",
"M  c #405A85",
"N  c #405B86",
"B  c #415E8E",
"V  c #425F8F",
"C  c #42608F",
"Z  c #44608F",
"A  c #456290",
"S  c #456291",
"D  c #476492",
"F  c #486492",
"G  c #876284",
"H  c #DA6E80",
"J  c #DA6F81",
"K  c #C67482",
"L  c #CD7B89",
"P  c #D37383",
"I  c #D37483",
"U  c #D47685",
"Y  c #D77E8C",
"T  c #DC7C8C",
"R  c #DC7D8D",
"E  c #DD7E8E",
"W  c #DD7F8F",
"Q  c #9284A2",
"!  c #989CB6",
"~  c #CE8591",
"^  c #DD8090",
"/  c #DD8190",
"(  c #DA8492",
")  c #DD8897",
"_  c #DC8997",
"`  c #DF8A98",
"'  c #DF8A99",
"]  c #DF8B99",
"[  c #DE8C99",
"{  c #DE8C9A",
"}  c #DF8C9A",
"|  c #DAACB4",
" . c #DBACB4",
".. c #EBB5BE",
"X. c #EBB5BF",
"o. c #EBB6BF",
"O. c #EBB7BF",
"+. c #A5B4C5",
"@. c #A9BCD1",
"#. c #ABBDD1",
"$. c #ABBDD2",
"%. c #ACBED2",
"&. c #D0BBC8",
"*. c #EBB7C0",
"=. c #ECB7C0",
"-. c #ECB8C0",
";. c #ECB8C1",
":. c #E0CED1",
">. c #E5D4D6",
",. c #E6D6D9",
"<. c #F4DEE2",
"1. c #F7E3E6",
"2. c #F7E3E7",
"3. c #F7E4E7",
"4. c #F8E6E9",
"5. c #F8E7E9",
"6. c #F8E6EA",
"7. c #F8E7EA",
"8. c #F9E8EA",
"9. c #F9E8EB",
"0. c #F9E9EC",
"q. c None",
/* pixels */
"q.q.q.q.q.q.q.q.q.q.q.q.q.q.q.q.",
"j g d s a i . J J J H u y t r q ",
"k x z h f p G / ^ W W E R R T L ",
"N n b v c l ! 3.3.3.2.2.1.1.2.>.",
"N A Z V B m   % $ # @ + O o X & ",
"M F D S A C Q =.=.*.O.o.X.X...| ",
"+.%.%.$.#.@.&.;.-.=.*.o.o.o... .",
"< 8 7 6 5 4 3 2 1 > : ; - = * , ",
":.<.2.0.9.8.5.7.6.5.4.4.4.4.4.,.",
"K I P U Y ( _ { [ } ] ] ' ` ) ~ ",
"0 e e e e e e w w w w w w w w 9 ",
"q.q.q.q.q.q.q.q.q.q.q.q.q.q.q.q."
};
