/* XPM */
static const char *language_it_xpm[] = {
"16 16 6 1",
" 	c None",
".	c #009246",
"+	c #CDDED2",
"@	c #FFFFFF",
"#	c #EECFD0",
"$	c #CE2B37",
"                ",
"                ",
".....+@@@@#$$$$$",
".....+@@@@#$$$$$",
".....+@@@@#$$$$$",
".....+@@@@#$$$$$",
".....+@@@@#$$$$$",
".....+@@@@#$$$$$",
".....+@@@@#$$$$$",
".....+@@@@#$$$$$",
".....+@@@@#$$$$$",
".....+@@@@#$$$$$",
".....+@@@@#$$$$$",
".....+@@@@#$$$$$",
"                ",
"                "};
