/* XPM */
static const char *language_zh_xpm[] = {
/* columns rows colors chars-per-pixel */
"16 12 127 2",
"   c #D5250C",
".  c #D5250D",
"X  c #D6250C",
"o  c #D6250D",
"O  c #D6260D",
"+  c #D5260E",
"@  c #D6260E",
"#  c #D6270F",
"$  c #DF290F",
"%  c #DF2A11",
"&  c #DF2B12",
"*  c #DF2C13",
"=  c #DD2D15",
"-  c #DE2E16",
";  c #DE2F17",
":  c #D92F18",
">  c #DF2F1C",
",  c #C8311C",
"<  c #C8321D",
"1  c #D1341E",
"2  c #DF3018",
"3  c #DF3119",
"4  c #DE321A",
"5  c #DF321A",
"6  c #DE331B",
"7  c #DE331C",
"8  c #DE321D",
"9  c #DE331D",
"0  c #DB351E",
"q  c #DF341D",
"w  c #DF351E",
"e  c #DF361E",
"r  c #E02D14",
"t  c #E02E15",
"y  c #E02F16",
"u  c #E02F19",
"i  c #E03018",
"p  c #E1331D",
"a  c #E1341C",
"s  c #E1361E",
"d  c #E0371F",
"f  c #E0391F",
"g  c #E13F1E",
"h  c #CF3722",
"j  c #CC3D2A",
"k  c #DF3720",
"l  c #DF3427",
"z  c #D03A25",
"x  c #DF3821",
"c  c #DF3822",
"v  c #DF3922",
"b  c #DF3A23",
"n  c #DF3824",
"m  c #DC3B24",
"M  c #DF3B24",
"N  c #DF3E27",
"B  c #D03D29",
"V  c #DF3A29",
"C  c #DD3E28",
"Z  c #DE3F29",
"A  c #E03821",
"S  c #E03822",
"D  c #E03B24",
"F  c #E03C25",
"G  c #E03C26",
"H  c #E13D27",
"J  c #E03D28",
"K  c #E13D28",
"L  c #E13E28",
"P  c #E03D2B",
"I  c #EA6515",
"U  c #E86419",
"Y  c #D2402B",
"T  c #D1402C",
"R  c #D1432F",
"E  c #DF4029",
"W  c #DF402A",
"Q  c #DF422C",
"!  c #CF4431",
"~  c #D24532",
"^  c #D24633",
"/  c #D24835",
"(  c #D24936",
")  c #D24B38",
"_  c #D34E3B",
"`  c #D3513E",
"'  c #E14020",
"]  c #E14222",
"[  c #E24520",
"{  c #E24726",
"}  c #E04029",
"|  c #E0402A",
" . c #E1402B",
".. c #E0412B",
"X. c #E1412B",
"o. c #E1402D",
"O. c #E0422C",
"+. c #E1422C",
"@. c #E1432C",
"#. c #E0432D",
"$. c #E2432D",
"%. c #E1442E",
"&. c #E1452F",
"*. c #E2442E",
"=. c #E2452E",
"-. c #E2452F",
";. c #E75E26",
":. c #E55728",
">. c #E14630",
",. c #E14731",
"<. c #E24630",
"1. c #E14732",
"2. c #E24732",
"3. c #E24833",
"4. c #E24834",
"5. c #E24934",
"6. c #E14A35",
"7. c #E34A35",
"8. c #E34B36",
"9. c #E34D38",
"0. c #E34E3A",
"q. c #ED831C",
"w. c #ED801F",
"e. c #F4A31C",
"r. c #ED8324",
"t. c #FFE018",
"y. c None",
/* pixels */
"y.y.y.y.y.y.y.y.y.y.y.y.y.y.y.y.",
"Y s p a > I u i y t r * & % $ 1 ",
"R ] q.' f g U 8 7 5 4 2 ; - = h ",
"~ { t.e.n c [ k d e q 7 6 4 3 z ",
"/  .:.;.J l w.n v S A d e w 9 B ",
") %.$.+.P r.V L H G D b v x d T ",
"_ 2.,.<.=.o.@.+...} L H G F M R ",
"` 8.7.4.3.,.>.&.$.$.+.X.| L K ^ ",
"j Z 6.0.9.7.5.3.1.,.-.*.$.+.+.( ",
"< + . # : 0 m C W O.Q #.Q E N ! ",
"< @ @ @ @ @ O o o X X   X X o , ",
"y.y.y.y.y.y.y.y.y.y.y.y.y.y.y.y."
};
