/* XPM */
static const char *p_xpm[] = {
"128 128 2 1",
"   c None",
".  c Gray100",
"                                                                                                                                ",
"                                                                                                                                ",
"                                                               ..                                                               ",
"                                                               ..                                                               ",
"                                                              ....                                                              ",
"                                                              ....                                                              ",
"                                                              ....                                                              ",
"                                                              ....                                                              ",
"                                                             ......                                                             ",
"                                                             ......                                                             ",
"                                                             ......                                                             ",
"                                                            ........                                                            ",
"                                                            ........                                                            ",
"                                                            ........                                                            ",
"                                                            ........                                                            ",
"                                                           ..........                                                           ",
"                                                           ..........                                                           ",
"                                                           ..........                                                           ",
"                                                           ..........                                                           ",
"                                                          ............                                                          ",
"                                                          ............                                                          ",
"                                                         ..............                                                         ",
"                                                         ..............                                                         ",
"                                                         ..............                                                         ",
"                                                         ..............                                                         ",
"                                                        ................                                                        ",
"                                                        ................                                                        ",
"                                                       .................                                                        ",
"                                                       .................                                                        ",
"                                                       ..................                                                       ",
"                                                       ..................                                                       ",
"                                                       ..................                                                       ",
"                                                      ....................                                                      ",
"                                                      ....................                                                      ",
"                                                      ....................                                                      ",
"                                                     ......................                                                     ",
"                                                     ......................                                                     ",
"                                                     ......................                                                     ",
"                                                              ....                                                              ",
"                                                              ....                                                              ",
"                                                              ....                                                              ",
"                                                              ....                                                              ",
"                                                              ....                                                              ",
"                                                              ....                                                              ",
"                                                              ....                                                              ",
"                                                              ....                                                              ",
"                                                              ....                                                              ",
"                                                              ....                                                              ",
"                                                              ....                                                              ",
"                                                              ....                                                              ",
"                                                              ....                                                              ",
"                                                              ....                                                              ",
"                                                              ....                                                              ",
"                                                              ....                                                              ",
"                                                              ....                                                              ",
"                                                              ....                                                              ",
"                                                              ....                                                              ",
"                                                              ....                                                              ",
"                                                              ....                                                              ",
"                                                              ....                                                              ",
"                                                              ....                                                              ",
"                                                              ....                                                              ",
"                                                              ....                                                              ",
"                                                              ....                                                              ",
"                                                              ....                                                              ",
"                                                              ....                                                              ",
"                                                              ....                                                              ",
"                                                              ....                                                              ",
"                                                              ....                                                              ",
"                                                              ....                                                              ",
"                                                              ....                                                              ",
"                                                              ....                                                              ",
"                                                              ....                                                              ",
"                                                              ....                                                              ",
"                                                              ....                                                              ",
"                                                              ....                                                              ",
"                                                              ....                                                              ",
"                                                              ....                                                              ",
"                                                              ....                                                              ",
"                                                              ....                                                              ",
"                                                              ....                                                              ",
"                                                              ....                                                              ",
"                                                              ....                                                              ",
"                                                              ....                                                              ",
"                                                              ....                                                              ",
"                                                              ....                                                              ",
"                                                              ....                                                              ",
"                                                              ....                                                              ",
"                                                              ....                                                              ",
"                                                              ....                                                              ",
"                                                              ....                                                              ",
"                                                              ....                                                              ",
"                                                              ....                                                              ",
"                                                              ....                                                              ",
"                                                              ....                                                              ",
"                                                              ....                                                              ",
"                                                              ....                                                              ",
"                                                              ....                                                              ",
"                                                              ....                                                              ",
"                                                              ....                                                              ",
"                                                              ....                                                              ",
"                                                              ....                                                              ",
"                                                              ....                                                              ",
"                                                              ....                                                              ",
"                                                              ....                                                              ",
"                                                              ....                                                              ",
"                                                              ....                                                              ",
"                                                              ....                                                              ",
"                                                              ....                                                              ",
"                                                              ....                                                              ",
"                                                              ....                                                              ",
"                                                              ....                                                              ",
"                                                              ....                                                              ",
"                                                              ....                                                              ",
"                                                              ....                                                              ",
"                                                              ....                                                              ",
"                                                              ....                                                              ",
"                                                              ....                                                              ",
"                                                              ....                                                              ",
"                                                              ....                                                              ",
"                                                              ....                                                              ",
"                                                              ....                                                              ",
"                                                              ....                                                              ",
"                                                              ....                                                              ",
"                                                              ....                                                              ",
"                                                              ....                                                              ",
"                                                              ....                                                              ",
"                                                              ....                                                              "};
