/* XPM */
static const char *pr_2_xpm[] = {
"128 128 2 1",
"   c None",
".  c Gray100",
"                                                                                                                                ",
"                                                                                                                                ",
"                                                                                                                                ",
"                                                                                                                                ",
"                                                                                                                                ",
"                                                                                                                                ",
"                                                                                                                                ",
"                                                                                                                                ",
"                                                                                                                                ",
"                                                                                                                                ",
"                                                                                                                                ",
"                                                                                                                                ",
"                                                                                                                                ",
"                                                                                                                                ",
"                                                                                                                                ",
"                                                                                                                                ",
"                                                                                                                                ",
"                                                                                                                                ",
"                                                                                                                                ",
"                                                                                                                                ",
"                                                                                                                                ",
"                                                                                                                                ",
"                                                                                                                                ",
"                                                                                                                                ",
"                                                                                                                                ",
"                                                                                                                                ",
"                                                                                                                                ",
"                                                                                                                                ",
"                                                                                                                                ",
"                                                                                                                                ",
"                                                                                                                                ",
"                                                                                                                                ",
"                                                                                                                                ",
"                                                                                                                                ",
"                                                                                                                                ",
"                                                                                                                                ",
"                                                                                                                                ",
"                                                                                                                                ",
"                                                                                                                                ",
"                                                                                                                                ",
"                                                                                                                                ",
"                                                                                                                                ",
"                                                                                                                                ",
"                                                                                                                                ",
"                                                                                                                                ",
"                                                                                                                                ",
"                                                                                                                                ",
"                                                                                                                                ",
"                                                                                                                                ",
"                                                                                                                                ",
"                                                                                                                                ",
"                                                                                                                                ",
"                                                                                                                                ",
"                                                                                                                                ",
"                                                                                                                                ",
"                                                                                                                                ",
"                                                                                                                                ",
"                                                                                                                                ",
"                                                                                                                                ",
"                                                                                                                                ",
"                                                                                                                                ",
"                                                                                    ..                                          ",
"                                                                                    ......                                      ",
"                                                                                    ...........                                 ",
"                                                                                    ..............                              ",
"                                                                                    ..................                          ",
"                                                                                    ......................                      ",
"                                                                                    ............................                ",
"                                                                                    .................................           ",
"                                                              ...........................................................       ",
"                                                              ................................................................. ",
"                                                              ................................................................. ",
"                                                              .............................................................     ",
"                                                              ....                  ...............................             ",
"                                                              ....                  ..........................                  ",
"                                                              ....                  ......................                      ",
"                                                              ....                  ..................                          ",
"                                                              ....                  ...............                             ",
"                                                              ....                  ......                                      ",
"                                                              ....                  ..                                          ",
"                                                              ....                                                              ",
"                                                              ....                                                              ",
"                                                              ....                                                              ",
"                                                              ....                                                              ",
"                                                              ....                                                              ",
"                                                              ....                                                              ",
"                                                              ....                                                              ",
"                                                              ....                                                              ",
"                                                              ....                                                              ",
"                                                              ....                                                              ",
"                                                              ....                                                              ",
"                                                              ....                                                              ",
"                                                              ....                                                              ",
"                                                              ....                                                              ",
"                                                              ....                                                              ",
"                                                              ....                                                              ",
"                                                              ....                                                              ",
"                                                              ....                                                              ",
"                                                              ....                                                              ",
"                                                              ....                                                              ",
"                                                              ....                                                              ",
"                                                              ....                                                              ",
"                                                              ....                                                              ",
"                                                              ....                                                              ",
"                                                              ....                                                              ",
"                                                              ....                                                              ",
"                                                              ....                                                              ",
"                                                              ....                                                              ",
"                                                              ....                                                              ",
"                                                              ....                                                              ",
"                                                              ....                                                              ",
"                                                              ....                                                              ",
"                                                              ....                                                              ",
"                                                              ....                                                              ",
"                                                              ....                                                              ",
"                                                              ....                                                              ",
"                                                              ....                                                              ",
"                                                              ....                                                              ",
"                                                              ....                                                              ",
"                                                              ....                                                              ",
"                                                              ....                                                              ",
"                                                              ....                                                              ",
"                                                              ....                                                              ",
"                                                              ....                                                              ",
"                                                              ....                                                              ",
"                                                              ....                                                              ",
"                                                              ....                                                              ",
"                                                              ....                                                              "};
