/* XPM */
static char const *redo_xpm[]={
/* width height ncolors chars_per_pixel */
"16 16 66 2",
".# c None",
"Qt c None",
".a c #000000",
".2 c #237733",
".V c #338438",
".N c #44913e",
".D c #589f43",
".1 c #60a63f",
".6 c #62a740",
".9 c #6aaf3c",
"## c #6eb23e",
"#. c #70b33f",
".c c #79b463",
".0 c #7cba49",
".7 c #80bd45",
".C c #81bd45",
".B c #81be46",
".T c #82be4a",
".3 c #84c047",
".A c #89c349",
".f c #8abc6d",
".8 c #8ac449",
".M c #8bc54a",
".4 c #8fc74b",
".X c #90c74e",
".z c #90c84c",
".U c #91c84c",
".L c #92c94d",
".t c #93c46a",
".m c #97c677",
".5 c #99ce50",
".Y c #9acf50",
".K c #9bce50",
".y c #9cce5b",
".R c #9ed054",
".J c #a0d253",
".W c #a2ce74",
".Z c #a2d453",
".S c #a3d453",
".I c #a4d554",
".Q c #aad572",
".x c #acd672",
".O c #b4d793",
".H c #b9dd8b",
".b c #bada9c",
".r c #bddca3",
".P c #bdde98",
".d c #c0dea1",
".q c #c4e0aa",
".u c #c8e2ab",
".E c #c8e3a8",
".G c #cbe5aa",
".p c #cce5b3",
".F c #d0e7b5",
".n c #d3e8ba",
".o c #d4e9bd",
".g c #d8ebc3",
".s c #daebcd",
".w c #daecc7",
".k c #dbebce",
".v c #dbecc7",
".j c #dcedcf",
".h c #deeecb",
".i c #dfeed0",
".l c #eaf3e2",
".e c #f0f7ec",
"QtQtQtQtQtQtQtQtQtQtQtQtQtQtQtQt",
"QtQtQtQtQtQtQtQtQtQt.#.#QtQtQtQt",
"QtQtQtQtQtQtQtQtQt.#.a.a.#QtQtQt",
"QtQtQtQtQtQt.#.#.#.a.b.c.a.#QtQt",
"QtQtQtQtQt.#.a.a.a.a.d.e.f.a.#Qt",
"QtQtQt.#.#.a.g.g.h.i.j.k.l.m.a.#",
"QtQt.#.a.a.n.g.g.g.o.p.q.r.s.t.a",
"Qt.#.a.u.v.w.g.g.x.y.z.A.B.C.D.a",
".#.a.E.F.G.H.I.I.I.J.K.L.M.N.a.#",
".a.O.P.Q.R.S.I.a.a.a.T.U.V.a.#Qt",
".a.W.X.Y.Z.0.a.#.#.a.1.2.a.#QtQt",
".a.3.4.5.6.a.#QtQt.#.a.a.#QtQtQt",
".a.7.8.4.a.#QtQtQtQt.#.#QtQtQtQt",
".a.9#.##.a.#QtQtQtQtQtQtQtQtQtQt",
".#.a.a.a.#QtQtQtQtQtQtQtQtQtQtQt",
".#.#.#.#QtQtQtQtQtQtQtQtQtQtQtQt"};
