/* XPM */
static const char * show_grid_xpm[] = {
"16 16 2 1",
"   c None",
".  c Black",
"  .    .    .   ",
"  .    .    .   ",
"................",
"  .    .    .   ",
"  .    .    .   ",
"  .    .    .   ",
"  .    .    .   ",
"................",
"  .    .    .   ",
"  .    .    .   ",
"  .    .    .   ",
"  .    .    .   ",
"................",
"  .    .    .   ",
"  .    .    .   ",
"  .    .    .   "};
