<?xml version="1.0" encoding="UTF-8" standalone="no"?>
<svg xmlns="http://www.w3.org/2000/svg"
     xmlns:xlink="http://www.w3.org/1999/xlink"
     width="1277px" height="705px" viewBox="0 0 1277 705">
<title>D:\projects\sumo\rbuild\sumo\tests\sumo\output\examples\cross3ltl_inductloops\cil.svg</title>
<desc>
Creator: GL2PS 1.3.6, (C) 1999-2011 C. Geuzaine
For: sumo-gui; http://sumo.sf.net
CreationDate: Tue Sep 13 10:57:07 2011
</desc>
<defs>
</defs>
<polygon fill="#ffffff" points="0,0 1277,0 1277,705 0,705"/>
<g shape-rendering="crispEdges">
<polygon fill="#000000" points="23.804,682.245 23.9812,682.258 24.2053,680.631"/>
<polygon fill="#000000" points="118.501,681.356 118.502,682.753 118.875,681.034"/>
<polygon fill="#000000" points="126.852,687.525 124.682,684.009 124.682,687.525"/>
<polygon fill="#000000" points="126.852,687.525 124.687,683.945 124.682,684.009"/>
<polygon fill="#000000" points="126.852,687.525 124.69,683.88 124.687,683.945"/>
<polygon fill="#000000" points="126.852,687.525 124.692,683.847 124.69,683.88"/>
<polygon fill="#000000" points="126.852,687.525 124.694,683.768 124.692,683.847"/>
<polygon fill="#000000" points="126.852,687.525 124.696,683.665 124.694,683.768"/>
<polygon fill="#000000" points="126.852,687.525 124.696,683.604 124.696,683.665"/>
<polygon fill="#000000" points="126.852,687.525 126.244,681.335 125.978,681.077"/>
<polygon fill="#000000" points="126.852,687.525 126.633,682.013 126.244,681.335"/>
<polygon fill="#000000" points="126.852,687.525 126.827,682.897 126.633,682.013"/>
<polygon fill="#000000" points="126.852,687.525 126.852,683.417 126.827,682.897"/>
<polygon fill="#000000" points="122.508,687.525 120.339,684.009 120.339,687.525"/>
<polygon fill="#000000" points="122.508,687.525 120.746,680.672 120.339,684.009"/>
<polygon fill="#000000" points="122.508,687.525 121.227,680.834 120.746,680.672"/>
<polygon fill="#000000" points="122.508,687.525 121.447,680.955 121.227,680.834"/>
<polygon fill="#000000" points="122.508,687.525 121.835,681.268 121.447,680.955"/>
<polygon fill="#000000" points="122.508,687.525 122.14,681.668 121.835,681.268"/>
<polygon fill="#000000" points="122.614,681.447 122.525,683.848 122.637,683.227"/>
<polygon fill="#000000" points="122.614,681.447 122.508,684.212 122.525,683.848"/>
<polygon fill="#000000" points="122.262,681.9 122.508,684.212 122.614,681.447"/>
<polygon fill="#000000" points="122.262,681.9 122.508,687.525 122.508,684.212"/>
<polygon fill="#000000" points="122.14,681.668 122.508,687.525 122.262,681.9"/>
<polygon fill="#000000" points="123.015,681.089 123.356,682.326 123.234,680.946"/>
<polygon fill="#000000" points="123.015,681.089 122.999,682.569 123.356,682.326"/>
<polygon fill="#000000" points="123.015,681.089 122.854,682.751 122.999,682.569"/>
<polygon fill="#000000" points="123.015,681.089 122.637,683.227 122.854,682.751"/>
<polygon fill="#000000" points="123.015,681.089 122.614,681.447 122.637,683.227"/>
<polygon fill="#000000" points="123.702,680.736 123.804,682.245 124.205,680.631"/>
<polyline fill="none" stroke="#000000" stroke-width="1" points="12.77,697.511 112.77,697.511"/>
<polyline fill="none" stroke="#000000" stroke-width="1" points="12.77,697.511 12.77,690.021"/>
<polyline fill="none" stroke="#000000" stroke-width="1" points="112.77,697.511 112.77,690.021"/>
<polygon fill="#000000" points="14.3805,683.04 14.3421,682.185 14.2263,684.663"/>
<polygon fill="#000000" points="14.2263,684.663 14.3421,682.185 14.0337,680.721"/>
<polygon fill="#000000" points="14.2263,684.663 14.0337,680.721 13.7636,685.959"/>
<polygon fill="#000000" points="13.7636,685.959 14.0337,680.721 13.4168,679.586"/>
<polygon fill="#000000" points="13.7636,685.959 13.4168,679.586 13.4168,686.485"/>
<polygon fill="#000000" points="13.4168,686.485 13.4168,679.586 12.9989,679.149"/>
<polygon fill="#000000" points="13.4168,686.485 12.9989,679.149 12.516,687.262"/>
<polygon fill="#000000" points="12.516,687.262 12.9989,679.149 12.0619,683.021"/>
<polygon fill="#000000" points="12.516,687.262 12.0619,683.021 12.0491,683.663"/>
<polygon fill="#000000" points="11.7443,680.646 11.8585,680.961 11.969,678.567"/>
<polygon fill="#000000" points="11.969,678.567 11.8585,680.961 12.0112,681.832"/>
<polygon fill="#000000" points="11.969,678.567 12.0112,681.832 12.9989,679.149"/>
<polygon fill="#000000" points="12.9989,679.149 12.0112,681.832 12.0619,683.021"/>
<polygon fill="#000000" points="10.1509,680.067 10.6797,679.957 10.6797,678.373"/>
<polygon fill="#000000" points="10.6797,678.373 10.6797,679.957 10.9615,679.984"/>
<polygon fill="#000000" points="10.6797,678.373 10.9615,679.984 11.969,678.567"/>
<polygon fill="#000000" points="11.969,678.567 10.9615,679.984 11.422,680.205"/>
<polygon fill="#000000" points="11.969,678.567 11.422,680.205 11.7443,680.646"/>
<polygon fill="#000000" points="10.0026,678.421 8.84134,678.81 9.41019,681.357"/>
<polygon fill="#000000" points="10.0026,678.421 9.41019,681.357 9.61406,680.646"/>
<polygon fill="#000000" points="10.0026,678.421 9.61406,680.646 9.75868,680.398"/>
<polygon fill="#000000" points="10.0026,678.421 9.75868,680.398 10.1509,680.067"/>
<polygon fill="#000000" points="10.0026,678.421 10.1509,680.067 10.6797,678.373"/>
<polygon fill="#000000" points="8.84134,678.81 7.94056,679.586 8.35839,686.922"/>
<polygon fill="#000000" points="8.84134,678.81 8.35839,686.922 9.38941,687.505"/>
<polygon fill="#000000" points="8.84134,678.81 9.38941,687.505 9.29548,683.021"/>
<polygon fill="#000000" points="8.84134,678.81 9.29548,683.021 9.30827,682.386"/>
<polygon fill="#000000" points="8.84134,678.81 9.30827,682.386 9.41019,681.357"/>
<polygon fill="#000000" points="12.516,687.262 12.0491,683.663 11.9466,684.705"/>
<polygon fill="#000000" points="12.516,687.262 11.9466,684.705 11.7417,685.424"/>
<polygon fill="#000000" points="12.516,687.262 11.7417,685.424 11.5971,685.676"/>
<polygon fill="#000000" points="12.516,687.262 11.5971,685.676 11.3569,687.65"/>
<polygon fill="#000000" points="11.5971,685.676 11.2059,686.011 11.3569,687.65"/>
<polygon fill="#000000" points="11.3569,687.65 11.2059,686.011 10.6797,686.123"/>
<polygon fill="#000000" points="11.3569,687.65 10.6797,686.123 10.6797,687.699"/>
<polygon fill="#000000" points="10.6797,687.699 10.6797,686.123 10.3985,686.095"/>
<polygon fill="#000000" points="10.6797,687.699 10.3985,686.095 9.93744,685.872"/>
<polygon fill="#000000" points="9.61406,685.424 9.49932,685.105 9.38941,687.505"/>
<polygon fill="#000000" points="9.61406,685.424 9.38941,687.505 10.6797,687.699"/>
<polygon fill="#000000" points="9.61406,685.424 10.6797,687.699 9.93744,685.872"/>
<polygon fill="#000000" points="9.34671,684.224 9.29548,683.021 9.38941,687.505"/>
<polygon fill="#000000" points="9.34671,684.224 9.38941,687.505 9.49932,685.105"/>
<polygon fill="#000000" points="6.97626,683.04 7.01523,683.892 7.13104,681.412"/>
<polygon fill="#000000" points="7.13104,681.412 7.01523,683.892 7.32368,685.352"/>
<polygon fill="#000000" points="7.13104,681.412 7.32368,685.352 7.5937,680.113"/>
<polygon fill="#000000" points="7.5937,680.113 7.32368,685.352 7.94056,686.485"/>
<polygon fill="#000000" points="7.5937,680.113 7.94056,686.485 7.94056,679.586"/>
<polygon fill="#000000" points="7.94056,679.586 7.94056,686.485 8.35839,686.922"/>
<polygon fill="#000000" points="15.9953,680.781 18.1645,687.525 18.1645,680.781"/>
<polygon fill="#000000" points="18.1645,680.781 18.1645,687.525 18.1645,684.207"/>
<polygon fill="#000000" points="18.1645,680.781 18.1645,684.207 18.1645,681.769"/>
<polygon fill="#000000" points="18.1645,681.769 18.1645,684.207 18.1779,683.846"/>
<polygon fill="#000000" points="18.1645,681.769 18.1779,683.846 18.5007,681.356"/>
<polygon fill="#000000" points="18.5007,681.356 18.1779,683.846 18.2862,683.23"/>
<polygon fill="#000000" points="18.5007,681.356 18.2862,683.23 18.5018,682.753"/>
<polygon fill="#000000" points="19.6438,682.258 19.9437,682.361 19.9688,680.63"/>
<polygon fill="#000000" points="19.9688,680.63 19.9437,682.361 20.1459,682.566"/>
<polygon fill="#000000" points="19.9688,680.63 20.1459,682.566 20.2132,680.618"/>
<polygon fill="#000000" points="20.2132,680.618 20.1459,682.566 20.2153,682.727"/>
<polygon fill="#000000" points="20.2132,680.618 20.2153,682.727 20.7463,680.672"/>
<polygon fill="#000000" points="20.7463,680.672 20.2153,682.727 20.3082,683.24"/>
<polygon fill="#000000" points="20.7463,680.672 20.3082,683.24 20.3391,684.009"/>
<polygon fill="#000000" points="18.5018,682.753 18.648,682.57 18.8748,681.034"/>
<polygon fill="#000000" points="18.8748,681.034 18.648,682.57 19.0082,682.326"/>
<polygon fill="#000000" points="18.8748,681.034 19.0082,682.326 19.0765,680.907"/>
<polygon fill="#000000" points="19.0765,680.907 19.0082,682.326 19.4581,682.245"/>
<polygon fill="#000000" points="19.0765,680.907 19.4581,682.245 19.5056,680.722"/>
<polygon fill="#000000" points="19.5056,680.722 19.4581,682.245 19.6438,682.258"/>
<polygon fill="#000000" points="19.5056,680.722 19.6438,682.258 19.9688,680.63"/>
<polygon fill="#000000" points="25.3137,680.733 24.4711,680.618 24.4844,682.566"/>
<polygon fill="#000000" points="25.3137,680.733 24.4844,682.566 24.5602,682.711"/>
<polygon fill="#000000" points="25.3137,680.733 24.5602,682.711 24.6621,683.094"/>
<polygon fill="#000000" points="25.3137,680.733 24.6621,683.094 24.6957,683.604"/>
<polygon fill="#000000" points="25.3137,680.733 24.6957,683.604 26.8517,687.525"/>
<polygon fill="#000000" points="25.3137,680.733 26.8517,687.525 25.9781,681.077"/>
<polygon fill="#000000" points="118.165,687.525 115.995,680.781 115.995,687.525"/>
<polygon fill="#000000" points="24.2053,680.631 23.9812,682.258 24.2736,682.361"/>
<polygon fill="#000000" points="24.2053,680.631 24.2736,682.361 24.4711,680.618"/>
<polygon fill="#000000" points="24.4711,680.618 24.2736,682.361 24.4844,682.566"/>
<polygon fill="#000000" points="23.7016,680.736 23.2336,680.946 23.3563,682.326"/>
<polygon fill="#000000" points="23.7016,680.736 23.3563,682.326 23.804,682.245"/>
<polygon fill="#000000" points="23.7016,680.736 23.804,682.245 24.2053,680.631"/>
<polygon fill="#000000" points="23.0148,681.089 22.614,681.447 22.6375,683.227"/>
<polygon fill="#000000" points="23.0148,681.089 22.6375,683.227 22.8536,682.751"/>
<polygon fill="#000000" points="23.0148,681.089 22.8536,682.751 22.9988,682.569"/>
<polygon fill="#000000" points="23.0148,681.089 22.9988,682.569 23.3563,682.326"/>
<polygon fill="#000000" points="23.0148,681.089 23.3563,682.326 23.2336,680.946"/>
<polygon fill="#000000" points="22.1401,681.668 22.5078,687.525 22.2618,681.9"/>
<polygon fill="#000000" points="22.2618,681.9 22.5078,687.525 22.5078,684.212"/>
<polygon fill="#000000" points="22.2618,681.9 22.5078,684.212 22.614,681.447"/>
<polygon fill="#000000" points="22.614,681.447 22.5078,684.212 22.5254,683.848"/>
<polygon fill="#000000" points="22.614,681.447 22.5254,683.848 22.6375,683.227"/>
<polygon fill="#000000" points="22.5078,687.525 22.1401,681.668 21.8349,681.268"/>
<polygon fill="#000000" points="22.5078,687.525 21.8349,681.268 21.4475,680.955"/>
<polygon fill="#000000" points="22.5078,687.525 21.4475,680.955 21.2271,680.834"/>
<polygon fill="#000000" points="22.5078,687.525 21.2271,680.834 20.7463,680.672"/>
<polygon fill="#000000" points="22.5078,687.525 20.7463,680.672 20.3391,684.009"/>
<polygon fill="#000000" points="22.5078,687.525 20.3391,684.009 20.3391,687.525"/>
<polygon fill="#000000" points="26.8517,687.525 26.8517,683.417 26.8271,682.897"/>
<polygon fill="#000000" points="26.8517,687.525 26.8271,682.897 26.6329,682.013"/>
<polygon fill="#000000" points="26.8517,687.525 26.6329,682.013 26.2439,681.335"/>
<polygon fill="#000000" points="26.8517,687.525 26.2439,681.335 25.9781,681.077"/>
<polygon fill="#000000" points="26.8517,687.525 24.6957,683.604 24.6957,683.665"/>
<polygon fill="#000000" points="26.8517,687.525 24.6957,683.665 24.6941,683.768"/>
<polygon fill="#000000" points="26.8517,687.525 24.6941,683.768 24.692,683.847"/>
<polygon fill="#000000" points="26.8517,687.525 24.692,683.847 24.6899,683.88"/>
<polygon fill="#000000" points="26.8517,687.525 24.6899,683.88 24.6867,683.945"/>
<polygon fill="#000000" points="26.8517,687.525 24.6867,683.945 24.6824,684.009"/>
<polygon fill="#000000" points="26.8517,687.525 24.6824,684.009 24.6824,687.525"/>
<polygon fill="#000000" points="18.5007,681.356 18.5018,682.753 18.8748,681.034"/>
<polygon fill="#000000" points="18.1645,687.525 15.9953,680.781 15.9953,687.525"/>
<polygon fill="#000000" points="109.879,680.112 109.879,685.922 112.073,685.922"/>
<polygon fill="#000000" points="109.879,680.112 112.073,685.922 112.073,678.536"/>
<polygon fill="#000000" points="109.879,680.112 112.073,678.536 109.869,678.536"/>
<polygon fill="#000000" points="109.879,680.112 109.869,678.536 107.777,678.97"/>
<polygon fill="#000000" points="109.879,680.112 107.777,678.97 107.777,680.545"/>
<polygon fill="#000000" points="114.121,687.525 114.121,685.922 112.073,685.922"/>
<polygon fill="#000000" points="114.121,687.525 112.073,685.922 109.879,685.922"/>
<polygon fill="#000000" points="114.121,687.525 109.879,685.922 107.831,685.922"/>
<polygon fill="#000000" points="114.121,687.525 107.831,685.922 107.831,687.525"/>
<polygon fill="#000000" points="115.995,680.781 118.165,687.525 118.165,680.781"/>
<polygon fill="#000000" points="118.165,680.781 118.165,687.525 118.165,684.207"/>
<polygon fill="#000000" points="118.165,680.781 118.165,684.207 118.165,681.769"/>
<polygon fill="#000000" points="118.165,681.769 118.165,684.207 118.178,683.846"/>
<polygon fill="#000000" points="118.165,681.769 118.178,683.846 118.501,681.356"/>
<polygon fill="#000000" points="118.501,681.356 118.178,683.846 118.286,683.23"/>
<polygon fill="#000000" points="118.501,681.356 118.286,683.23 118.502,682.753"/>
<polygon fill="#000000" points="119.644,682.258 119.944,682.361 119.969,680.63"/>
<polygon fill="#000000" points="119.969,680.63 119.944,682.361 120.146,682.566"/>
<polygon fill="#000000" points="119.969,680.63 120.146,682.566 120.213,680.618"/>
<polygon fill="#000000" points="120.213,680.618 120.146,682.566 120.215,682.727"/>
<polygon fill="#000000" points="120.213,680.618 120.215,682.727 120.746,680.672"/>
<polygon fill="#000000" points="120.746,680.672 120.215,682.727 120.308,683.24"/>
<polygon fill="#000000" points="120.746,680.672 120.308,683.24 120.339,684.009"/>
<polygon fill="#000000" points="118.502,682.753 118.648,682.57 118.875,681.034"/>
<polygon fill="#000000" points="118.875,681.034 118.648,682.57 119.008,682.326"/>
<polygon fill="#000000" points="118.875,681.034 119.008,682.326 119.077,680.907"/>
<polygon fill="#000000" points="119.077,680.907 119.008,682.326 119.458,682.245"/>
<polygon fill="#000000" points="119.077,680.907 119.458,682.245 119.506,680.722"/>
<polygon fill="#000000" points="119.506,680.722 119.458,682.245 119.644,682.258"/>
<polygon fill="#000000" points="119.506,680.722 119.644,682.258 119.969,680.63"/>
<polygon fill="#000000" points="125.314,680.733 124.471,680.618 124.484,682.566"/>
<polygon fill="#000000" points="125.314,680.733 124.484,682.566 124.56,682.711"/>
<polygon fill="#000000" points="125.314,680.733 124.56,682.711 124.662,683.094"/>
<polygon fill="#000000" points="125.314,680.733 124.662,683.094 124.696,683.604"/>
<polygon fill="#000000" points="125.314,680.733 124.696,683.604 126.852,687.525"/>
<polygon fill="#000000" points="125.314,680.733 126.852,687.525 125.978,681.077"/>
<polygon fill="#000000" points="123.804,682.245 123.981,682.258 124.205,680.631"/>
<polygon fill="#000000" points="124.205,680.631 123.981,682.258 124.274,682.361"/>
<polygon fill="#000000" points="124.205,680.631 124.274,682.361 124.471,680.618"/>
<polygon fill="#000000" points="124.471,680.618 124.274,682.361 124.484,682.566"/>
<polygon fill="#000000" points="123.702,680.736 123.234,680.946 123.356,682.326"/>
<polygon fill="#000000" points="123.702,680.736 123.356,682.326 123.804,682.245"/>
<polygon fill="#ffffff" points="0,191.131 1277,181.579 0,181.579"/>
<polygon fill="#ffffff" points="0,191.131 1277,200.011 1277,181.579"/>
<polygon fill="#ffffff" points="0,523.421 1277,200.011 0,191.131"/>
<polygon fill="#ffffff" points="0,523.421 1277,523.421 1277,200.011"/>
<polygon fill="#ffffff" points="1277,0 0,191.638 1277,191.638"/>
<polygon fill="#ffffff" points="1277,0 0,0 0,191.638"/>
<polygon fill="#000000" points="1277,45.8697 1056.01,121.258 1277,121.258"/>
<polygon fill="#000000" points="1277,0 1227.82,0 1277,45.8697"/>
<polygon fill="#000000" points="1277,45.8697 1227.82,0 1056.01,0"/>
<polygon fill="#000000" points="1277,45.8697 1056.01,0 1056.01,121.258"/>
<polygon fill="#000000" points="20.5587,0 0,121.258 150.561,121.258"/>
<polygon fill="#000000" points="20.5587,0 0,0 0,121.258"/>
<polygon fill="#000000" points="150.561,0 20.5587,0 150.561,121.258"/>
<polygon fill="#000000" points="624.191,0 452.377,121.258 754.193,121.258"/>
<polygon fill="#000000" points="624.191,0 452.377,0 452.377,121.258"/>
<polygon fill="#000000" points="754.193,0 624.191,0 754.193,121.258"/>
<polygon fill="#000000" points="0,513.366 1277,208.981 0,200.623"/>
<polygon fill="#000000" points="0,200.623 1277,208.981 1277,191.634"/>
<polygon fill="#000000" points="0,200.623 1277,191.634 0,191.634"/>
<polygon fill="#000000" points="1277,0 0,181.583 1277,181.583"/>
<polygon fill="#000000" points="1277,0 0,0 0,181.583"/>
<polygon fill="#000000" points="0,513.366 1277,513.366 1277,208.981"/>
<polygon fill="#ffff00" points="839.707,453.042 839.707,251.958 437.285,251.958"/>
<polygon fill="#ffff00" points="437.285,453.042 839.707,453.042 437.285,251.958"/>
<polyline fill="none" stroke="#ffffff" stroke-width="1" points="437.285,251.958 437.285,453.042 839.707,453.042"/>
<polyline fill="none" stroke="#ffff00" stroke-width="1" points="447.346,352.5 829.646,352.5"/>
<polyline fill="none" stroke="#ffffff" stroke-width="1" points="638.496,181.579 638.496,523.421"/>
<polyline fill="none" stroke="#ffffff" stroke-width="1" points="839.707,251.958 437.285,251.958"/>
<polyline fill="none" stroke="#ffffff" stroke-width="1" points="839.707,453.042 839.707,251.958"/>
</g>
</svg>
