<?xml version="1.0" encoding="UTF-8" standalone="no"?>
<svg xmlns="http://www.w3.org/2000/svg"
     xmlns:xlink="http://www.w3.org/1999/xlink"
     width="1277px" height="705px" viewBox="0 0 1277 705">
<title>D:\projects\sumo\rbuild\sumo\tests\sumo\output\examples\cross3ltl_instant_inductloops\closeup.svg</title>
<desc>
Creator: GL2PS 1.3.6, (C) 1999-2011 C. Geuzaine
For: sumo-gui; http://sumo.sf.net
CreationDate: Tue Sep 13 12:36:55 2011
</desc>
<defs>
</defs>
<polygon fill="#ffffff" points="0,0 1277,0 1277,705 0,705"/>
<g shape-rendering="crispEdges">
<polygon fill="#000000" points="25.3137,680.733 24.5602,682.711 24.6621,683.094"/>
<polygon fill="#000000" points="88.5007,681.356 88.5018,682.753 88.8748,681.034"/>
<polygon fill="#000000" points="96.8517,687.525 94.6824,684.009 94.6824,687.525"/>
<polygon fill="#000000" points="96.8517,687.525 94.6867,683.945 94.6824,684.009"/>
<polygon fill="#000000" points="96.8517,687.525 94.6899,683.88 94.6867,683.945"/>
<polygon fill="#000000" points="96.8517,687.525 94.692,683.847 94.6899,683.88"/>
<polygon fill="#000000" points="96.8517,687.525 94.6942,683.768 94.692,683.847"/>
<polygon fill="#000000" points="96.8517,687.525 94.6957,683.665 94.6942,683.768"/>
<polygon fill="#000000" points="96.8517,687.525 94.6957,683.604 94.6957,683.665"/>
<polygon fill="#000000" points="96.8517,687.525 96.2439,681.335 95.9781,681.077"/>
<polygon fill="#000000" points="96.8517,687.525 96.6329,682.013 96.2439,681.335"/>
<polygon fill="#000000" points="96.8517,687.525 96.8271,682.897 96.6329,682.013"/>
<polygon fill="#000000" points="96.8517,687.525 96.8517,683.417 96.8271,682.897"/>
<polygon fill="#000000" points="92.5078,687.525 90.3391,684.009 90.3391,687.525"/>
<polygon fill="#000000" points="92.5078,687.525 90.7463,680.672 90.3391,684.009"/>
<polygon fill="#000000" points="92.5078,687.525 91.2271,680.834 90.7463,680.672"/>
<polygon fill="#000000" points="92.5078,687.525 91.4475,680.955 91.2271,680.834"/>
<polygon fill="#000000" points="92.5078,687.525 91.8349,681.268 91.4475,680.955"/>
<polygon fill="#000000" points="92.5078,687.525 92.1401,681.668 91.8349,681.268"/>
<polygon fill="#000000" points="92.614,681.447 92.5254,683.848 92.6375,683.227"/>
<polygon fill="#000000" points="92.614,681.447 92.5078,684.212 92.5254,683.848"/>
<polygon fill="#000000" points="92.2618,681.9 92.5078,684.212 92.614,681.447"/>
<polygon fill="#000000" points="92.2618,681.9 92.5078,687.525 92.5078,684.212"/>
<polygon fill="#000000" points="92.1401,681.668 92.5078,687.525 92.2618,681.9"/>
<polygon fill="#000000" points="93.0148,681.089 93.3563,682.326 93.2336,680.946"/>
<polygon fill="#000000" points="93.0148,681.089 92.9988,682.569 93.3563,682.326"/>
<polygon fill="#000000" points="93.0148,681.089 92.8536,682.751 92.9988,682.569"/>
<polygon fill="#000000" points="93.0148,681.089 92.6375,683.227 92.8536,682.751"/>
<polygon fill="#000000" points="93.0148,681.089 92.614,681.447 92.6375,683.227"/>
<polygon fill="#000000" points="93.7016,680.736 93.804,682.245 94.2053,680.631"/>
<polygon fill="#000000" points="93.7016,680.736 93.3563,682.326 93.804,682.245"/>
<polygon fill="#000000" points="93.7016,680.736 93.2336,680.946 93.3563,682.326"/>
<polygon fill="#000000" points="94.4711,680.618 94.2737,682.361 94.4844,682.566"/>
<polygon fill="#000000" points="94.2053,680.631 94.2737,682.361 94.4711,680.618"/>
<polygon fill="#000000" points="94.2053,680.631 93.9812,682.258 94.2737,682.361"/>
<polygon fill="#000000" points="93.804,682.245 93.9812,682.258 94.2053,680.631"/>
<polygon fill="#000000" points="95.3137,680.733 96.8517,687.525 95.9781,681.077"/>
<polyline fill="none" stroke="#000000" stroke-width="1" points="12.77,697.511 82.77,697.511"/>
<polyline fill="none" stroke="#000000" stroke-width="1" points="12.77,697.511 12.77,690.021"/>
<polyline fill="none" stroke="#000000" stroke-width="1" points="82.77,697.511 82.77,690.021"/>
<polygon fill="#000000" points="14.3805,683.04 14.3421,682.185 14.2263,684.663"/>
<polygon fill="#000000" points="14.2263,684.663 14.3421,682.185 14.0337,680.721"/>
<polygon fill="#000000" points="14.2263,684.663 14.0337,680.721 13.7636,685.959"/>
<polygon fill="#000000" points="13.7636,685.959 14.0337,680.721 13.4168,679.586"/>
<polygon fill="#000000" points="13.7636,685.959 13.4168,679.586 13.4168,686.485"/>
<polygon fill="#000000" points="13.4168,686.485 13.4168,679.586 12.9989,679.149"/>
<polygon fill="#000000" points="13.4168,686.485 12.9989,679.149 12.516,687.262"/>
<polygon fill="#000000" points="12.516,687.262 12.9989,679.149 12.0619,683.021"/>
<polygon fill="#000000" points="12.516,687.262 12.0619,683.021 12.0491,683.663"/>
<polygon fill="#000000" points="11.7443,680.646 11.8585,680.961 11.969,678.567"/>
<polygon fill="#000000" points="11.969,678.567 11.8585,680.961 12.0112,681.832"/>
<polygon fill="#000000" points="11.969,678.567 12.0112,681.832 12.9989,679.149"/>
<polygon fill="#000000" points="12.9989,679.149 12.0112,681.832 12.0619,683.021"/>
<polygon fill="#000000" points="10.1509,680.067 10.6797,679.957 10.6797,678.373"/>
<polygon fill="#000000" points="10.6797,678.373 10.6797,679.957 10.9615,679.984"/>
<polygon fill="#000000" points="10.6797,678.373 10.9615,679.984 11.969,678.567"/>
<polygon fill="#000000" points="11.969,678.567 10.9615,679.984 11.422,680.205"/>
<polygon fill="#000000" points="11.969,678.567 11.422,680.205 11.7443,680.646"/>
<polygon fill="#000000" points="10.0026,678.421 8.84134,678.81 9.41019,681.357"/>
<polygon fill="#000000" points="10.0026,678.421 9.41019,681.357 9.61406,680.646"/>
<polygon fill="#000000" points="10.0026,678.421 9.61406,680.646 9.75868,680.398"/>
<polygon fill="#000000" points="10.0026,678.421 9.75868,680.398 10.1509,680.067"/>
<polygon fill="#000000" points="10.0026,678.421 10.1509,680.067 10.6797,678.373"/>
<polygon fill="#000000" points="8.84134,678.81 7.94056,679.586 8.35839,686.922"/>
<polygon fill="#000000" points="8.84134,678.81 8.35839,686.922 9.38941,687.505"/>
<polygon fill="#000000" points="8.84134,678.81 9.38941,687.505 9.29548,683.021"/>
<polygon fill="#000000" points="8.84134,678.81 9.29548,683.021 9.30827,682.386"/>
<polygon fill="#000000" points="8.84134,678.81 9.30827,682.386 9.41019,681.357"/>
<polygon fill="#000000" points="12.516,687.262 12.0491,683.663 11.9466,684.705"/>
<polygon fill="#000000" points="12.516,687.262 11.9466,684.705 11.7417,685.424"/>
<polygon fill="#000000" points="12.516,687.262 11.7417,685.424 11.5971,685.676"/>
<polygon fill="#000000" points="12.516,687.262 11.5971,685.676 11.3569,687.65"/>
<polygon fill="#000000" points="11.5971,685.676 11.2059,686.011 11.3569,687.65"/>
<polygon fill="#000000" points="11.3569,687.65 11.2059,686.011 10.6797,686.123"/>
<polygon fill="#000000" points="11.3569,687.65 10.6797,686.123 10.6797,687.699"/>
<polygon fill="#000000" points="10.6797,687.699 10.6797,686.123 10.3985,686.095"/>
<polygon fill="#000000" points="10.6797,687.699 10.3985,686.095 9.93744,685.872"/>
<polygon fill="#000000" points="9.61406,685.424 9.49932,685.105 9.38941,687.505"/>
<polygon fill="#000000" points="9.61406,685.424 9.38941,687.505 10.6797,687.699"/>
<polygon fill="#000000" points="9.61406,685.424 10.6797,687.699 9.93744,685.872"/>
<polygon fill="#000000" points="9.34671,684.224 9.29548,683.021 9.38941,687.505"/>
<polygon fill="#000000" points="9.34671,684.224 9.38941,687.505 9.49932,685.105"/>
<polygon fill="#000000" points="6.97626,683.04 7.01523,683.892 7.13104,681.412"/>
<polygon fill="#000000" points="7.13104,681.412 7.01523,683.892 7.32368,685.352"/>
<polygon fill="#000000" points="7.13104,681.412 7.32368,685.352 7.5937,680.113"/>
<polygon fill="#000000" points="7.5937,680.113 7.32368,685.352 7.94056,686.485"/>
<polygon fill="#000000" points="7.5937,680.113 7.94056,686.485 7.94056,679.586"/>
<polygon fill="#000000" points="7.94056,679.586 7.94056,686.485 8.35839,686.922"/>
<polygon fill="#000000" points="15.9953,680.781 18.1645,687.525 18.1645,680.781"/>
<polygon fill="#000000" points="18.1645,680.781 18.1645,687.525 18.1645,684.207"/>
<polygon fill="#000000" points="18.1645,680.781 18.1645,684.207 18.1645,681.769"/>
<polygon fill="#000000" points="18.1645,681.769 18.1645,684.207 18.1779,683.846"/>
<polygon fill="#000000" points="18.1645,681.769 18.1779,683.846 18.5007,681.356"/>
<polygon fill="#000000" points="18.5007,681.356 18.1779,683.846 18.2862,683.23"/>
<polygon fill="#000000" points="18.5007,681.356 18.2862,683.23 18.5018,682.753"/>
<polygon fill="#000000" points="19.6438,682.258 19.9437,682.361 19.9688,680.63"/>
<polygon fill="#000000" points="19.9688,680.63 19.9437,682.361 20.1459,682.566"/>
<polygon fill="#000000" points="19.9688,680.63 20.1459,682.566 20.2132,680.618"/>
<polygon fill="#000000" points="20.2132,680.618 20.1459,682.566 20.2153,682.727"/>
<polygon fill="#000000" points="20.2132,680.618 20.2153,682.727 20.7463,680.672"/>
<polygon fill="#000000" points="20.7463,680.672 20.2153,682.727 20.3082,683.24"/>
<polygon fill="#000000" points="20.7463,680.672 20.3082,683.24 20.3391,684.009"/>
<polygon fill="#000000" points="18.5018,682.753 18.648,682.57 18.8748,681.034"/>
<polygon fill="#000000" points="18.8748,681.034 18.648,682.57 19.0082,682.326"/>
<polygon fill="#000000" points="18.8748,681.034 19.0082,682.326 19.0765,680.907"/>
<polygon fill="#000000" points="19.0765,680.907 19.0082,682.326 19.4581,682.245"/>
<polygon fill="#000000" points="19.0765,680.907 19.4581,682.245 19.5056,680.722"/>
<polygon fill="#000000" points="19.5056,680.722 19.4581,682.245 19.6438,682.258"/>
<polygon fill="#000000" points="19.5056,680.722 19.6438,682.258 19.9688,680.63"/>
<polygon fill="#000000" points="25.3137,680.733 24.4711,680.618 24.4844,682.566"/>
<polygon fill="#000000" points="25.3137,680.733 24.4844,682.566 24.5602,682.711"/>
<polygon fill="#000000" points="88.1645,687.525 85.9953,680.781 85.9953,687.525"/>
<polygon fill="#000000" points="25.3137,680.733 24.6621,683.094 24.6957,683.604"/>
<polygon fill="#000000" points="25.3137,680.733 24.6957,683.604 26.8517,687.525"/>
<polygon fill="#000000" points="25.3137,680.733 26.8517,687.525 25.9781,681.077"/>
<polygon fill="#000000" points="23.804,682.245 23.9812,682.258 24.2053,680.631"/>
<polygon fill="#000000" points="24.2053,680.631 23.9812,682.258 24.2736,682.361"/>
<polygon fill="#000000" points="24.2053,680.631 24.2736,682.361 24.4711,680.618"/>
<polygon fill="#000000" points="24.4711,680.618 24.2736,682.361 24.4844,682.566"/>
<polygon fill="#000000" points="23.7016,680.736 23.2336,680.946 23.3563,682.326"/>
<polygon fill="#000000" points="23.7016,680.736 23.3563,682.326 23.804,682.245"/>
<polygon fill="#000000" points="23.7016,680.736 23.804,682.245 24.2053,680.631"/>
<polygon fill="#000000" points="23.0148,681.089 22.614,681.447 22.6375,683.227"/>
<polygon fill="#000000" points="23.0148,681.089 22.6375,683.227 22.8536,682.751"/>
<polygon fill="#000000" points="23.0148,681.089 22.8536,682.751 22.9988,682.569"/>
<polygon fill="#000000" points="23.0148,681.089 22.9988,682.569 23.3563,682.326"/>
<polygon fill="#000000" points="23.0148,681.089 23.3563,682.326 23.2336,680.946"/>
<polygon fill="#000000" points="22.1401,681.668 22.5078,687.525 22.2618,681.9"/>
<polygon fill="#000000" points="22.2618,681.9 22.5078,687.525 22.5078,684.212"/>
<polygon fill="#000000" points="22.2618,681.9 22.5078,684.212 22.614,681.447"/>
<polygon fill="#000000" points="22.614,681.447 22.5078,684.212 22.5254,683.848"/>
<polygon fill="#000000" points="22.614,681.447 22.5254,683.848 22.6375,683.227"/>
<polygon fill="#000000" points="22.5078,687.525 22.1401,681.668 21.8349,681.268"/>
<polygon fill="#000000" points="22.5078,687.525 21.8349,681.268 21.4475,680.955"/>
<polygon fill="#000000" points="22.5078,687.525 21.4475,680.955 21.2271,680.834"/>
<polygon fill="#000000" points="22.5078,687.525 21.2271,680.834 20.7463,680.672"/>
<polygon fill="#000000" points="22.5078,687.525 20.7463,680.672 20.3391,684.009"/>
<polygon fill="#000000" points="22.5078,687.525 20.3391,684.009 20.3391,687.525"/>
<polygon fill="#000000" points="26.8517,687.525 26.8517,683.417 26.8271,682.897"/>
<polygon fill="#000000" points="26.8517,687.525 26.8271,682.897 26.6329,682.013"/>
<polygon fill="#000000" points="26.8517,687.525 26.6329,682.013 26.2439,681.335"/>
<polygon fill="#000000" points="26.8517,687.525 26.2439,681.335 25.9781,681.077"/>
<polygon fill="#000000" points="26.8517,687.525 24.6957,683.604 24.6957,683.665"/>
<polygon fill="#000000" points="26.8517,687.525 24.6957,683.665 24.6941,683.768"/>
<polygon fill="#000000" points="26.8517,687.525 24.6941,683.768 24.692,683.847"/>
<polygon fill="#000000" points="26.8517,687.525 24.692,683.847 24.6899,683.88"/>
<polygon fill="#000000" points="26.8517,687.525 24.6899,683.88 24.6867,683.945"/>
<polygon fill="#000000" points="26.8517,687.525 24.6867,683.945 24.6824,684.009"/>
<polygon fill="#000000" points="26.8517,687.525 24.6824,684.009 24.6824,687.525"/>
<polygon fill="#000000" points="18.5007,681.356 18.5018,682.753 18.8748,681.034"/>
<polygon fill="#000000" points="18.1645,687.525 15.9953,680.781 15.9953,687.525"/>
<polygon fill="#000000" points="79.8793,680.112 79.8793,685.922 82.0725,685.922"/>
<polygon fill="#000000" points="79.8793,680.112 82.0725,685.922 82.0725,678.536"/>
<polygon fill="#000000" points="79.8793,680.112 82.0725,678.536 79.8686,678.536"/>
<polygon fill="#000000" points="79.8793,680.112 79.8686,678.536 77.7773,678.97"/>
<polygon fill="#000000" points="79.8793,680.112 77.7773,678.97 77.7773,680.545"/>
<polygon fill="#000000" points="84.1212,687.525 84.1212,685.922 82.0725,685.922"/>
<polygon fill="#000000" points="84.1212,687.525 82.0725,685.922 79.8793,685.922"/>
<polygon fill="#000000" points="84.1212,687.525 79.8793,685.922 77.8306,685.922"/>
<polygon fill="#000000" points="84.1212,687.525 77.8306,685.922 77.8306,687.525"/>
<polygon fill="#000000" points="85.9953,680.781 88.1645,687.525 88.1645,680.781"/>
<polygon fill="#000000" points="88.1645,680.781 88.1645,687.525 88.1645,684.207"/>
<polygon fill="#000000" points="88.1645,680.781 88.1645,684.207 88.1645,681.769"/>
<polygon fill="#000000" points="88.1645,681.769 88.1645,684.207 88.1779,683.846"/>
<polygon fill="#000000" points="88.1645,681.769 88.1779,683.846 88.5007,681.356"/>
<polygon fill="#000000" points="88.5007,681.356 88.1779,683.846 88.2862,683.23"/>
<polygon fill="#000000" points="88.5007,681.356 88.2862,683.23 88.5018,682.753"/>
<polygon fill="#000000" points="89.6438,682.258 89.9437,682.361 89.9688,680.63"/>
<polygon fill="#000000" points="89.9688,680.63 89.9437,682.361 90.1459,682.566"/>
<polygon fill="#000000" points="89.9688,680.63 90.1459,682.566 90.2132,680.618"/>
<polygon fill="#000000" points="90.2132,680.618 90.1459,682.566 90.2153,682.727"/>
<polygon fill="#000000" points="90.2132,680.618 90.2153,682.727 90.7463,680.672"/>
<polygon fill="#000000" points="90.7463,680.672 90.2153,682.727 90.3082,683.24"/>
<polygon fill="#000000" points="90.7463,680.672 90.3082,683.24 90.3391,684.009"/>
<polygon fill="#000000" points="88.5018,682.753 88.648,682.57 88.8748,681.034"/>
<polygon fill="#000000" points="88.8748,681.034 88.648,682.57 89.0082,682.326"/>
<polygon fill="#000000" points="88.8748,681.034 89.0082,682.326 89.0765,680.907"/>
<polygon fill="#000000" points="89.0765,680.907 89.0082,682.326 89.4581,682.245"/>
<polygon fill="#000000" points="89.0765,680.907 89.4581,682.245 89.5056,680.722"/>
<polygon fill="#000000" points="89.5056,680.722 89.4581,682.245 89.6438,682.258"/>
<polygon fill="#000000" points="89.5056,680.722 89.6438,682.258 89.9688,680.63"/>
<polygon fill="#000000" points="95.3137,680.733 94.4711,680.618 94.4844,682.566"/>
<polygon fill="#000000" points="95.3137,680.733 94.4844,682.566 94.5602,682.711"/>
<polygon fill="#000000" points="95.3137,680.733 94.5602,682.711 94.6621,683.094"/>
<polygon fill="#000000" points="95.3137,680.733 94.6621,683.094 94.6957,683.604"/>
<polygon fill="#000000" points="95.3137,680.733 94.6957,683.604 96.8517,687.525"/>
<polygon fill="#ffffff" points="0.000114173,238.818 1277,233.519 0.000114173,233.519"/>
<polygon fill="#ffffff" points="0.000114173,238.818 1277,247.698 1277,233.519"/>
<polygon fill="#ffffff" points="0.000114173,471.481 1277,247.698 0.000114173,238.818"/>
<polygon fill="#ffffff" points="0.000114173,471.481 1277,471.481 1277,247.698"/>
<polygon fill="#ffffff" points="1277,0 0,0 0,9.5509"/>
<polygon fill="#ffffff" points="1277,0 0,9.5509 1277,9.5509"/>
<polygon fill="#ffffff" points="1277,2.55341 0,2.55341 0,13.4736"/>
<polygon fill="#ffffff" points="1277,2.55341 0,13.4736 1277,31.7702"/>
<polygon fill="#ffffff" points="1277,31.7702 0,240.516 1277,240.516"/>
<polygon fill="#ffffff" points="1277,31.7702 0,13.4736 0,240.516"/>
<polygon fill="#000000" points="1139.24,0 933.907,0 1139.24,191.524"/>
<polygon fill="#000000" points="933.907,0 929.141,0 929.141,191.524"/>
<polygon fill="#000000" points="93.5044,0 88.7384,191.524 298.839,191.524"/>
<polygon fill="#000000" points="93.5044,0 88.7384,0 88.7384,191.524"/>
<polygon fill="#000000" points="298.839,0 93.5044,0 298.839,191.524"/>
<polygon fill="#000000" points="513.706,0 508.939,191.524 719.04,191.524"/>
<polygon fill="#000000" points="513.706,0 508.939,0 508.939,191.524"/>
<polygon fill="#000000" points="719.04,0 513.706,0 719.04,191.524"/>
<polygon fill="#000000" points="933.907,0 929.141,191.524 1139.24,191.524"/>
<polygon fill="#000000" points="0.000114173,464.483 1277,464.483 1277,253.863"/>
<polygon fill="#000000" points="0.000114173,464.483 1277,253.863 0.000114173,245.505"/>
<polygon fill="#000000" points="1277,37.0505 0,233.517 1277,233.517"/>
<polygon fill="#000000" points="1277,37.0505 0,19.8301 0,233.517"/>
<polygon fill="#000000" points="1277,9.55231 0,19.8301 1277,37.0505"/>
<polygon fill="#000000" points="1277,9.55231 0,9.55231 0,19.8301"/>
<polygon fill="#000000" points="0.000114173,245.505 1277,253.863 1277,240.517"/>
<polygon fill="#000000" points="0.000114173,245.505 1277,240.517 0.000114173,240.517"/>
<polygon fill="#000000" points="1277,0 0,2.552 1277,2.552"/>
<polygon fill="#000000" points="1277,0 0,0 0,2.552"/>
<polyline fill="none" stroke="#ffffff" stroke-width="1" points="778.567,282.511 498.433,282.511"/>
<polyline fill="none" stroke="#ffffff" stroke-width="1" points="778.567,422.489 778.567,282.511"/>
<polyline fill="none" stroke="#ffffff" stroke-width="1" points="498.433,282.511 498.433,422.489 778.567,422.489"/>
<polyline fill="none" stroke="#ff00ff" stroke-width="1" points="505.436,352.5 771.564,352.5"/>
<polyline fill="none" stroke="#ffffff" stroke-width="1" points="638.5,233.519 638.5,471.481"/>
<polygon fill="#ff00ff" points="498.433,422.489 778.567,422.489 498.433,282.511"/>
<polygon fill="#ff00ff" points="778.567,422.489 778.567,282.511 498.433,282.511"/>
</g>
</svg>
