<?xml version="1.0" encoding="UTF-8" standalone="no"?>
<svg xmlns="http://www.w3.org/2000/svg"
     xmlns:xlink="http://www.w3.org/1999/xlink"
     width="1277px" height="705px" viewBox="0 0 1277 705">
<title>D:\projects\sumo\rbuild\sumo\tests\sumo\output\examples\cross3ltl_instant_inductloops\instant.svg</title>
<desc>
Creator: GL2PS 1.3.6, (C) 1999-2011 C. Geuzaine
For: sumo-gui; http://sumo.sf.net
CreationDate: Tue Sep 13 12:36:34 2011
</desc>
<defs>
</defs>
<polygon fill="#ffffff" points="0,0 1277,0 1277,705 0,705"/>
<g shape-rendering="crispEdges">
<polygon fill="#000000" points="82.7497,687.525 80.5805,680.781 80.5805,687.525"/>
<polygon fill="#000000" points="83.0859,681.356 83.087,682.753 83.46,681.034"/>
<polygon fill="#000000" points="91.4368,687.525 89.2676,684.009 89.2676,687.525"/>
<polygon fill="#000000" points="91.4368,687.525 89.2719,683.945 89.2676,684.009"/>
<polygon fill="#000000" points="91.4368,687.525 89.2751,683.88 89.2719,683.945"/>
<polygon fill="#000000" points="91.4368,687.525 89.2772,683.847 89.2751,683.88"/>
<polygon fill="#000000" points="91.4368,687.525 89.2793,683.768 89.2772,683.847"/>
<polygon fill="#000000" points="91.4368,687.525 89.2809,683.665 89.2793,683.768"/>
<polygon fill="#000000" points="91.4368,687.525 89.2809,683.604 89.2809,683.665"/>
<polygon fill="#000000" points="91.4368,687.525 90.829,681.335 90.5633,681.077"/>
<polygon fill="#000000" points="91.4368,687.525 91.218,682.013 90.829,681.335"/>
<polygon fill="#000000" points="91.4368,687.525 91.4123,682.897 91.218,682.013"/>
<polygon fill="#000000" points="91.4368,687.525 91.4368,683.417 91.4123,682.897"/>
<polygon fill="#000000" points="87.093,687.525 84.9243,684.009 84.9243,687.525"/>
<polygon fill="#000000" points="87.093,687.525 85.3315,680.672 84.9243,684.009"/>
<polygon fill="#000000" points="87.093,687.525 85.8122,680.834 85.3315,680.672"/>
<polygon fill="#000000" points="87.093,687.525 86.0327,680.955 85.8122,680.834"/>
<polygon fill="#000000" points="87.093,687.525 86.4201,681.268 86.0327,680.955"/>
<polygon fill="#000000" points="87.093,687.525 86.7253,681.668 86.4201,681.268"/>
<polygon fill="#000000" points="87.1992,681.447 87.1106,683.848 87.2226,683.227"/>
<polygon fill="#000000" points="87.1992,681.447 87.093,684.212 87.1106,683.848"/>
<polygon fill="#000000" points="86.847,681.9 87.093,684.212 87.1992,681.447"/>
<polygon fill="#000000" points="86.847,681.9 87.093,687.525 87.093,684.212"/>
<polygon fill="#000000" points="86.7253,681.668 87.093,687.525 86.847,681.9"/>
<polygon fill="#000000" points="87.6,681.089 87.9415,682.326 87.8187,680.946"/>
<polygon fill="#000000" points="87.6,681.089 87.5839,682.569 87.9415,682.326"/>
<polygon fill="#000000" points="87.6,681.089 87.4388,682.751 87.5839,682.569"/>
<polygon fill="#000000" points="87.6,681.089 87.2226,683.227 87.4388,682.751"/>
<polygon fill="#000000" points="87.6,681.089 87.1992,681.447 87.2226,683.227"/>
<polygon fill="#000000" points="88.2867,680.736 88.3892,682.245 88.7905,680.631"/>
<polygon fill="#000000" points="88.2867,680.736 87.9415,682.326 88.3892,682.245"/>
<polygon fill="#000000" points="88.2867,680.736 87.8187,680.946 87.9415,682.326"/>
<polyline fill="none" stroke="#000000" stroke-width="1" points="12.77,697.511 68.77,697.511"/>
<polyline fill="none" stroke="#000000" stroke-width="1" points="12.77,697.511 12.77,690.021"/>
<polyline fill="none" stroke="#000000" stroke-width="1" points="68.77,697.511 68.77,690.021"/>
<polygon fill="#000000" points="89.0563,680.618 88.8588,682.361 89.0696,682.566"/>
<polygon fill="#000000" points="88.7905,680.631 88.8588,682.361 89.0563,680.618"/>
<polygon fill="#000000" points="88.7905,680.631 88.5664,682.258 88.8588,682.361"/>
<polygon fill="#000000" points="88.3892,682.245 88.5664,682.258 88.7905,680.631"/>
<polygon fill="#000000" points="89.8989,680.733 91.4368,687.525 90.5633,681.077"/>
<polygon fill="#000000" points="89.8989,680.733 89.2809,683.604 91.4368,687.525"/>
<polygon fill="#000000" points="89.8989,680.733 89.2473,683.094 89.2809,683.604"/>
<polygon fill="#000000" points="14.3805,683.04 14.3421,682.185 14.2263,684.663"/>
<polygon fill="#000000" points="14.2263,684.663 14.3421,682.185 14.0337,680.721"/>
<polygon fill="#000000" points="14.2263,684.663 14.0337,680.721 13.7636,685.959"/>
<polygon fill="#000000" points="13.7636,685.959 14.0337,680.721 13.4168,679.586"/>
<polygon fill="#000000" points="13.7636,685.959 13.4168,679.586 13.4168,686.485"/>
<polygon fill="#000000" points="13.4168,686.485 13.4168,679.586 12.9989,679.149"/>
<polygon fill="#000000" points="89.8989,680.733 89.1454,682.711 89.2473,683.094"/>
<polygon fill="#000000" points="89.8989,680.733 89.0696,682.566 89.1454,682.711"/>
<polygon fill="#000000" points="89.8989,680.733 89.0563,680.618 89.0696,682.566"/>
<polygon fill="#000000" points="84.0907,680.722 84.2289,682.258 84.5539,680.63"/>
<polygon fill="#000000" points="84.0907,680.722 84.0432,682.245 84.2289,682.258"/>
<polygon fill="#000000" points="13.4168,686.485 12.9989,679.149 12.516,687.262"/>
<polygon fill="#000000" points="12.516,687.262 12.9989,679.149 12.0619,683.021"/>
<polygon fill="#000000" points="12.516,687.262 12.0619,683.021 12.0491,683.663"/>
<polygon fill="#000000" points="11.7443,680.646 11.8585,680.961 11.969,678.567"/>
<polygon fill="#000000" points="11.969,678.567 11.8585,680.961 12.0112,681.832"/>
<polygon fill="#000000" points="11.969,678.567 12.0112,681.832 12.9989,679.149"/>
<polygon fill="#000000" points="12.9989,679.149 12.0112,681.832 12.0619,683.021"/>
<polygon fill="#000000" points="10.1509,680.067 10.6797,679.957 10.6797,678.373"/>
<polygon fill="#000000" points="10.6797,678.373 10.6797,679.957 10.9615,679.984"/>
<polygon fill="#000000" points="10.6797,678.373 10.9615,679.984 11.969,678.567"/>
<polygon fill="#000000" points="11.969,678.567 10.9615,679.984 11.422,680.205"/>
<polygon fill="#000000" points="11.969,678.567 11.422,680.205 11.7443,680.646"/>
<polygon fill="#000000" points="10.0026,678.421 8.84134,678.81 9.41019,681.357"/>
<polygon fill="#000000" points="10.0026,678.421 9.41019,681.357 9.61406,680.646"/>
<polygon fill="#000000" points="10.0026,678.421 9.61406,680.646 9.75868,680.398"/>
<polygon fill="#000000" points="10.0026,678.421 9.75868,680.398 10.1509,680.067"/>
<polygon fill="#000000" points="10.0026,678.421 10.1509,680.067 10.6797,678.373"/>
<polygon fill="#000000" points="8.84134,678.81 7.94056,679.586 8.35839,686.922"/>
<polygon fill="#000000" points="8.84134,678.81 8.35839,686.922 9.38941,687.505"/>
<polygon fill="#000000" points="8.84134,678.81 9.38941,687.505 9.29548,683.021"/>
<polygon fill="#000000" points="8.84134,678.81 9.29548,683.021 9.30827,682.386"/>
<polygon fill="#000000" points="8.84134,678.81 9.30827,682.386 9.41019,681.357"/>
<polygon fill="#000000" points="12.516,687.262 12.0491,683.663 11.9466,684.705"/>
<polygon fill="#000000" points="12.516,687.262 11.9466,684.705 11.7417,685.424"/>
<polygon fill="#000000" points="12.516,687.262 11.7417,685.424 11.5971,685.676"/>
<polygon fill="#000000" points="12.516,687.262 11.5971,685.676 11.3569,687.65"/>
<polygon fill="#000000" points="11.5971,685.676 11.2059,686.011 11.3569,687.65"/>
<polygon fill="#000000" points="11.3569,687.65 11.2059,686.011 10.6797,686.123"/>
<polygon fill="#000000" points="11.3569,687.65 10.6797,686.123 10.6797,687.699"/>
<polygon fill="#000000" points="10.6797,687.699 10.6797,686.123 10.3985,686.095"/>
<polygon fill="#000000" points="10.6797,687.699 10.3985,686.095 9.93744,685.872"/>
<polygon fill="#000000" points="9.61406,685.424 9.49932,685.105 9.38941,687.505"/>
<polygon fill="#000000" points="9.61406,685.424 9.38941,687.505 10.6797,687.699"/>
<polygon fill="#000000" points="9.61406,685.424 10.6797,687.699 9.93744,685.872"/>
<polygon fill="#000000" points="9.34671,684.224 9.29548,683.021 9.38941,687.505"/>
<polygon fill="#000000" points="9.34671,684.224 9.38941,687.505 9.49932,685.105"/>
<polygon fill="#000000" points="6.97626,683.04 7.01523,683.892 7.13104,681.412"/>
<polygon fill="#000000" points="7.13104,681.412 7.01523,683.892 7.32368,685.352"/>
<polygon fill="#000000" points="7.13104,681.412 7.32368,685.352 7.5937,680.113"/>
<polygon fill="#000000" points="7.5937,680.113 7.32368,685.352 7.94056,686.485"/>
<polygon fill="#000000" points="7.5937,680.113 7.94056,686.485 7.94056,679.586"/>
<polygon fill="#000000" points="7.94056,679.586 7.94056,686.485 8.35839,686.922"/>
<polygon fill="#000000" points="15.9953,680.781 18.1645,687.525 18.1645,680.781"/>
<polygon fill="#000000" points="83.6617,680.907 84.0432,682.245 84.0907,680.722"/>
<polygon fill="#000000" points="83.6617,680.907 83.5934,682.326 84.0432,682.245"/>
<polygon fill="#000000" points="83.46,681.034 83.5934,682.326 83.6617,680.907"/>
<polygon fill="#000000" points="83.46,681.034 83.2332,682.57 83.5934,682.326"/>
<polygon fill="#000000" points="83.087,682.753 83.2332,682.57 83.46,681.034"/>
<polygon fill="#000000" points="85.3315,680.672 84.8933,683.24 84.9243,684.009"/>
<polygon fill="#000000" points="85.3315,680.672 84.8005,682.727 84.8933,683.24"/>
<polygon fill="#000000" points="84.7983,680.618 84.8005,682.727 85.3315,680.672"/>
<polygon fill="#000000" points="84.7983,680.618 84.7311,682.566 84.8005,682.727"/>
<polygon fill="#000000" points="84.5539,680.63 84.7311,682.566 84.7983,680.618"/>
<polygon fill="#000000" points="84.5539,680.63 84.5289,682.361 84.7311,682.566"/>
<polygon fill="#000000" points="84.2289,682.258 84.5289,682.361 84.5539,680.63"/>
<polygon fill="#000000" points="83.0859,681.356 82.8714,683.23 83.087,682.753"/>
<polygon fill="#000000" points="83.0859,681.356 82.763,683.846 82.8714,683.23"/>
<polygon fill="#000000" points="82.7497,681.769 82.763,683.846 83.0859,681.356"/>
<polygon fill="#000000" points="82.7497,681.769 82.7497,684.207 82.763,683.846"/>
<polygon fill="#000000" points="18.1645,680.781 18.1645,687.525 18.1645,684.207"/>
<polygon fill="#000000" points="18.1645,680.781 18.1645,684.207 18.1645,681.769"/>
<polygon fill="#000000" points="18.1645,681.769 18.1645,684.207 18.1779,683.846"/>
<polygon fill="#000000" points="18.1645,681.769 18.1779,683.846 18.5007,681.356"/>
<polygon fill="#000000" points="18.5007,681.356 18.1779,683.846 18.2862,683.23"/>
<polygon fill="#000000" points="18.5007,681.356 18.2862,683.23 18.5018,682.753"/>
<polygon fill="#000000" points="19.6438,682.258 19.9437,682.361 19.9688,680.63"/>
<polygon fill="#000000" points="19.9688,680.63 19.9437,682.361 20.1459,682.566"/>
<polygon fill="#000000" points="19.9688,680.63 20.1459,682.566 20.2132,680.618"/>
<polygon fill="#000000" points="20.2132,680.618 20.1459,682.566 20.2153,682.727"/>
<polygon fill="#000000" points="20.2132,680.618 20.2153,682.727 20.7463,680.672"/>
<polygon fill="#000000" points="20.7463,680.672 20.2153,682.727 20.3082,683.24"/>
<polygon fill="#000000" points="20.7463,680.672 20.3082,683.24 20.3391,684.009"/>
<polygon fill="#000000" points="18.5018,682.753 18.648,682.57 18.8748,681.034"/>
<polygon fill="#000000" points="18.8748,681.034 18.648,682.57 19.0082,682.326"/>
<polygon fill="#000000" points="18.8748,681.034 19.0082,682.326 19.0765,680.907"/>
<polygon fill="#000000" points="19.0765,680.907 19.0082,682.326 19.4581,682.245"/>
<polygon fill="#000000" points="19.0765,680.907 19.4581,682.245 19.5056,680.722"/>
<polygon fill="#000000" points="19.5056,680.722 19.4581,682.245 19.6438,682.258"/>
<polygon fill="#000000" points="19.5056,680.722 19.6438,682.258 19.9688,680.63"/>
<polygon fill="#000000" points="25.3137,680.733 24.4711,680.618 24.4844,682.566"/>
<polygon fill="#000000" points="25.3137,680.733 24.4844,682.566 24.5602,682.711"/>
<polygon fill="#000000" points="25.3137,680.733 24.5602,682.711 24.6621,683.094"/>
<polygon fill="#000000" points="25.3137,680.733 24.6621,683.094 24.6957,683.604"/>
<polygon fill="#000000" points="25.3137,680.733 24.6957,683.604 26.8517,687.525"/>
<polygon fill="#000000" points="25.3137,680.733 26.8517,687.525 25.9781,681.077"/>
<polygon fill="#000000" points="23.804,682.245 23.9812,682.258 24.2053,680.631"/>
<polygon fill="#000000" points="24.2053,680.631 23.9812,682.258 24.2736,682.361"/>
<polygon fill="#000000" points="24.2053,680.631 24.2736,682.361 24.4711,680.618"/>
<polygon fill="#000000" points="24.4711,680.618 24.2736,682.361 24.4844,682.566"/>
<polygon fill="#000000" points="23.7016,680.736 23.2336,680.946 23.3563,682.326"/>
<polygon fill="#000000" points="23.7016,680.736 23.3563,682.326 23.804,682.245"/>
<polygon fill="#000000" points="23.7016,680.736 23.804,682.245 24.2053,680.631"/>
<polygon fill="#000000" points="23.0148,681.089 22.614,681.447 22.6375,683.227"/>
<polygon fill="#000000" points="23.0148,681.089 22.6375,683.227 22.8536,682.751"/>
<polygon fill="#000000" points="23.0148,681.089 22.8536,682.751 22.9988,682.569"/>
<polygon fill="#000000" points="23.0148,681.089 22.9988,682.569 23.3563,682.326"/>
<polygon fill="#000000" points="23.0148,681.089 23.3563,682.326 23.2336,680.946"/>
<polygon fill="#000000" points="22.1401,681.668 22.5078,687.525 22.2618,681.9"/>
<polygon fill="#000000" points="22.2618,681.9 22.5078,687.525 22.5078,684.212"/>
<polygon fill="#000000" points="82.7497,680.781 82.7497,684.207 82.7497,681.769"/>
<polygon fill="#000000" points="82.7497,680.781 82.7497,687.525 82.7497,684.207"/>
<polygon fill="#000000" points="80.5805,680.781 82.7497,687.525 82.7497,680.781"/>
<polygon fill="#000000" points="72.5257,679.586 72.5257,686.485 72.9436,686.922"/>
<polygon fill="#000000" points="72.1789,680.113 72.5257,686.485 72.5257,679.586"/>
<polygon fill="#000000" points="72.1789,680.113 71.9088,685.352 72.5257,686.485"/>
<polygon fill="#000000" points="71.7162,681.412 71.9088,685.352 72.1789,680.113"/>
<polygon fill="#000000" points="71.7162,681.412 71.6004,683.892 71.9088,685.352"/>
<polygon fill="#000000" points="71.5614,683.04 71.6004,683.892 71.7162,681.412"/>
<polygon fill="#000000" points="73.9319,684.224 73.9745,687.505 74.0845,685.105"/>
<polygon fill="#000000" points="73.9319,684.224 73.8806,683.021 73.9745,687.505"/>
<polygon fill="#000000" points="74.1992,685.424 75.2649,687.699 74.5226,685.872"/>
<polygon fill="#000000" points="74.1992,685.424 73.9745,687.505 75.2649,687.699"/>
<polygon fill="#000000" points="74.1992,685.424 74.0845,685.105 73.9745,687.505"/>
<polygon fill="#000000" points="75.2649,687.699 74.9837,686.095 74.5226,685.872"/>
<polygon fill="#000000" points="75.2649,687.699 75.2649,686.123 74.9837,686.095"/>
<polygon fill="#000000" points="75.9421,687.65 75.2649,686.123 75.2649,687.699"/>
<polygon fill="#000000" points="75.9421,687.65 75.7911,686.011 75.2649,686.123"/>
<polygon fill="#000000" points="76.1822,685.676 75.7911,686.011 75.9421,687.65"/>
<polygon fill="#000000" points="77.1012,687.262 76.1822,685.676 75.9421,687.65"/>
<polygon fill="#000000" points="77.1012,687.262 76.3268,685.424 76.1822,685.676"/>
<polygon fill="#000000" points="77.1012,687.262 76.5317,684.705 76.3268,685.424"/>
<polygon fill="#000000" points="77.1012,687.262 76.6342,683.663 76.5317,684.705"/>
<polygon fill="#000000" points="73.4265,678.81 73.8934,682.386 73.9954,681.357"/>
<polygon fill="#000000" points="73.4265,678.81 73.8806,683.021 73.8934,682.386"/>
<polygon fill="#000000" points="73.4265,678.81 73.9745,687.505 73.8806,683.021"/>
<polygon fill="#000000" points="73.4265,678.81 72.9436,686.922 73.9745,687.505"/>
<polygon fill="#000000" points="73.4265,678.81 72.5257,679.586 72.9436,686.922"/>
<polygon fill="#000000" points="74.5877,678.421 74.7361,680.067 75.2649,678.373"/>
<polygon fill="#000000" points="74.5877,678.421 74.3438,680.398 74.7361,680.067"/>
<polygon fill="#000000" points="74.5877,678.421 74.1992,680.646 74.3438,680.398"/>
<polygon fill="#000000" points="74.5877,678.421 73.9954,681.357 74.1992,680.646"/>
<polygon fill="#000000" points="22.2618,681.9 22.5078,684.212 22.614,681.447"/>
<polygon fill="#000000" points="22.614,681.447 22.5078,684.212 22.5254,683.848"/>
<polygon fill="#000000" points="22.614,681.447 22.5254,683.848 22.6375,683.227"/>
<polygon fill="#000000" points="74.5877,678.421 73.4265,678.81 73.9954,681.357"/>
<polygon fill="#000000" points="76.5542,678.567 76.0072,680.205 76.3295,680.646"/>
<polygon fill="#000000" points="76.5542,678.567 75.5467,679.984 76.0072,680.205"/>
<polygon fill="#000000" points="75.2649,678.373 75.5467,679.984 76.5542,678.567"/>
<polygon fill="#000000" points="75.2649,678.373 75.2649,679.957 75.5467,679.984"/>
<polygon fill="#000000" points="74.7361,680.067 75.2649,679.957 75.2649,678.373"/>
<polygon fill="#000000" points="77.5841,679.149 76.5963,681.832 76.647,683.021"/>
<polygon fill="#000000" points="22.5078,687.525 22.1401,681.668 21.8349,681.268"/>
<polygon fill="#000000" points="22.5078,687.525 21.8349,681.268 21.4475,680.955"/>
<polygon fill="#000000" points="22.5078,687.525 21.4475,680.955 21.2271,680.834"/>
<polygon fill="#000000" points="22.5078,687.525 21.2271,680.834 20.7463,680.672"/>
<polygon fill="#000000" points="22.5078,687.525 20.7463,680.672 20.3391,684.009"/>
<polygon fill="#000000" points="22.5078,687.525 20.3391,684.009 20.3391,687.525"/>
<polygon fill="#000000" points="76.5542,678.567 76.5963,681.832 77.5841,679.149"/>
<polygon fill="#000000" points="76.5542,678.567 76.4437,680.961 76.5963,681.832"/>
<polygon fill="#000000" points="76.3295,680.646 76.4437,680.961 76.5542,678.567"/>
<polygon fill="#000000" points="77.1012,687.262 76.647,683.021 76.6342,683.663"/>
<polygon fill="#000000" points="77.1012,687.262 77.5841,679.149 76.647,683.021"/>
<polygon fill="#000000" points="26.8517,687.525 26.8517,683.417 26.8271,682.897"/>
<polygon fill="#000000" points="26.8517,687.525 26.8271,682.897 26.6329,682.013"/>
<polygon fill="#000000" points="26.8517,687.525 26.6329,682.013 26.2439,681.335"/>
<polygon fill="#000000" points="26.8517,687.525 26.2439,681.335 25.9781,681.077"/>
<polygon fill="#000000" points="26.8517,687.525 24.6957,683.604 24.6957,683.665"/>
<polygon fill="#000000" points="26.8517,687.525 24.6957,683.665 24.6941,683.768"/>
<polygon fill="#000000" points="26.8517,687.525 24.6941,683.768 24.692,683.847"/>
<polygon fill="#000000" points="26.8517,687.525 24.692,683.847 24.6899,683.88"/>
<polygon fill="#000000" points="26.8517,687.525 24.6899,683.88 24.6867,683.945"/>
<polygon fill="#000000" points="26.8517,687.525 24.6867,683.945 24.6824,684.009"/>
<polygon fill="#000000" points="26.8517,687.525 24.6824,684.009 24.6824,687.525"/>
<polygon fill="#000000" points="18.5007,681.356 18.5018,682.753 18.8748,681.034"/>
<polygon fill="#000000" points="18.1645,687.525 15.9953,680.781 15.9953,687.525"/>
<polygon fill="#000000" points="65.8793,680.112 65.8793,685.922 68.0725,685.922"/>
<polygon fill="#000000" points="65.8793,680.112 68.0725,685.922 68.0725,678.536"/>
<polygon fill="#000000" points="65.8793,680.112 68.0725,678.536 65.8686,678.536"/>
<polygon fill="#000000" points="65.8793,680.112 65.8686,678.536 63.7772,678.97"/>
<polygon fill="#000000" points="65.8793,680.112 63.7772,678.97 63.7772,680.545"/>
<polygon fill="#000000" points="70.1212,687.525 70.1212,685.922 68.0725,685.922"/>
<polygon fill="#000000" points="70.1212,687.525 68.0725,685.922 65.8793,685.922"/>
<polygon fill="#000000" points="70.1212,687.525 65.8793,685.922 63.8306,685.922"/>
<polygon fill="#000000" points="70.1212,687.525 63.8306,685.922 63.8306,687.525"/>
<polygon fill="#000000" points="78.9657,683.04 78.9273,682.185 78.8115,684.663"/>
<polygon fill="#000000" points="78.8115,684.663 78.9273,682.185 78.6188,680.721"/>
<polygon fill="#000000" points="78.002,686.485 77.5841,679.149 77.1012,687.262"/>
<polygon fill="#000000" points="78.002,686.485 78.002,679.586 77.5841,679.149"/>
<polygon fill="#000000" points="78.3488,685.959 78.002,679.586 78.002,686.485"/>
<polygon fill="#000000" points="78.3488,685.959 78.6188,680.721 78.002,679.586"/>
<polygon fill="#000000" points="78.8115,684.663 78.6188,680.721 78.3488,685.959"/>
<polygon fill="#ffffff" points="0,348.783 0,352.78 574.909,352.78"/>
<polygon fill="#ffffff" points="0,381.497 574.909,389.734 574.909,370.697"/>
<polygon fill="#ffffff" points="0,381.497 574.909,370.697 0,370.697"/>
<polygon fill="#ffffff" points="671.612,705 656.709,416.05 656.709,705"/>
<polygon fill="#ffffff" points="671.612,705 675.758,416.05 656.709,416.05"/>
<polygon fill="#ffffff" points="675.758,705 675.758,416.05 671.612,705"/>
<polygon fill="#ffffff" points="619.731,0 619.731,288.95 623.876,0"/>
<polygon fill="#ffffff" points="623.876,0 619.731,288.95 638.78,288.95"/>
<polygon fill="#ffffff" points="623.876,0 638.78,288.95 638.78,0"/>
<polygon fill="#ffffff" points="605.387,0 620.291,288.95 620.291,0"/>
<polygon fill="#ffffff" points="605.387,0 601.242,288.95 620.291,288.95"/>
<polygon fill="#ffffff" points="601.242,0 601.242,288.95 605.387,0"/>
<polygon fill="#ffffff" points="586.898,0 601.802,288.95 601.802,0"/>
<polygon fill="#ffffff" points="586.898,0 582.753,288.95 601.802,288.95"/>
<polygon fill="#ffffff" points="582.753,0 582.753,288.95 586.898,0"/>
<polygon fill="#ffffff" points="0,371.257 574.909,371.257 0,363.02"/>
<polygon fill="#ffffff" points="0,363.02 574.909,371.257 574.909,352.22"/>
<polygon fill="#ffffff" points="0,363.02 574.909,352.22 0,352.22"/>
<polygon fill="#ffffff" points="657.269,288.95 657.269,0 640.231,0"/>
<polygon fill="#ffffff" points="657.269,288.95 640.231,0 638.22,288.95"/>
<polygon fill="#ffffff" points="640.231,0 638.22,0 638.22,288.95"/>
<polygon fill="#ffffff" points="574.909,333.743 0,333.743 0,348.783"/>
<polygon fill="#ffffff" points="574.909,333.743 0,348.783 574.909,352.78"/>
<polygon fill="#ffffff" points="0,408.212 574.909,408.212 0,399.974"/>
<polygon fill="#ffffff" points="0,399.974 574.909,408.212 574.909,389.175"/>
<polygon fill="#ffffff" points="1277,296.789 702.09,296.789 1277,305.026"/>
<polygon fill="#ffffff" points="1277,305.026 702.09,296.789 702.09,315.826"/>
<polygon fill="#ffffff" points="1277,305.026 702.09,315.826 1277,315.826"/>
<polygon fill="#ffffff" points="0,399.974 574.909,389.175 0,389.174"/>
<polygon fill="#ffffff" points="657.269,705 657.269,416.05 653.123,705"/>
<polygon fill="#ffffff" points="653.123,705 657.269,416.05 638.22,416.05"/>
<polygon fill="#ffffff" points="653.123,705 638.22,416.05 638.22,705"/>
<polygon fill="#ffffff" points="636.768,705 638.78,705 638.78,416.05"/>
<polygon fill="#ffffff" points="619.731,416.05 636.768,705 638.78,416.05"/>
<polygon fill="#ffffff" points="619.731,416.05 619.731,705 636.768,705"/>
<polygon fill="#ffffff" points="1277,356.218 1277,352.22 702.09,352.22"/>
<polygon fill="#ffffff" points="702.09,371.257 1277,356.218 702.09,352.22"/>
<polygon fill="#ffffff" points="702.09,371.257 1277,371.257 1277,356.218"/>
<polygon fill="#ffffff" points="1277,315.266 702.09,315.266 1277,323.503"/>
<polygon fill="#ffffff" points="1277,323.503 702.09,315.266 702.09,334.303"/>
<polygon fill="#ffffff" points="1277,323.503 702.09,334.303 1277,334.303"/>
<polygon fill="#ffffff" points="1277,333.743 702.09,333.743 1277,341.98"/>
<polygon fill="#ffffff" points="1277,341.98 702.09,333.743 702.09,352.78"/>
<polygon fill="#ffffff" points="1277,341.98 702.09,352.78 1277,352.78"/>
<polygon fill="#ffffff" points="694.246,705 694.246,416.05 690.101,705"/>
<polygon fill="#ffffff" points="690.101,705 694.246,416.05 675.197,416.05"/>
<polygon fill="#ffffff" points="690.101,705 675.197,416.05 675.197,705"/>
<polygon fill="#ffffff" points="0,389.734 574.909,389.734 0,381.497"/>
<polygon fill="#000000" points="137.06,390.294 137.06,374.617 120.252,374.617"/>
<polygon fill="#000000" points="153.868,390.294 170.676,390.294 153.868,374.617"/>
<polygon fill="#000000" points="676.318,702.445 676.318,685.648 660.63,702.445"/>
<polygon fill="#000000" points="103.444,390.294 103.444,374.617 86.6358,374.617"/>
<polygon fill="#000000" points="86.6358,390.294 103.444,390.294 86.6358,374.617"/>
<polygon fill="#000000" points="69.8278,390.294 69.8278,374.617 53.0197,374.617"/>
<polygon fill="#000000" points="676.318,685.648 660.63,685.648 660.63,702.445"/>
<polygon fill="#000000" points="676.318,668.851 676.318,652.053 660.63,668.851"/>
<polygon fill="#000000" points="676.318,652.053 660.63,652.053 660.63,668.851"/>
<polygon fill="#000000" points="702.931,333.183 702.931,348.861 719.739,348.861"/>
<polygon fill="#000000" points="719.739,333.183 702.931,333.183 719.739,348.861"/>
<polygon fill="#000000" points="736.547,333.183 736.547,348.861 753.355,348.861"/>
<polygon fill="#000000" points="753.355,333.183 736.547,333.183 753.355,348.861"/>
<polygon fill="#000000" points="770.163,333.183 770.163,348.861 786.971,348.861"/>
<polygon fill="#000000" points="786.971,333.183 770.163,333.183 786.971,348.861"/>
<polygon fill="#000000" points="803.779,333.183 803.779,348.861 820.587,348.861"/>
<polygon fill="#000000" points="820.587,333.183 803.779,333.183 820.587,348.861"/>
<polygon fill="#000000" points="837.395,333.183 837.395,348.861 854.203,348.861"/>
<polygon fill="#000000" points="854.203,333.183 837.395,333.183 854.203,348.861"/>
<polygon fill="#000000" points="871.011,333.183 871.011,348.861 887.819,348.861"/>
<polygon fill="#000000" points="887.819,333.183 871.011,333.183 887.819,348.861"/>
<polygon fill="#000000" points="904.627,333.183 904.627,348.861 921.435,348.861"/>
<polygon fill="#000000" points="921.435,333.183 904.627,333.183 921.435,348.861"/>
<polygon fill="#000000" points="938.243,333.183 938.243,348.861 955.051,348.861"/>
<polygon fill="#000000" points="955.051,333.183 938.243,333.183 955.051,348.861"/>
<polygon fill="#000000" points="971.859,333.183 971.859,348.861 988.667,348.861"/>
<polygon fill="#000000" points="988.667,333.183 971.859,333.183 988.667,348.861"/>
<polygon fill="#000000" points="1005.48,333.183 1005.48,348.861 1022.28,348.861"/>
<polygon fill="#000000" points="1022.28,333.183 1005.48,333.183 1022.28,348.861"/>
<polygon fill="#000000" points="1039.09,333.183 1039.09,348.861 1055.9,348.861"/>
<polygon fill="#000000" points="1055.9,333.183 1039.09,333.183 1055.9,348.861"/>
<polygon fill="#000000" points="1072.71,333.183 1072.71,348.861 1089.52,348.861"/>
<polygon fill="#000000" points="1089.52,333.183 1072.71,333.183 1089.52,348.861"/>
<polygon fill="#000000" points="1106.32,333.183 1106.32,348.861 1123.13,348.861"/>
<polygon fill="#000000" points="1123.13,333.183 1106.32,333.183 1123.13,348.861"/>
<polygon fill="#000000" points="1139.94,333.183 1139.94,348.861 1156.75,348.861"/>
<polygon fill="#000000" points="1156.75,333.183 1139.94,333.183 1156.75,348.861"/>
<polygon fill="#000000" points="1173.56,333.183 1173.56,348.861 1190.36,348.861"/>
<polygon fill="#000000" points="1190.36,333.183 1173.56,333.183 1190.36,348.861"/>
<polygon fill="#000000" points="1207.17,333.183 1207.17,348.861 1223.98,348.861"/>
<polygon fill="#000000" points="1223.98,333.183 1207.17,333.183 1223.98,348.861"/>
<polygon fill="#000000" points="1240.79,333.183 1240.79,348.861 1257.6,348.861"/>
<polygon fill="#000000" points="1257.6,333.183 1240.79,333.183 1257.6,348.861"/>
<polygon fill="#000000" points="1277,335.605 1274.4,348.861 1277,348.861"/>
<polygon fill="#000000" points="1277,335.605 1274.4,333.183 1274.4,348.861"/>
<polygon fill="#000000" points="1277,333.183 1274.4,333.183 1277,335.605"/>
<polygon fill="#000000" points="53.0197,390.294 69.8278,390.294 53.0197,374.617"/>
<polygon fill="#000000" points="36.2117,390.294 36.2117,374.617 19.4037,374.617"/>
<polygon fill="#000000" points="19.4037,390.294 36.2117,390.294 19.4037,374.617"/>
<polygon fill="#000000" points="676.318,635.256 676.318,618.459 660.63,635.256"/>
<polygon fill="#000000" points="676.318,618.459 660.63,618.459 660.63,635.256"/>
<polygon fill="#000000" points="676.318,601.661 676.318,584.864 660.63,601.661"/>
<polygon fill="#000000" points="702.931,314.706 702.931,330.384 719.739,330.384"/>
<polygon fill="#000000" points="719.739,314.706 702.931,314.706 719.739,330.384"/>
<polygon fill="#000000" points="736.547,314.706 736.547,330.384 753.355,330.384"/>
<polygon fill="#000000" points="753.355,314.706 736.547,314.706 753.355,330.384"/>
<polygon fill="#000000" points="770.163,314.706 770.163,330.384 786.971,330.384"/>
<polygon fill="#000000" points="786.971,314.706 770.163,314.706 786.971,330.384"/>
<polygon fill="#000000" points="803.779,314.706 803.779,330.384 820.587,330.384"/>
<polygon fill="#000000" points="820.587,314.706 803.779,314.706 820.587,330.384"/>
<polygon fill="#000000" points="837.395,314.706 837.395,330.384 854.203,330.384"/>
<polygon fill="#000000" points="854.203,314.706 837.395,314.706 854.203,330.384"/>
<polygon fill="#000000" points="871.011,314.706 871.011,330.384 887.819,330.384"/>
<polygon fill="#000000" points="887.819,314.706 871.011,314.706 887.819,330.384"/>
<polygon fill="#000000" points="904.627,314.706 904.627,330.384 921.435,330.384"/>
<polygon fill="#000000" points="921.435,314.706 904.627,314.706 921.435,330.384"/>
<polygon fill="#000000" points="0,387.873 2.5956,374.617 0,374.617"/>
<polygon fill="#000000" points="0,387.873 2.5956,390.294 2.5956,374.617"/>
<polygon fill="#000000" points="0,390.294 2.5956,390.294 0,387.873"/>
<polygon fill="#000000" points="676.318,584.864 660.63,584.864 660.63,601.661"/>
<polygon fill="#000000" points="676.318,568.066 676.318,551.269 660.63,568.066"/>
<polygon fill="#000000" points="676.318,551.269 660.63,551.269 660.63,568.066"/>
<polygon fill="#000000" points="221.1,390.294 237.908,390.294 221.1,374.617"/>
<polygon fill="#000000" points="237.908,390.294 237.908,374.617 221.1,374.617"/>
<polygon fill="#000000" points="254.716,390.294 271.524,390.294 254.716,374.617"/>
<polygon fill="#000000" points="676.318,534.472 676.318,517.674 660.63,534.472"/>
<polygon fill="#000000" points="676.318,517.674 660.63,517.674 660.63,534.472"/>
<polygon fill="#000000" points="676.318,500.877 676.318,484.08 660.63,500.877"/>
<polygon fill="#000000" points="938.243,314.706 938.243,330.384 955.051,330.384"/>
<polygon fill="#000000" points="955.051,314.706 938.243,314.706 955.051,330.384"/>
<polygon fill="#000000" points="971.859,314.706 971.859,330.384 988.667,330.384"/>
<polygon fill="#000000" points="988.667,314.706 971.859,314.706 988.667,330.384"/>
<polygon fill="#000000" points="1005.48,314.706 1005.48,330.384 1022.28,330.384"/>
<polygon fill="#000000" points="1022.28,314.706 1005.48,314.706 1022.28,330.384"/>
<polygon fill="#000000" points="1039.09,314.706 1039.09,330.384 1055.9,330.384"/>
<polygon fill="#000000" points="1055.9,314.706 1039.09,314.706 1055.9,330.384"/>
<polygon fill="#000000" points="1072.71,314.706 1072.71,330.384 1089.52,330.384"/>
<polygon fill="#000000" points="1089.52,314.706 1072.71,314.706 1089.52,330.384"/>
<polygon fill="#000000" points="1106.32,314.706 1106.32,330.384 1123.13,330.384"/>
<polygon fill="#000000" points="1123.13,314.706 1106.32,314.706 1123.13,330.384"/>
<polygon fill="#000000" points="1139.94,314.706 1139.94,330.384 1156.75,330.384"/>
<polygon fill="#000000" points="1156.75,314.706 1139.94,314.706 1156.75,330.384"/>
<polygon fill="#000000" points="1173.56,314.706 1173.56,330.384 1190.36,330.384"/>
<polygon fill="#000000" points="1190.36,314.706 1173.56,314.706 1190.36,330.384"/>
<polygon fill="#000000" points="1207.17,314.706 1207.17,330.384 1223.98,330.384"/>
<polygon fill="#000000" points="1223.98,314.706 1207.17,314.706 1223.98,330.384"/>
<polygon fill="#000000" points="1240.79,314.706 1240.79,330.384 1257.6,330.384"/>
<polygon fill="#000000" points="1257.6,314.706 1240.79,314.706 1257.6,330.384"/>
<polygon fill="#000000" points="1277,317.127 1274.4,330.384 1277,330.384"/>
<polygon fill="#000000" points="1277,317.127 1274.4,314.706 1274.4,330.384"/>
<polygon fill="#000000" points="1277,314.706 1274.4,314.706 1277,317.127"/>
<polygon fill="#000000" points="271.524,390.294 271.524,374.617 254.716,374.617"/>
<polygon fill="#000000" points="288.332,390.294 305.14,390.294 288.332,374.617"/>
<polygon fill="#000000" points="657.829,416.89 642.142,416.89 642.142,433.687"/>
<polygon fill="#000000" points="657.829,433.687 657.829,416.89 642.142,433.687"/>
<polygon fill="#000000" points="657.829,450.485 642.142,450.485 642.142,467.282"/>
<polygon fill="#000000" points="657.829,467.282 657.829,450.485 642.142,467.282"/>
<polygon fill="#000000" points="657.829,484.08 642.142,484.08 642.142,500.877"/>
<polygon fill="#000000" points="657.829,500.877 657.829,484.08 642.142,500.877"/>
<polygon fill="#000000" points="305.14,390.294 305.14,374.617 288.332,374.617"/>
<polygon fill="#000000" points="204.292,390.294 204.292,374.617 187.484,374.617"/>
<polygon fill="#000000" points="657.829,517.674 642.142,517.674 642.142,534.472"/>
<polygon fill="#000000" points="657.829,534.472 657.829,517.674 642.142,534.472"/>
<polygon fill="#000000" points="321.948,390.294 338.756,390.294 321.948,374.617"/>
<polygon fill="#000000" points="338.756,390.294 338.756,374.617 321.948,374.617"/>
<polygon fill="#000000" points="355.564,390.294 372.373,390.294 355.564,374.617"/>
<polygon fill="#000000" points="657.829,551.269 642.142,551.269 642.142,568.066"/>
<polygon fill="#000000" points="657.829,568.066 657.829,551.269 642.142,568.066"/>
<polygon fill="#000000" points="657.829,584.864 642.142,584.864 642.142,601.661"/>
<polygon fill="#000000" points="372.373,390.294 372.373,374.617 355.564,374.617"/>
<polygon fill="#000000" points="389.181,390.294 405.989,390.294 389.181,374.617"/>
<polygon fill="#000000" points="405.989,390.294 405.989,374.617 389.181,374.617"/>
<polygon fill="#000000" points="657.829,601.661 657.829,584.864 642.142,601.661"/>
<polygon fill="#000000" points="657.829,618.459 642.142,618.459 642.142,635.256"/>
<polygon fill="#000000" points="657.829,635.256 657.829,618.459 642.142,635.256"/>
<polygon fill="#000000" points="574.069,371.817 574.069,356.139 557.261,356.139"/>
<polygon fill="#000000" points="557.261,371.817 574.069,371.817 557.261,356.139"/>
<polygon fill="#000000" points="540.453,371.817 540.453,356.139 523.645,356.139"/>
<polygon fill="#000000" points="523.645,371.817 540.453,371.817 523.645,356.139"/>
<polygon fill="#000000" points="506.837,371.817 506.837,356.139 490.029,356.139"/>
<polygon fill="#000000" points="490.029,371.817 506.837,371.817 490.029,356.139"/>
<polygon fill="#000000" points="473.221,371.817 473.221,356.139 456.413,356.139"/>
<polygon fill="#000000" points="456.413,371.817 473.221,371.817 456.413,356.139"/>
<polygon fill="#000000" points="439.605,371.817 439.605,356.139 422.797,356.139"/>
<polygon fill="#000000" points="422.797,371.817 439.605,371.817 422.797,356.139"/>
<polygon fill="#000000" points="405.989,371.817 405.989,356.139 389.181,356.139"/>
<polygon fill="#000000" points="389.181,371.817 405.989,371.817 389.181,356.139"/>
<polygon fill="#000000" points="372.373,371.817 372.373,356.139 355.564,356.139"/>
<polygon fill="#000000" points="355.564,371.817 372.373,371.817 355.564,356.139"/>
<polygon fill="#000000" points="338.756,371.817 338.756,356.139 321.948,356.139"/>
<polygon fill="#000000" points="321.948,371.817 338.756,371.817 321.948,356.139"/>
<polygon fill="#000000" points="305.14,371.817 305.14,356.139 288.332,356.139"/>
<polygon fill="#000000" points="422.797,390.294 439.605,390.294 422.797,374.617"/>
<polygon fill="#000000" points="439.605,390.294 439.605,374.617 422.797,374.617"/>
<polygon fill="#000000" points="456.413,390.294 473.221,390.294 456.413,374.617"/>
<polygon fill="#000000" points="288.332,371.817 305.14,371.817 288.332,356.139"/>
<polygon fill="#000000" points="271.524,371.817 271.524,356.139 254.716,356.139"/>
<polygon fill="#000000" points="254.716,371.817 271.524,371.817 254.716,356.139"/>
<polygon fill="#000000" points="237.908,371.817 237.908,356.139 221.1,356.139"/>
<polygon fill="#000000" points="221.1,371.817 237.908,371.817 221.1,356.139"/>
<polygon fill="#000000" points="204.292,371.817 204.292,356.139 187.484,356.139"/>
<polygon fill="#000000" points="187.484,371.817 204.292,371.817 187.484,356.139"/>
<polygon fill="#000000" points="657.829,652.053 642.142,652.053 642.142,668.851"/>
<polygon fill="#000000" points="657.829,668.851 657.829,652.053 642.142,668.851"/>
<polygon fill="#000000" points="657.829,685.648 642.142,685.648 642.142,702.445"/>
<polygon fill="#000000" points="473.221,390.294 473.221,374.617 456.413,374.617"/>
<polygon fill="#000000" points="490.029,390.294 506.837,390.294 490.029,374.617"/>
<polygon fill="#000000" points="506.837,390.294 506.837,374.617 490.029,374.617"/>
<polygon fill="#000000" points="170.676,371.817 170.676,356.139 153.868,356.139"/>
<polygon fill="#000000" points="153.868,371.817 170.676,371.817 153.868,356.139"/>
<polygon fill="#000000" points="137.06,371.817 137.06,356.139 120.252,356.139"/>
<polygon fill="#000000" points="120.252,371.817 137.06,371.817 120.252,356.139"/>
<polygon fill="#000000" points="103.444,371.817 103.444,356.139 86.6358,356.139"/>
<polygon fill="#000000" points="600.682,2.55499 600.682,19.3524 616.369,2.55499"/>
<polygon fill="#000000" points="600.682,19.3524 616.369,19.3524 616.369,2.55499"/>
<polygon fill="#000000" points="600.682,36.1498 600.682,52.9471 616.369,36.1498"/>
<polygon fill="#000000" points="600.682,52.9471 616.369,52.9471 616.369,36.1498"/>
<polygon fill="#000000" points="600.682,69.7445 600.682,86.5419 616.369,69.7445"/>
<polygon fill="#000000" points="600.682,86.5419 616.369,86.5419 616.369,69.7445"/>
<polygon fill="#000000" points="600.682,103.339 600.682,120.137 616.369,103.339"/>
<polygon fill="#000000" points="600.682,120.137 616.369,120.137 616.369,103.339"/>
<polygon fill="#000000" points="600.682,136.934 600.682,153.731 616.369,136.934"/>
<polygon fill="#000000" points="600.682,153.731 616.369,153.731 616.369,136.934"/>
<polygon fill="#000000" points="600.682,170.529 600.682,187.326 616.369,170.529"/>
<polygon fill="#000000" points="600.682,187.326 616.369,187.326 616.369,170.529"/>
<polygon fill="#000000" points="600.682,204.124 600.682,220.921 616.369,204.124"/>
<polygon fill="#000000" points="600.682,220.921 616.369,220.921 616.369,204.124"/>
<polygon fill="#000000" points="600.682,237.718 600.682,254.516 616.369,237.718"/>
<polygon fill="#000000" points="600.682,254.516 616.369,254.516 616.369,237.718"/>
<polygon fill="#000000" points="600.682,271.313 600.682,288.11 616.369,271.313"/>
<polygon fill="#000000" points="600.682,288.11 616.369,288.11 616.369,271.313"/>
<polygon fill="#000000" points="657.829,702.445 657.829,685.648 642.142,702.445"/>
<polygon fill="#000000" points="676.318,484.08 660.63,484.08 660.63,500.877"/>
<polygon fill="#000000" points="676.318,467.282 676.318,450.485 660.63,467.282"/>
<polygon fill="#000000" points="523.645,390.294 540.453,390.294 523.645,374.617"/>
<polygon fill="#000000" points="540.453,390.294 540.453,374.617 523.645,374.617"/>
<polygon fill="#000000" points="676.318,450.485 660.63,450.485 660.63,467.282"/>
<polygon fill="#000000" points="86.6358,371.817 103.444,371.817 86.6358,356.139"/>
<polygon fill="#000000" points="69.8278,371.817 69.8278,356.139 53.0197,356.139"/>
<polygon fill="#000000" points="53.0197,371.817 69.8278,371.817 53.0197,356.139"/>
<polygon fill="#000000" points="36.2117,371.817 36.2117,356.139 19.4037,356.139"/>
<polygon fill="#000000" points="19.4037,371.817 36.2117,371.817 19.4037,356.139"/>
<polygon fill="#000000" points="0,369.396 2.5956,356.139 0,356.139"/>
<polygon fill="#000000" points="0,369.396 2.5956,371.817 2.5956,356.139"/>
<polygon fill="#000000" points="0,371.817 2.5956,371.817 0,369.396"/>
<polygon fill="#000000" points="676.318,433.687 676.318,416.89 660.63,433.687"/>
<polygon fill="#000000" points="676.318,416.89 660.63,416.89 660.63,433.687"/>
<polygon fill="#000000" points="619.171,288.11 634.858,288.11 634.858,271.313"/>
<polygon fill="#000000" points="170.676,390.294 170.676,374.617 153.868,374.617"/>
<polygon fill="#000000" points="187.484,390.294 204.292,390.294 187.484,374.617"/>
<polygon fill="#000000" points="120.252,390.294 137.06,390.294 120.252,374.617"/>
<polygon fill="#000000" points="574.069,390.294 574.069,374.617 557.261,374.617"/>
<polygon fill="#000000" points="557.261,390.294 574.069,390.294 557.261,374.617"/>
<polygon fill="#000000" points="619.171,2.55499 619.171,19.3524 634.858,2.55499"/>
<polygon fill="#000000" points="619.171,19.3524 634.858,19.3524 634.858,2.55499"/>
<polygon fill="#000000" points="619.171,36.1498 619.171,52.9471 634.858,36.1498"/>
<polygon fill="#000000" points="619.171,52.9471 634.858,52.9471 634.858,36.1498"/>
<polygon fill="#000000" points="619.171,69.7445 619.171,86.5419 634.858,69.7445"/>
<polygon fill="#000000" points="619.171,86.5419 634.858,86.5419 634.858,69.7445"/>
<polygon fill="#000000" points="619.171,103.339 619.171,120.137 634.858,103.339"/>
<polygon fill="#000000" points="619.171,120.137 634.858,120.137 634.858,103.339"/>
<polygon fill="#000000" points="619.171,136.934 619.171,153.731 634.858,136.934"/>
<polygon fill="#000000" points="619.171,153.731 634.858,153.731 634.858,136.934"/>
<polygon fill="#000000" points="619.171,170.529 619.171,187.326 634.858,170.529"/>
<polygon fill="#000000" points="619.171,187.326 634.858,187.326 634.858,170.529"/>
<polygon fill="#000000" points="619.171,204.124 619.171,220.921 634.858,204.124"/>
<polygon fill="#000000" points="619.171,220.921 634.858,220.921 634.858,204.124"/>
<polygon fill="#000000" points="619.171,237.718 619.171,254.516 634.858,237.718"/>
<polygon fill="#000000" points="619.171,254.516 634.858,254.516 634.858,237.718"/>
<polygon fill="#000000" points="619.171,271.313 619.171,288.11 634.858,271.313"/>
<polygon fill="#000000" points="0,370.697 574.909,370.697 0,362.945"/>
<polygon fill="#000000" points="0,362.945 574.909,370.697 574.909,352.78"/>
<polygon fill="#000000" points="0,362.945 574.909,352.78 0,352.78"/>
<polygon fill="#000000" points="624.193,0 638.22,288.95 638.22,0"/>
<polygon fill="#000000" points="624.193,0 620.291,288.95 638.22,288.95"/>
<polygon fill="#000000" points="620.291,0 620.291,288.95 624.193,0"/>
<polygon fill="#000000" points="605.704,0 619.731,288.95 619.731,0"/>
<polygon fill="#000000" points="605.704,0 601.802,288.95 619.731,288.95"/>
<polygon fill="#000000" points="601.802,0 601.802,288.95 605.704,0"/>
<polygon fill="#000000" points="587.215,0 601.242,288.95 601.242,0"/>
<polygon fill="#000000" points="587.215,0 583.313,288.95 601.242,288.95"/>
<polygon fill="#000000" points="583.313,0 583.313,288.95 587.215,0"/>
<polygon fill="#000000" points="0,407.652 574.909,407.652 0,399.899"/>
<polygon fill="#000000" points="0,399.899 574.909,407.652 574.909,389.734"/>
<polygon fill="#000000" points="0,399.899 574.909,389.734 0,389.734"/>
<polygon fill="#000000" points="656.708,288.95 656.708,0 640.673,0"/>
<polygon fill="#000000" points="656.708,288.95 640.673,0 638.78,288.95"/>
<polygon fill="#000000" points="640.673,0 638.78,0 638.78,288.95"/>
<polygon fill="#000000" points="574.909,334.303 0,334.303 0,348.458"/>
<polygon fill="#000000" points="574.909,334.303 0,348.458 574.909,352.22"/>
<polygon fill="#000000" points="0,348.458 0,352.22 574.909,352.22"/>
<polygon fill="#000000" points="1277,297.349 702.09,297.349 1277,305.102"/>
<polygon fill="#000000" points="1277,305.102 702.09,297.349 702.09,315.266"/>
<polygon fill="#000000" points="1277,305.102 702.09,315.266 1277,315.266"/>
<polygon fill="#000000" points="1277,315.826 702.09,315.826 1277,323.579"/>
<polygon fill="#000000" points="0,389.174 574.909,389.174 0,381.422"/>
<polygon fill="#000000" points="0,381.422 574.909,389.174 574.909,371.257"/>
<polygon fill="#000000" points="0,381.422 574.909,371.257 0,371.257"/>
<polygon fill="#000000" points="1277,323.579 702.09,315.826 702.09,333.743"/>
<polygon fill="#000000" points="1277,323.579 702.09,333.743 1277,333.743"/>
<polygon fill="#000000" points="636.326,705 638.22,705 638.22,416.05"/>
<polygon fill="#000000" points="620.291,416.05 636.326,705 638.22,416.05"/>
<polygon fill="#000000" points="620.291,416.05 620.291,705 636.326,705"/>
<polygon fill="#000000" points="1277,356.543 1277,352.78 702.09,352.78"/>
<polygon fill="#000000" points="702.09,370.697 1277,356.543 702.09,352.78"/>
<polygon fill="#000000" points="702.09,370.697 1277,370.697 1277,356.543"/>
<polygon fill="#000000" points="1277,334.303 702.09,334.303 1277,342.056"/>
<polygon fill="#000000" points="1277,342.056 702.09,334.303 702.09,352.22"/>
<polygon fill="#000000" points="1277,342.056 702.09,352.22 1277,352.22"/>
<polygon fill="#000000" points="693.686,705 693.686,416.05 689.785,705"/>
<polygon fill="#000000" points="689.785,705 693.686,416.05 675.758,416.05"/>
<polygon fill="#000000" points="689.785,705 675.758,416.05 675.758,705"/>
<polygon fill="#000000" points="675.197,705 675.197,416.05 671.296,705"/>
<polygon fill="#000000" points="671.296,705 675.197,416.05 657.269,416.05"/>
<polygon fill="#000000" points="671.296,705 657.269,416.05 657.269,705"/>
<polygon fill="#000000" points="656.708,705 656.708,416.05 652.807,705"/>
<polygon fill="#000000" points="652.807,705 656.708,416.05 638.78,416.05"/>
<polygon fill="#000000" points="652.807,705 638.78,416.05 638.78,705"/>
<polygon fill="#000000" points="583.313,288.95 574.909,334.303 583.313,288.95"/>
<polygon fill="#000000" points="583.313,288.95 620.291,416.05 574.909,407.651"/>
<polygon fill="#000000" points="583.313,288.95 693.686,416.05 620.291,416.05"/>
<polygon fill="#000000" points="583.313,288.95 702.09,370.697 693.686,416.05"/>
<polygon fill="#000000" points="583.313,288.95 702.09,297.349 702.09,370.697"/>
<polygon fill="#000000" points="583.313,288.95 656.708,288.95 702.09,297.349"/>
<polygon fill="#000000" points="583.313,288.95 574.909,407.651 574.909,334.303"/>
<polygon fill="#000000" points="625.166,417.883 633.345,414.217 629.927,406.602"/>
<polygon fill="#000000" points="575.541,366.173 607.42,361.638 574.278,357.304"/>
<polygon fill="#000000" points="607.42,361.638 606.157,352.769 574.278,357.304"/>
<polygon fill="#000000" points="609.101,361.041 619.522,354.77 604.477,353.366"/>
<polygon fill="#000000" points="619.522,354.77 614.898,347.095 604.477,353.366"/>
<polygon fill="#000000" points="640.775,371.472 633.379,359.154 633.088,376.081"/>
<polygon fill="#000000" points="633.379,359.154 625.692,363.763 633.088,376.081"/>
<polygon fill="#000000" points="631.844,357.619 609.098,343.958 627.227,365.298"/>
<polygon fill="#000000" points="609.098,343.958 604.48,351.636 627.227,365.298"/>
<polygon fill="#000000" points="607.42,343.362 575.541,338.827 606.157,352.232"/>
<polygon fill="#000000" points="575.541,338.827 574.278,347.696 606.157,352.232"/>
<polygon fill="#000000" points="636.495,402.805 631.901,405.101 640.504,410.818"/>
<polygon fill="#000000" points="631.901,405.101 635.91,413.114 640.504,410.818"/>
<polygon fill="#000000" points="630.181,406.616 625.531,413.559 637.63,411.599"/>
<polygon fill="#000000" points="625.531,413.559 632.98,418.542 637.63,411.599"/>
<polygon fill="#000000" points="588.163,350.497 585.866,345.906 580.145,354.503"/>
<polygon fill="#000000" points="585.866,345.906 577.848,349.912 580.145,354.503"/>
<polygon fill="#000000" points="584.35,344.186 577.403,339.539 579.364,351.631"/>
<polygon fill="#000000" points="577.403,339.539 572.416,346.984 579.364,351.631"/>
<polygon fill="#000000" points="575.212,384.685 618.241,381.773 574.607,375.747"/>
<polygon fill="#000000" points="618.241,381.773 617.635,372.835 574.607,375.747"/>
<polygon fill="#000000" points="618.754,381.709 652.931,375.382 617.122,372.9"/>
<polygon fill="#000000" points="652.931,375.382 651.298,366.573 617.122,372.9"/>
<polygon fill="#000000" points="653.125,375.341 680.467,369.014 651.103,366.613"/>
<polygon fill="#000000" points="680.467,369.014 678.444,360.286 651.103,366.613"/>
<polygon fill="#000000" points="680.028,369.093 702.663,366.181 678.883,360.208"/>
<polygon fill="#000000" points="702.663,366.181 701.518,357.296 678.883,360.208"/>
<polygon fill="#000000" points="636.225,333.528 643.621,345.846 643.912,328.919"/>
<polygon fill="#000000" points="643.621,345.846 651.308,341.237 643.912,328.919"/>
<polygon fill="#000000" points="645.155,347.381 667.902,361.043 649.773,339.702"/>
<polygon fill="#000000" points="667.902,361.043 672.52,353.364 649.773,339.702"/>
<polygon fill="#000000" points="669.579,361.638 701.459,366.173 670.843,352.769"/>
<polygon fill="#000000" points="701.459,366.173 702.722,357.304 670.843,352.769"/>
<polygon fill="#000000" points="657.484,350.227 645.158,357.618 662.096,357.909"/>
<polygon fill="#000000" points="645.158,357.618 649.77,365.3 662.096,357.909"/>
<polygon fill="#000000" points="643.622,359.151 629.952,381.884 651.306,363.766"/>
<polygon fill="#000000" points="629.952,381.884 637.635,386.499 651.306,363.766"/>
<polygon fill="#000000" points="629.356,383.56 624.818,415.419 638.231,384.822"/>
<polygon fill="#000000" points="624.818,415.419 633.693,416.681 638.231,384.822"/>
<polygon fill="#000000" points="701.788,320.315 658.759,323.227 702.393,329.254"/>
<polygon fill="#000000" points="658.759,323.227 659.365,332.165 702.393,329.254"/>
<polygon fill="#000000" points="658.245,323.292 624.069,329.619 659.878,332.1"/>
<polygon fill="#000000" points="624.069,329.619 625.702,338.427 659.878,332.1"/>
<polygon fill="#000000" points="623.874,329.659 596.533,335.986 625.897,338.387"/>
<polygon fill="#000000" points="596.533,335.986 598.555,344.714 625.897,338.387"/>
<polygon fill="#000000" points="596.972,335.907 574.337,338.819 598.116,344.793"/>
<polygon fill="#000000" points="574.337,338.819 575.482,347.704 598.116,344.793"/>
<polygon fill="#000000" points="688.837,354.503 691.134,359.095 696.855,350.497"/>
<polygon fill="#000000" points="691.134,359.095 699.152,355.088 696.855,350.497"/>
<polygon fill="#000000" points="692.65,360.814 699.597,365.461 697.636,353.369"/>
<polygon fill="#000000" points="699.597,365.461 704.583,358.016 697.636,353.369"/>
<polygon fill="#000000" points="702.291,301.833 678.536,300.769 701.89,310.782"/>
<polygon fill="#000000" points="678.536,300.769 678.134,309.718 701.89,310.782"/>
<polygon fill="#000000" points="679.177,300.844 662.201,297.597 677.492,309.643"/>
<polygon fill="#000000" points="662.201,297.597 660.516,306.395 677.492,309.643"/>
<polygon fill="#000000" points="621.748,410.268 625.166,417.883 629.927,406.602"/>
<polygon fill="#000000" points="655.252,294.732 651.834,287.117 647.072,298.398"/>
<polygon fill="#000000" points="651.834,287.117 643.655,290.783 647.072,298.398"/>
<polygon fill="#000000" points="701.459,338.827 669.579,343.362 702.722,347.696"/>
<polygon fill="#000000" points="669.579,343.362 670.843,352.232 702.722,347.696"/>
<polygon fill="#000000" points="667.899,343.96 657.478,350.231 672.523,351.634"/>
<polygon fill="#000000" points="657.478,350.231 662.102,357.905 672.523,351.634"/>
<polygon fill="#000000" points="699.618,339.525 692.671,344.117 704.563,346.998"/>
<polygon fill="#000000" points="692.671,344.117 697.615,351.589 704.563,346.998"/>
<polygon fill="#000000" points="691.124,345.869 688.827,350.516 699.161,349.837"/>
<polygon fill="#000000" points="688.827,350.516 696.864,354.484 699.161,349.837"/>
<polygon fill="#000000" points="640.504,402.805 636.495,410.818 641.09,413.114"/>
<polygon fill="#000000" points="645.099,405.101 640.504,402.805 641.09,413.114"/>
<polygon fill="#000000" points="646.819,406.616 639.369,411.599 644.019,418.542"/>
<polygon fill="#000000" points="651.469,413.559 646.819,406.616 644.019,418.542"/>
<polygon fill="#000000" points="640.771,371.466 633.091,376.087 639.366,386.502"/>
<polygon fill="#000000" points="647.046,381.88 640.771,371.466 639.366,386.502"/>
<polygon fill="#000000" points="647.643,383.56 638.769,384.823 643.307,416.682"/>
<polygon fill="#000000" points="652.182,415.419 647.643,383.56 643.307,416.682"/>
<polygon fill="#000000" points="587.8,288.749 586.735,312.49 596.755,289.151"/>
<polygon fill="#000000" points="586.735,312.49 595.691,312.891 596.755,289.151"/>
<polygon fill="#000000" points="586.814,311.834 583.508,328.8 595.613,313.547"/>
<polygon fill="#000000" points="577.382,365.475 584.329,360.884 572.437,358.002"/>
<polygon fill="#000000" points="584.329,360.884 579.384,353.411 572.437,358.002"/>
<polygon fill="#000000" points="585.875,359.131 588.173,354.484 577.838,355.164"/>
<polygon fill="#000000" points="588.173,354.484 580.135,350.516 577.838,355.164"/>
<polygon fill="#000000" points="583.508,328.8 592.307,330.512 595.613,313.547"/>
<polygon fill="#000000" points="583.943,327.566 578.565,337.756 591.872,331.745"/>
<polygon fill="#000000" points="578.565,337.756 586.493,341.936 591.872,331.745"/>
<polygon fill="#000000" points="580.695,335.759 573.075,339.175 584.363,343.933"/>
<polygon fill="#000000" points="573.075,339.175 576.744,347.349 584.363,343.933"/>
<polygon fill="#000000" points="636.495,302.195 640.504,294.182 635.91,291.887"/>
<polygon fill="#000000" points="606.295,289.253 609.208,332.254 615.238,288.647"/>
<polygon fill="#000000" points="609.208,332.254 618.152,331.649 615.238,288.647"/>
<polygon fill="#000000" points="609.273,332.767 615.604,366.922 618.087,331.135"/>
<polygon fill="#000000" points="615.604,366.922 624.418,365.29 618.087,331.135"/>
<polygon fill="#000000" points="615.644,367.116 621.975,394.44 624.378,365.095"/>
<polygon fill="#000000" points="621.975,394.44 630.709,392.419 624.378,365.095"/>
<polygon fill="#000000" points="621.897,394.002 624.81,416.622 630.787,392.858"/>
<polygon fill="#000000" points="624.81,416.622 633.701,415.478 630.787,392.858"/>
<polygon fill="#000000" points="689.199,416.251 690.264,392.51 680.244,415.85"/>
<polygon fill="#000000" points="690.264,392.51 681.309,392.109 680.244,415.85"/>
<polygon fill="#000000" points="690.186,393.166 693.492,376.201 681.387,391.454"/>
<polygon fill="#000000" points="693.492,376.201 684.693,374.488 681.387,391.454"/>
<polygon fill="#000000" points="693.056,377.434 698.435,367.244 685.128,373.255"/>
<polygon fill="#000000" points="698.435,367.244 690.506,363.064 685.128,373.255"/>
<polygon fill="#000000" points="696.305,369.241 703.925,365.826 692.636,361.067"/>
<polygon fill="#000000" points="703.925,365.826 700.256,357.652 692.636,361.067"/>
<polygon fill="#000000" points="670.705,415.748 667.792,372.746 661.761,416.353"/>
<polygon fill="#000000" points="667.792,372.746 658.848,373.352 661.761,416.353"/>
<polygon fill="#000000" points="667.727,372.233 661.396,338.078 658.913,373.865"/>
<polygon fill="#000000" points="661.396,338.078 652.581,339.71 658.913,373.865"/>
<polygon fill="#000000" points="661.355,337.884 655.024,310.56 652.622,339.905"/>
<polygon fill="#000000" points="655.024,310.56 646.291,312.581 652.622,339.905"/>
<polygon fill="#000000" points="655.103,310.999 652.19,288.378 646.212,312.142"/>
<polygon fill="#000000" points="652.19,288.378 643.299,289.522 646.212,312.142"/>
<polygon fill="#000000" points="623.73,412.388 627.946,404.483 617.749,399.051"/>
<polygon fill="#000000" points="613.533,406.957 623.73,412.388 617.749,399.051"/>
<polygon fill="#000000" points="614.798,407.404 616.484,398.605 599.508,395.357"/>
<polygon fill="#000000" points="597.822,404.156 614.798,407.404 599.508,395.357"/>
<polygon fill="#000000" points="598.464,404.232 598.865,395.282 575.11,394.218"/>
<polygon fill="#000000" points="663.467,298.043 653.27,292.612 659.251,305.949"/>
<polygon fill="#000000" points="653.27,292.612 649.054,300.518 659.251,305.949"/>
<polygon fill="#000000" points="631.901,299.899 636.495,302.195 635.91,291.887"/>
<polygon fill="#000000" points="630.181,298.385 637.63,293.401 632.98,286.458"/>
<polygon fill="#000000" points="574.709,403.168 598.464,404.232 575.11,394.218"/>
<polygon fill="#000000" points="625.531,291.442 630.181,298.385 632.98,286.458"/>
<polygon fill="#000000" points="652.182,289.581 643.307,288.319 638.769,320.178"/>
<polygon fill="#000000" points="647.643,321.44 652.182,289.581 638.769,320.178"/>
<polygon fill="#000000" points="640.504,302.195 645.098,299.899 636.495,294.182"/>
<polygon fill="#000000" points="645.098,299.899 641.089,291.887 636.495,294.182"/>
<polygon fill="#000000" points="646.819,298.385 651.469,291.442 639.369,293.401"/>
<polygon fill="#000000" points="651.469,291.442 644.02,286.459 639.369,293.401"/>
<polygon fill="#000000" points="624.818,289.581 629.356,321.44 633.693,288.319"/>
<polygon fill="#000000" points="629.356,321.44 638.231,320.178 633.693,288.319"/>
<polygon fill="#000000" points="629.954,323.12 636.229,333.534 637.633,318.498"/>
<polygon fill="#000000" points="636.229,333.534 643.909,328.913 637.633,318.498"/>
<polygon fill="#000000" points="619.516,354.773 631.842,347.383 614.904,347.091"/>
<polygon fill="#000000" points="631.842,347.383 627.23,339.701 614.904,347.091"/>
<polygon fill="#000000" points="633.377,345.849 647.048,323.116 625.694,341.234"/>
<polygon fill="#000000" points="647.048,323.116 639.364,318.502 625.694,341.234"/>
<polygon fill="#ffffff" points="666.233,421.649 667.634,427.249 664.832,427.249"/>
<polygon fill="#ffffff" points="666.513,427.249 665.953,427.249 665.953,438.447"/>
<polygon fill="#ffffff" points="666.513,438.447 666.513,427.249 665.953,438.447"/>
<polygon fill="#00ff00" points="675.197,416.05 675.197,418.85 657.269,416.05"/>
<polygon fill="#ffffff" points="693.126,430.048 687.523,431.448 687.523,428.648"/>
<polygon fill="#ffffff" points="690.325,430.328 690.325,429.768 684.722,429.768"/>
<polygon fill="#ffffff" points="684.722,430.328 690.325,430.328 684.722,429.768"/>
<polygon fill="#ffffff" points="685.002,430.048 684.442,430.048 684.442,438.447"/>
<polygon fill="#ffffff" points="685.002,438.447 685.002,430.048 684.442,438.447"/>
<polygon fill="#00ff00" points="693.686,418.85 675.758,418.85 675.758,416.05"/>
<polygon fill="#00ff00" points="693.686,416.05 693.686,418.85 675.758,416.05"/>
<polygon fill="#ffffff" points="724.501,346.061 718.898,347.461 718.898,344.661"/>
<polygon fill="#ffffff" points="721.7,346.341 721.7,345.781 716.097,345.781"/>
<polygon fill="#ffffff" points="716.097,346.341 721.7,346.341 716.097,345.781"/>
<polygon fill="#00ff00" points="656.708,416.05 656.708,418.85 647.744,416.05"/>
<polygon fill="#00ff00" points="656.708,418.85 647.744,418.85 647.744,416.05"/>
<polygon fill="#00ff00" points="647.744,416.05 647.744,418.85 638.78,416.05"/>
<polygon fill="#00ff00" points="647.744,418.85 638.78,418.85 638.78,416.05"/>
<polygon fill="#ffffff" points="648.024,438.447 648.024,430.048 647.464,438.447"/>
<polygon fill="#ffffff" points="648.024,430.048 647.464,430.048 647.464,438.447"/>
<polygon fill="#ffffff" points="647.744,429.768 642.141,429.768 647.744,430.328"/>
<polygon fill="#ffffff" points="642.141,429.768 642.141,430.328 647.744,430.328"/>
<polygon fill="#ffffff" points="639.34,430.048 644.943,428.648 644.943,431.448"/>
<polygon fill="#ffffff" points="648.024,438.447 648.024,430.048 647.464,438.447"/>
<polygon fill="#ffffff" points="648.024,430.048 647.464,430.048 647.464,438.447"/>
<polygon fill="#ffffff" points="647.744,429.768 644.943,429.768 647.744,430.328"/>
<polygon fill="#ffffff" points="644.943,429.768 644.943,430.328 647.744,430.328"/>
<polygon fill="#ffffff" points="644.663,430.048 644.663,435.647 645.223,430.048"/>
<polygon fill="#ffffff" points="644.663,435.647 645.223,435.647 645.223,430.048"/>
<polygon fill="#ffffff" points="644.943,438.447 643.542,432.848 646.344,432.848"/>
<polygon fill="#ffffff" points="715.817,346.061 716.377,346.061 716.377,343.262"/>
<polygon fill="#ffffff" points="715.817,343.262 715.817,346.061 716.377,343.262"/>
<polygon fill="#ffffff" points="716.097,342.982 716.097,343.542 724.501,343.542"/>
<polygon fill="#ffffff" points="724.501,342.982 716.097,342.982 724.501,343.542"/>
<polygon fill="#ffffff" points="716.097,351.66 714.696,346.061 717.498,346.061"/>
<polygon fill="#ffffff" points="715.817,348.861 716.377,348.861 716.377,343.262"/>
<polygon fill="#ffffff" points="715.817,343.262 715.817,348.861 716.377,343.262"/>
<polygon fill="#ffffff" points="716.097,342.982 716.097,343.542 724.501,343.542"/>
<polygon fill="#ffffff" points="724.501,342.982 716.097,342.982 724.501,343.542"/>
<polygon fill="#ff0000" points="704.892,343.262 704.892,352.22 702.09,352.22"/>
<polygon fill="#ff0000" points="702.09,343.262 704.892,343.262 702.09,352.22"/>
<polygon fill="#ff0000" points="704.892,334.303 704.892,343.262 702.09,343.262"/>
<polygon fill="#ff0000" points="702.09,334.303 704.892,334.303 702.09,343.262"/>
<polygon fill="#ffffff" points="707.693,324.784 713.296,323.385 713.296,326.184"/>
<polygon fill="#ffffff" points="713.296,324.504 713.296,325.064 724.501,325.064"/>
<polygon fill="#ffffff" points="724.501,324.504 713.296,324.504 724.501,325.064"/>
<polygon fill="#ff0000" points="704.892,315.826 704.892,333.743 702.09,333.743"/>
<polygon fill="#00ff00" points="583.313,288.95 583.313,286.15 601.242,288.95"/>
<polygon fill="#ffffff" points="569.307,380.216 563.704,381.616 563.704,378.816"/>
<polygon fill="#00ff00" points="583.313,286.15 601.242,286.15 601.242,288.95"/>
<polygon fill="#ffffff" points="591.997,266.553 591.997,274.952 592.558,266.553"/>
<polygon fill="#ffffff" points="591.997,274.952 592.558,274.952 592.558,266.553"/>
<polygon fill="#ffffff" points="592.278,274.672 586.675,274.672 592.278,275.232"/>
<polygon fill="#ffffff" points="586.675,274.672 586.675,275.232 592.278,275.232"/>
<polygon fill="#ffffff" points="583.874,274.952 589.476,273.552 589.476,276.352"/>
<polygon fill="#00ff00" points="601.802,288.95 601.802,286.15 619.731,288.95"/>
<polygon fill="#00ff00" points="601.802,286.15 619.731,286.15 619.731,288.95"/>
<polygon fill="#ffffff" points="610.486,266.553 610.486,277.752 611.047,266.553"/>
<polygon fill="#ffffff" points="610.486,277.752 611.047,277.752 611.047,266.553"/>
<polygon fill="#ffffff" points="610.767,283.351 609.366,277.752 612.167,277.752"/>
<polygon fill="#00ff00" points="620.291,288.95 620.291,286.15 629.255,288.95"/>
<polygon fill="#00ff00" points="620.291,286.15 629.255,286.15 629.255,288.95"/>
<polygon fill="#00ff00" points="629.255,288.95 629.255,286.15 638.22,288.95"/>
<polygon fill="#00ff00" points="629.255,286.15 638.22,286.15 638.22,288.95"/>
<polygon fill="#ffffff" points="628.975,266.553 628.975,274.952 629.536,266.553"/>
<polygon fill="#ffffff" points="628.975,274.952 629.536,274.952 629.536,266.553"/>
<polygon fill="#ffffff" points="629.255,275.232 634.858,275.232 629.255,274.672"/>
<polygon fill="#ffffff" points="634.858,275.232 634.858,274.672 629.255,274.672"/>
<polygon fill="#ffffff" points="552.499,358.939 558.101,357.539 558.101,360.339"/>
<polygon fill="#ffffff" points="555.3,358.659 555.3,359.219 560.903,359.219"/>
<polygon fill="#ffffff" points="560.903,358.659 555.3,358.659 560.903,359.219"/>
<polygon fill="#ffffff" points="561.183,358.939 560.623,358.939 560.623,361.739"/>
<polygon fill="#ffffff" points="561.183,361.739 561.183,358.939 560.623,361.739"/>
<polygon fill="#ffffff" points="560.903,362.019 560.903,361.459 552.499,361.459"/>
<polygon fill="#ffffff" points="552.499,362.019 560.903,362.019 552.499,361.459"/>
<polygon fill="#ffffff" points="560.903,353.34 562.303,358.939 559.502,358.939"/>
<polygon fill="#ffffff" points="561.183,356.139 560.623,356.139 560.623,361.739"/>
<polygon fill="#ffffff" points="561.183,361.739 561.183,356.139 560.623,361.739"/>
<polygon fill="#ffffff" points="560.903,362.019 560.903,361.459 552.499,361.459"/>
<polygon fill="#ffffff" points="552.499,362.019 560.903,362.019 552.499,361.459"/>
<polygon fill="#ff0000" points="572.108,361.739 572.108,352.78 574.909,352.78"/>
<polygon fill="#ff0000" points="574.909,361.739 572.108,361.739 574.909,352.78"/>
<polygon fill="#ff0000" points="572.108,370.697 572.108,361.739 574.909,361.739"/>
<polygon fill="#ff0000" points="574.909,370.697 572.108,370.697 574.909,361.739"/>
<polygon fill="#ffffff" points="637.66,274.952 632.057,276.352 632.057,273.552"/>
<polygon fill="#ffffff" points="628.975,266.553 628.975,274.952 629.536,266.553"/>
<polygon fill="#ffffff" points="628.975,274.952 629.536,274.952 629.536,266.553"/>
<polygon fill="#ffffff" points="629.255,275.232 632.057,275.232 629.255,274.672"/>
<polygon fill="#ffffff" points="632.057,275.232 632.057,274.672 629.255,274.672"/>
<polygon fill="#ffffff" points="632.337,274.952 632.337,269.353 631.777,274.952"/>
<polygon fill="#ffffff" points="632.337,269.353 631.777,269.353 631.777,274.952"/>
<polygon fill="#ffffff" points="632.057,266.553 633.458,272.153 630.656,272.153"/>
<polygon fill="#ff0000" points="702.09,315.826 704.892,315.826 702.09,333.743"/>
<polygon fill="#ffffff" points="716.097,297.909 717.498,303.508 714.696,303.508"/>
<polygon fill="#ffffff" points="716.377,300.708 715.817,300.708 715.817,306.307"/>
<polygon fill="#ffffff" points="716.377,306.307 716.377,300.708 715.817,306.307"/>
<polygon fill="#ffffff" points="716.097,306.028 716.097,306.587 724.501,306.587"/>
<polygon fill="#ffffff" points="724.501,306.028 716.097,306.028 724.501,306.587"/>
<polygon fill="#ff0000" points="704.892,297.349 704.892,315.266 702.09,315.266"/>
<polygon fill="#ff0000" points="702.09,297.349 704.892,297.349 702.09,315.266"/>
<polygon fill="#ff0000" points="574.909,407.652 572.108,407.652 574.909,389.734"/>
<polygon fill="#ff0000" points="572.108,407.652 572.108,389.734 574.909,389.734"/>
<polygon fill="#ffffff" points="552.499,398.973 560.903,398.973 552.499,398.413"/>
<polygon fill="#ffffff" points="560.903,398.973 560.903,398.413 552.499,398.413"/>
<polygon fill="#ffffff" points="560.623,398.693 560.623,404.292 561.183,398.693"/>
<polygon fill="#ffffff" points="560.623,404.292 561.183,404.292 561.183,398.693"/>
<polygon fill="#ffffff" points="560.903,407.092 559.502,401.493 562.303,401.493"/>
<polygon fill="#ff0000" points="574.909,389.174 572.108,389.174 574.909,371.257"/>
<polygon fill="#ff0000" points="572.108,389.174 572.108,371.257 574.909,371.257"/>
<polygon fill="#ffffff" points="552.499,380.496 563.704,380.496 552.499,379.936"/>
<polygon fill="#ffffff" points="563.704,380.496 563.704,379.936 552.499,379.936"/>
<polygon fill="#00ff00" points="675.197,418.85 657.269,418.85 657.269,416.05"/>
<polyline fill="none" stroke="#ffffff" stroke-width="1" points="623.653,516.834 623.653,539.231"/>
<polyline fill="none" stroke="#ffffff" stroke-width="1" points="802.938,367.338 825.349,367.338"/>
<polyline fill="none" stroke="#ff00ff" stroke-width="1" points="473.501,343.262 452.211,343.262"/>
<polyline fill="none" stroke="#ffffff" stroke-width="1" points="474.061,337.663 451.65,337.663"/>
<polyline fill="none" stroke="#ffffff" stroke-width="1" points="474.061,348.861 474.061,337.663"/>
<polyline fill="none" stroke="#ffffff" stroke-width="1" points="451.65,337.663 451.65,348.861 474.061,348.861"/>
<polyline fill="none" stroke="#ffffff" stroke-width="1" points="462.856,352.78 462.856,333.743"/>
<polyline fill="none" stroke="#ffffff" stroke-width="1" points="802.938,356.139 802.938,367.338"/>
<polyline fill="none" stroke="#ffffff" stroke-width="1" points="825.349,367.338 825.349,356.139"/>
<polyline fill="none" stroke="#ff00ff" stroke-width="1" points="356.125,380.216 377.415,380.216"/>
<polyline fill="none" stroke="#ffffff" stroke-width="1" points="355.565,385.815 377.975,385.815"/>
<polyline fill="none" stroke="#ffffff" stroke-width="1" points="355.565,374.617 355.565,385.815"/>
<polyline fill="none" stroke="#ffffff" stroke-width="1" points="377.975,385.815 377.975,374.617 355.565,374.617"/>
<polyline fill="none" stroke="#ffffff" stroke-width="1" points="366.77,370.697 366.77,389.734"/>
<polyline fill="none" stroke="#ffffff" stroke-width="1" points="825.349,356.139 802.938,356.139"/>
<polyline fill="none" stroke="#ffffff" stroke-width="1" points="814.144,352.22 814.144,371.257"/>
<polyline fill="none" stroke="#ff00ff" stroke-width="1" points="356.125,361.739 377.415,361.739"/>
<polyline fill="none" stroke="#ffffff" stroke-width="1" points="355.565,367.338 377.975,367.338"/>
<polyline fill="none" stroke="#ffffff" stroke-width="1" points="355.565,356.139 355.565,367.338"/>
<polyline fill="none" stroke="#ffffff" stroke-width="1" points="377.975,367.338 377.975,356.139 355.565,356.139"/>
<polyline fill="none" stroke="#ffffff" stroke-width="1" points="366.77,352.22 366.77,371.257"/>
<polyline fill="none" stroke="#ff00ff" stroke-width="1" points="920.875,306.307 899.585,306.307"/>
<polyline fill="none" stroke="#ffffff" stroke-width="1" points="921.435,300.708 899.024,300.708"/>
<polyline fill="none" stroke="#ff00ff" stroke-width="1" points="647.744,187.606 647.744,166.329"/>
<polyline fill="none" stroke="#ffffff" stroke-width="1" points="653.347,188.166 653.347,165.769"/>
<polyline fill="none" stroke="#ffffff" stroke-width="1" points="642.141,188.166 653.347,188.166"/>
<polyline fill="none" stroke="#ffffff" stroke-width="1" points="653.347,165.769 642.141,165.769 642.141,188.166"/>
<polyline fill="none" stroke="#ffffff" stroke-width="1" points="638.22,176.968 657.269,176.968"/>
<polyline fill="none" stroke="#ffffff" stroke-width="1" points="921.435,311.907 921.435,300.708"/>
<polyline fill="none" stroke="#ffffff" stroke-width="1" points="899.024,300.708 899.024,311.907"/>
<polyline fill="none" stroke="#ff00ff" stroke-width="1" points="592.278,70.3042 592.278,91.5809"/>
<polyline fill="none" stroke="#ffffff" stroke-width="1" points="586.675,69.7443 586.675,92.1408"/>
<polyline fill="none" stroke="#ffffff" stroke-width="1" points="638.22,624.058 657.269,624.058"/>
<polyline fill="none" stroke="#ffffff" stroke-width="1" points="642.141,612.859 642.141,635.256"/>
<polyline fill="none" stroke="#ffffff" stroke-width="1" points="653.347,612.859 642.141,612.859"/>
<polyline fill="none" stroke="#ffffff" stroke-width="1" points="642.141,635.256 653.347,635.256 653.347,612.859"/>
<polyline fill="none" stroke="#ff00ff" stroke-width="1" points="647.744,634.696 647.744,613.419"/>
<polyline fill="none" stroke="#ffffff" stroke-width="1" points="899.024,311.907 921.435,311.907"/>
<polyline fill="none" stroke="#ffffff" stroke-width="1" points="910.23,315.826 910.23,296.789"/>
<polyline fill="none" stroke="#ffffff" stroke-width="1" points="656.709,624.058 675.758,624.058"/>
<polyline fill="none" stroke="#ffffff" stroke-width="1" points="660.63,612.859 660.63,635.256"/>
<polyline fill="none" stroke="#ffffff" stroke-width="1" points="671.836,612.859 660.63,612.859"/>
<polyline fill="none" stroke="#ffffff" stroke-width="1" points="660.63,635.256 671.836,635.256 671.836,612.859"/>
<polyline fill="none" stroke="#ff00ff" stroke-width="1" points="666.233,634.696 666.233,613.419"/>
<polyline fill="none" stroke="#ff00ff" stroke-width="1" points="920.875,324.784 899.585,324.784"/>
<polyline fill="none" stroke="#ffffff" stroke-width="1" points="921.435,319.185 899.024,319.185"/>
<polyline fill="none" stroke="#ffffff" stroke-width="1" points="675.197,624.058 694.246,624.058"/>
<polyline fill="none" stroke="#ffffff" stroke-width="1" points="679.119,612.859 679.119,635.256"/>
<polyline fill="none" stroke="#ffffff" stroke-width="1" points="690.325,612.859 679.119,612.859"/>
<polyline fill="none" stroke="#ffffff" stroke-width="1" points="679.119,635.256 690.325,635.256 690.325,612.859"/>
<polyline fill="none" stroke="#ff00ff" stroke-width="1" points="684.722,634.696 684.722,613.419"/>
<polyline fill="none" stroke="#ffffff" stroke-width="1" points="921.435,330.384 921.435,319.185"/>
<polyline fill="none" stroke="#ffffff" stroke-width="1" points="899.024,319.185 899.024,330.384"/>
<polyline fill="none" stroke="#ffffff" stroke-width="1" points="638.78,528.033 619.731,528.033"/>
<polyline fill="none" stroke="#ffffff" stroke-width="1" points="634.858,539.231 634.858,516.835"/>
<polyline fill="none" stroke="#ffffff" stroke-width="1" points="623.653,539.231 634.858,539.231"/>
<polyline fill="none" stroke="#ffffff" stroke-width="1" points="634.858,516.834 623.653,516.835"/>
<polyline fill="none" stroke="#ffffff" stroke-width="1" points="899.024,330.384 921.435,330.384"/>
<polyline fill="none" stroke="#ff00ff" stroke-width="1" points="629.255,517.394 629.255,538.671"/>
<polyline fill="none" stroke="#ffffff" stroke-width="1" points="910.23,334.303 910.23,315.266"/>
<polyline fill="none" stroke="#ff00ff" stroke-width="1" points="920.875,343.262 899.585,343.262"/>
<polyline fill="none" stroke="#ffffff" stroke-width="1" points="597.88,69.7443 586.675,69.7443"/>
<polyline fill="none" stroke="#ffffff" stroke-width="1" points="586.675,92.1408 597.88,92.1408 597.88,69.7443"/>
<polyline fill="none" stroke="#ffffff" stroke-width="1" points="601.802,80.9426 582.753,80.9426"/>
<polyline fill="none" stroke="#ffffff" stroke-width="1" points="921.435,337.663 899.024,337.663"/>
<polyline fill="none" stroke="#ffffff" stroke-width="1" points="921.435,348.861 921.435,337.663"/>
<polyline fill="none" stroke="#ff00ff" stroke-width="1" points="610.767,70.3042 610.767,91.5809"/>
<polyline fill="none" stroke="#ffffff" stroke-width="1" points="605.164,69.7443 605.164,92.1408"/>
<polyline fill="none" stroke="#ffffff" stroke-width="1" points="616.369,69.7443 605.164,69.7443"/>
<polyline fill="none" stroke="#ffffff" stroke-width="1" points="605.164,92.1408 616.369,92.1408 616.369,69.7443"/>
<polyline fill="none" stroke="#ffffff" stroke-width="1" points="620.291,80.9426 601.242,80.9426"/>
<polyline fill="none" stroke="#ffffff" stroke-width="1" points="899.024,337.663 899.024,348.861 921.435,348.861"/>
<polyline fill="none" stroke="#ff00ff" stroke-width="1" points="629.255,70.3042 629.255,91.5809"/>
<polyline fill="none" stroke="#ffffff" stroke-width="1" points="623.653,69.7443 623.653,92.1408"/>
<polyline fill="none" stroke="#ffffff" stroke-width="1" points="634.858,69.7443 623.653,69.7443"/>
<polyline fill="none" stroke="#ffffff" stroke-width="1" points="623.653,92.1408 634.858,92.1408 634.858,69.7443"/>
<polyline fill="none" stroke="#ffffff" stroke-width="1" points="638.78,80.9426 619.731,80.9426"/>
<polyline fill="none" stroke="#ffffff" stroke-width="1" points="910.23,352.78 910.23,333.743"/>
<polyline fill="none" stroke="#ffffff" stroke-width="1" points="366.77,389.174 366.77,408.212"/>
<polyline fill="none" stroke="#ff00ff" stroke-width="1" points="356.125,398.693 377.415,398.693"/>
<polyline fill="none" stroke="#ffffff" stroke-width="1" points="355.565,404.292 377.975,404.292"/>
<polyline fill="none" stroke="#ffffff" stroke-width="1" points="355.565,393.094 355.565,404.292"/>
<polyline fill="none" stroke="#ffffff" stroke-width="1" points="377.975,404.292 377.975,393.094 355.565,393.094"/>
<polyline fill="none" stroke="#ff00ff" stroke-width="1" points="803.499,361.739 824.789,361.739"/>
<polygon fill="#ff00ff" points="355.565,404.292 377.975,404.292 355.565,393.094"/>
<polygon fill="#ff00ff" points="623.653,92.1408 634.858,92.1408 634.858,69.7443"/>
<polygon fill="#ff00ff" points="623.653,69.7443 623.653,92.1408 634.858,69.7443"/>
<polygon fill="#ff00ff" points="605.164,92.1408 616.369,92.1408 616.369,69.7443"/>
<polygon fill="#ff00ff" points="605.164,69.7443 605.164,92.1408 616.369,69.7443"/>
<polygon fill="#ff00ff" points="623.653,516.834 623.653,539.231 634.858,516.834"/>
<polygon fill="#ff00ff" points="899.024,337.663 899.024,348.861 921.435,348.861"/>
<polygon fill="#ff00ff" points="921.435,337.663 899.024,337.663 921.435,348.861"/>
<polygon fill="#ff00ff" points="623.653,539.231 634.858,539.231 634.858,516.834"/>
<polygon fill="#ff00ff" points="474.061,337.663 451.65,337.663 474.061,348.861"/>
<polygon fill="#ff00ff" points="690.325,635.256 690.325,612.859 679.119,635.256"/>
<polygon fill="#ff00ff" points="690.325,612.859 679.119,612.859 679.119,635.256"/>
<polygon fill="#ff00ff" points="671.836,635.256 671.836,612.859 660.63,635.256"/>
<polygon fill="#ff00ff" points="671.836,612.859 660.63,612.859 660.63,635.256"/>
<polygon fill="#ff00ff" points="899.024,319.185 899.024,330.384 921.435,330.384"/>
<polygon fill="#ff00ff" points="921.435,319.185 899.024,319.185 921.435,330.384"/>
<polygon fill="#ff00ff" points="653.347,635.256 653.347,612.859 642.141,635.256"/>
<polygon fill="#ff00ff" points="653.347,612.859 642.141,612.859 642.141,635.256"/>
<polygon fill="#ff00ff" points="586.675,92.1408 597.88,92.1408 597.88,69.7443"/>
<polygon fill="#ff00ff" points="586.675,69.7443 586.675,92.1408 597.88,69.7443"/>
<polygon fill="#ff00ff" points="653.347,165.769 642.141,165.769 642.141,188.166"/>
<polygon fill="#ff00ff" points="653.347,188.166 653.347,165.769 642.141,188.166"/>
<polygon fill="#ff00ff" points="899.024,300.708 899.024,311.907 921.435,311.907"/>
<polygon fill="#ff00ff" points="921.435,300.708 899.024,300.708 921.435,311.907"/>
<polygon fill="#ff00ff" points="377.975,367.338 377.975,356.139 355.565,356.139"/>
<polygon fill="#ff00ff" points="355.565,367.338 377.975,367.338 355.565,356.139"/>
<polygon fill="#ff00ff" points="377.975,385.815 377.975,374.617 355.565,374.617"/>
<polygon fill="#ff00ff" points="355.565,385.815 377.975,385.815 355.565,374.617"/>
<polygon fill="#ff00ff" points="451.65,337.663 451.65,348.861 474.061,348.861"/>
<polygon fill="#ff00ff" points="377.975,404.292 377.975,393.094 355.565,393.094"/>
<polygon fill="#ff00ff" points="825.349,367.338 825.349,356.139 802.938,356.139"/>
<polygon fill="#ff00ff" points="802.938,367.338 825.349,367.338 802.938,356.139"/>
</g>
</svg>
