<?xml version="1.0" encoding="UTF-8" standalone="no"?>
<svg xmlns="http://www.w3.org/2000/svg"
     xmlns:xlink="http://www.w3.org/1999/xlink"
     width="1277px" height="705px" viewBox="0 0 1277 705">
<title>D:\junctionJoin_before.svg</title>
<desc>
Creator: GL2PS 1.3.6, (C) 1999-2011 C. Geuzaine
For: sumo-gui; http://sumo.sf.net
CreationDate: Wed Nov 09 12:36:23 2011
</desc>
<defs>
</defs>
<polygon fill="#ffffff" points="0,0 1277,0 1277,705 0,705"/>
<g shape-rendering="crispEdges">
<polygon fill="#000000" points="40.1645,687.525 37.9953,680.781 37.9953,687.525"/>
<polygon fill="#000000" points="14.3805,683.04 14.3421,682.185 14.2263,684.663"/>
<polygon fill="#000000" points="40.5007,681.356 40.5018,682.753 40.8748,681.034"/>
<polygon fill="#000000" points="48.8516,687.525 46.6824,684.009 46.6824,687.525"/>
<polygon fill="#000000" points="48.8516,687.525 46.6867,683.945 46.6824,684.009"/>
<polygon fill="#000000" points="48.8516,687.525 46.6899,683.88 46.6867,683.945"/>
<polygon fill="#000000" points="48.8516,687.525 46.692,683.847 46.6899,683.88"/>
<polygon fill="#000000" points="48.8516,687.525 46.6942,683.768 46.692,683.847"/>
<polygon fill="#000000" points="48.8516,687.525 46.6958,683.665 46.6942,683.768"/>
<polygon fill="#000000" points="48.8516,687.525 46.6958,683.604 46.6958,683.665"/>
<polygon fill="#000000" points="48.8516,687.525 48.2438,681.335 47.9781,681.077"/>
<polygon fill="#000000" points="48.8516,687.525 48.6329,682.013 48.2438,681.335"/>
<polygon fill="#000000" points="48.8516,687.525 48.8271,682.897 48.6329,682.013"/>
<polygon fill="#000000" points="48.8516,687.525 48.8516,683.417 48.8271,682.897"/>
<polygon fill="#000000" points="44.5078,687.525 42.3391,684.009 42.3391,687.525"/>
<polygon fill="#000000" points="44.5078,687.525 42.7463,680.672 42.3391,684.009"/>
<polygon fill="#000000" points="44.5078,687.525 43.2271,680.834 42.7463,680.672"/>
<polygon fill="#000000" points="44.5078,687.525 43.4475,680.955 43.2271,680.834"/>
<polygon fill="#000000" points="14.2263,684.663 14.3421,682.185 14.0337,680.721"/>
<polygon fill="#000000" points="14.2263,684.663 14.0337,680.721 13.7636,685.959"/>
<polygon fill="#000000" points="44.5078,687.525 43.8349,681.268 43.4475,680.955"/>
<polygon fill="#000000" points="44.5078,687.525 44.1402,681.668 43.8349,681.268"/>
<polygon fill="#000000" points="44.614,681.447 44.5254,683.848 44.6375,683.227"/>
<polygon fill="#000000" points="44.614,681.447 44.5078,684.212 44.5254,683.848"/>
<polygon fill="#000000" points="44.2618,681.9 44.5078,684.212 44.614,681.447"/>
<polygon fill="#000000" points="44.2618,681.9 44.5078,687.525 44.5078,684.212"/>
<polygon fill="#000000" points="44.1402,681.668 44.5078,687.525 44.2618,681.9"/>
<polygon fill="#000000" points="45.0148,681.089 45.3563,682.326 45.2336,680.946"/>
<polygon fill="#000000" points="45.0148,681.089 44.9988,682.569 45.3563,682.326"/>
<polygon fill="#000000" points="45.0148,681.089 44.8536,682.751 44.9988,682.569"/>
<polygon fill="#000000" points="45.0148,681.089 44.6375,683.227 44.8536,682.751"/>
<polygon fill="#000000" points="45.0148,681.089 44.614,681.447 44.6375,683.227"/>
<polygon fill="#000000" points="45.7016,680.736 45.804,682.245 46.2053,680.631"/>
<polygon fill="#000000" points="45.7016,680.736 45.3563,682.326 45.804,682.245"/>
<polygon fill="#000000" points="45.7016,680.736 45.2336,680.946 45.3563,682.326"/>
<polygon fill="#000000" points="46.4711,680.618 46.2736,682.361 46.4844,682.566"/>
<polygon fill="#000000" points="46.2053,680.631 46.2736,682.361 46.4711,680.618"/>
<polygon fill="#000000" points="46.2053,680.631 45.9812,682.258 46.2736,682.361"/>
<polygon fill="#000000" points="13.7636,685.959 14.0337,680.721 13.4168,679.586"/>
<polygon fill="#000000" points="13.7636,685.959 13.4168,679.586 13.4168,686.485"/>
<polygon fill="#000000" points="13.4168,686.485 13.4168,679.586 12.9989,679.149"/>
<polygon fill="#000000" points="13.4168,686.485 12.9989,679.149 12.516,687.262"/>
<polygon fill="#000000" points="12.516,687.262 12.9989,679.149 12.0619,683.021"/>
<polygon fill="#000000" points="12.516,687.262 12.0619,683.021 12.0491,683.663"/>
<polygon fill="#000000" points="11.7443,680.646 11.8585,680.961 11.969,678.567"/>
<polygon fill="#000000" points="11.969,678.567 11.8585,680.961 12.0112,681.832"/>
<polygon fill="#000000" points="11.969,678.567 12.0112,681.832 12.9989,679.149"/>
<polygon fill="#000000" points="12.9989,679.149 12.0112,681.832 12.0619,683.021"/>
<polygon fill="#000000" points="10.1509,680.067 10.6797,679.957 10.6797,678.373"/>
<polygon fill="#000000" points="10.6797,678.373 10.6797,679.957 10.9615,679.984"/>
<polygon fill="#000000" points="10.6797,678.373 10.9615,679.984 11.969,678.567"/>
<polygon fill="#000000" points="11.969,678.567 10.9615,679.984 11.422,680.205"/>
<polygon fill="#000000" points="11.969,678.567 11.422,680.205 11.7443,680.646"/>
<polygon fill="#000000" points="10.0026,678.421 8.84134,678.81 9.41019,681.357"/>
<polygon fill="#000000" points="10.0026,678.421 9.41019,681.357 9.61406,680.646"/>
<polygon fill="#000000" points="10.0026,678.421 9.61406,680.646 9.75868,680.398"/>
<polygon fill="#000000" points="10.0026,678.421 9.75868,680.398 10.1509,680.067"/>
<polygon fill="#000000" points="10.0026,678.421 10.1509,680.067 10.6797,678.373"/>
<polygon fill="#000000" points="45.804,682.245 45.9812,682.258 46.2053,680.631"/>
<polygon fill="#000000" points="47.3137,680.733 48.8516,687.525 47.9781,681.077"/>
<polygon fill="#000000" points="47.3137,680.733 46.6958,683.604 48.8516,687.525"/>
<polygon fill="#000000" points="47.3137,680.733 46.6621,683.094 46.6958,683.604"/>
<polygon fill="#000000" points="47.3137,680.733 46.5602,682.711 46.6621,683.094"/>
<polygon fill="#000000" points="47.3137,680.733 46.4844,682.566 46.5602,682.711"/>
<polygon fill="#000000" points="47.3137,680.733 46.4711,680.618 46.4844,682.566"/>
<polygon fill="#000000" points="41.5056,680.722 41.6438,682.258 41.9688,680.63"/>
<polygon fill="#000000" points="41.5056,680.722 41.4581,682.245 41.6438,682.258"/>
<polygon fill="#000000" points="41.0765,680.907 41.4581,682.245 41.5056,680.722"/>
<polygon fill="#000000" points="41.0765,680.907 41.0082,682.326 41.4581,682.245"/>
<polygon fill="#000000" points="40.8748,681.034 41.0082,682.326 41.0765,680.907"/>
<polygon fill="#000000" points="40.8748,681.034 40.648,682.57 41.0082,682.326"/>
<polygon fill="#000000" points="40.5018,682.753 40.648,682.57 40.8748,681.034"/>
<polygon fill="#000000" points="42.7463,680.672 42.3082,683.24 42.3391,684.009"/>
<polygon fill="#000000" points="42.7463,680.672 42.2153,682.727 42.3082,683.24"/>
<polygon fill="#000000" points="8.84134,678.81 7.94056,679.586 8.35839,686.922"/>
<polygon fill="#000000" points="8.84134,678.81 8.35839,686.922 9.38941,687.505"/>
<polygon fill="#000000" points="8.84134,678.81 9.38941,687.505 9.29548,683.021"/>
<polygon fill="#000000" points="8.84134,678.81 9.29548,683.021 9.30827,682.386"/>
<polygon fill="#000000" points="8.84134,678.81 9.30827,682.386 9.41019,681.357"/>
<polygon fill="#000000" points="12.516,687.262 12.0491,683.663 11.9466,684.705"/>
<polygon fill="#000000" points="42.2132,680.618 42.2153,682.727 42.7463,680.672"/>
<polygon fill="#000000" points="42.2132,680.618 42.1459,682.566 42.2153,682.727"/>
<polygon fill="#000000" points="41.9688,680.63 42.1459,682.566 42.2132,680.618"/>
<polygon fill="#000000" points="41.9688,680.63 41.9437,682.361 42.1459,682.566"/>
<polygon fill="#000000" points="41.6438,682.258 41.9437,682.361 41.9688,680.63"/>
<polygon fill="#000000" points="40.5007,681.356 40.2862,683.23 40.5018,682.753"/>
<polygon fill="#000000" points="40.5007,681.356 40.1779,683.846 40.2862,683.23"/>
<polygon fill="#000000" points="12.516,687.262 11.9466,684.705 11.7417,685.424"/>
<polygon fill="#000000" points="12.516,687.262 11.7417,685.424 11.5971,685.676"/>
<polygon fill="#000000" points="12.516,687.262 11.5971,685.676 11.3569,687.65"/>
<polygon fill="#000000" points="11.5971,685.676 11.2059,686.011 11.3569,687.65"/>
<polygon fill="#000000" points="11.3569,687.65 11.2059,686.011 10.6797,686.123"/>
<polygon fill="#000000" points="11.3569,687.65 10.6797,686.123 10.6797,687.699"/>
<polygon fill="#000000" points="10.6797,687.699 10.6797,686.123 10.3985,686.095"/>
<polygon fill="#000000" points="40.1645,681.769 40.1779,683.846 40.5007,681.356"/>
<polygon fill="#000000" points="40.1645,681.769 40.1645,684.207 40.1779,683.846"/>
<polygon fill="#000000" points="40.1645,680.781 40.1645,684.207 40.1645,681.769"/>
<polygon fill="#000000" points="40.1645,680.781 40.1645,687.525 40.1645,684.207"/>
<polygon fill="#000000" points="37.9953,680.781 40.1645,687.525 40.1645,680.781"/>
<polygon fill="#000000" points="36.1212,687.525 29.8306,685.922 29.8306,687.525"/>
<polygon fill="#000000" points="36.1212,687.525 31.8793,685.922 29.8306,685.922"/>
<polygon fill="#000000" points="36.1212,687.525 34.0725,685.922 31.8793,685.922"/>
<polygon fill="#000000" points="36.1212,687.525 36.1212,685.922 34.0725,685.922"/>
<polygon fill="#000000" points="31.8793,680.112 29.7773,678.97 29.7773,680.545"/>
<polygon fill="#000000" points="10.6797,687.699 10.3985,686.095 9.93744,685.872"/>
<polygon fill="#000000" points="9.61406,685.424 9.49932,685.105 9.38941,687.505"/>
<polygon fill="#000000" points="9.61406,685.424 9.38941,687.505 10.6797,687.699"/>
<polygon fill="#000000" points="31.8793,680.112 31.8686,678.536 29.7773,678.97"/>
<polygon fill="#000000" points="31.8793,680.112 34.0725,678.536 31.8686,678.536"/>
<polygon fill="#000000" points="31.8793,680.112 34.0725,685.922 34.0725,678.536"/>
<polygon fill="#000000" points="31.8793,680.112 31.8793,685.922 34.0725,685.922"/>
<polygon fill="#000000" points="18.1645,687.525 15.9953,680.781 15.9953,687.525"/>
<polygon fill="#000000" points="18.5007,681.356 18.5018,682.753 18.8748,681.034"/>
<polygon fill="#000000" points="26.8517,687.525 24.6824,684.009 24.6824,687.525"/>
<polygon fill="#000000" points="9.61406,685.424 10.6797,687.699 9.93744,685.872"/>
<polygon fill="#000000" points="9.34671,684.224 9.29548,683.021 9.38941,687.505"/>
<polygon fill="#000000" points="9.34671,684.224 9.38941,687.505 9.49932,685.105"/>
<polygon fill="#000000" points="6.97626,683.04 7.01523,683.892 7.13104,681.412"/>
<polygon fill="#000000" points="7.13104,681.412 7.01523,683.892 7.32368,685.352"/>
<polygon fill="#000000" points="7.13104,681.412 7.32368,685.352 7.5937,680.113"/>
<polygon fill="#000000" points="7.5937,680.113 7.32368,685.352 7.94056,686.485"/>
<polygon fill="#000000" points="26.8517,687.525 24.6867,683.945 24.6824,684.009"/>
<polygon fill="#000000" points="26.8517,687.525 24.6899,683.88 24.6867,683.945"/>
<polygon fill="#000000" points="26.8517,687.525 24.692,683.847 24.6899,683.88"/>
<polygon fill="#000000" points="26.8517,687.525 24.6941,683.768 24.692,683.847"/>
<polygon fill="#000000" points="26.8517,687.525 24.6957,683.665 24.6941,683.768"/>
<polygon fill="#000000" points="26.8517,687.525 24.6957,683.604 24.6957,683.665"/>
<polygon fill="#000000" points="26.8517,687.525 26.2439,681.335 25.9781,681.077"/>
<polygon fill="#000000" points="7.5937,680.113 7.94056,686.485 7.94056,679.586"/>
<polygon fill="#000000" points="7.94056,679.586 7.94056,686.485 8.35839,686.922"/>
<polygon fill="#000000" points="15.9953,680.781 18.1645,687.525 18.1645,680.781"/>
<polygon fill="#000000" points="18.1645,680.781 18.1645,687.525 18.1645,684.207"/>
<polygon fill="#000000" points="18.1645,680.781 18.1645,684.207 18.1645,681.769"/>
<polygon fill="#000000" points="18.1645,681.769 18.1645,684.207 18.1779,683.846"/>
<polygon fill="#000000" points="18.1645,681.769 18.1779,683.846 18.5007,681.356"/>
<polygon fill="#000000" points="18.5007,681.356 18.1779,683.846 18.2862,683.23"/>
<polygon fill="#000000" points="18.5007,681.356 18.2862,683.23 18.5018,682.753"/>
<polygon fill="#000000" points="19.6438,682.258 19.9437,682.361 19.9688,680.63"/>
<polygon fill="#000000" points="19.9688,680.63 19.9437,682.361 20.1459,682.566"/>
<polygon fill="#000000" points="19.9688,680.63 20.1459,682.566 20.2132,680.618"/>
<polygon fill="#000000" points="20.2132,680.618 20.1459,682.566 20.2153,682.727"/>
<polygon fill="#000000" points="20.2132,680.618 20.2153,682.727 20.7463,680.672"/>
<polygon fill="#000000" points="20.7463,680.672 20.2153,682.727 20.3082,683.24"/>
<polygon fill="#000000" points="26.8517,687.525 26.6329,682.013 26.2439,681.335"/>
<polygon fill="#000000" points="26.8517,687.525 26.8271,682.897 26.6329,682.013"/>
<polygon fill="#000000" points="26.8517,687.525 26.8517,683.417 26.8271,682.897"/>
<polygon fill="#000000" points="22.5078,687.525 20.3391,684.009 20.3391,687.525"/>
<polygon fill="#000000" points="22.5078,687.525 20.7463,680.672 20.3391,684.009"/>
<polygon fill="#000000" points="22.5078,687.525 21.2271,680.834 20.7463,680.672"/>
<polygon fill="#000000" points="22.5078,687.525 21.4475,680.955 21.2271,680.834"/>
<polygon fill="#000000" points="22.5078,687.525 21.8349,681.268 21.4475,680.955"/>
<polygon fill="#000000" points="22.5078,687.525 22.1401,681.668 21.8349,681.268"/>
<polygon fill="#000000" points="20.7463,680.672 20.3082,683.24 20.3391,684.009"/>
<polygon fill="#000000" points="18.5018,682.753 18.648,682.57 18.8748,681.034"/>
<polygon fill="#000000" points="18.8748,681.034 18.648,682.57 19.0082,682.326"/>
<polygon fill="#000000" points="18.8748,681.034 19.0082,682.326 19.0765,680.907"/>
<polygon fill="#000000" points="22.614,681.447 22.5254,683.848 22.6375,683.227"/>
<polygon fill="#000000" points="22.614,681.447 22.5078,684.212 22.5254,683.848"/>
<polygon fill="#000000" points="22.2618,681.9 22.5078,684.212 22.614,681.447"/>
<polygon fill="#000000" points="22.2618,681.9 22.5078,687.525 22.5078,684.212"/>
<polygon fill="#000000" points="22.1401,681.668 22.5078,687.525 22.2618,681.9"/>
<polygon fill="#000000" points="23.0148,681.089 23.3563,682.326 23.2336,680.946"/>
<polygon fill="#000000" points="23.0148,681.089 22.9988,682.569 23.3563,682.326"/>
<polygon fill="#000000" points="23.0148,681.089 22.8536,682.751 22.9988,682.569"/>
<polygon fill="#000000" points="23.0148,681.089 22.6375,683.227 22.8536,682.751"/>
<polygon fill="#000000" points="19.0765,680.907 19.0082,682.326 19.4581,682.245"/>
<polygon fill="#000000" points="19.0765,680.907 19.4581,682.245 19.5056,680.722"/>
<polygon fill="#000000" points="19.5056,680.722 19.4581,682.245 19.6438,682.258"/>
<polygon fill="#000000" points="19.5056,680.722 19.6438,682.258 19.9688,680.63"/>
<polygon fill="#000000" points="25.3137,680.733 24.4711,680.618 24.4844,682.566"/>
<polygon fill="#000000" points="25.3137,680.733 24.4844,682.566 24.5602,682.711"/>
<polygon fill="#000000" points="25.3137,680.733 24.5602,682.711 24.6621,683.094"/>
<polygon fill="#000000" points="25.3137,680.733 24.6621,683.094 24.6957,683.604"/>
<polygon fill="#000000" points="25.3137,680.733 24.6957,683.604 26.8517,687.525"/>
<polygon fill="#000000" points="25.3137,680.733 26.8517,687.525 25.9781,681.077"/>
<polygon fill="#000000" points="23.804,682.245 23.9812,682.258 24.2053,680.631"/>
<polygon fill="#000000" points="24.2053,680.631 23.9812,682.258 24.2736,682.361"/>
<polygon fill="#000000" points="24.2053,680.631 24.2736,682.361 24.4711,680.618"/>
<polygon fill="#000000" points="24.4711,680.618 24.2736,682.361 24.4844,682.566"/>
<polygon fill="#000000" points="23.7016,680.736 23.2336,680.946 23.3563,682.326"/>
<polygon fill="#000000" points="23.7016,680.736 23.3563,682.326 23.804,682.245"/>
<polygon fill="#000000" points="23.7016,680.736 23.804,682.245 24.2053,680.631"/>
<polygon fill="#000000" points="23.0148,681.089 22.614,681.447 22.6375,683.227"/>
<polyline fill="none" stroke="#000000" stroke-width="1" points="34.77,697.511 34.77,690.021"/>
<polyline fill="none" stroke="#000000" stroke-width="1" points="12.77,697.511 34.77,697.511"/>
<polyline fill="none" stroke="#000000" stroke-width="1" points="12.77,697.511 12.77,690.021"/>
<polygon fill="#ffffff" points="596.994,705 609.532,705 570.854,553.628"/>
<polygon fill="#ffffff" points="905.553,365.602 1277,195.202 1277,148.576"/>
<polygon fill="#ffffff" points="905.553,365.602 1277,148.576 873.95,296.799"/>
<polygon fill="#ffffff" points="1277,148.576 1277,111.901 873.95,296.799"/>
<polygon fill="#ffffff" points="497.455,572.359 596.994,705 570.854,553.628"/>
<polygon fill="#ffffff" points="911.622,705 846.81,497.602 893.981,705"/>
<polygon fill="#ffffff" points="893.981,705 846.81,497.602 774.501,520.17"/>
<polygon fill="#ffffff" points="605.768,234.046 589.948,237.832 623.407,307.671"/>
<polygon fill="#ffffff" points="589.948,237.832 607.588,311.456 623.407,307.671"/>
<polygon fill="#ffffff" points="405.563,231.663 0,275.179 0,305.591"/>
<polygon fill="#ffffff" points="405.563,231.663 0,305.591 413.65,306.936"/>
<polygon fill="#ffffff" points="0,305.591 0,351.32 413.65,306.936"/>
<polygon fill="#ffffff" points="893.981,705 774.501,520.17 832.26,705"/>
<polygon fill="#ffffff" points="497.455,572.359 531.348,705 596.994,705"/>
<polygon fill="#ffffff" points="572.124,166.579 589.764,240.204 605.583,236.419"/>
<polygon fill="#ffffff" points="970.906,0 743.314,106.781 1022.61,0"/>
<polygon fill="#ffffff" points="988.694,705 916.994,475.558 969.179,705"/>
<polygon fill="#ffffff" points="1022.61,0 775.507,175.31 1149.16,0"/>
<polygon fill="#ffffff" points="587.943,162.794 572.124,166.579 605.583,236.419"/>
<polygon fill="#ffffff" points="538.707,413.288 541.604,430.211 613.377,400.524"/>
<polygon fill="#ffffff" points="522.543,705 533.569,705 499.556,571.886"/>
<polygon fill="#ffffff" points="1277,226.634 1277,192.746 904.477,363.597"/>
<polygon fill="#ffffff" points="936.074,432.403 1277,226.634 904.477,363.597"/>
<polygon fill="#ffffff" points="936.074,432.403 1277,276.044 1277,226.634"/>
<polygon fill="#ffffff" points="622.881,305.419 607.062,309.427 641.497,378.803"/>
<polygon fill="#ffffff" points="607.062,309.427 625.678,382.811 641.497,378.803"/>
<polygon fill="#ffffff" points="969.179,705 844.684,498.126 909.332,705"/>
<polygon fill="#ffffff" points="719.582,320.764 646.395,340.301 663.773,405.319"/>
<polygon fill="#ffffff" points="736.961,385.781 719.582,320.764 663.773,405.319"/>
<polygon fill="#ffffff" points="1143.81,0 774.5,173.361 1227.67,0"/>
<polygon fill="#ffffff" points="1277,0 1227.67,0 774.5,173.361"/>
<polygon fill="#ffffff" points="0,584.802 382.03,543.626 0,537.539"/>
<polygon fill="#ffffff" points="0,537.539 382.03,543.626 373.907,468.357"/>
<polygon fill="#ffffff" points="0,537.539 373.907,468.357 0,508.657"/>
<polygon fill="#ffffff" points="1022.61,0 743.314,106.781 775.507,175.31"/>
<polygon fill="#ffffff" points="541.604,430.211 616.273,417.446 613.377,400.524"/>
<polygon fill="#ffffff" points="656.698,499.297 668.061,496.18 636.645,426.292"/>
<polygon fill="#ffffff" points="668.061,496.18 648.008,423.175 636.645,426.292"/>
<polygon fill="#ffffff" points="790.657,301.837 717.469,321.375 734.848,386.393"/>
<polygon fill="#ffffff" points="808.036,366.855 790.657,301.837 734.848,386.393"/>
<polygon fill="#ffffff" points="554.034,95.4472 572.65,168.831 588.469,164.823"/>
<polygon fill="#ffffff" points="569.853,91.4392 554.034,95.4472 588.469,164.823"/>
<polygon fill="#ffffff" points="1277,0 806.707,241.884 1277,21.1199"/>
<polygon fill="#ffffff" points="466.296,425.757 469.192,442.68 540.965,412.993"/>
<polygon fill="#ffffff" points="469.192,442.68 543.862,429.916 540.965,412.993"/>
<polygon fill="#ffffff" points="426.158,590.617 455.385,705 522.543,705"/>
<polygon fill="#ffffff" points="426.158,590.617 522.543,705 499.556,571.886"/>
<polygon fill="#ffffff" points="1277,0 774.5,173.361 806.707,241.884"/>
<polygon fill="#ffffff" points="969.179,705 916.994,475.558 844.684,498.126"/>
<polygon fill="#000000" points="721.863,320.671 661.591,336.76 678.841,401.297"/>
<polygon fill="#000000" points="796.713,160.474 823.236,216.904 883.735,188.505"/>
<polygon fill="#000000" points="857.212,132.074 796.713,160.474 883.735,188.505"/>
<polygon fill="#000000" points="917.712,103.675 944.235,160.105 1004.74,131.706"/>
<polygon fill="#000000" points="978.212,75.2749 917.712,103.675 1004.74,131.706"/>
<polygon fill="#000000" points="1038.71,46.8753 1065.23,103.306 1125.73,74.9063"/>
<polygon fill="#000000" points="1099.21,18.4756 1038.71,46.8753 1125.73,74.9063"/>
<polygon fill="#000000" points="1190.52,0 1186.23,46.5067 1246.73,18.107"/>
<polygon fill="#000000" points="1190.52,0 1164.38,0 1186.23,46.5067"/>
<polygon fill="#000000" points="1238.22,0 1190.52,0 1246.73,18.107"/>
<polygon fill="#000000" points="587.424,160.629 522.42,176.183 601.951,221.261"/>
<polygon fill="#000000" points="495.297,572.91 511.834,637.632 555.742,557.484"/>
<polygon fill="#000000" points="511.834,637.632 572.28,622.207 555.742,557.484"/>
<polygon fill="#000000" points="528.372,702.354 529.048,705 578.918,705"/>
<polygon fill="#000000" points="536.511,413.664 547.781,479.506 598.004,403.152"/>
<polygon fill="#000000" points="547.781,479.506 609.273,468.995 598.004,403.152"/>
<polygon fill="#000000" points="522.42,176.183 536.947,236.815 601.951,221.261"/>
<polygon fill="#000000" points="1210.22,228.288 1184.19,171.627 1123.44,199.495"/>
<polygon fill="#000000" points="906.483,367.626 967.23,339.758 880.456,310.964"/>
<polygon fill="#000000" points="967.23,339.758 941.203,283.097 880.456,310.964"/>
<polygon fill="#000000" points="1027.98,311.891 1088.72,284.023 1001.95,255.229"/>
<polygon fill="#000000" points="528.372,702.354 578.918,705 588.818,686.929"/>
<polygon fill="#000000" points="578.918,705 593.435,705 588.818,686.929"/>
<polygon fill="#000000" points="557.542,319.676 572.873,380.11 637.664,363.694"/>
<polygon fill="#000000" points="622.333,303.261 557.542,319.676 637.664,363.694"/>
<polygon fill="#000000" points="540.245,247.435 554.771,308.067 619.775,292.513"/>
<polygon fill="#000000" points="1088.72,284.023 1062.7,227.362 1001.95,255.229"/>
<polygon fill="#000000" points="834.575,450.98 775.026,469.565 794.952,533.327"/>
<polygon fill="#000000" points="854.501,514.742 834.575,450.98 794.952,533.327"/>
<polygon fill="#000000" points="874.426,578.504 814.877,597.089 834.803,660.851"/>
<polygon fill="#000000" points="894.352,642.266 874.426,578.504 834.803,660.851"/>
<polygon fill="#000000" points="1149.47,256.156 1210.22,228.288 1123.44,199.495"/>
<polygon fill="#000000" points="1277,154.398 1277,129.052 1244.94,143.76"/>
<polygon fill="#000000" points="1270.96,200.421 1277,154.398 1244.94,143.76"/>
<polygon fill="#000000" points="1270.96,200.421 1277,197.652 1277,154.398"/>
<polygon fill="#000000" points="739.114,385.207 721.863,320.671 678.841,401.297"/>
<polygon fill="#000000" points="605.249,231.881 540.245,247.435 619.775,292.513"/>
<polygon fill="#000000" points="968.02,705 846.811,497.463 911.667,705"/>
<polygon fill="#000000" points="968.02,705 914.867,476.222 846.811,497.463"/>
<polygon fill="#000000" points="986.36,705 914.867,476.222 968.02,705"/>
<polygon fill="#000000" points="892.714,705 844.683,498.266 776.628,519.506"/>
<polygon fill="#000000" points="892.714,705 776.628,519.506 834.594,705"/>
<polygon fill="#000000" points="976.149,0 744.261,108.797 1025.2,0"/>
<polygon fill="#000000" points="1025.2,0 744.261,108.797 774.56,173.295"/>
<polygon fill="#000000" points="1025.2,0 774.56,173.295 1143.92,0"/>
<polygon fill="#000000" points="1149.05,0 775.447,175.376 1228.03,0"/>
<polygon fill="#000000" points="1277,0 1228.03,0 775.447,175.376"/>
<polygon fill="#000000" points="1277,0 775.447,175.376 805.759,239.868"/>
<polygon fill="#000000" points="595.461,705 607.233,705 568.695,554.179"/>
<polygon fill="#000000" points="499.614,571.808 595.461,705 568.695,554.179"/>
<polygon fill="#000000" points="570.401,93.5976 554.582,97.6055 587.922,162.665"/>
<polygon fill="#000000" points="554.582,97.6055 572.103,166.673 587.922,162.665"/>
<polygon fill="#000000" points="499.614,571.808 533.647,705 595.461,705"/>
<polygon fill="#000000" points="1277,0 805.759,239.868 1277,18.66"/>
<polygon fill="#000000" points="543.8,429.835 614.077,417.822 611.18,400.899"/>
<polygon fill="#000000" points="656.108,497.15 667.471,494.033 637.234,428.439"/>
<polygon fill="#000000" points="540.904,412.913 543.8,429.835 611.18,400.899"/>
<polygon fill="#000000" points="520.923,705 531.27,705 497.398,572.437"/>
<polygon fill="#000000" points="428.317,590.066 520.923,705 497.398,572.437"/>
<polygon fill="#000000" points="805.883,367.43 788.504,302.412 737.001,385.818"/>
<polygon fill="#000000" points="788.504,302.412 719.622,320.8 737.001,385.818"/>
<polygon fill="#000000" points="588.462,164.959 572.643,168.745 605.064,234.253"/>
<polygon fill="#000000" points="572.643,168.745 589.245,238.038 605.064,234.253"/>
<polygon fill="#000000" points="428.317,590.066 457.684,705 520.923,705"/>
<polygon fill="#000000" points="734.808,386.356 717.43,321.338 665.926,404.744"/>
<polygon fill="#000000" points="717.43,321.338 648.547,339.727 665.926,404.744"/>
<polygon fill="#000000" points="667.471,494.033 648.597,425.322 637.234,428.439"/>
<polygon fill="#000000" points="471.388,442.304 541.665,430.291 538.769,413.369"/>
<polygon fill="#000000" points="468.492,425.382 471.388,442.304 538.769,413.369"/>
<polygon fill="#000000" points="935.145,430.379 1277,273.594 1277,227.075"/>
<polygon fill="#000000" points="935.145,430.379 1277,227.075 905.407,365.62"/>
<polygon fill="#000000" points="1277,227.075 1277,195.196 905.407,365.62"/>
<polygon fill="#000000" points="904.624,363.578 1277,192.752 1277,148.859"/>
<polygon fill="#000000" points="904.624,363.578 1277,148.859 874.879,298.823"/>
<polygon fill="#000000" points="1277,148.859 1277,114.352 874.879,298.823"/>
<polygon fill="#000000" points="0,538.073 374.146,470.571 0,510.897"/>
<polygon fill="#000000" points="606.286,236.212 590.467,239.997 622.888,305.505"/>
<polygon fill="#000000" points="590.467,239.997 607.069,309.291 622.888,305.505"/>
<polygon fill="#000000" points="0,538.073 381.791,541.412 374.146,470.571"/>
<polygon fill="#000000" points="0,582.562 381.791,541.412 0,538.073"/>
<polygon fill="#000000" points="607.609,311.585 625.13,380.653 640.949,376.645"/>
<polygon fill="#000000" points="623.428,307.577 607.609,311.585 640.949,376.645"/>
<polygon fill="#000000" points="0,306.037 0,349.08 413.412,304.723"/>
<polygon fill="#000000" points="405.801,233.877 0,306.037 413.412,304.723"/>
<polygon fill="#000000" points="405.801,233.877 0,277.418 0,306.037"/>
<polygon fill="#000000" points="909.288,705 844.683,498.266 892.714,705"/>
<polygon fill="#000000" points="649.122,425.165 611.023,400.672 649.122,425.165"/>
<polygon fill="#000000" points="649.122,425.165 374.181,470.588 468.427,425.61"/>
<polygon fill="#000000" points="649.122,425.165 381.756,541.395 374.181,470.588"/>
<polygon fill="#000000" points="649.122,425.165 428.322,589.936 381.756,541.395"/>
<polygon fill="#000000" points="649.122,425.165 568.69,554.31 428.322,589.936"/>
<polygon fill="#000000" points="649.122,425.165 667.169,494.19 568.69,554.31"/>
<polygon fill="#000000" points="874.824,298.914 788.375,302.254 874.824,298.914"/>
<polygon fill="#000000" points="874.824,298.914 648.677,339.662 788.375,302.254"/>
<polygon fill="#000000" points="874.824,298.914 637.759,428.282 648.677,339.662"/>
<polygon fill="#000000" points="874.824,298.914 655.583,497.085 637.759,428.282"/>
<polygon fill="#000000" points="874.824,298.914 776.567,519.351 655.583,497.085"/>
<polygon fill="#000000" points="874.824,298.914 914.929,476.155 776.567,519.351"/>
<polygon fill="#000000" points="874.824,298.914 935.204,430.509 914.929,476.155"/>
<polygon fill="#000000" points="570.472,93.6184 405.819,233.897 570.472,93.6184"/>
<polygon fill="#000000" points="570.472,93.6184 413.617,304.704 405.819,233.897"/>
<polygon fill="#000000" points="570.472,93.6184 471.324,442.532 413.617,304.704"/>
<polygon fill="#000000" points="570.472,93.6184 614.142,417.594 471.324,442.532"/>
<polygon fill="#000000" points="570.472,93.6184 640.656,376.624 614.142,417.594"/>
<polygon fill="#000000" points="744.26,108.76 554.653,97.4037 744.26,108.76"/>
<polygon fill="#000000" points="744.26,108.76 625.059,380.632 554.653,97.4037"/>
<polygon fill="#000000" points="744.26,108.76 666.055,404.902 625.059,380.632"/>
<polygon fill="#000000" points="744.26,108.76 805.977,367.495 666.055,404.902"/>
<polygon fill="#000000" points="744.26,108.76 805.754,239.908 805.977,367.495"/>
<polygon fill="#000000" points="649.122,425.165 468.427,425.61 611.023,400.672"/>
<polygon fill="#000000" points="579.378,110.319 578.945,145.943 633.978,146.611"/>
<polygon fill="#000000" points="691.947,300.399 680.139,263.437 657.987,311.235"/>
<polygon fill="#000000" points="680.139,263.437 646.179,274.273 657.987,311.235"/>
<polygon fill="#000000" points="679.151,260.989 658.208,218.46 647.166,276.72"/>
<polygon fill="#000000" points="658.208,218.46 626.223,234.192 647.166,276.72"/>
<polygon fill="#000000" points="655.126,214.044 633.068,190.887 629.305,238.608"/>
<polygon fill="#000000" points="633.068,190.887 607.247,215.451 629.305,238.608"/>
<polygon fill="#000000" points="622.843,185.559 599.448,181.996 617.472,220.779"/>
<polygon fill="#000000" points="599.448,181.996 594.078,217.216 617.472,220.779"/>
<polygon fill="#000000" points="898.41,483.848 893.508,455.124 863.268,489.837"/>
<polygon fill="#000000" points="893.508,455.124 858.367,461.113 863.268,489.837"/>
<polygon fill="#000000" points="893.378,461.797 898.502,437.526 858.497,454.441"/>
<polygon fill="#000000" points="634.411,110.987 579.378,110.319 633.978,146.611"/>
<polygon fill="#000000" points="895.436,444.383 910.141,424.343 866.688,423.314"/>
<polygon fill="#000000" points="910.141,424.343 881.393,403.275 866.688,423.314"/>
<polygon fill="#000000" points="905.433,428.775 929.942,412.966 886.101,398.842"/>
<polygon fill="#000000" points="929.942,412.966 910.61,383.033 886.101,398.842"/>
<polygon fill="#000000" points="379.901,523.699 453.427,515.684 376.035,488.283"/>
<polygon fill="#000000" points="453.427,515.684 449.561,480.267 376.035,488.283"/>
<polygon fill="#000000" points="453.658,515.657 515.598,508.086 449.33,480.294"/>
<polygon fill="#000000" points="515.598,508.086 511.27,472.724 449.33,480.294"/>
<polygon fill="#000000" points="516.561,507.942 577.832,497.031 510.307,472.868"/>
<polygon fill="#000000" points="577.832,497.031 571.578,461.958 510.307,472.868"/>
<polygon fill="#000000" points="578.737,496.846 650.703,480.146 570.674,462.143"/>
<polygon fill="#000000" points="650.703,480.146 642.64,445.443 570.674,462.143"/>
<polygon fill="#000000" points="643.854,113.829 624.534,143.77 672.215,174.497"/>
<polygon fill="#000000" points="691.534,144.556 643.854,113.829 672.215,174.497"/>
<polygon fill="#000000" points="696.78,149.759 666.969,169.294 706.851,230.081"/>
<polygon fill="#000000" points="736.663,210.547 696.78,149.759 706.851,230.081"/>
<polygon fill="#000000" points="738.557,214.363 704.956,226.265 717.433,261.446"/>
<polygon fill="#000000" points="751.034,249.544 738.557,214.363 717.433,261.446"/>
<polygon fill="#000000" points="620.649,328.535 643.729,355.687 802.143,221.198"/>
<polygon fill="#000000" points="779.063,194.046 620.649,328.535 802.143,221.198"/>
<polygon fill="#000000" points="602.686,257.598 626.489,284.119 771.312,154.306"/>
<polygon fill="#000000" points="747.509,127.785 602.686,257.598 771.312,154.306"/>
<polygon fill="#000000" points="708.686,449.594 684.473,423.446 669.545,437.251"/>
<polygon fill="#000000" points="693.758,463.4 708.686,449.594 669.545,437.251"/>
<polygon fill="#000000" points="688.217,466.886 675.086,433.765 651.468,443.117"/>
<polygon fill="#000000" points="664.6,476.238 688.217,466.886 651.468,443.117"/>
<polygon fill="#000000" points="558.344,409.026 593.74,404.787 587.278,350.902"/>
<polygon fill="#000000" points="551.883,355.141 558.344,409.026 587.278,350.902"/>
<polygon fill="#000000" points="551.77,352.325 587.391,353.718 588.951,313.861"/>
<polygon fill="#000000" points="553.329,312.469 551.77,352.325 588.951,313.861"/>
<polygon fill="#000000" points="554.457,306.895 587.824,319.435 597.627,293.383"/>
<polygon fill="#000000" points="564.26,280.843 554.457,306.895 597.627,293.383"/>
<polygon fill="#000000" points="570.722,272.52 591.165,301.706 608.99,289.237"/>
<polygon fill="#000000" points="588.547,260.051 570.722,272.52 608.99,289.237"/>
<polygon fill="#000000" points="898.502,437.526 863.622,430.171 858.497,454.441"/>
<polygon fill="#000000" points="699.943,325.037 691.922,300.321 666.034,336.028"/>
<polygon fill="#000000" points="713.448,442.277 719.686,424.018 679.711,430.764"/>
<polygon fill="#000000" points="719.686,424.018 685.95,412.506 679.711,430.764"/>
<polygon fill="#000000" points="720.54,416.352 718.089,393.64 685.096,420.172"/>
<polygon fill="#000000" points="718.089,393.64 682.646,397.46 685.096,420.172"/>
<polygon fill="#000000" points="376.747,523.763 405.934,525.767 379.19,488.22"/>
<polygon fill="#000000" points="405.934,525.767 408.378,490.224 379.19,488.22"/>
<polygon fill="#000000" points="398.5,523.567 422.563,536.927 415.812,492.424"/>
<polygon fill="#000000" points="422.563,536.927 439.875,505.784 415.812,492.424"/>
<polygon fill="#000000" points="417.038,532.147 435.531,556.417 445.4,510.564"/>
<polygon fill="#000000" points="435.531,556.417 463.893,534.834 445.4,510.564"/>
<polygon fill="#000000" points="432.988,551.789 446.133,587.415 466.435,539.463"/>
<polygon fill="#000000" points="446.133,587.415 479.581,575.089 466.435,539.463"/>
<polygon fill="#000000" points="489.459,431.162 445.789,576.116 523.595,441.433"/>
<polygon fill="#000000" points="648.789,480.482 644.554,445.108 618.485,448.225"/>
<polygon fill="#000000" points="622.721,483.599 648.789,480.482 618.485,448.225"/>
<polygon fill="#000000" points="616.01,483.124 625.196,448.7 605.143,443.356"/>
<polygon fill="#000000" points="595.958,477.78 616.01,483.124 605.143,443.356"/>
<polygon fill="#000000" points="587.846,473.063 613.255,448.074 599.441,434.046"/>
<polygon fill="#000000" points="574.033,459.035 587.846,473.063 599.441,434.046"/>
<polygon fill="#000000" points="569.877,452.322 603.596,440.759 595.798,418.047"/>
<polygon fill="#000000" points="562.079,429.61 569.877,452.322 595.798,418.047"/>
<polygon fill="#000000" points="898.338,346.811 881.165,315.59 809.422,355.002"/>
<polygon fill="#000000" points="826.594,386.222 898.338,346.811 809.422,355.002"/>
<polygon fill="#000000" points="828.437,385.058 807.579,356.166 758.785,391.347"/>
<polygon fill="#000000" points="779.643,420.239 828.437,385.058 758.785,391.347"/>
<polygon fill="#000000" points="778.867,420.767 759.561,390.818 713.217,420.655"/>
<polygon fill="#000000" points="732.524,450.604 778.867,420.767 713.217,420.655"/>
<polygon fill="#000000" points="729.072,452.33 716.669,418.93 651.832,442.977"/>
<polygon fill="#000000" points="664.236,476.378 729.072,452.33 651.832,442.977"/>
<polygon fill="#000000" points="713.145,383.131 687.589,407.969 797.877,521.305"/>
<polygon fill="#000000" points="823.434,496.467 713.145,383.131 797.877,521.305"/>
<polygon fill="#000000" points="784.097,364.079 758.787,389.168 868.184,499.387"/>
<polygon fill="#000000" points="893.494,474.298 784.097,364.079 868.184,499.387"/>
<polygon fill="#000000" points="397.736,256.012 421.477,282.588 575.213,145.427"/>
<polygon fill="#000000" points="551.472,118.851 397.736,256.012 575.213,145.427"/>
<polygon fill="#000000" points="517.186,557.54 551.123,568.447 595.907,429.282"/>
<polygon fill="#000000" points="561.97,418.375 517.186,557.54 595.907,429.282"/>
<polygon fill="#000000" points="485.878,420.971 521.383,417.78 513.808,333.613"/>
<polygon fill="#000000" points="478.302,336.804 485.878,420.971 513.808,333.613"/>
<polygon fill="#000000" points="478.463,332.339 513.647,338.077 524.119,273.95"/>
<polygon fill="#000000" points="488.935,268.212 478.463,332.339 524.119,273.95"/>
<polygon fill="#000000" points="491.546,261.429 521.508,280.733 549.804,236.868"/>
<polygon fill="#000000" points="519.842,217.565 491.546,261.429 549.804,236.868"/>
<polygon fill="#000000" points="526.638,211.392 543.008,243.041 589.129,219.216"/>
<polygon fill="#000000" points="572.759,187.568 526.638,211.392 589.129,219.216"/>
<polygon fill="#000000" points="445.789,576.116 479.925,586.387 523.595,441.433"/>
<polygon fill="#000000" points="770.87,305.674 751.041,249.563 737.256,317.538"/>
<polygon fill="#000000" points="691.922,300.321 658.013,311.312 666.034,336.028"/>
<polygon fill="#000000" points="751.041,249.563 717.427,261.427 737.256,317.538"/>
<polygon fill="#ffffff" points="602.489,363.328 581.467,372.569 579.589,361.596"/>
<polygon fill="#ffffff" points="591.697,366.303 591.321,364.108 569.359,367.862"/>
<polygon fill="#ffffff" points="569.735,370.057 591.697,366.303 569.359,367.862"/>
<polygon fill="#ffffff" points="568.449,369.147 570.645,368.772 565.01,335.85"/>
<polygon fill="#ffffff" points="562.814,336.226 568.449,369.147 565.01,335.85"/>
<polygon fill="#ffffff" points="575.182,401.881 565.935,380.872 576.916,378.995"/>
<polygon fill="#ffffff" points="570.327,380.121 572.523,379.746 565.01,335.85"/>
<polygon fill="#ffffff" points="562.814,336.226 570.327,380.121 565.01,335.85"/>
<polygon fill="#00ff00" points="577.06,412.855 612.199,406.848 614.077,417.822"/>
<polygon fill="#00ff00" points="578.939,423.829 577.06,412.855 614.077,417.822"/>
<polygon fill="#00ff00" points="541.922,418.861 577.06,412.855 578.939,423.829"/>
<polygon fill="#00ff00" points="543.8,429.835 541.922,418.861 578.939,423.829"/>
<polygon fill="#00ff00" points="462.857,581.252 461.16,571.439 469.693,574.007"/>
<polyline fill="none" stroke="#00ff00" stroke-width="1" points="506.527,436.298 462.857,581.252"/>
<polygon fill="#ffffff" points="502.77,414.35 493.523,393.341 504.504,391.464"/>
<polygon fill="#ffffff" points="497.916,392.59 500.112,392.215 492.599,348.32"/>
<polygon fill="#ffffff" points="490.402,348.695 497.916,392.59 492.599,348.32"/>
<polygon fill="#00ff00" points="469.51,431.331 539.787,419.317 541.665,430.291"/>
<polygon fill="#00ff00" points="471.388,442.304 469.51,431.331 541.665,430.291"/>
<polygon fill="#ff0000" points="646.671,462.795 638.58,468.606 637.164,459.813"/>
<polyline fill="none" stroke="#ff0000" stroke-width="1" points="377.968,505.991 646.671,462.795"/>
<polygon fill="#ff0000" points="462.857,581.252 453.233,578.672 459.147,572.01"/>
<polyline fill="none" stroke="#ff0000" stroke-width="1" points="377.968,505.991 462.857,581.252"/>
<polygon fill="#ffffff" points="355.816,508.379 334.262,516.301 333.067,505.232"/>
<polygon fill="#ffffff" points="333.784,511.873 333.545,509.66 289.241,514.435"/>
<polygon fill="#ffffff" points="289.48,516.649 333.784,511.873 289.241,514.435"/>
<polygon fill="#ffffff" points="326.172,545.167 318.245,523.626 329.321,522.432"/>
<polygon fill="#ffffff" points="323.87,534.218 326.085,533.979 323.696,511.841"/>
<polygon fill="#ffffff" points="321.481,512.08 323.87,534.218 323.696,511.841"/>
<polygon fill="#ffffff" points="322.708,513.067 322.469,510.853 289.241,514.435"/>
<polygon fill="#ffffff" points="289.48,516.649 322.708,513.067 289.241,514.435"/>
<polygon fill="#ff0000" points="366.892,507.185 363.07,471.764 374.146,470.571"/>
<polygon fill="#ff0000" points="377.968,505.991 366.892,507.185 374.146,470.571"/>
<polygon fill="#ff0000" points="370.715,542.606 366.892,507.185 377.968,505.991"/>
<polygon fill="#ff0000" points="381.791,541.412 370.715,542.606 377.968,505.991"/>
<polyline fill="none" stroke="#00ff00" stroke-width="1" points="578.939,423.829 534.155,562.993"/>
<polyline fill="none" stroke="#00ff00" stroke-width="1" points="578.939,423.829 646.671,462.795"/>
<polygon fill="#ff0000" points="596.763,199.606 605.385,204.598 597.94,209.494"/>
<polyline fill="none" stroke="#ff0000" stroke-width="1" points="682.989,330.533 596.763,199.606"/>
<polygon fill="#ffffff" points="665.075,392.932 685.163,381.808 688.038,392.564"/>
<polygon fill="#ffffff" points="675.55,388.983 676.125,391.135 697.651,385.388"/>
<polygon fill="#ffffff" points="697.076,383.237 675.55,388.983 697.651,385.388"/>
<polygon fill="#ffffff" points="698.44,384.025 696.287,384.6 704.912,416.868"/>
<polygon fill="#ffffff" points="707.065,416.293 698.44,384.025 704.912,416.868"/>
<polygon fill="#ff0000" points="720.305,332.094 651.422,350.483 648.547,339.727"/>
<polygon fill="#ff0000" points="717.43,321.338 720.305,332.094 648.547,339.727"/>
<polygon fill="#ff0000" points="579.161,128.131 588.535,131.508 582.082,137.652"/>
<polyline fill="none" stroke="#ff0000" stroke-width="1" points="754.063,311.606 579.161,128.131"/>
<polygon fill="#ffffff" points="736.15,374.006 756.238,362.882 759.113,373.638"/>
<polygon fill="#ffffff" points="746.625,370.057 747.2,372.208 768.726,366.462"/>
<polygon fill="#ffffff" points="768.151,364.311 746.625,370.057 768.726,366.462"/>
<polygon fill="#ffffff" points="769.515,365.099 767.362,365.674 775.987,397.942"/>
<polygon fill="#ffffff" points="778.14,397.367 769.515,365.099 775.987,397.942"/>
<polygon fill="#ff0000" points="791.379,313.168 722.497,331.556 719.622,320.8"/>
<polygon fill="#ff0000" points="788.504,302.412 791.379,313.168 719.622,320.8"/>
<polygon fill="#00ff00" points="632.189,342.111 636.096,332.951 641.866,339.739"/>
<polyline fill="none" stroke="#00ff00" stroke-width="1" points="790.603,207.622 632.189,342.111"/>
<polygon fill="#ffffff" points="810.77,198.156 828.568,183.651 833.305,193.727"/>
<polygon fill="#ffffff" points="830.463,187.681 831.41,189.697 871.743,170.764"/>
<polygon fill="#ffffff" points="870.796,168.748 830.463,187.681 871.743,170.764"/>
<polygon fill="#00ff00" points="785.531,170.643 815.843,235.135 805.759,239.868"/>
<polygon fill="#00ff00" points="775.447,175.376 785.531,170.643 805.759,239.868"/>
<polygon fill="#00ff00" points="614.587,270.859 618.246,261.597 624.197,268.227"/>
<polyline fill="none" stroke="#00ff00" stroke-width="1" points="759.411,141.046 614.587,270.859"/>
<polygon fill="#ffffff" points="779.579,131.583 797.38,117.082 802.115,127.159"/>
<polygon fill="#ffffff" points="799.274,121.113 800.221,123.128 840.558,104.203"/>
<polygon fill="#ffffff" points="839.611,102.188 799.274,121.113 840.558,104.203"/>
<polygon fill="#00ff00" points="754.345,104.065 784.645,168.563 774.56,173.295"/>
<polygon fill="#00ff00" points="744.261,108.797 754.345,104.065 774.56,173.295"/>
<polygon fill="#00ff00" points="646.671,462.795 636.724,462.211 641.171,454.492"/>
<polygon fill="#ffffff" points="554.582,97.6055 565.38,94.8695 572.103,166.673"/>
<polygon fill="#ffffff" points="565.38,94.8695 582.901,163.937 572.103,166.673"/>
<polygon fill="#ffffff" points="649.457,109.172 606.263,120.116 650.005,111.331"/>
<polygon fill="#ffffff" points="584.939,126.667 605.168,115.799 607.906,126.591"/>
<polyline fill="none" stroke="#ffffff" stroke-width="1" points="563.342,132.139 409.607,269.3"/>
<polygon fill="#ffffff" points="409.607,269.3 413.287,260.046 419.223,266.691"/>
<polygon fill="#ffffff" points="572.643,168.745 583.477,166.152 589.245,238.038"/>
<polygon fill="#ffffff" points="583.477,166.152 600.079,235.446 589.245,238.038"/>
<polygon fill="#ffffff" points="667.357,181.57 634.854,189.347 667.875,183.735"/>
<polygon fill="#00ff00" points="700.367,395.55 709.775,398.831 703.386,405.04"/>
<polyline fill="none" stroke="#00ff00" stroke-width="1" points="810.656,508.886 700.367,395.55"/>
<polygon fill="#ffffff" points="817.298,530.14 829.256,549.735 818.623,553.054"/>
<polygon fill="#ffffff" points="825.003,551.062 822.876,551.726 836.16,594.234"/>
<polygon fill="#ffffff" points="838.286,593.57 825.003,551.062 836.16,594.234"/>
<polygon fill="#00ff00" points="848.005,508.893 779.949,530.133 776.628,519.506"/>
<polygon fill="#00ff00" points="844.684,498.266 848.005,508.893 776.628,519.506"/>
<polygon fill="#00ff00" points="771.442,376.624 780.882,379.811 774.555,386.083"/>
<polyline fill="none" stroke="#00ff00" stroke-width="1" points="880.839,486.842 771.442,376.624"/>
<polygon fill="#00ff00" points="920.276,398 920.735,407.947 912.589,404.335"/>
<polyline fill="none" stroke="#00ff00" stroke-width="1" points="880.839,486.842 920.276,398"/>
<polygon fill="#ffffff" points="887.481,508.096 899.44,527.691 888.806,531.01"/>
<polygon fill="#ffffff" points="895.186,529.018 893.06,529.682 906.343,572.19"/>
<polygon fill="#ffffff" points="908.47,571.526 895.186,529.018 906.343,572.19"/>
<polygon fill="#ffffff" points="929.345,530.021 909.738,541.972 906.417,531.345"/>
<polygon fill="#ffffff" points="919.044,534.402 918.379,532.277 897.112,538.915"/>
<polygon fill="#ffffff" points="897.776,541.04 919.044,534.402 897.112,538.915"/>
<polygon fill="#ffffff" points="898.507,539.646 896.38,540.309 906.343,572.19"/>
<polygon fill="#ffffff" points="908.47,571.526 898.507,539.646 906.343,572.19"/>
<polygon fill="#00ff00" points="884.16,497.469 850.132,508.09 846.811,497.463"/>
<polygon fill="#00ff00" points="880.839,486.842 884.16,497.469 846.811,497.463"/>
<polygon fill="#00ff00" points="918.188,486.849 884.16,497.469 880.839,486.842"/>
<polygon fill="#00ff00" points="914.867,476.222 918.188,486.849 880.839,486.842"/>
<polygon fill="#ffffff" points="634.854,189.347 635.373,191.512 667.875,183.735"/>
<polygon fill="#ffffff" points="634.03,190.689 639.219,212.343 636.197,190.17"/>
<polygon fill="#ffffff" points="639.219,212.343 641.385,211.825 636.197,190.17"/>
<polygon fill="#ffffff" points="642.896,222.911 632.291,202.553 643.125,199.96"/>
<polyline fill="none" stroke="#ffffff" stroke-width="1" points="580.944,203.392 503.63,419.375"/>
<polygon fill="#ffffff" points="503.63,419.375 502.437,409.489 510.828,412.489"/>
<polygon fill="#ffffff" points="590.467,239.997 601.301,237.405 607.069,309.291"/>
<polygon fill="#ffffff" points="601.301,237.405 617.903,306.698 607.069,309.291"/>
<polygon fill="#7f7f7f" points="618.408,308.849 635.929,377.917 625.13,380.653"/>
<polygon fill="#7f7f7f" points="607.609,311.585 618.408,308.849 625.13,380.653"/>
<polygon fill="#ffffff" points="685.181,252.822 652.679,260.599 685.7,254.987"/>
<polygon fill="#ffffff" points="652.679,260.599 653.198,262.765 685.7,254.987"/>
<polygon fill="#ffffff" points="651.855,261.941 657.043,283.595 654.022,261.423"/>
<polygon fill="#ffffff" points="657.043,283.595 659.21,283.077 654.022,261.423"/>
<polygon fill="#ffffff" points="660.72,294.163 650.115,273.805 660.949,271.213"/>
<polyline fill="none" stroke="#ffffff" stroke-width="1" points="598.768,274.644 576.042,406.906"/>
<polygon fill="#00ff00" points="534.155,562.993 532.641,553.151 541.125,555.878"/>
<polygon fill="#ffffff" points="576.042,406.906 573.159,397.374 581.942,398.882"/>
<polygon fill="#ff0000" points="700.367,395.55 699.179,405.437 691.74,400.532"/>
<polyline fill="none" stroke="#ff0000" stroke-width="1" points="658.034,459.677 700.367,395.55"/>
<polygon fill="#ff0000" points="889.751,331.2 884.12,339.415 879.796,331.627"/>
<polyline fill="none" stroke="#ff0000" stroke-width="1" points="658.034,459.677 889.752,331.201"/>
<polygon fill="#ffffff" points="595.473,442.205 606.742,462.204 596,465.151"/>
<polygon fill="#ffffff" points="599.496,452.646 597.348,453.236 603.246,474.708"/>
<polygon fill="#ffffff" points="605.394,474.118 599.496,452.646 603.246,474.708"/>
<polygon fill="#ffffff" points="604.615,475.487 604.025,473.34 571.797,482.181"/>
<polygon fill="#ffffff" points="572.386,484.328 604.615,475.487 571.797,482.181"/>
<polygon fill="#ffffff" points="636.549,465.572 616.537,476.834 613.588,466.098"/>
<polygon fill="#ffffff" points="615.358,472.54 614.768,470.392 571.797,482.181"/>
<polygon fill="#ffffff" points="572.386,484.328 615.358,472.54 571.797,482.181"/>
<polygon fill="#ff0000" points="647.291,462.625 637.855,428.269 648.597,425.322"/>
<polygon fill="#ff0000" points="658.034,459.677 647.291,462.625 648.597,425.322"/>
<polygon fill="#ff0000" points="656.728,496.98 647.291,462.625 658.034,459.677"/>
<polygon fill="#ff0000" points="667.471,494.033 656.728,496.98 658.034,459.677"/>
<polygon fill="#ffffff" points="606.263,120.116 606.81,122.275 650.005,111.331"/>
</g>
</svg>
