<svg xmlns="http://www.w3.org/2000/svg" xmlns:svg="http://www.w3.org/2000/svg" id="svg471" width="710" height="171.66" version="1.1" viewBox="0 0 710 171.66"><path id="path417" fill="#aecdd5" d="m 213.75,151.96 -54.14,-0.12 q -0.59,-0.01 -0.59,0.58 l -0.06,14.9 a 0.51,0.51 0 0 0 0.5,0.51 l 54.04,0.45 q 0.04,1.38 0.37,2.37 0.13,0.41 0.13,0.84 l -0.26,47.39 q 0,0.37 -0.37,0.37 H 60.02 q -0.47,0 -0.47,-0.47 l 0.14,-50.84 q 4.05,-0.45 5.81,-0.45 22.43,0.03 44.84,0 0.42,0 0.42,-0.42 l 0.02,-14.05 a 0.47,0.47 0 0 0 -0.47,-0.47 l -50.37,0.2 q -0.46,-1.28 -0.46,-2.25 0.1,-51.06 0.01,-102.22 0,-0.65 0.65,-0.65 l 153.23,-0.06 a 0.4,0.4 0 0 1 0.4,0.4 q 0.04,42.96 -0.03,85.04 c -0.01,4.5 0.56,12.59 0.01,18.95 z M 133.0832,91.1424 a 8.82,11.71 23.7 0 0 12.7829,-7.1772 8.82,11.71 23.7 0 0 -3.3693,-14.2676 8.82,11.71 23.7 0 0 -12.7829,7.1772 8.82,11.71 23.7 0 0 3.3693,14.2676 z M 207.89,82.1768 A 9.65,8.79 0.1 0 0 198.2553,73.37 9.65,8.79 0.1 0 0 188.59,82.1432 9.65,8.79 0.1 0 0 198.2247,90.95 9.65,8.79 0.1 0 0 207.89,82.1768 Z M 96.8871,100.0381 a 8.4,12.34 12.7 0 0 10.9074,-10.1914 8.4,12.34 12.7 0 0 -5.4816,-13.8848 8.4,12.34 12.7 0 0 -10.9074,10.1914 8.4,12.34 12.7 0 0 5.4816,13.8848 z m -14.7718,0.6165 a 11.46,9.44 60.2 0 0 2.4964,-14.636 11.46,9.44 60.2 0 0 -13.887,-5.2532 11.46,9.44 60.2 0 0 -2.4964,14.636 11.46,9.44 60.2 0 0 13.887,5.2532 z m 89.2333,1.9158 a 8.78,11.69 23.5 0 0 12.7132,-7.2194 8.78,11.69 23.5 0 0 -3.3904,-14.2214 8.78,11.69 23.5 0 0 -12.7132,7.2194 8.78,11.69 23.5 0 0 3.3904,14.2214 z m -18.6491,15.82 a 7.99,13.01 8.4 0 0 9.8048,-11.7032 7.99,13.01 8.4 0 0 -6.0038,-14.0376 7.99,13.01 8.4 0 0 -9.8048,11.7032 7.99,13.01 8.4 0 0 6.0038,14.0376 z m -22.5636,4.4462 a 12.38,8.47 85.2 0 0 7.4044,-13.0454 12.38,8.47 85.2 0 0 -9.4762,-11.6278 12.38,8.47 85.2 0 0 -7.4044,13.0454 12.38,8.47 85.2 0 0 9.4762,11.6278 z M 105.1,123.531 a 9.03,10.06 11.7 0 0 10.8824,-8.0198 9.03,10.06 11.7 0 0 -6.8024,-11.6822 9.03,10.06 11.7 0 0 -10.8824,8.0198 9.03,10.06 11.7 0 0 6.8024,11.6822 z m 68.5007,14.592 a 9.79,12.85 5.4 0 0 10.9559,-11.8717 9.79,12.85 5.4 0 0 -8.5373,-13.7143 9.79,12.85 5.4 0 0 -10.9559,11.8717 9.79,12.85 5.4 0 0 8.5373,13.7143 z m -56.3254,15.8462 a 13.88,8.06 89.4 0 0 7.9143,-13.9636 13.88,8.06 89.4 0 0 -8.2049,-13.7948 13.88,8.06 89.4 0 0 -7.9143,13.9636 13.88,8.06 89.4 0 0 8.2049,13.7948 z m 30.5665,8.2104 a 8.88,15.62 6.5 0 0 10.5911,-14.5144 8.88,15.62 6.5 0 0 -7.0547,-16.5248 8.88,15.62 6.5 0 0 -10.5911,14.5144 8.88,15.62 6.5 0 0 7.0547,16.5248 z m -27.3695,31.096 a 7.96,14.91 7.7 0 0 9.8859,-13.7091 7.96,14.91 7.7 0 0 -5.8905,-15.8421 7.96,14.91 7.7 0 0 -9.8859,13.7091 7.96,14.91 7.7 0 0 5.8905,15.8421 z m 27.4429,7.9666 a 17.31,9.46 87.4 0 0 8.6651,-17.7213 17.31,9.46 87.4 0 0 -10.2355,-16.8631 17.31,9.46 87.4 0 0 -8.6651,17.7213 17.31,9.46 87.4 0 0 10.2355,16.8631 z" style="display:none"/><g id="g6438" transform="translate(-59.451294,-47.597778)"><rect style="display:inline;fill:#aecdd5;fill-opacity:1;stroke-width:1.00125" id="rect733" width="154.29" height="171.656" x="59.451" y="47.598"/><rect style="fill:#005676;fill-opacity:1;stroke-width:5.03835" id="rect2398" width="51.402" height="15.058" x="59.451" y="152.548" ry=".012"/><ellipse id="ellipse419" cx="0" cy="0" fill="#005676" rx="11.71" ry="8.82" transform="rotate(113.7,42.632401,85.207806)"/><ellipse id="ellipse421" cx="0" cy="0" fill="#005676" rx="9.65" ry="8.79" transform="rotate(0.1,-46975.08,113624.2)"/><path id="path423" fill="#005676" d="m 647.61,89.58 3.29,-15.56 a 0.34,0.34 0 0 1 0.34,-0.27 h 15.44 a 0.34,0.34 0 0 1 0.34,0.41 l -3.16,15.23 a 0.34,0.34 0 0 1 -0.33,0.28 l -15.58,0.32 a 0.34,0.34 0 0 1 -0.34,-0.41 z"/><ellipse id="ellipse425" cx="0" cy="0" fill="#005676" rx="12.34" ry="8.4" transform="rotate(102.7,14.612351,83.826021)"/><path id="path427" fill="#005676" d="m 594.37,93.69 c -6.13,3.89 -5.34,11.32 -0.03,15.48 10.53,8.24 24.94,11.47 25.69,28.36 1.51,33.99 -37.78,34.61 -59.82,26.21 q -0.37,-0.14 -0.26,-0.51 l 4.19,-13.99 q 0.17,-0.59 0.73,-0.33 c 8.02,3.81 17.8,7.54 26.43,5.15 7.36,-2.04 12.37,-7.5 10.95,-15.45 -1.44,-8.01 -14.03,-12.9 -18.69,-15.92 -7.44,-4.84 -11.19,-10.58 -11.02,-19.68 0.51,-28.12 35.11,-28.74 53.98,-21.99 q 0.49,0.17 0.35,0.67 l -3.6,13.32 q -0.13,0.45 -0.54,0.24 c -7.85,-3.98 -20.47,-6.57 -28.36,-1.56 z"/><path id="path429" fill="#005676" d="m 532.85,159.09 q 0.27,-1.98 -1.02,-0.45 c -14.87,17.75 -38.11,9.09 -39.44,-13.85 -1.18,-20.43 10.64,-44.42 33.59,-44.34 q 9.5,0.04 15.14,7.13 a 0.38,0.37 -58.3 0 0 0.66,-0.16 l 6.2,-28.99 q 0.09,-0.43 0.53,-0.42 l 13.97,0.61 q 0.41,0.02 0.33,0.42 -8.95,46.92 -12.53,64.71 c -1.43,7.11 -4.34,15.48 -5.26,23.77 Q 544.96,168 544.48,168 H 532.2 q -0.55,0 -0.48,-0.55 z M 517.18,117.9 c -6.2,6.37 -8.83,16.56 -7.77,25.18 0.64,5.25 4.75,9.9 10.18,10.09 14.99,0.54 23.84,-30.25 12.49,-37.29 -4.87,-3.03 -10.89,-2.1 -14.9,2.02 z"/><path id="path431" fill="#005676" d="m 213.5,168.28 -54.55993,-0.48188 c -0.27775,-0.005 0,0 0,0 l 0.0426,-15.9501 v 0 L 213.75,151.96 c 8.46667,0.16667 16.96667,0.0833 25.5,-0.25 4.83,-0.18 8.01,-5.47 8.87,-9.64 2.50667,-12.04 6.72667,-32.94667 12.66,-62.72 0.08,-0.4 0.32333,-0.6 0.73,-0.6 h 15.72 c 0.34,0 0.47667,0.166667 0.41,0.5 -4.08667,20.7 -8.23,41.39 -12.43,62.07 -3.52,17.32 -9.39,26.96 -28.6,26.94 -7.7,-0.0133 -15.40333,-0.007 -23.11,0.02 z"/><path id="path433" fill="#005676" d="m 377.47,133.71 -6.56,32.53 q -0.15,0.76 -0.92,0.76 h -15.71 q -0.44,0 -0.35,-0.43 l 17.9,-87.1 q 0.11,-0.55 0.68,-0.58 15.78,-0.66 29.42,0.69 c 6.05,0.6 13.73,3.36 17.65,8.45 6.26,8.15 4.51,22.18 -0.45,30.24 -8.96,14.57 -25.93,15.27 -41.06,14.96 a 0.6,0.6 0 0 0 -0.6,0.48 z m 8.46,-40.39 -5.25,25.61 q -0.12,0.56 0.44,0.63 c 11.93,1.58 26.69,-3.44 24.59,-18.5 -1.25,-9.01 -12.06,-9.34 -19.2,-8.29 q -0.49,0.07 -0.58,0.55 z"/><ellipse id="ellipse435" cx="0" cy="0" fill="#005676" rx="11.46" ry="9.44" transform="rotate(60.2,-40.031481,111.27071)"/><ellipse id="ellipse437" cx="0" cy="0" fill="#005676" rx="11.69" ry="8.78" transform="rotate(113.5,57.895251,103.62361)"/><ellipse id="ellipse441" cx="0" cy="0" fill="#005676" rx="13.01" ry="7.99" transform="rotate(98.4,31.75879,119.48357)"/><ellipse id="ellipse443" cx="0" cy="0" fill="#005676" rx="12.38" ry="8.47" transform="rotate(85.2,4.4660764,125.4476)"/><path id="path445" fill="#005676" d="m 439.46,140.01 c -0.71,21.1 24.31,17.65 36.12,11.84 q 0.59,-0.29 0.49,0.36 l -1.92,12.09 q -0.09,0.54 -0.61,0.7 c -21.02,6.6 -48.49,4.89 -49.42,-23.5 -0.74,-22.92 17.03,-44.65 41.61,-40.51 20.61,3.47 21.55,21.41 18.25,38.09 q -0.08,0.42 -0.51,0.42 h -43.48 a 0.53,0.53 0 0 0 -0.53,0.51 z m 21.12,-27.31 c -9.7,-1.07 -16.74,6.24 -19.27,14.98 a 0.45,0.44 8.2 0 0 0.43,0.57 H 469 q 0.51,0 0.57,-0.5 c 0.94,-7.68 -0.15,-14.07 -8.99,-15.05 z"/><path id="path447" fill="#005676" d="m 693.76,110.26 c 1.65,-1.67 3.36,-3.76 5.01,-5.01 9.46,-7.15 27,-6.99 29.99,7.27 a 0.29,0.28 53.3 0 0 0.53,0.08 c 6.4,-12.35 27.97,-17.73 36.38,-4.23 3.93,6.31 3.03,14.88 1.31,22.13 q -3.66,15.43 -7.69,36.04 -0.09,0.46 -0.56,0.46 h -15.21 q -0.52,0 -0.42,-0.51 3.64,-18 7.52,-35.91 c 0.94,-4.36 2.07,-10.79 -0.76,-14.4 -4.74,-6.04 -13.75,-1.98 -16.9,4.11 q -3.24,6.26 -5.44,15.72 -3.53,15.15 -6.41,30.46 -0.1,0.53 -0.64,0.53 H 705.3 q -0.61,0 -0.48,-0.59 5.62,-25.14 8.68,-41.89 c 1.16,-6.31 -2.61,-11.95 -9.31,-11.13 -10.51,1.28 -14.07,17.91 -15.77,26.1 q -2.79,13.44 -5.48,26.92 -0.11,0.59 -0.71,0.59 h -15.26 q -0.7,0 -0.56,-0.69 l 13.08,-63.91 q 0.09,-0.45 0.55,-0.45 l 13.8,0.07 q 0.57,0.01 0.48,0.58 l -1.18,7.34 q -0.19,1.15 0.62,0.32 z"/><path id="path449" fill="#005676" d="m 321.46,161.07 c -7.72,5.98 -14.73,8.94 -24.77,6.24 -13.14,-3.54 -14.22,-16.88 -12.09,-28.07 q 3.51,-18.4 7.49,-36.7 0.13,-0.59 0.73,-0.6 l 14.94,-0.18 q 0.66,-0.01 0.53,0.64 -3.34,17.06 -6.79,34.04 c -0.89,4.4 -2.1,10.67 0.36,14.62 q 4.14,6.65 12.95,3.51 c 7.67,-2.72 10.84,-12.53 12.45,-20.07 q 3.4,-15.97 6.57,-31.99 0.09,-0.47 0.57,-0.48 l 15.37,-0.19 a 0.29,0.28 5.6 0 1 0.29,0.34 c -4.48,21.24 -9.64,42.76 -12.94,64.27 q -0.08,0.55 -0.64,0.55 h -14.76 q -0.53,0 -0.44,-0.52 l 0.83,-5.02 q 0.18,-1.04 -0.65,-0.39 z"/><path id="path451" fill="#005676" d="m 661,102.24 -13.37,64.49 a 0.3,0.3 0 0 1 -0.29,0.24 l -15.43,0.09 a 0.3,0.3 0 0 1 -0.3,-0.36 l 13.25,-64.47 a 0.3,0.3 0 0 1 0.29,-0.24 l 15.56,-0.11 a 0.3,0.3 0 0 1 0.29,0.36 z"/><ellipse id="ellipse453" cx="0" cy="0" fill="#005676" rx="10.06" ry="9.03" transform="rotate(101.7,7.2949647,100.45284)"/><ellipse id="ellipse455" cx="0" cy="0" fill="#005676" rx="12.85" ry="9.79" transform="rotate(95.4,30.384237,142.19743)"/><ellipse id="ellipse461" cx="0" cy="0" fill="#005676" rx="13.88" ry="8.06" transform="rotate(89.4,-12.217377,129.22652)"/><ellipse id="ellipse463" cx="0" cy="0" fill="#005676" rx="15.62" ry="8.88" transform="rotate(96.5,9.3554727,140.09602)"/><ellipse id="ellipse467" cx="0" cy="0" fill="#005676" rx="14.91" ry="7.96" transform="rotate(97.7,-16.759998,142.76287)"/><ellipse id="ellipse469" cx="0" cy="0" fill="#005676" rx="17.31" ry="9.46" transform="rotate(87.4,-22.68134,168.95638)"/></g></svg>