<svg xmlns="http://www.w3.org/2000/svg" xml:space="preserve" viewBox="0 0 1050 359.2" version="1.1" y="0" x="0" id="Layer_1"><style id="style2" type="text/css">.st0{fill:#338033}</style><g id="g92" fill="#338033" fill-opacity="1"><g id="g90" fill="#338033" fill-opacity="1"><g id="g24"><g id="g6"><path id="path4" class="st0" d="M87 131l226.8 90.8c-46.5 5.3-88.3 12.8-134.9 31.1l46.5-49-36-15.2-114.8 114 45.2 31.5c65.1-34.9 178.9-54.9 236.4-54.7l45.8-86.3-269.1-91.3L87 131z" fill="#338033" fill-opacity="1"/></g><g id="g10"><path id="polygon8" class="st0" fill="#338033" fill-opacity="1" d="M147.1 170.6l35.8 15.2L63 294.6l-38-26.5z"/></g><g id="g14"><path id="polygon12" class="st0" fill="#338033" fill-opacity="1" d="M138 98.7l269.8 85.4 25.1-46.5-252.2-66z"/></g><g id="g18"><path id="polygon16" class="st0" fill="#338033" fill-opacity="1" d="M329.5 25l-69.1 55.2 31.9 7.8 65.5-58.4z"/></g><g id="g22"><path id="polygon20" class="st0" fill="#338033" fill-opacity="1" d="M388.4 34.5L361 30.1l-63.3 59.3 30.4 7.4z"/></g></g><g id="g88"><g id="g34"><path id="path26" d="M533.5 200.5H595c2.5 0 4.5-.4 5.9-1.3 1.4-.9 2.4-2 3.1-3.3.7-1.3 1.1-2.6 1.3-4 .2-1.4.2-2.5.2-3.5 0-1.1-.1-2.2-.3-3.3-.2-1.2-.7-2.3-1.4-3.4s-1.8-2.2-3.3-3.2c-1.4-1-3.4-1.9-5.8-2.6l-43.8-13.8c-.4-.1-1.1-.3-2.1-.7-1-.4-2.1-.9-3.4-1.6-1.3-.7-2.6-1.5-4-2.5s-2.6-2.1-3.6-3.5c-1.3-1.5-2.3-3.1-3-4.9-.7-1.8-1.3-3.6-1.7-5.5-.4-1.8-.7-3.7-.8-5.5-.1-1.8-.2-3.5-.2-5.1 0-3.4.4-6.9 1.2-10.6.8-3.7 2.8-7 5.9-10 2.9-2.7 5.9-4.5 9.2-5.2 3.3-.7 6.3-1 9-1h63.9v16.7h-56.8c-1.5 0-3 .1-4.5.4-1.5.3-2.9 1-4.2 2.1-1.4 1.3-2.2 2.7-2.5 4.4-.3 1.7-.4 3.1-.4 4.1 0 2.4.6 4.8 1.8 7 1.2 2.2 4 4.1 8.5 5.6l40.6 12.8c3.7 1.2 6.8 2.4 9.4 3.6 2.6 1.3 4.7 2.7 6.4 4.3 1.7 1.6 3 3.4 4 5.3 1 2 1.7 3.9 2.1 5.9.5 2 .8 3.8 1 5.6.2 1.8.2 3.3.2 4.6 0 3.5-.3 7.1-1 10.7-.7 3.6-2.2 7-4.5 9.9-2.8 3.6-5.8 5.8-9.2 6.7-3.4.8-6.9 1.3-10.6 1.3h-68.2v-16.5z"/><path id="path28" d="M694.7 201.6c2-.2 3.9-.5 5.9-1 2-.5 4-1.2 5.9-2.1 1.9-1 3.6-2.2 5.1-3.8 1.3-1.4 2.2-2.9 2.9-4.6.7-1.7 1.2-3.4 1.6-5.1.4-1.7.6-3.4.6-5.1.1-1.7.1-3.2.1-4.6v-69.2h20.9v72c0 4.8-.6 9.6-1.7 14.5s-3.8 9.5-8 13.9c-2.8 2.9-5.8 5.1-9.3 6.7-3.4 1.6-6.9 2.8-10.4 3.6-3.5.8-6.9 1.3-10.2 1.4-3.3.2-6.2.2-8.7.2-2.5 0-5.4-.1-8.7-.2-3.3-.2-6.7-.6-10.2-1.4-3.5-.8-7-2-10.4-3.6-3.4-1.6-6.5-3.8-9.3-6.7-4.2-4.3-6.9-9-8-13.9s-1.7-9.8-1.7-14.5v-72H662v69.2c0 3.1.2 6.3.7 9.8.5 3.5 2 6.7 4.7 9.5 1.5 1.6 3.1 2.9 5 3.8 1.8 1 3.8 1.7 5.7 2.1 2 .5 3.9.8 5.9 1 2 .2 3.7.2 5.3.2 1.7.1 3.4 0 5.4-.1z"/><path id="path30" d="M841.8 205.1c-.8 2.1-1.7 4-2.5 5.6-.8 1.6-1.8 3-2.9 4.2-1.2 1.2-2.6 2-4.3 2.6-1.7.6-3.8.9-6.2.9-2.6 0-4.8-.4-6.6-1.1-1.7-.7-3.2-1.7-4.4-2.9-1.2-1.2-2.1-2.6-2.9-4.2-.7-1.6-1.4-3.3-2.1-5.1L781.5 131c-.2-.6-.6-1.4-1.1-2.3-.5-.9-1.1-1.3-1.6-1.3-.8 0-1.3.5-1.5 1.5-.2 1-.2 1.6-.2 1.8l.5 86.4h-20.9v-97.7c0-3.6.8-6.4 2.4-8.3 1.6-2 3.4-3.4 5.4-4.4 2-1 4-1.5 5.9-1.7 2-.2 3.4-.2 4.2-.2 3.2 0 5.8.4 8 1.1 2.2.7 4 1.8 5.4 3.1 1.4 1.3 2.6 2.9 3.6 4.6 1 1.7 1.8 3.6 2.5 5.5l28.7 74.1c.5 1.2 1 2.1 1.5 2.9.5.8 1 1.2 1.5 1.2s1-.4 1.5-1.2c.5-.8 1-1.8 1.5-2.9l28.7-74.1c1.2-3.2 2.5-5.7 3.9-7.5 1.4-1.8 3-3.3 4.7-4.3 1.7-1 3.4-1.7 5.2-2 1.8-.3 3.7-.5 5.7-.5 5.2 0 9.5 1.2 12.8 3.5 3.4 2.3 5.1 6 5.1 11.1v97.7H874l.6-86.4c0-1.5-.2-2.4-.7-2.8-.5-.4-.9-.6-1.2-.6-.5 0-1.1.5-1.6 1.3-.5.9-.9 1.7-1.1 2.3l-28.2 74.2z"/><path id="path32" d="M978.8 105.1c3.9.1 7.8.5 11.7 1.3 4 .7 7.8 1.9 11.6 3.5s7.2 3.9 10.2 6.8c2.9 2.8 5.1 6 6.8 9.7 1.7 3.7 3 7.6 3.9 11.6.9 4 1.5 8.1 1.7 12.2.2 4.1.3 8 .3 11.6 0 3.7-.1 7.6-.4 11.7-.3 4.1-.8 8.1-1.7 12.1-.8 4-2.1 7.9-3.8 11.6-1.7 3.7-4 6.9-6.8 9.7-3.1 3-6.5 5.2-10.2 6.8-3.8 1.6-7.6 2.8-11.6 3.5-4 .7-7.9 1.2-11.8 1.3-3.9.1-7.5.2-10.6.2-3.3 0-6.8-.1-10.7-.2-3.9-.1-7.8-.5-11.7-1.3-4-.7-7.8-1.9-11.6-3.5s-7.2-3.9-10.2-6.8c-3.2-3.1-5.6-6.6-7.4-10.5-1.7-3.9-3-7.9-3.8-12-.8-4.1-1.3-8.1-1.4-12-.2-3.9-.2-7.5-.2-10.6 0-3.8.1-7.7.3-11.8.2-4.1.7-8.1 1.6-12.1.8-4 2.1-7.8 3.8-11.4 1.7-3.6 4.1-6.9 7.1-9.8 3.1-3 6.5-5.2 10.2-6.8 3.8-1.6 7.6-2.7 11.5-3.5 3.9-.7 7.8-1.2 11.7-1.3 3.9-.1 7.5-.2 10.9-.2 3.1 0 6.7.1 10.6.2zm-45.7 68.4c.4 3.3.9 6.2 1.5 8.7.6 2.5 1.3 4.5 2.1 6.2.8 1.6 1.7 3 2.6 4.2 1.6 2.1 3.4 3.8 5.6 5 2.1 1.2 4.4 2.1 6.8 2.8 2.4.6 5 1 7.8 1.2 2.7.2 5.6.2 8.4.2s5.6-.1 8.3-.2c2.7-.2 5.3-.6 7.8-1.2s4.8-1.6 6.9-2.8c2.1-1.2 4-2.9 5.7-5 1-1.2 1.8-2.6 2.6-4.3.8-1.7 1.5-3.8 2.1-6.2.6-2.4 1.1-5.3 1.5-8.7.4-3.4.6-7.3.6-11.7 0-4.8-.2-8.9-.6-12.3-.4-3.4-.9-6.4-1.5-8.8-.6-2.4-1.4-4.4-2.2-6-.8-1.6-1.7-2.9-2.5-4-3.3-4-7.5-6.5-12.5-7.5-5.1-1-10.5-1.5-16.2-1.5-5.8 0-11.2.5-16.2 1.5s-9.1 3.5-12.4 7.5c-2.1 2.8-3.8 6.5-5 11.2-1.2 4.7-1.8 11.3-1.8 19.9 0 4.5.2 8.5.6 11.8z"/></g><g id="g86"><path id="path36" d="M532.1 251.5l1.9-2.2c1.7 1.5 3.4 2.3 5.5 2.3 1.9 0 3.1-.9 3.1-2.2v-.1c0-1.2-.7-1.9-4-2.7-3.7-.9-5.8-2-5.8-5.2 0-3 2.5-5.1 6-5.1 2.6 0 4.6.8 6.4 2.2l-1.7 2.3c-1.6-1.2-3.2-1.8-4.8-1.8-1.8 0-2.9.9-2.9 2.1 0 1.4.8 2 4.2 2.8 3.7.9 5.6 2.2 5.6 5.1 0 3.3-2.6 5.2-6.3 5.2-2.6.1-5.1-.9-7.2-2.7z"/><path id="path38" d="M551.3 236.5h3.1V254h-3.1v-17.5z"/><path id="path40" d="M560.9 236.5h3.3l5.3 8.3 5.3-8.3h3.3V254H575v-12.6l-5.5 8.3h-.1l-5.5-8.2V254h-3v-17.5z"/><path id="path42" d="M584.2 246.6v-10.1h3.1v10c0 3.3 1.7 5 4.4 5s4.4-1.6 4.4-4.9v-10.1h3.1v9.9c0 5.2-3 7.9-7.5 7.9-4.6 0-7.5-2.6-7.5-7.7z"/><path id="path44" d="M605.3 236.5h3.1v14.7h9.2v2.8h-12.3v-17.5z"/><path id="path46" d="M628.8 236.4h2.9l7.7 17.6h-3.3l-1.8-4.2H626l-1.8 4.2H621l7.8-17.6zm4.4 10.7l-3-7-3 7h6z"/><path id="path48" d="M646.3 239.4h-5.6v-2.9H655v2.9h-5.6V254h-3.1v-14.6z"/><path id="path50" d="M660.3 236.5h3.1V254h-3.1v-17.5z"/><path id="path52" d="M669.1 245.3c0-5 3.8-9.1 9.2-9.1s9.1 4.1 9.1 9-3.8 9.1-9.2 9.1c-5.3 0-9.1-4.1-9.1-9zm15.1 0c0-3.5-2.5-6.3-6-6.3s-5.9 2.8-5.9 6.2c0 3.4 2.5 6.2 6 6.2 3.5.1 5.9-2.7 5.9-6.1z"/><path id="path54" d="M693 236.5h2.9l9.4 12.1v-12.1h3V254h-2.6l-9.7-12.5V254h-3v-17.5z"/><path id="path56" d="M723.3 245.3c0-5 3.8-9.1 9.2-9.1 5.4 0 9.1 4.1 9.1 9s-3.8 9.1-9.2 9.1c-5.4 0-9.1-4.1-9.1-9zm15 0c0-3.5-2.5-6.3-6-6.3s-5.9 2.8-5.9 6.2c0 3.4 2.5 6.2 6 6.2 3.5.1 5.9-2.7 5.9-6.1z"/><path id="path58" d="M747.2 236.5h13v2.8h-10v4.8h8.8v2.8h-8.8v7.1h-3.1v-17.5z"/><path id="path60" d="M774.5 246.6v-10.1h3.1v10c0 3.3 1.7 5 4.4 5s4.4-1.6 4.4-4.9v-10.1h3.1v9.9c0 5.2-3 7.9-7.5 7.9-4.6 0-7.5-2.6-7.5-7.7z"/><path id="path62" d="M795.6 236.5h7.8c2.2 0 3.9.7 5.1 1.8.9.9 1.5 2.3 1.5 3.8 0 2.9-1.7 4.6-4.2 5.3l4.7 6.6h-3.7l-4.3-6.1h-3.9v6.1h-3.1v-17.5zm7.6 8.7c2.2 0 3.6-1.2 3.6-2.9v-.1c0-1.9-1.4-2.9-3.6-2.9h-4.5v5.9h4.5z"/><path id="path64" d="M815.6 236.5h7.9c2 0 3.6.5 4.6 1.5.8.8 1.2 1.7 1.2 2.9v.1c0 2.1-1.2 3.2-2.5 3.9 2.1.7 3.5 1.9 3.5 4.3 0 3.1-2.6 4.8-6.5 4.8h-8.1v-17.5zm10.5 5c0-1.4-1.1-2.2-3.1-2.2h-4.4v4.7h4.2c2-.1 3.3-.9 3.3-2.5zm-2.6 5h-4.9v4.8h5.1c2.1 0 3.4-.8 3.4-2.4 0-1.5-1.2-2.4-3.6-2.4z"/><path id="path66" d="M841.7 236.4h2.9l7.7 17.6H849l-1.8-4.2h-8.3l-1.8 4.2H834l7.7-17.6zm4.4 10.7l-3-7-3 7h6z"/><path id="path68" d="M857.1 236.5h2.9l9.4 12.1v-12.1h3V254h-2.6l-9.7-12.5V254h-3v-17.5z"/><path id="path70" d="M888.1 236.5h3.3l5.3 8.3 5.3-8.3h3.3V254h-3.1v-12.6l-5.5 8.3h-.1l-5.5-8.2V254h-3v-17.5z"/><path id="path72" d="M910.9 245.3c0-5 3.8-9.1 9.2-9.1 5.4 0 9.1 4.1 9.1 9s-3.8 9.1-9.2 9.1c-5.3 0-9.1-4.1-9.1-9zm15.1 0c0-3.5-2.5-6.3-6-6.3s-5.9 2.8-5.9 6.2c0 3.4 2.5 6.2 6 6.2 3.5.1 5.9-2.7 5.9-6.1z"/><path id="path74" d="M934.8 236.5h7.9c2 0 3.6.5 4.6 1.5.8.8 1.2 1.7 1.2 2.9v.1c0 2.1-1.2 3.2-2.5 3.9 2.1.7 3.5 1.9 3.5 4.3 0 3.1-2.6 4.8-6.5 4.8h-8.1v-17.5zm10.6 5c0-1.4-1.1-2.2-3.1-2.2h-4.4v4.7h4.2c1.9-.1 3.3-.9 3.3-2.5zm-2.7 5h-4.9v4.8h5.1c2.1 0 3.4-.8 3.4-2.4 0-1.5-1.1-2.4-3.6-2.4z"/><path id="path76" d="M954.9 236.5h3.1V254h-3.1v-17.5z"/><path id="path78" d="M964.6 236.5h3.1v14.7h9.2v2.8h-12.3v-17.5z"/><path id="path80" d="M982.1 236.5h3.1V254h-3.1v-17.5z"/><path id="path82" d="M996 239.4h-5.6v-2.9h14.2v2.9H999V254h-3v-14.6z"/><path id="path84" d="M1014.9 247.1l-7-10.6h3.7l4.9 7.7 5-7.7h3.5l-7 10.5v7h-3.1v-6.9z"/></g></g></g></g></svg>