/* XPM */
static const char *vclass_small_rail_urban_xpm[] = {
/* columns rows colors chars-per-pixel */
"16 16 17 1",
"  c #2B282E",
". c #58525F",
"X c #5B5761",
"o c #BA323B",
"O c #D63944",
"+ c #C7A46C",
"@ c #E0B97A",
"# c None",
"$ c #A18881",
"% c #B8B5BB",
"& c #FCA8A9",
"* c #CAE686",
"= c #FFEEB5",
"- c #FBFFB8",
"; c #E6DAC7",
": c #E7E3EB",
"> c white",
/* pixels */
"##=@@@@@@@@++=##",
"##@@......  ++##",
"##@..******. +##",
"##@......... +##",
"##@......... +##",
"##@......... +##",
"##@$........ +##",
"##@@$...... @+##",
"##@@@@@@@@@@@+##",
"##OO;;OOOO;;Oo##",
"##O&>-&OO&>-&o##",
"##OO&&OOOO&&Oo##",
"###OOOOOOOOOo###",
"####X%::::%X####",
"###X%######%X###",
"##X%::::::::%X##"
};
