/* XPM */
static const char *vclass_scooter_xpm[] = {
/* columns rows colors chars-per-pixel */
"64 32 159 2 ",
"   c #2B2C29",
".  c #2B2D2B",
"X  c #2C2E29",
"o  c #2D2E2A",
"O  c #2E2E2F",
"+  c #323527",
"@  c #393E27",
"#  c #303228",
"$  c #2E2F30",
"%  c #313336",
"&  c #333438",
"*  c #333539",
"=  c #3D4228",
"-  c #454C28",
";  c #4A5328",
":  c #4D562A",
">  c #6B7A3A",
",  c #6F7F3C",
"<  c #535644",
"1  c #545647",
"2  c #545747",
"3  c #595C4D",
"4  c #4F5257",
"5  c #50545C",
"6  c #5F6152",
"7  c #5A635F",
"8  c #626B5F",
"9  c #676A5C",
"0  c #65715D",
"q  c #5A5D66",
"w  c #5B5E66",
"e  c #555C69",
"r  c #575D6C",
"t  c #5D6464",
"y  c #5D6068",
"u  c #5C6373",
"i  c #5D6474",
"p  c #5F6676",
"a  c #6D6F62",
"s  c #6E7063",
"d  c #747669",
"f  c #797B6F",
"g  c #646870",
"h  c #666C7B",
"j  c #6B6F78",
"k  c #7A7C70",
"l  c #8BA232",
"z  c #899C41",
"x  c #86887D",
"c  c #717785",
"v  c #727886",
"b  c #7A7E86",
"n  c #767C8A",
"m  c #7D8189",
"M  c #7D818A",
"N  c #7C828E",
"B  c #7D828F",
"V  c #7D8390",
"C  c #8A8B81",
"Z  c #84868F",
"A  c #92948A",
"S  c #878D98",
"D  c #929994",
"F  c #999B91",
"G  c #93969E",
"H  c #93979F",
"J  c #9FA198",
"K  c #B0BE83",
"L  c #A2AC96",
"P  c #A5A69E",
"I  c #B2BD9F",
"U  c #9397A2",
"Y  c #9C9EA7",
"T  c #A9AAA2",
"R  c #A9AAA3",
"E  c #A2A5AC",
"W  c #AEB7A3",
"Q  c #ABB1AB",
"!  c #B1B2AB",
"~  c #B4B5AE",
"^  c #ADB0B8",
"/  c #AEB1B9",
"(  c #B7B9BF",
")  c #BDBEB8",
"_  c #B9C399",
"`  c #BEC8B7",
"'  c #CCDD87",
"]  c #CDDE87",
"[  c #D0E08E",
"{  c #D1E190",
"}  c #D1E092",
"|  c #D2E192",
" . c #D3E295",
".. c #D6E49D",
"X. c #CDD9A9",
"o. c #D2DEAE",
"O. c #C3C4BF",
"+. c #CBD3B9",
"@. c #CED8BB",
"#. c #D0D9BE",
"$. c #DAE7A7",
"%. c #D5E0A9",
"&. c #DEE9B0",
"*. c #DEEAB1",
"=. c #DFEAB3",
"-. c #E2ECB9",
";. c #E2ECBA",
":. c #BCBFC5",
">. c #BEC1C7",
",. c #C8C8C4",
"<. c #CACBC6",
"1. c #CACBC7",
"2. c #CBCFC5",
"3. c #C0C3C9",
"4. c #C3C5CB",
"5. c #C7C9CF",
"6. c #D0D0CC",
"7. c #D3D3CF",
"8. c #CBCDD2",
"9. c #CCCFD4",
"0. c #D0D2D7",
"q. c #D2D4D9",
"w. c #D4D5D9",
"e. c #D4D5DA",
"r. c #DCDDD9",
"t. c #DFDFDC",
"y. c #EDF3D3",
"u. c #EEF3D5",
"i. c #F0F5DC",
"p. c #F1F5DF",
"a. c #DCDDE1",
"s. c #E2E3E0",
"d. c #E0E2E5",
"f. c #E2E3E6",
"g. c #E9E9E7",
"h. c #EEEEED",
"j. c #F5F8EB",
"k. c #F6F9EA",
"l. c #F7F9EB",
"z. c #EDEEF0",
"x. c #F0F0F2",
"c. c #F1F2F3",
"v. c #F4F4F3",
"b. c #F5F6F7",
"n. c #F7F7F6",
"m. c #F9FBF0",
"M. c #FAFCF3",
"N. c #FBFCF6",
"B. c #F7F8F8",
"V. c gray98",
"C. c #FBFCFB",
"Z. c #FDFEFB",
"A. c #FBFBFC",
"S. c gray99",
"D. c #FDFDFD",
"F. c #FEFEFC",
"G. c #FEFEFE",
"H. c #FEFFFE",
"J. c white",
/* pixels */
"J.J.J.J.J.J.J.J.J.J.J.J.J.J.J.J.J.J.J.J.J.J.J.J.J.J.J.J.J.J.J.J.J.J.J.J.J.J.J.J.J.J.J.J.J.J.J.J.J.J.J.J.J.J.J.J.J.J.J.J.J.J.J.J.",
"J.J.J.J.J.J.J.J.J.J.J.J.J.J.J.J.J.J.J.J.J.J.J.J.J.J.J.J.J.J.J.J.J.J.J.J.J.J.J.J.J.J.J.J.J.J.J.J.J.J.J.J.J.J.J.J.J.J.J.J.J.J.J.J.",
"J.J.J.J.J.J.J.J.J.J.J.J.J.J.J.J.J.J.J.J.J.J.J.J.J.J.J.J.J.J.J.J.J.J.J.G.s.R J.J.J.J.J.J.J.J.J.J.J.J.J.J.J.J.J.J.J.J.J.J.J.J.J.J.",
"J.J.J.J.J.J.J.J.J.J.J.J.J.J.J.J.J.J.J.J.J.J.J.J.J.J.J.J.J.J.J.J.J.J.<.a T ,.J.J.J.J.J.J.J.J.J.J.J.J.J.J.J.J.J.J.J.J.J.J.J.J.J.J.",
"J.J.J.J.J.J.J.J.J.J.J.J.J.J.J.J.J.J.J.J.J.J.J.J.J.J.J.J.J.J.J.J.J.J.7.f J.J.J.J.J.J.J.J.J.J.J.J.J.J.J.J.J.J.J.J.J.J.J.J.J.J.J.J.",
"J.J.J.J.J.J.J.J.J.J.J.J.J.J.J.J.J.J.J.J.J.J.J.J.J.J.J.J.J.J.J.J.J.J.V.2 D.J.J.J.J.J.J.J.J.J.J.J.J.J.J.J.J.J.J.J.J.J.J.J.J.J.J.J.",
"J.J.J.J.J.J.J.J.J.J.J.J.J.J.J.J.J.J.J.J.J.J.J.J.J.J.J.J.J.J.J.J.J.J.J.s r.J.J.J.J.J.J.J.J.J.J.J.J.J.J.J.J.J.J.J.J.J.J.J.J.J.J.J.",
"J.J.J.J.J.J.J.J.J.J.J.J.J.J.J.J.J.J.J.J.J.J.J.J.J.J.J.J.J.J.J.J.J.J.J.F ! J.J.J.J.J.J.J.J.J.J.J.J.J.J.J.J.J.J.J.J.J.J.J.J.J.J.J.",
"J.J.J.J.J.J.J.J.J.J.J.J.J.J.J.J.J.J.J.J.J.J.J.J.J.J.J.J.J.J.J.J.J.J.J.O.x J.J.J.J.J.J.J.J.J.J.J.J.J.J.J.J.J.J.J.J.J.J.J.J.J.J.J.",
"J.J.J.J.J.J.J.J.J.J.J.J.J.J.J.J.J.J.J.J.J.J.J.J.J.J.J.J.J.J.J.J.J.J.J.h.3 J.J.J.J.J.J.J.J.J.J.J.J.J.J.J.J.J.J.J.J.J.J.J.J.J.J.J.",
"J.J.J.J.J.J.J.J.J.J.J.J.J.J.J.J.J.J.J.J.J.J.J.J.J.J.J.J.J.J.J.J.J.J.J.J.6 g.J.J.J.J.J.J.J.J.J.J.J.J.J.J.J.J.J.J.J.J.J.J.J.J.J.J.",
"J.J.J.J.J.J.J.J.J.J.J.J.J.J.J.J.J.J.J.J.J.J.J.J.J.J.J.J.J.J.J.J.J.J.J.J.C ) J.J.J.J.J.J.J.J.J.J.J.J.J.J.J.J.J.J.J.J.J.J.J.J.J.J.",
"J.J.J.J.J.J.J.J.J.J.J.J.J.J.J.J.J.J.J.J.J.J.J.J.J.J.J.J.J.J.J.J.J.J.J.J.~ A J.J.J.J.J.J.J.J.J.J.J.J.J.J.J.J.J.J.J.J.J.J.J.J.J.J.",
"J.J.J.J.J.J.J.J.J.J.J.J.J.J.J.J.J.J.J.J.J.J.J.J.J.J.J.J.J.J.J.J.J.J.J.J.t.9 J.J.J.J.J.J.J.J.J.J.J.J.J.J.J.J.J.J.J.J.J.J.J.J.J.J.",
"J.J.J.J.J.J.J.J.J.J.J.J.J.J.J.J.J.J.J.J.J.J.J.J.J.J.J.J.J.J.J.J.J.J.J.J.G.1 v.J.J.J.J.J.J.J.J.J.J.J.J.J.J.J.J.J.J.J.J.J.J.J.J.J.",
"J.J.J.J.J.J.J.J.J.J.J.J.J.J.J.J.J.J.J.J.J.J.J.J.J.J.J.J.J.J.J.J.J.J.J.J.J.k 1.J.J.J.J.J.J.J.J.J.J.J.J.J.J.J.J.J.J.J.J.J.J.J.J.J.",
"J.J.J.J.J.J.J.J.J.J.J.J.J.J.J.J.J.J.J.J.J.J.J.J.J.J.J.J.J.J.J.J.J.J.J.J.J.P J J.J.J.J.J.J.J.J.J.J.J.J.J.J.J.J.J.J.J.J.J.J.J.J.J.",
"J.J.J.J.J.J.J.J.J.J.J.J.J.J.J.J.J.J.J.J.J.J.J.J.J.J.J.J.J.J.J.J.J.J.J.J.J.6.d J.J.J.J.J.J.J.J.J.J.J.J.J.J.J.J.J.J.J.J.J.J.J.J.J.",
"J.J.J.J.J.J.J.J.J.J.J.J.J.J.J.J.J.J.J.J.J.J.J.J.J.J.J.J.J.J.J.J.J.J.J.J.J.n.< j.J.J.J.J.J.J.J.J.J.J.J.J.J.J.J.J.J.J.J.J.J.J.J.J.",
"J.J.J.J.J.J.J.J.J.J.J.J.J.J.J.J.J.J.J.J.J.J.J.J.J.J.J.J.J.J.J.J.J.J.J.J.J.y.' } J.J.J.J.J.J.J.J.J.J.J.J.J.J.J.J.J.J.J.J.J.J.J.J.",
"J.J.J.J.J.J.J.J.J.J.J.J.J.J.J.J.J.J.J.J.J.J.J.J.J.J.J.J.J.J.J.J.J.J.J.J.J.k.] ] m.J.J.J.J.J.J.J.J.J.J.J.J.J.J.J.J.J.J.J.J.J.J.J.",
"J.J.J.J.J.J.J.J.J.J.J.J.J.J.J.J.J.J.J.J.J.J.J.J.J.J.J.J.J.J.J.J.J.J.J.J.J.l.[ ] u.J.J.J.J.J.J.J.J.J.J.J.J.J.J.J.J.J.J.J.J.J.J.J.",
"J.J.J.J.J.J.J.J.J.J.J.J.J.J.J.J.J.J.J.J.J.J.J.J.J.J.J.J.J.J.J.J.J.J.J.J.Z...| ] ;.J.J.J.J.J.J.J.J.J.J.J.J.J.J.J.J.J.J.J.J.J.J.J.",
"J.J.J.J.J.J.J.J.J.J.J.J.J.J.J.J.J.J.J.G.a.0.c.J.J.J.J.J.J.J.J.J.J.J.J.J.-.] &.X.#.C.J.J.J.J.J.J.J.J.J.J.J.J.J.J.J.J.J.J.J.J.J.J.",
"J.J.J.J.J.J.J.J.J.J.J.J.J.J.J.J.J.J.S.N p c h 5.J.J.J.J.J.J.J.J.J.J.J.i.] $.H.@.` o.*.F.J.J.J.J.J.J.J.J.J.J.J.J.J.J.J.J.J.J.J.J.",
"J.J.J.J.J.J.J.J.J.J.J.J.J.J.J.J.J.J.J.>.M w H U x.J.J.J.J.J.J.J.J.J.M.{  .N.=.+.` D Q p.J.J.J.J.J.J.J.J.J.J.J.J.J.J.J.J.J.J.J.J.",
"J.J.J.J.J.J.J.J.J.J.J.J.J.J.J.J.J.J.A.q + ; o Z ^ e.e.e.e.e.e.e.e.w._ K 2.f.%.4 ` L $ / J.J.J.J.J.J.J.J.J.J.J.J.J.J.J.J.J.J.J.J.",
"J.J.J.J.J.J.J.J.J.J.J.J.J.J.J.J.J.J.a.% , 8 t r i u u u u u u u u u u u n 9.:.  I W : y J.J.J.J.J.J.J.J.J.J.J.J.J.J.J.J.J.J.J.J.",
"J.J.J.J.J.J.J.J.J.J.J.J.J.J.J.J.J.J.d.* > 0 7 e S V B B B B B B B v v v q.J.3.. z l - g J.J.J.J.J.J.J.J.J.J.J.J.J.J.J.J.J.J.J.J.",
"J.J.J.J.J.J.J.J.J.J.J.J.J.J.J.J.J.J.G.j X = O Y J.J.J.J.J.J.J.J.J.J.J.J.J.J.b.5 # @ & 4.J.J.J.J.J.J.J.J.J.J.J.J.J.J.J.J.J.J.J.J.",
"J.J.J.J.J.J.J.J.J.J.J.J.J.J.J.J.J.J.J.B.E b ( G.J.J.J.J.J.J.J.J.J.J.J.J.J.J.J.z.G m 8.J.J.J.J.J.J.J.J.J.J.J.J.J.J.J.J.J.J.J.J.J.",
"J.J.J.J.J.J.J.J.J.J.J.J.J.J.J.J.J.J.J.J.J.J.J.J.J.J.J.J.J.J.J.J.J.J.J.J.J.J.J.J.J.J.J.J.J.J.J.J.J.J.J.J.J.J.J.J.J.J.J.J.J.J.J.J."
};
