/* XPM */
static const char *vclass_small_delivery_xpm[] = {
/* columns rows colors chars-per-pixel */
"16 16 37 1",
"z c #504755",
". c #7E7E7F",
"X c #007695",
"o c #817C85",
"O c #0080A6",
"+ c #008EB9",
"@ c #5B94A8",
"# c #009FC6",
"$ c #00A2CC",
"% c #00A4CE",
"& c #2FB5D0",
"* c #00B3ED",
"= c #00B3EE",
"- c #00B4EF",
"; c #00B4F1",
": c #00B4F2",
"> c #808080",
", c #818182",
"< c gray51",
"1 c #848484",
"2 c #858586",
"3 c #888C8C",
"4 c #909595",
"5 c #909696",
"6 c #B2B2B4",
"7 c #B6B6B9",
"8 c #B8B7BA",
"9 c #B9B9BD",
"0 c #BAB8BC",
"q c #CECDD2",
"w c #D0CED3",
"e c #D1CFD4",
"r c #D4CFD5",
"t c #D2D0D5",
"y c #D2D2D5",
"u c #D3D0D6",
"  c None",
/* pixels */
"                ",
"                ",
"yttttttttt      ",
"tttttttttt      ",
"tttttttttt;;;   ",
"tttttttrtt@+;;  ",
"tttttttuttozX;: ",
"ttttttttttozzO; ",
"tttttttttt&;;;; ",
"tte87etttt;%$=; ",
"te3>,3wtte3>,3*-",
"y9.qe16tt0.qe1#;",
"  >we24   >we24 ",
"  3<13    3<13  ",
"   55      55   ",
"                "
};
