/* XPM */
static const char *vclass_small_army_xpm[] = {
/* columns rows colors chars-per-pixel */
"16 16 37 1",
"s c #39483F",
". c #38493F",
"X c #39493F",
"o c #394940",
"O c #394A40",
"+ c #3A4A40",
"@ c #3B4C42",
"# c #3F5246",
"$ c #3F5347",
"% c #415347",
"& c #415447",
"* c #465A4D",
"= c #495C4F",
"- c #4A5E51",
"; c #4F6456",
": c #4E6658",
"> c #506758",
", c #506759",
"1 c #52685A",
"2 c #53695B",
"3 c #54695B",
"4 c #566F5F",
"5 c #576F5F",
"6 c #586F60",
"7 c #586F61",
"8 c #597161",
"9 c #5A7161",
"0 c #597162",
"q c #5A7162",
"w c #5B7162",
"e c #5B7465",
"r c #5C7666",
"y c #5E7767",
"u c #5F7767",
"i c #5E7866",
"a c #5E7768",
"  c None",
/* pixels */
"                ",
"                ",
"                ",
"    iyy,.....   ",
"    47w;        ",
"   +XX%ye1      ",
"  a*XXX-583     ",
"  u=ooooooo@    ",
" yyyyyyyyyyyyy  ",
"ryyyyyyyyyyyyyy ",
":688888888800q9 ",
" s+2&2&2&2&2%X  ",
"  O>$>$>$>$>#   ",
"                ",
"                ",
"                "
};
