/* XPM */
static const char *vclass_aircraft_xpm[] = {
/* columns rows colors chars-per-pixel */
"64 32 89 1 ",
"  c #15120F",
". c #191613",
"X c #262422",
"o c #32312F",
"O c #353332",
"+ c #3A3937",
"@ c #545351",
"# c #595755",
"$ c #5A5856",
"% c #6A6866",
"& c #7F7D7B",
"* c #81807E",
"= c #3178BD",
"- c #3278BD",
"; c #3379BD",
": c #3478BD",
"> c #367ABE",
", c #377BBF",
"< c #3B7BBE",
"1 c #387CBF",
"2 c #397DBF",
"3 c #497EBA",
"4 c #4B88C6",
"5 c #4E8BC8",
"6 c #5390CB",
"7 c #5C98D2",
"8 c #6797CC",
"9 c #79B2EB",
"0 c #79B3EB",
"q c #7DB7EF",
"w c #878683",
"e c #8B8987",
"r c #9C9991",
"t c #9B9A97",
"y c #9F9E9B",
"u c #A09E99",
"i c #A09E9B",
"p c #A3A29E",
"a c #969EAD",
"s c #9AA1AC",
"d c #A4A3A0",
"f c #A5A4A1",
"g c #A7A6A1",
"h c #A6A5A2",
"j c #A7A6A3",
"k c #A8A7A4",
"l c #AAA8A3",
"z c #AEACA4",
"x c #AEADAA",
"c c #B0AEA6",
"v c #B5B3AF",
"b c #B5B3B0",
"n c #B9B8B6",
"m c #BAB9B7",
"M c #B1B5BD",
"N c #C0BFBD",
"B c #C2C1BF",
"V c #869DC3",
"C c #AFB9CC",
"Z c #AECEF4",
"A c #CBC9C5",
"S c #CAC9C8",
"D c #CECDC9",
"F c #D4D2CD",
"G c #C3CDDD",
"H c #D6D4D0",
"J c #D6D6D5",
"K c #D8D6D3",
"L c #D9D7D3",
"P c #DAD8D4",
"I c #DBD9D5",
"U c #E1E0DC",
"Y c #CAD4E6",
"T c #E1E1E0",
"R c #E4E4E3",
"E c #E6E5E5",
"W c #E4EDFB",
"Q c gray95",
"! c #F9F9F8",
"~ c #FAFAF9",
"^ c #FBFBFB",
"/ c #FCFCFB",
"( c gray99",
") c #FDFDFC",
"_ c #FDFDFD",
"` c #FEFDFD",
"' c #FDFEFF",
"] c #FEFEFE",
"[ c white",
/* pixels */
"[[[[[[[[[[[[[[[[[[[[[[[[[[[[[[[[[[[[[[[[[[[[[[[[[[[[[[[[[[[[[[[[",
"[[[[[[[[[[[[[[[[[[[[[[[[[[[[[[[[[[[[[[[[[[[[[[[[[[[[[[[[[[[[[[[[",
"[[[[[[[[[[[[[[[[[[[[[[[[[[[[[[[[[[[[[[[[[[[[[[[[[[[[[[[[[[[[[[[[",
"[[[[[[[[[[[[[[[[[[[[[[[[[[[[[[[[[[[[[[[[[[[[[[[[[[[[[[[[[[[[[[[[",
"[[[[[[[[[[[[[[[[[[[[[[[[[[[[[[[[[[[[[[[[[[[[[[[[[[[[[[[[[[[[[[[[",
"[[[[[[[[[[[[[[[[[[[[[[[[[[[[[[[[[[[[[[[[[[[[[[[[[[[[[[[[[[[[[[[[",
"[[[[[[[[[[[[[[[[[[[[[[[[[[[[[[[[[[[[[[[[[[[[[[[[[[[[[[[[[[[[[[[[",
"[[[[[=66q[[[[[[[[[[[[[[[[[[[[[[[[[[[[[[[[[[[[[[[[[[[[[[[[[[[[[[[",
"[[[[[=66q'[[[[[[[[[[[[[[[[[[[[[[[[[[[[[[[[[[[[[[[[[[[[[[[[[[[[[[",
"[[[[[=;69q[[[[[[[[[[[[[[[[[[[[[[[[[[[[[[[[[[[[[[[[[[[[[[[[[[[[[[",
"[[[[[Y=66qq[[[[[[[[[[[[[[[[[[[[[[[[[[[[[[[[[[[[[[[[[[[[[[[[[[[[[",
"[[[[[[=66qqZ[[[[[[[[[[[[[[[[[[[[[[[[[[[[[[[[[[[[[[[[[[[[[[[[[[[[",
"[[[[[[=46qqqW[[[[[[[[[[[[[[[[[[[[[[[[[[[[[[[[[[[[[[[[[[[[[[[[[[[",
"[[[[[[<=67qqq[[[[[[[[[[[[[[[[[[[[[[[[[[[[[[[[[[[[[[[[[[[[[[[[[[[",
"[[[[[[[=666666[[[[[[[[[[[[[[[[[[[[[[[[[[[]]_)(/~^(`[[[[[[[[[[[[[",
"[[[[[[[======:CUIIIIIIIIIIIIIIIIIIIIIIIIIIIIIIIIIIIIIII![[[[[[[[",
"[[[[[[=4668IIIIIbI@+I .IX%Ii&Iw I$ I#oIAOIv It Ie IIIII  [[[[[[[",
"[[[[[dds======VFIIIIIIIIIIIIIIIIIIIIIIIIIIIIIIIIIIIIIIIIIDR[[[[[",
"[[[[[[dddddlcccccccccccccc3560qqqqqqqqGIIIIIPLKHDBNNNNNNNNNd[[[[",
"[[[[[[[[[Qdddddddddgzccccccccca=-,21>=MNNNNNNNNNNNNNNNmjdddf[[[[",
"[[[[[[[[[[[[[[[[Jkdddddddddddddddr*NNNNNNNNddddddddddddddS[[[[[[",
"[[[[[[[[[[[[[[[[[[[[[[[[[[[TnjfdddyNNNNNNNuddddfhxE[[[[[[[[[[[[[",
"[[[[[[[[[[[[[[[[[[[[[[[[[[[[[[[[[[dppppppd[[[[[[[[[[[[[[[[[[[[[[",
"[[[[[[[[[[[[[[[[[[[[[[[[[[[[[[[[[[[[[[[[[[[[[[[[[[[[[[[[[[[[[[[[",
"[[[[[[[[[[[[[[[[[[[[[[[[[[[[[[[[[[[[[[[[[[[[[[[[[[[[[[[[[[[[[[[[",
"[[[[[[[[[[[[[[[[[[[[[[[[[[[[[[[[[[[[[[[[[[[[[[[[[[[[[[[[[[[[[[[[",
"[[[[[[[[[[[[[[[[[[[[[[[[[[[[[[[[[[[[[[[[[[[[[[[[[[[[[[[[[[[[[[[[",
"[[[[[[[[[[[[[[[[[[[[[[[[[[[[[[[[[[[[[[[[[[[[[[[[[[[[[[[[[[[[[[[[",
"[[[[[[[[[[[[[[[[[[[[[[[[[[[[[[[[[[[[[[[[[[[[[[[[[[[[[[[[[[[[[[[[",
"[[[[[[[[[[[[[[[[[[[[[[[[[[[[[[[[[[[[[[[[[[[[[[[[[[[[[[[[[[[[[[[[",
"[[[[[[[[[[[[[[[[[[[[[[[[[[[[[[[[[[[[[[[[[[[[[[[[[[[[[[[[[[[[[[[[",
"[[[[[[[[[[[[[[[[[[[[[[[[[[[[[[[[[[[[[[[[[[[[[[[[[[[[[[[[[[[[[[[["
};
