/* XPM */
static const char *vclass_subway_xpm[] = {
/* columns rows colors chars-per-pixel */
"64 32 180 2 ",
"   c black",
".  c #050401",
"X  c #060501",
"o  c #191602",
"O  c #241F03",
"+  c #3D3306",
"@  c #534D37",
"#  c #5B5431",
"$  c #655B2B",
"%  c #635931",
"&  c #685F35",
"*  c #625B3C",
"=  c #685E39",
"-  c #7F712A",
";  c #7F712E",
":  c #6F6432",
">  c #6A6039",
",  c #6C6239",
"<  c #6D6339",
"1  c #6C623A",
"2  c #6F6539",
"3  c #69613F",
"4  c #6A613E",
"5  c #736733",
"6  c #726835",
"7  c #756934",
"8  c #786C30",
"9  c #7A6F35",
"0  c #7A6E36",
"q  c #7F7133",
"w  c #7E7134",
"e  c #5E5847",
"r  c #5F5A46",
"t  c #595649",
"y  c #5A574A",
"u  c #5D5848",
"i  c #5C594D",
"p  c #5F5B4C",
"a  c #5F5B4E",
"s  c #5F5A50",
"d  c #5D5B59",
"f  c #5C5A5B",
"g  c #635C41",
"h  c #605A46",
"j  c #645E44",
"k  c #645E45",
"l  c #685F40",
"z  c #615E51",
"x  c #706644",
"c  c #706744",
"v  c #706A54",
"b  c #716A54",
"n  c #716B58",
"m  c #716C59",
"M  c #686667",
"N  c #6A6869",
"B  c #737064",
"V  c #8E7D26",
"C  c #8F7D27",
"Z  c #86762A",
"A  c #84762E",
"S  c #86772F",
"D  c #89792C",
"F  c #807232",
"G  c #857C4C",
"H  c #978326",
"J  c #9A8625",
"K  c #9E8A24",
"L  c #9E8A27",
"P  c #9E8A28",
"I  c #A38D21",
"U  c #A38D22",
"Y  c #A58F25",
"T  c #A79020",
"R  c #A99122",
"E  c #B79C22",
"W  c #BDA221",
"Q  c #C1A419",
"!  c #C2A519",
"~  c #CEB01C",
"^  c #D5B518",
"/  c #D6B618",
"(  c #D9B818",
")  c #F2BA0F",
"_  c #FDB80C",
"`  c #EABC14",
"'  c #F1BB10",
"]  c #F0BF12",
"[  c #FDC201",
"{  c #FDC301",
"}  c #FDC401",
"|  c #FDC501",
" . c #FDC502",
".. c #FDC603",
"X. c #FDC805",
"o. c #FDC906",
"O. c #FEC10F",
"+. c #EFC113",
"@. c #EDC515",
"#. c #ECC816",
"$. c #EDC817",
"%. c #E2C01A",
"&. c #E7C418",
"*. c #E9C618",
"=. c #EDC918",
"-. c #EECA18",
";. c #EFCB18",
":. c #F4C414",
">. c #FEC310",
",. c #FEC612",
"<. c #FEC712",
"1. c #F8C715",
"2. c #F1CC17",
"3. c #FDC813",
"4. c #FDCA13",
"5. c #FDCB13",
"6. c #FDCB14",
"7. c #FDCC14",
"8. c #FDCE14",
"9. c #FDCE15",
"0. c #F0CB18",
"q. c #F0CB19",
"w. c #F2CD18",
"e. c #F3CE18",
"r. c #F4CF18",
"t. c #F5CF18",
"y. c #FDD016",
"u. c #FDD216",
"i. c #FDD316",
"p. c #FDD417",
"a. c #F7D118",
"s. c #F8D218",
"d. c #F9D318",
"f. c #F9D319",
"g. c #FAD318",
"h. c #FBD518",
"j. c #FCD418",
"k. c #FCD518",
"l. c #FDD618",
"z. c #FED63F",
"x. c #AD9E53",
"c. c #B5A140",
"v. c #868377",
"b. c #DF985A",
"n. c #F59550",
"m. c #9A978A",
"M. c #A3A094",
"N. c #B3B0A4",
"B. c #BCB9AD",
"V. c #DED8BD",
"C. c #E1D2B2",
"Z. c #D0CDC1",
"A. c #E1DED2",
"S. c cornsilk",
"D. c #FFF9DC",
"F. c #FAECE3",
"G. c #F2F0E7",
"H. c #FFFAE7",
"J. c #F3F1E8",
"K. c #F7F4E8",
"L. c #F6F4EA",
"P. c #FFFBEB",
"I. c #FDFAEE",
"U. c #FEFBEF",
"Y. c #F1F1F1",
"T. c #F3F3F3",
"R. c gray96",
"E. c gray97",
"W. c #FEFCF2",
"Q. c #FFFDF3",
"!. c #FAF9F5",
"~. c #FFFDF4",
"^. c #F9F9F9",
"/. c gray98",
"(. c #FFFEF9",
"). c gray99",
"_. c #FFFFFD",
"`. c #FEFEFE",
"'. c #FFFFFE",
"]. c white",
/* pixels */
"].].].].].].].].].].].].].].].].].].].].].].].].].].].].].].].].].].].].].].].].].].].].].].].].].].].].].].].].].].].].].].].].",
"].].].].].].].].].].].].].].].].].].].].].].].].].].].].].].].].].].].].].].].].].].].].].].].].].].].].].].].].].].].].].].].].",
"].].].].].].].].].].].].].].].].].].].].].].].].].].].].].].].].].].].].].].].].].].].].].].].].].].].].].].].].].].].].].].].].",
"].].].].].].].].].].].].].].].].].].].].].].].].].].].].].].].].].].].].].].].].].].].].].].].].].].].].].].].].].].].].].].].].",
"].].].].].].].].].].].].].].].].].].].].].].].].].].].].].].].].].].].].].].].].].].].].].].].].].].].].].].].].].].].].].].].].",
"].]._.S.S.S.S.S.S.S.S.S.S.S.S.S.S.S.S.S.S.S.S.S.S.S.S.S.S.S.S.S.S.S.S.S.S.D.S.S.S.S.S.S.S.S.S.S.S.S.S.S.S.S.S.S.S.S.S.P.].].].].",
"].].H.| | | | | | | | | | | | | | | | | | | | | | | | | | | | | | | | | X...| | | | | | | | | | | | | | | | | | | | | | z.].].].",
"].].H.| | | | | | | | | | | | | | | | { { { { [ [ { { { { | | | | | | | o.| | | | | | | | | } { { { { { | | | | | | | |  .~.].].",
"].].Q.l.l.l.l.l.l.l.l.l.l.l.l.l.l.l.>.,.4.8.p.9.y.u.5.4.4._ l.l.l.l.l.l.l.l.l.l.l.l.l.l.l.9.O.4.4.4.4.<.O.l.l.l.l.l.l.l.l.Q.].].",
"].].Q.l.l.l.0.-.-.-.-.-.-.-.-.l.l.l.>.l.l.l.l.l.l.l.l.l.l.7.i.l.l.r.-.-.-.-.-.-.-.-.d.l.l.3.l.s.-.-.e.l.O.l.l.k.-.-.q.f.t.Q.].].",
"].].Q.l.l.A e u u u u u u u u : k.l.>.Z b b v V w.k b b j :.i.l.Y h u u u u u u u u * %.l.3.~ g u u r L O.l.a.& u u # - @ J.].].",
"].].Q.l.l.l N N N N N N N N N s *.l.>.7 N N N 8 &.m N N n ` i.l.q N N N N N N N N N M I l.3.H N N N N 0 O.l.^ f N N 4 S p J.].].",
"].].Q.l.l.l N N N N N N N N N s *.l.>.7 N N N 8 &.m N N n ` i.l.w N N N N N N N N N M U l.3.H N N N N 0 O.l.^ f N N 4 S p J.].].",
"].].Q.l.l.l N N N N N N N N N s *.l.>.7 N N N 8 &.m N N n ` i.l.w N N N N N N N N N M U l.3.H N N N N 0 O.l.^ f N N 4 S p J.].].",
"].].Q.l.l.l N N N N N N N N N s *.l.>.7 N N N 8 &.m N N n ` i.l.w N N N N N N N N N M U l.3.H N N N N 0 O.l.^ f N N 4 S p J.].].",
"].].Q.l.l.l N N N N N N N N N s *.l.>.7 N N N 8 &.m N N n ` i.l.w N N N N N N N N N M U l.3.H N N N N 0 O.l.^ f N N 4 S p J.].].",
"].].Q.l.l.l N N N N N N N N N s *.l.>.7 N N N 8 &.m N N n ` i.l.w N N N N N N N N N M U l.3.H N N N N 0 O.l.^ f N N 4 S p J.].].",
"].].Q.l.l.3 N N N N N N N N N a =.l.>.7 N N N 8 &.m N N n ` i.l.F N N N N N N N N N M T l.3.J N N N N 9 O.l.( d N N 4 S p J.].].",
"].].Q.l.l.P > = = = = = = = = D l.l.>.K x c c R a.1 c c , 1.i.l.W 2 = = = = = = = = 5 ;.l.3.%.6 = = < E O.l.k.; = = $ C % L.].].",
"].].Q.l.l.l.l.l.l.l.l.l.l.l.l.l.l.l.>.l.l.l.l.l.l.l.l.l.l.6.i.l.l.l.l.l.l.l.l.l.l.l.l.l.l.3.l.l.l.l.l.l.O.l.l.l.l./ Q ! e.Q.].].",
"].].Q.l.l.l.l.l.l.l.l.l.l.l.l.l.l.l.>.l.l.l.l.l.l.l.l.l.l.6.i.l.l.l.l.l.l.l.l.l.l.l.l.l.l.3.l.l.l.l.l.l.O.l.l.l.s.n.F.^.x.Q.].].",
"].].Q.l.l.l.l.l.l.l.l.l.l.l.l.l.l.l.>.l.l.l.l.l.l.l.l.l.l.6.i.l.l.l.l.l.l.l.l.l.l.l.l.l.l.3.l.l.l.l.l.l.O.l.l.l.g.b.C.V.c.Q.].].",
"].].W.#.#.#.#.#.#.#.#.#.#.#.#.#.#.#.' #.#.2.h.j.h.j.$.#.#.+.@.#.#.#.#.#.#.#.#.#.#.#.#.#.#.] #.#.#.#.#.#.) #.#.#.#.#.#.#.#.W.].].",
"].].G.                                                                  +                                               X !.].].",
"].].G.                                                                  O o                                           . G ].].].",
"].].'.U.U.K.B t z A.U.M.t y N.U.U.U.U.U.U.U.U.U.U.U.U.U.U.U.U.U.U.U.U.U.U.U.U.U.U.U.U.U.m.t y B.U.Z.i t v.I.U.U.U.U.U.(.].].].].",
"].].].].].].].Y.`.].].].E.^.].].].].].].].].].].].].].].].].].].].].].].].].].].].].].].].R./.].].].).T.].].].].].].].].].].].].",
"].].].].].].].].].].].].].].].].].].].].].].].].].].].].].].].].].].].].].].].].].].].].].].].].].].].].].].].].].].].].].].].].",
"].].].].].].].].].].].].].].].].].].].].].].].].].].].].].].].].].].].].].].].].].].].].].].].].].].].].].].].].].].].].].].].].",
"].].].].].].].].].].].].].].].].].].].].].].].].].].].].].].].].].].].].].].].].].].].].].].].].].].].].].].].].].].].].].].].].",
"].].].].].].].].].].].].].].].].].].].].].].].].].].].].].].].].].].].].].].].].].].].].].].].].].].].].].].].].].].].].].].].].",
"].].].].].].].].].].].].].].].].].].].].].].].].].].].].].].].].].].].].].].].].].].].].].].].].].].].].].].].].].].].].].].].]."
};
