/* XPM */
static const char *vclass_small_motorcycle_xpm[] = {
/* columns rows colors chars-per-pixel */
"16 16 80 1",
") c #55505F",
". c #695562",
"X c #605B69",
"o c #635E6C",
"O c #66616F",
"+ c #66626F",
"@ c #6A6572",
"# c #6B6774",
"$ c #6C6874",
"% c #6D6976",
"& c #6F6B77",
"* c #716E7A",
"= c #736F7B",
"- c #74707C",
"; c #75717D",
": c #865F6A",
"> c #965F69",
", c #9C6169",
"< c #9D737C",
"1 c #CD555B",
"2 c #E05A5E",
"3 c #E26062",
"4 c #787480",
"5 c #797580",
"6 c #797681",
"7 c #7A7782",
"8 c #7B7883",
"9 c #7C7984",
"0 c #7D7985",
"q c #807C87",
"w c #817E89",
"e c #8F7F89",
"r c #84808B",
"t c #85828C",
"y c #86828D",
"u c #88848E",
"i c #8A8691",
"p c #8B8791",
"a c #8C8992",
"s c #8C8993",
"d c #8D8993",
"f c #94919A",
"g c #96939C",
"h c #98959E",
"j c #BA8E94",
"k c #A09DA5",
"l c #A6A3AB",
"z c #A7A4AC",
"x c #ACA9B1",
"c c #AEACB3",
"v c #B1AFB6",
"b c #B2AFB6",
"n c #B3B1B7",
"m c #B4B1B7",
"M c #B7B5BB",
"N c #B7B5BC",
"B c #BAB8BE",
"V c #BAB9BE",
"C c #E08B8F",
"Z c #E69092",
"A c #F4A3A4",
"S c #FDB2B2",
"D c #BEBCC1",
"F c #C1BFC4",
"G c #C3C1C7",
"H c #C4C2C7",
"J c #C4C2C8",
"K c #CAC9CD",
"L c #CCCACF",
"P c #CECDD1",
"I c #CFCED2",
"U c #D1D0D3",
"Y c #D3D2D6",
"R c #D5D4D8",
"E c #D7D6D9",
"W c #DCDBDE",
"! c #E4C0C3",
"~ c #FECBCB",
"^ c #E1E0E2",
"  c None",
/* pixels */
"                ",
"                ",
"                ",
"                ",
"          Um    ",
"   JY   ~SAeZ   ",
"  EsOo+,332:j   ",
" Rhl^n*=X.1!ygP ",
"W0Hb5r&@@>CupNrI",
"zVwtq#$)%< 9v4Gh",
"DkBK8Ghid  ;LMxc",
" f6-F       ;7a ",
"                ",
"                ",
"                ",
"                "
};
