/* XPM */
static const char *vclass_small_aircraft_xpm[] = {
/* columns rows colors chars-per-pixel */
"16 16 73 1",
"  c #5F8DAF",
". c #5F91B7",
"X c #55ACEE",
"o c #58ADEE",
"O c #5CAEEE",
"+ c #7DBAE8",
"@ c #69B6F1",
"# c #6EB8F1",
"$ c #72BBF1",
"% c #75BCF3",
"& c #7CBFF3",
"* c #909BA3",
"= c #A7AFB5",
"- c #80B4DB",
"; c #AFBAC2",
": c #A0BCD0",
"> c #81BCE8",
", c #85BDE8",
"< c #91BEE1",
"1 c #B3C0C8",
"2 c #B6C1C9",
"3 c #A0C2DC",
"4 c #BBC8D3",
"5 c #BEC9D1",
"6 c #8EC1E6",
"7 c #94C3E5",
"8 c #99C5E5",
"9 c #8CC7F4",
"0 c #95CCF5",
"q c #9CCFF6",
"w c #A2D1F6",
"e c #B5DBF8",
"r c #B9DDF8",
"t c #BFE0F8",
"y c #C0CBD2",
"u c #C2CED5",
"i c #CDD2D5",
"p c #C6D0D8",
"a c #CBD6DE",
"s c #CCD6DF",
"d c #D2D6D9",
"f c #DBDEE0",
"g c #CCE0EE",
"h c #D9E3EB",
"j c #C8E0F2",
"k c #C2E1F9",
"l c #C7E3F9",
"z c #C9E5FA",
"x c #CFE8FB",
"c c #DEE8F0",
"v c #DAEAF5",
"b c #D7ECFB",
"n c #E0E6EB",
"m c #E4E7E9",
"M c #E3E8ED",
"N c #E6EBEF",
"B c #E7ECF0",
"V c #EAEEF2",
"C c #ECEFF2",
"Z c #E3EFF8",
"A c #EEF1F3",
"S c #E6F4FD",
"D c #EAF5FD",
"F c #F0F1F2",
"G c #F0F3F5",
"H c #F3F5F8",
"J c #F4F6F8",
"K c #F6F8F9",
"L c #F5FAFE",
"P c #F9F9FA",
"I c #FAFBFC",
"U c #F9FCFE",
"Y c None",
/* pixels */
"YYYYYYYYYYYYYYYY",
"YYYYY$qYYYYYYYYY",
"YYYYYeXwYYYYYYYY",
"YYYYYY@X<=mYYYYY",
"YSYYYYzXX iYYYYY",
"DXlYYYY%XXkYYYYY",
"UXXZKJHj+>,cBVIY",
"P34ypssasssss;uC",
"F:125ssssssss;5N",
"UoOvGACg678hnMKY",
"DXrYYYY&XXeYYYYY",
"YbYYYYxXX.dYYYYY",
"YYYYYY#X-*fYYYYY",
"YYYYYtX0YYYYYYYY",
"YYYYY$9YYYYYYYYY",
"YYYYYLYYYYYYYYYY"
};
