/* XPM */
static const char *vclass_small_subway_xpm[] = {
/* columns rows colors chars-per-pixel */
"16 16 40 1",
"  c #020202",
". c #090702",
"X c gray5",
"o c #101010",
"O c #161616",
"+ c gray12",
"@ c #3A2E0C",
"# c #232323",
"$ c gray15",
"% c gray17",
"& c gray22",
"* c #554312",
"= c #6F5817",
"- c #705817",
"; c gray26",
": c #4C4C4C",
"> c #6A6A6A",
", c #6F6F6F",
"< c #717171",
"1 c #8A6E1D",
"2 c #8C6F1D",
"3 c #97771F",
"4 c #B8942C",
"5 c #C49B28",
"6 c #CEA42B",
"7 c #D6A92C",
"8 c #D9AD31",
"9 c #E2B32F",
"0 c #E2B430",
"q c #E3B940",
"w c gray58",
"e c #B1B1B1",
"r c #B6B6B6",
"t c gray72",
"y c #EFE4B0",
"u c #EBEAE5",
"i c #EFEFEF",
"p c #F4F4F4",
"a c #F9F9F9",
"s c None",
/* pixels */
"ssssae>::>eassss",
"sssr#      $tsss",
"ssw          wss",
"st .-333333=. ts",
"a$ 2999999991 $a",
"r  2**1**1**2  r",
",  2  1  1  2  <",
";  2  1  1  2  ;",
"O  2  1  1  1  O",
"+  5667667665   ",
"   yyy9999yyy   ",
"   yyy9099yyy   ",
"   40990990q4   ",
"   @89999998@   ",
"   $up    pp%   ",
"  Xpp&    %ipo  "
};
