/* XPM */
static const char *vclass_small_rail_fast_xpm[] = {
/* columns rows colors chars-per-pixel */
"16 16 11 1",
"  c #262529",
". c #37353B",
"X c gray35",
"o c #645F6B",
"O c #ED1C24",
"+ c #A8A2B5",
"@ c gray70",
"# c #C3C3C3",
"$ c #E7E3EB",
"% c gray92",
"& c None",
/* pixels */
"&&&&&&&&&&&&&&&&",
"&&&&&&&&&&&&&&&&",
"&&&&&&&&&&&&&&&&",
"@@@@@@@@@@&&&&&&",
"%%%++++%%%@@&&&&",
".o%+..+%o... &&&",
"..%+..+%..... &&",
".o%+..+%o..... &",
"%%%+%%+%%%%%%%%O",
"OOO+OO+OOOOOOOO@",
"###+##+########@",
"@@@++++@@@@@@@@&",
"XX&&&&&&XXX&&&&&",
"$$$$$$$$$$$$$$$$",
"&&&&&&&&&&&&&&&&",
"&&&&&&&&&&&&&&&&"
};
