/* XPM */
static const char *vclass_small_ignoring_xpm[] = {
/* columns rows colors chars-per-pixel */
"16 16 8 1",
"  c #514B5B",
". c None",
"X c #7F7F7F",
"o c #7E8585",
"O c #98A1A1",
"+ c #ADB5B5",
"@ c #E5F2F2",
"# c White",
/* pixels */
"................",
"....++++++++....",
"...++++++++++...",
"..++++++++++++..",
"..+++++++++#++..",
".+++++++++#X+++.",
".++++++++#X++++.",
"+++++X#+#X++++++",
"++@@++X#X+++@@++",
"++@@+++X++++@@++",
"++++++++++++++++",
"++++++++++++++++",
"oooOOOOOOOOOOooo",
"   ..........   ",
"   ..........   ",
"................"
};
