/* XPM */
static const char *vclass_small_evehicle_xpm[] = {
/* columns rows colors chars-per-pixel */
"16 16 46 1",
". c #5A5565",
"X c #6E9D54",
"o c #7CC947",
"O c #78C14C",
"+ c #7AC848",
"@ c #7BC848",
"# c #7BC948",
"$ c #7BC949",
"% c #7ACA48",
"& c #7CC949",
"* c #7ECA4C",
"= c #80CB4E",
"- c #81CB50",
"; c #82CC51",
": c #87CE59",
"> c #89CF5B",
", c #8DD061",
"< c #8FD164",
"1 c #91D267",
"2 c #94D36A",
"3 c #95D46C",
"4 c #9DD777",
"5 c #9ED779",
"6 c #A1D97D",
"7 c #AADC89",
"8 c #ABDC8A",
"9 c #BDE4A4",
"0 c #C6E7AF",
"q c #C8E9B3",
"w c #CCEAB9",
"e c #C7E1C8",
"r c #C7E2C9",
"t c #C8E2C9",
"y c #D9F0CB",
"u c #E3F4D8",
"i c #E4F4DA",
"p c #E5F4DA",
"a c #E7F5DD",
"s c #EFF9E9",
"d c #F7FCF4",
"f c #F8FCF5",
"g c #FAFDF9",
"h c #FCFEFB",
"j c #FEFFFE",
"k c white",
"  c None",
/* pixels */
"                ",
"    ########    ",
"   #####;q:##   ",
"  #####>af;##$  ",
"  #+##1sk0####  ",
" $#%#4dkj<####o ",
" @##3hkkhpi2##& ",
"%###=56gkky-###%",
"##tr##8kkw*#tr##",
"##re##uj9###re##",
"#####,h7########",
"######:#########",
"XXXOOOOOOOOOOXXX",
"...          ...",
"...          ...",
"                "
};
