/* XPM */
static const char *pl_3_xpm[] = {
"128 128 2 1",
" 	c None",
".	c Gray100",
"                                                                                                                                ",
"                                                                                                                                ",
"                                                                                                                                ",
"                                                                                                                                ",
"                                                                                                                                ",
"                                                                                                                                ",
"                                                                                                                                ",
"                                                                                                                                ",
"                                                                                                                                ",
"                                                                                                                                ",
"                                                                                                                                ",
"                                                                                                                                ",
"                                                                                                                                ",
"                                                                                                                                ",
"                                                                                                                                ",
"                                                                                                                                ",
"                                                                                                                                ",
"                                                                                                                                ",
"                                                                                                                                ",
"                                                                                                                                ",
"                                                                                                                                ",
"                                                                                                                                ",
"                                                                                                                                ",
"                                                                                                                                ",
"                                                                                                                                ",
"                                                                                                                                ",
"                                                                                                                                ",
"                                                                                                                                ",
"                                                                                                                                ",
"                                                                                                                                ",
"                                                                                                                                ",
"                                                                                                                                ",
"                                                                                                                                ",
"                                                                                                                                ",
"                                                                                                                                ",
"                                                                                                                                ",
"                                                                                                                                ",
"                                                                                                                                ",
"                                                                                                                                ",
"                                                                                                                                ",
"                                                                                                                                ",
"                                                                                                                                ",
"                                                                                                                                ",
"                                                                                                                                ",
"                                                                                                                                ",
"                                                                                                                                ",
"                                                                                                                                ",
"                                                                                                                                ",
"                                                                                                                                ",
"                                                                                                                                ",
"                                                                                                                                ",
"                                                                                                                                ",
"                                                                                                                                ",
"                                                                                                                                ",
"                                                                                                                                ",
"                                                                                                                                ",
"                                                                                                                                ",
"                                                                                                                                ",
"                                                                                                                                ",
"                                                                                                                                ",
"                                                                                                                                ",
"                                                                                                                                ",
"                                                                                                                                ",
"                                                                                                                                ",
"                                                                                                                                ",
"                                                                                                                                ",
"                                                                                                                                ",
"                                                                                                                                ",
"                                                                                                                                ",
"                                              ....................                                                              ",
"                                              ....................                                                              ",
"                                              ....................                                                              ",
"                                              ....................                                                              ",
"                                              ....            ....                                                              ",
"                                              ....            ....                                                              ",
"                                              ....            ....                                                              ",
"                                              ....            ....                                                              ",
"                                              ....            ....                                                              ",
"                                              ....            ....                                                              ",
"                                              ....            ....                                                              ",
"                                              ....            ....                                                              ",
"                                              ....            ....                                                              ",
"                                              ....            ....                                                              ",
"                                              ....            ....                                                              ",
"                                              ....            ....                                                              ",
"                                              ....            ....                                                              ",
"                                              ....            ....                                                              ",
"                                              ....            ....                                                              ",
"                                              ....            ....                                                              ",
"                                     ......................   ....                                                              ",
"                                      .....................   ....                                                              ",
"                                      ....................    ....                                                              ",
"                                      ....................    ....                                                              ",
"                                      ....................    ....                                                              ",
"                                      ....................    ....                                                              ",
"                                      ...................     ....                                                              ",
"                                       ..................     ....                                                              ",
"                                       .................      ....                                                              ",
"                                       .................      ....                                                              ",
"                                        ................      ....                                                              ",
"                                        ................      ....                                                              ",
"                                        ...............       ....                                                              ",
"                                         ..............       ....                                                              ",
"                                         ..............       ....                                                              ",
"                                         ..............       ....                                                              ",
"                                          ............        ....                                                              ",
"                                          ............        ....                                                              ",
"                                          ............        ....                                                              ",
"                                           ..........         ....                                                              ",
"                                           ..........         ....                                                              ",
"                                           ..........         ....                                                              ",
"                                           .........          ....                                                              ",
"                                           .........          ....                                                              ",
"                                            ........          ....                                                              ",
"                                            .......           ....                                                              ",
"                                            .......           ....                                                              ",
"                                             ......           ....                                                              ",
"                                             ......           ....                                                              ",
"                                             ......           ....                                                              ",
"                                              ....            ....                                                              ",
"                                              ....            ....                                                              ",
"                                              ...             ....                                                              ",
"                                               ..             ....                                                              ",
"                                               ..             ....                                                              ",
"                                               ..             ....                                                              ",
"                                               .              ....                                                              ",
"                                               .              ....                                                              ",
"                                                              ....                                                              "};
