/* XPM */
static const char *checkbox_showdemandelements_xpm[] = {
/* columns rows colors chars-per-pixel */
"16 16 3 1",
"  c black",
"o c #CC0000",
"@ c None",
/* pixels */
"@@@@@@@@@@@@@@@@",
"@@       @@@@@@@",
"@  @@@@@  @@@@@@",
"@ @@@@@@@ @@@@@@",
"@ @@@@@@@ @@@@@@",
"           @@@@@",
" @@    ooooooo@@",
" @@   oo@@@@@oo@",
"      o@@@@@@@o@",
"@  @@@o@@@@@@@o@",
"@  @@ooooooooooo",
"@@@@@o@@ooooo@@o",
"@@@@@o@@ooooo@@o",
"@@@@@ooooooooooo",
"@@@@@@  @@@@@  @",
"@@@@@@  @@@@@  @"
};
