/* XPM */
static const char *checkbox_tazdrawfill_xpm[] = {
/* columns rows colors chars-per-pixel */
"16 16 3 1",
"# c black",
"* c #CC0000",
"  c none",
/* pixels */
"#####  #   #####",
"  #   ###      #",
"  #   # #     # ",
"  #  ## ##   #  ",
"  #  #####  #   ",
"  #  #   # #    ",
"  #  #   # #####",
"                ",
"****************",
"*   ****    ****",
"*   ****    ****",
"*   ****    ****",
"****    ****   *",
"****    ****   *",
"****    ****   *",
"****************"
};
