/* XPM */
static const char *checkbox_showtazelements_xpm[] = {
/* columns rows colors chars-per-pixel */
"16 16 3 1",
"  c Black",
". c #CC0000",
"X c None",
/* pixels */
"     XX XXX     ",
"XX XXX   XXXXXX ",
"XX XXX X XXXXX X",
"XX XX  X  XXX XX",
"XX XX     XX XXX",
"XX XX XXX X XXXX",
"XX XX XXX X     ",
"XXXXXXXXXXXXXXXX",
"XXXXXXXXXXXXXXXX",
"XXXXXXX  XXXXXXX",
"XXXXXX    XXXXXX",
".....      .....",
".....      .....",
"XXXXXX    XXXXXX",
"XXXXXXX  XXXXXXX",
"XXXXXXXXXXXXXXXX"
};
