/* XPM */
static const char *checkbox_showshapes_xpm[] = {
/* columns rows colors chars-per-pixel */
"16 16 3 1",
" 	c None",
".	c Black",
"o	c #CC0000",
/* pixels */
"  ...           ",
" .....          ",
" .....          ",
" .....          ",
"  ...           ",
"                ",
"                ",
"   .     ..     ",
"  .o.   .oo.    ",
"  .oo.  .ooo.   ",
" .ooo.  .ooo.   ",
" .oooo...oo..   ",
" .oooooooo.     ",
" .ooooooo.      ",
"  .......       ",
"                "
};
