/* XPM */
static const char *checkbox_showoverlappedroutes_xpm[] = {
/* columns rows colors chars-per-pixel */
"16 16 3 1",
"  c black",
". c #CC0000",
"X c None",
/* pixels */
"XXX X XXXXXX XXX",
"XX     XXXX   XX",
"XXX X XXXX     X",
"XX     XX       ",
"XXX X XXXXX   XX",
"XXXXXXXXXXX   XX",
"              XX",
"...........   XX",
"...........   XX",
"...........XXXXX",
"XXXXXXXX...XXXXX",
"XXXXXXXX...XXXXX",
"XXXXXX.......XXX",
"XXXXXXX.....XXXX",
"XXXXXXXX...XXXXX",
"XXXXXXXXX.XXXXXX"
};
