/* XPM */
static const char *checkbox_showconnections_xpm[] = {
/* columns rows colors chars-per-pixel */
"16 16 2 1",
"  c #CC0000",
"v c none",
/* pixels */
"vvvvvvvvvvvvvvvv",
"vvvvvvvvvvvv vvv",
"vvvvvvvvvvvv  vv",
"v              v",
"vvvvvvvvvvvv  vv",
"vvvvvvvvvvvv vvv",
"vvvvvvvvvvvvvvvv",
"v        vvvvvvv",
"vvvvvvvv vvvvvvv",
"vvvvvvvv vvvvvvv",
"vvvvvvvv vvvvvvv",
"vvvvvvvv vvvvvvv",
"vvvvvv     vvvvv",
"vvvvvvv   vvvvvv",
"vvvvvvvv vvvvvvv",
"vvvvvvvvvvvvvvvv"
};
