/* XPM */
static const char *vshape_taxi_xpm[] = {
/* columns rows colors chars-per-pixel */
"64 32 114 2",
"   c black",
".  c #030300",
"X  c #040400",
"o  c #070700",
"O  c #0E0E08",
"+  c #111100",
"@  c #131300",
"#  c #1C1C00",
"$  c #1E1E12",
"%  c #333300",
"&  c #363600",
"*  c #33331F",
"=  c #444400",
"-  c #454500",
";  c #545400",
":  c #555500",
">  c #5B5B00",
",  c #606000",
"<  c #616100",
"1  c #666600",
"2  c #6F6F00",
"3  c #717100",
"4  c #737300",
"5  c #767600",
"6  c #777700",
"7  c #7B7B00",
"8  c #7D7D00",
"9  c #7E7E00",
"0  c #585835",
"q  c #5D5D38",
"w  c #5E5E38",
"e  c #66663D",
"r  c #838300",
"t  c #878700",
"y  c #888800",
"u  c #8A8A00",
"i  c #8C8C00",
"p  c #8E8E00",
"a  c #909000",
"s  c #929200",
"d  c #999900",
"f  c #9F9F00",
"g  c #A0A000",
"h  c #A4A400",
"j  c #A6A600",
"k  c #ABAB00",
"l  c #AEAE00",
"z  c #AFAF00",
"x  c #B2B200",
"c  c #B3B300",
"v  c #BBBB00",
"b  c #BDBD00",
"n  c #BEBE00",
"m  c #BFBF00",
"M  c #C3C300",
"N  c #C5C500",
"B  c #C7C700",
"V  c #C8C800",
"C  c #C9C900",
"Z  c #CCCC00",
"A  c #CECE00",
"S  c #D0D000",
"D  c #D2D200",
"F  c #D4D400",
"G  c #D6D600",
"H  c #DDDD00",
"J  c #E0E000",
"K  c #E2E200",
"L  c #E5E500",
"P  c #E9E900",
"I  c #EBEB00",
"U  c #ECEC00",
"Y  c #EEEE00",
"T  c #F1F100",
"R  c #F5F500",
"E  c #F7F700",
"W  c #F8F800",
"Q  c #F9F900",
"!  c #FAFA00",
"~  c #FBFB00",
"^  c #FCFC00",
"/  c #FDFD00",
"(  c #FEFE00",
")  c yellow",
"_  c #FFFF01",
"`  c #FFFF02",
"'  c #FFFF08",
"]  c #FFFF0B",
"[  c #FFFF1F",
"{  c #FFFF2B",
"}  c #FFFF2E",
"|  c #FFFF31",
" . c #FFFF3D",
".. c #878751",
"X. c #8F8F56",
"o. c #97975B",
"O. c #9F9F5F",
"+. c #A7A764",
"@. c #BDBD71",
"#. c #FFFF43",
"$. c #FFFF52",
"%. c #CACA79",
"&. c #CFCF7C",
"*. c #FFFF61",
"=. c #FFFF76",
"-. c #D8D882",
";. c #EEEE8F",
":. c #FFFF80",
">. c #FFFF85",
",. c #FFFF91",
"<. c #FBFB97",
"1. c #FFFF97",
"2. c #FFFF99",
"3. c None",
/* pixels */
"3.3.3.3.3.3.3.3.3.3.3.3.3.3.3.3.3.3.3.3.3.3.3.3.3.3.3.3.3.3.3.3.3.3.3.3.3.3.3.3.3.3.3.3.3.3.3.3.3.3.3.3.3.3.3.3.3.3.3.3.3.3.3.3.",
"3.3.3.3.3.3.3.3.3.3.3.3.3.3.3.3.3.3.3.3.3.3.3.3.3.3.3.3.3.3.3.3.3.3.3.3.3.3.3.3.3.3.3.3.3.3.3.3.3.3.3.3.3.3.3.3.3.3.3.3.3.3.3.3.",
"3.3.3.3.3.3.3.3.3.3.3.3.3.3.3.3.3.3.3.3.3.3.3.3.3.3.3.3.3.3.3.3.3.3.3.3.3.3.3.3.3.3.3.3.3.3.3.3.3.3.3.3.3.3.3.3.3.3.3.3.3.3.3.3.",
"3.3.3.3.3.3.3.3.3.3.3.3.3.3.3.3.3.3.3.3.3.3.3.3.3.3.3.3.3.3.3.3.3.3.3.3.3.3.3.3.3.3.3.3.3.3.3.3.3.3.3.3.3.3.3.3.3.3.3.3.3.3.3.3.",
"3.3.3.) ) ) ) ) ) ) ) ) ) ) ) ) ) ) ) ) ) ) ) ) ) ) ) ) ) ) ) ) ) ) ) ) ) ) ) ) ) ) ) ) ) ) ) ) 3.3.3.3.3.3.3.3.3.3.3.3.3.3.3.3.",
"3.3.) ) ) ) ) ) ) ) ) ) ) ) / b < % % % % % % % % % % % % % % % % % % % % % % & 4 B ( ) ) ) ) ) ) ) ) ) ) ) ) ) 3.3.3.3.3.3.3.3.",
") ) ) ) ) ) ) ) ) ) Q T ) ) ) ) ) D 5 #                                 X - d P ) ) ) ) I ) ' ' ) ) ) ) ) ) ) ) ) ) ) ) 3.3.3.3.",
") ) ) ) ) ) ) ) ) ) J . % 6 v ~ ) ) ) / n y y y y y y y y y y y y y y g U ) ) ) R v 6 % % ) { 1.:.*.#.[ _ ) ) ) ) ) ) ) ) ) 3.3.",
") ) ) ) ) ) ) ) ) ) J         @ : d K ) ) ) ) ) ) ) ) ) ) ) ) ) ) ) ) ) ) H a = o       % ) { 2.2.2.2.2.,.=.$.} ] ) ) ) ) ) ) 3.",
") ) ) ) ) ) ) ) ) ) J                 S ) ) ) ) ) ) ) ) ) ) ) ) ) ) ) ) 9               % ) { 2.2.2.2.2.2.2.2.2.2.>.*.#.[ ` ) ) ",
") ) ) ! : f ) ) ) ) J                 Z ) ) ) ) ) ) ) ) H G G G L ) ) ) 7               % ) { 2.2.2.2.2.2.w X.2.2.2.2.2.2.,.| ) ",
") ) ) W + 3 Y ^ ) ) J                 Z ) ) ) ) ) ) ) ) m c c c A ) ) ) 7               % ) { 2.2.2.2.2.2.$ q ;.<.2.2.2.2.2. .) ",
") ) ) ) ) a   F ) ) J                 Z ) ) ) ) ) ) ) ) m k t t C ) ) ) 7               % ) { 2.2.2.2.2.2.2.+.  @.2.2.2.2.2. .) ",
") ) ) ^ d r 1 L ) ) J                 Z ) ) ) ) ) ) ) ) m h s u N ) ) ) 7               % ) { 2.2.2.2.2.2.O...e -.2.2.2.2.2. .) ",
") ) ) E   2 ) ) ) ) J                 Z ) ) ) ) ) ) ) ) m l > , Z ) ) ) 7               % ) { 2.2.2.2.2.2.O 0 2.2.2.2.2.2.2. .) ",
") ) ) / Z u % H ) ) J                 Z ) ) ) ) ) ) ) ) m k k 8 M ) ) ) 7               % ) { 2.2.2.2.2.2.&.o.* %.2.2.2.2.2. .) ",
") ) ) / Z u % H ) ) J                 Z ) ) ) ) ) ) ) ) m j ; 6 A ) ) ) 7               % ) { 2.2.2.2.2.2.&.o.* %.2.2.2.2.2. .) ",
") ) ) E   2 ) ) ) ) J                 Z ) ) ) ) ) ) ) ) m f z i B ) ) ) 7               % ) { 2.2.2.2.2.2.O 0 2.2.2.2.2.2.2. .) ",
") ) ) ^ d r 1 L ) ) J                 Z ) ) ) ) ) ) ) ) m p 6 8 V ) ) ) 7               % ) { 2.2.2.2.2.2.O...e -.2.2.2.2.2. .) ",
") ) ) ) ) a   F ) ) J                 Z ) ) ) ) ) ) ) ) m k x c A ) ) ) 7               % ) { 2.2.2.2.2.2.2.+.  @.2.2.2.2.2. .) ",
") ) ) W + 3 Y ^ ) ) J                 Z ) ) ) ) ) ) ) ) m c c c A ) ) ) 7               % ) { 2.2.2.2.2.2.$ q ;.<.2.2.2.2.2. .) ",
") ) ) ! : f ) ) ) ) J                 Z ) ) ) ) ) ) ) ) H G G G L ) ) ) 7               % ) { 2.2.2.2.2.2.w X.2.2.2.2.2.2.,.| ) ",
") ) ) ) ) ) ) ) ) ) J                 S ) ) ) ) ) ) ) ) ) ) ) ) ) ) ) ) 9               % ) { 2.2.2.2.2.2.2.2.2.2.>.*.#.[ _ ) ) ",
") ) ) ) ) ) ) ) ) ) J         @ : d K ) ) ) ) ) ) ) ) ) ) ) ) ) ) ) ) ) ) H a = o       % ) { 2.2.2.2.2.,.=.$.} ] ) ) ) ) ) ) 3.",
") ) ) ) ) ) ) ) ) ) J . % 6 v ~ ) ) ) / n y y y y y y y y y y y y y y g U ) ) ) R v 6 % % ) { 1.:.*.#.[ _ ) ) ) ) ) ) ) ) ) 3.3.",
") ) ) ) ) ) ) ) ) ) Q T ) ) ) ) ) D 5 #                                 X - d P ) ) ) ) I ) ' ' ) ) ) ) ) ) ) ) ) ) ) ) 3.3.3.3.",
"3.3.) ) ) ) ) ) ) ) ) ) ) ) / b < % % % % % % % % % % % % % % % % % % % % % % & 4 B ( ) ) ) ) ) ) ) ) ) ) ) ) ) 3.3.3.3.3.3.3.3.",
"3.3.3.) ) ) ) ) ) ) ) ) ) ) ) ) ) ) ) ) ) ) ) ) ) ) ) ) ) ) ) ) ) ) ) ) ) ) ) ) ) ) ) ) ) ) ) ) 3.3.3.3.3.3.3.3.3.3.3.3.3.3.3.3.",
"3.3.3.3.3.3.3.3.3.3.3.3.3.3.3.3.3.3.3.3.3.3.3.3.3.3.3.3.3.3.3.3.3.3.3.3.3.3.3.3.3.3.3.3.3.3.3.3.3.3.3.3.3.3.3.3.3.3.3.3.3.3.3.3.",
"3.3.3.3.3.3.3.3.3.3.3.3.3.3.3.3.3.3.3.3.3.3.3.3.3.3.3.3.3.3.3.3.3.3.3.3.3.3.3.3.3.3.3.3.3.3.3.3.3.3.3.3.3.3.3.3.3.3.3.3.3.3.3.3.",
"3.3.3.3.3.3.3.3.3.3.3.3.3.3.3.3.3.3.3.3.3.3.3.3.3.3.3.3.3.3.3.3.3.3.3.3.3.3.3.3.3.3.3.3.3.3.3.3.3.3.3.3.3.3.3.3.3.3.3.3.3.3.3.3.",
"3.3.3.3.3.3.3.3.3.3.3.3.3.3.3.3.3.3.3.3.3.3.3.3.3.3.3.3.3.3.3.3.3.3.3.3.3.3.3.3.3.3.3.3.3.3.3.3.3.3.3.3.3.3.3.3.3.3.3.3.3.3.3.3."
};
