/* XPM */
static  const char *app3d[] = {
/* columns rows colors chars-per-pixel */
"50 50 59 1 ",
"  c #008080",
". c #078383",
"X c #098484",
"o c #0E8787",
"O c #108888",
"+ c #198C8C",
"@ c #1A8D8D",
"# c #1E8F8F",
"$ c #229191",
"% c #269393",
"& c #299494",
"* c #2E9797",
"= c #319898",
"- c #379B9B",
"; c #389C9C",
": c #47A3A3",
"> c #4FA7A7",
", c #54AAAA",
"< c #59ACAC",
"1 c #5DAEAE",
"2 c #62B1B1",
"3 c #64B2B2",
"4 c #67B3B3",
"5 c #69B4B4",
"6 c #6DB6B6",
"7 c #72B9B9",
"8 c #73B9B9",
"9 c #7EBFBF",
"0 c #82C1C1",
"q c #84C2C2",
"w c #88C4C4",
"e c #90C8C8",
"r c #97CBCB",
"t c #99CCCC",
"y c #9ECFCF",
"u c #A7D3D3",
"i c #A9D4D4",
"p c #ABD5D5",
"a c #ADD6D6",
"s c #B2D9D9",
"d c #B4DADA",
"f c #B9DCDC",
"g c #BDDEDE",
"h c #C1E0E0",
"j c #C3E1E1",
"k c #C8E4E4",
"l c #CCE6E6",
"z c #D5EAEA",
"x c #D9ECEC",
"c c #DBEDED",
"v c #DDEEEE",
"b c #E5F2F2",
"n c #EAF5F5",
"m c #ECF6F6",
"M c #F2F9F9",
"N c #F6FBFB",
"B c #F8FCFC",
"V c #FCFEFE",
"C c white",
/* pixels */
"CCCCCCCCCCCCCCCCCCCCCCCCCCCCCCCCCCCCCCCCCCCCCCCCCC",
"CCCCCCCCCCCCCCCCCCCCCCCCCCCCCCCCCCCCCCCCCCCCCCCCCC",
"CCCCCCCCCCCCCCCCCCCCCCCCCCCCCCCCCCCCCCCCCCCCCCCCCC",
"CCCCCCCCCCCCCCCCCCCCCCCCCCCCCCCCCCCCCCCCCCCCCCCCCC",
"CCCCCCCCCCCCCCCCCCCCCCCCCCCCCCCCCCCCCCCCCCCCCCCCCC",
"CCCCCCCCCCCCCCCCCCCCCCCCCCCCCCCCCCCCCCCCCCCCCCCCCC",
"CCCCCCCCCCCCCCCCCCCCCCCCCCCCCCCCCCCCCCCCCCCCCCCCCC",
"CCCCCCCCCCCCCCCCCCCCCCCCCCCCCCCCCCCCCCCCCCCCCCCCCC",
"CCCCCCCCCCCCCCCCCCCCCCCCCCCCCCCCCCCCCCCCCCCCCCCCCC",
"CCCCCCCCCCCCCCCCCCCCCCCCCCCCCCCCCCCCCCCCCCCCCCCCCC",
"CCCCCCCCCCCCCCCCCCCCCCCCCCCCCCCCCCCCCCCCCCCCCCCCCC",
"CCCCCCCCCCCCCCCCCCCCCCCCCCCCCCCCCCCCCCCCCCCCCCCCCC",
"CCCCCCCCCCCCCCCCCCCCCCCCCCCCCCCCCCCCCCCCCCCCCCCCCC",
"CCCCCCCCCCCCCCCCCCCCCCCCCCCCCCCCCCCCCCCCCCCCCCCCCC",
"CCCCCCCCCCCCCCCCCCCCCCCCCCCCCCCCCCCCCCCCCCCCCCCCCC",
"CCCCCCCCCCCCCCCCCCvlbCCCCCCCCCCCCCCCCCCCCCCCCCCCCC",
"CCCCCCCCCCCCCCCCrO   =lCCC5   .%0NCCCCCCCCCCCCCCCC",
"CCCCCCCCCCCCCCCCy9dky@#MCC5Xttr< 8CCCCCCCCCCCCCCCC",
"CCCCCCCCCCCCCCCCCCCCCi gCC4oCCCC:#CCCCCCCCCCCCCCCC",
"CCCCCCCCCCCCCCCCCCCCCh dCC4oCCCC4oCCCCCCCCCCCCCCCC",
"CCCCCCCCCCCCCCCCCCCCn:#NCC5OCCCx@>CCCCCCCCCCCCCCCC",
"CCCCCCCCCCCCCCCCCC&O ;vCCC5 $$@ >mCCCCCCCCCCCCCCCC",
"CCCCCCCCCCCCCCCCCCr9, 2CCC5.w09>.wCCCCCCCCCCCCCCCC",
"CCCCCCCCCCCCCCCCCCCCCu iCC5oCCCCq zCCCCCCCCCCCCCCC",
"CCCCCCCCCCCCCCCCCCCCCCX6CC5oCCCCl tCCCCCCCCCCCCCCC",
"CCCCCCCCCCCCCCCCCCCCCN 8CC5oCCCCf yCCCCCCCCCCCCCCC",
"CCCCCCCCCCCCCCCCaNCCN2 fCC5oCCCx- xCCCCCCCCCCCCCCC",
"CCCCCCCCCCCCCCCC%X*-o 5CCC5 OOX orCCCCCCCCCCCCCCCC",
"CCCCCCCCCCCCCCCCzw4<9hCCCCfwwwesmCCCCCCCCCCCCCCCCC",
"CCCCCCCCCCCCCCCCCCCCCCCCCCCCCCCCCCCCCCCCCCCCCCCCCC",
"CCCCCCCCCCCCCCCCCCCCCCCCCCCCCCCCCCCCCCCCCCCCCCCCCC",
"CCCCCCCCCCCCCCCCCCCCCCCCCCCCCCCCCCCCCCCCCCCCCCCCCC",
"CCCCCCCCCCCCCCCCCCCCCCCCCCCCCCCCCCCCCCCCCCCCCCCCCC",
"CCCCCCCCCCCCCCCCCCCCCCCCCCCCCCCCCCCCCCCCCCCCCCCCCC",
"CCCCCCCCCCCCCCCCCCCCCCCCCCCCCCCCCCCCCCCCCCCCCCCCCC",
"CCCCCCCCCCCCCCCCCCCCCCCCCCCCCCCCCCCCCCCCCCCCCCCCCC",
"CCCCCCCCCCCCCCCCCCCCCCCCCCCCCCCCCCCCCCCCCCCCCCCCCC",
"CCCCCCCCCCCCCCCCCCCCCCCCCCCCCCCCCCCCCCCCCCCCCCCCCC",
"CCCCCCCCCCCCCCCCCCCCCCCCCCCCCCCCCCCCCCCCCCCCCCCCCC",
"CCCCCCCCCCCCCCCCCCCCCCCCCCCCCCCCCCCCCCCCCCCCCCCCCC",
"CCCCCCCCCCCCCCCCCCCCCCCCCCCCCCCCCCCCCCCCCCCCCCCCCC",
"CCCCCCCCCCCCCCCCCCCCCCCCCCCCCCCCCCCCCCCCCCCCCCCCCC",
"CCCCCCCCCCCCCCCCCCCCCCCCCCCCCCCCCCCCCCCCCCCCCCCCCC",
"CCCCCCCCCCCCCCCCCCCCCCCCCCCCCCCCCCCCCCCCCCCCCCCCCC",
"CCCCCCCCCCCCCCCCCCCCCCCCCCCCCCCCCCCCCCCCCCCCCCCCCC",
"CCCCCCCCCCCCCCCCCCCCCCCCCCCCCCCCCCCCCCCCCCCCCCCCCC",
"CCCCCCCCCCCCCCCCCCCCCCCCCCCCCCCCCCCCCCCCCCCCCCCCCC",
"CCCCCCCCCCCCCCCCCCCCCCCCCCCCCCCCCCCCCCCCCCCCCCCCCC",
"CCCCCCCCCCCCCCCCCCCCCCCCCCCCCCCCCCCCCCCCCCCCCCCCCC",
"CCCCCCCCCCCCCCCCCCCCCCCCCCCCCCCCCCCCCCCCCCCCCCCCCC"
};
