/* XPM */
static const char *app_finder_xpm[] = {
/* columns rows colors chars-per-pixel */
"16 16 56 2",
"1.	c Gray100",
"2.	c Black",
"3.	c #c00000",
". 	c #338033",
"+ 	c #F2F7F2",
"@ 	c #FFFFFF",
"# 	c #89B78A",
"$ 	c #438D46",
"% 	c #47904A",
"& 	c #D1E3D1",
"* 	c #F0F6F0",
"= 	c #A8CBA9",
"- 	c #6FA972",
"; 	c #95BF97",
"> 	c #CADFCB",
", 	c #A6C9A7",
"' 	c #6CA66E",
") 	c #5A9B5D",
"! 	c #D8E8D8",
"~ 	c #F8FDF8",
"{ 	c #FEFEFE",
"] 	c #CBE0CC",
"^ 	c #80B282",
"/ 	c #9EC7A0",
"( 	c #9BC59D",
"_ 	c #8FBE92",
": 	c #64A266",
"< 	c #3F8B42",
"[ 	c #64A166",
"} 	c #8CB98E",
"| 	c #DFECDF",
"1 	c #FBFEFB",
"2 	c #F8FBF8",
"3 	c #A7CAA8",
"4 	c #408C43",
"5 	c #2C7F2F",
"e 	c #FCFEFC",
"f 	c #DAE9DA",
"g 	c #DEEBDF",
"p 	c #CFE2D0",
"q 	c #4B924E",
"A 	c #A8CBAA",
"B 	c #338436",
"C 	c #70A972",
"L 	c #328032",
"M 	c #7EB180",
"N 	c #86B688",
"V 	c #318032",
"W 	c #5D9D5F",
"X 	c #77AD79",
"Y 	c #A5C9A7",
"+.	c #FDFEFD",
"@.	c #BED8BF",
"#.	c #39873C",
"$.	c #328335",
"-.	c #91BC93",
/* pixels */
". . . . . . . . . . . . . . . . ",
". + @ @ @ @ @ @ @ @ @ @ @ @ + . ",
". @ @ @ @ @ @ @ @ @ @ @ @ @ @ . ",
". @ @ @ @ @ @ @ @ + # $ % & @ . ",
". @ @ @ * = - ; > , ' ) ! ~ @ . ",
". @ { ] ^ / ( _ : < [ } | 1 @ . ",
". @ 2 3 4 2.2.2.2.2.2.2.2.2.2.2.",
". @ e f g 2.1.1.1.3.3.3.1.1.1.2.",
". @ @ p q 2.1.1.3.1.1.1.3.1.1.2.",
". @ A B C 2.1.1.1.1.1.1.3.1.1.2.",
"L M 5 N 3 2.1.1.1.1.1.3.1.1.1.2.",
"V W X Y 5 2.1.1.1.1.3.1.1.1.1.2.",
". +.@.#.$.2.1.1.1.1.3.1.1.1.1.2.",
". @ @ 3 -.2.1.1.1.1.1.1.1.1.1.2.",
". + @ @ @ 2.1.1.1.1.3.1.1.1.1.2.",
". . . . . 2.2.2.2.2.2.2.2.2.2.2."
};
