/* XPM */
static const char *arrowupticked_xpm[] = {
/* columns rows colors chars-per-pixel */
"22 22 4 1",
"  c None",
". c black",
"o c #8a95a5",
"x c #A0A0A0",
/* pixels */
"xxxxxxxxxxxxxxxxxxxxxx",
"x                    x",
"x                    x",
"x                    x",
"x                    x",
"x                    x",
"x         ..         x",
"x        .oo.        x",
"x       .oooo.       x",
"x      .oooooo.      x",
"x     .oooooooo.     x",
"x    .oooooooooo.    x",
"x    ....oooo....    x",
"x       .oooo.       x",
"x       .oooo.       x",
"x       .oooo.       x",
"x       ......       x",
"x                    x",
"x                    x",
"x                    x",
"x                    x",
"xxxxxxxxxxxxxxxxxxxxxx",
"                      "
};
