/* XPM */
static const char *checkbox_chain_xpm[] = {
/* columns rows colors chars-per-pixel */
"16 16 8 1",
"  c black",
". c #640000",
"X c #650000",
"o c #660000",
"O c #CB0000",
"+ c #CC0000",
"@ c #CD0000",
"# c None",
/* pixels */
"################",
"################",
"################",
"################",
"################",
"#@+++######+++@#",
"O+++++####++++++",
"++++++X  o++++++",
"++++++.  X++++++",
"O+++++####++++++",
"#++++######++++#",
"################",
"################",
"################",
"################",
"################"
};
