/* XPM */
static const char *cofstep_xpm[] = {
/* columns rows colors chars-per-pixel */
"16 16 2 1 ",
"  c #00667A",
". c None",
/* pixels */
"................",
"................",
"................",
"   .............",
"   .............",
"   ........  ...",
"   ........   ..",
"   ........    .",
"                ",
"                ",
"...........    .",
"...........   ..",
"...........  ...",
"................",
"................",
"................"
};