/* XPM */
static const char *cut_xpm[] = {
/* columns rows colors chars-per-pixel */
"16 16 9 1",
"  c #396BBD",
". c #7F8C9D",
"X c #6A92D2",
"o c #ABB2BF",
"O c #B4BBC5",
"+ c #B4BBC7",
"@ c #C2C8D1",
"# c #DEE1E6",
"$ c None",
/* pixels */
"$$$$$$$$$$OO$$$$",
"$$$$$$$$$O..$$$$",
"$$$$$$$$O..$$$$$",
"$$$$$$$$...$$$$$",
"$$$$$$$$..$$$$o@",
"$$$$$$$...$$ooo@",
"$  X$$$..$$+oo@$",
" $$$X$$..+ooo@$$",
" $$$Xo..+oo$$$$$",
" $$$X+.#$$$$$$$$",
"$  X$$.#$$$$$$$$",
"$$$$$XXX$$$$$$$$",
"$$$$X$$$X$$$$$$$",
"$$$$ $$$ $$$$$$$",
"$$$$ $$$ $$$$$$$",
"$$$$$   $$$$$$$$"
};
