/* XPM */
static const char *e1_xpm[] = {
/* columns rows colors chars-per-pixel */
"16 16 7 2",
".  c #101010",
"X  c #202020",
"o  c gray19",
"O  c gray25",
"+  c gray44",
"@  c gray50",
"UX c None",
/* pixels */
"UXUXUXUXUXUXUXUXUXUXUXUXUXUXUXUX",
"UXUXUXUXUXUXUXUXUXUXUXUXUXUXUXUX",
"UXUXUXUXUXUXUXUXUXUXUXUXUXUXUXUX",
"UX@ O O O O O UXUXUXUX+ + UXUXUX",
"UXO o UXUXUXUXUXUXUXX . O UXUXUX",
"UXO O UXUXUXUXUXUX. UX@ O UXUXUX",
"UXO O UXUXUXUXUXUXUXUX@ O UXUXUX",
"UXO X @ @ @ UXUXUXUXUX@ O UXUXUX",
"UXO X @ @ @ UXUXUXUXUX@ O UXUXUX",
"UXO O UXUXUXUXUXUXUXUX@ O UXUXUX",
"UXO O UXUXUXUXUXUXUXUX@ O UXUXUX",
"UXO O UXUXUXUXUXUXUXUX@ O UXUXUX",
"UXO . O O O O UXUXO O X . O + UX",
"UXUXUXUXUXUXUXUXUXUXUXUXUXUXUXUX",
"UXUXUXUXUXUXUXUXUXUXUXUXUXUXUXUX",
"UXUXUXUXUXUXUXUXUXUXUXUXUXUXUXUX"
};
