/* XPM */
static const char *e2_xpm[] = {
/* columns rows colors chars-per-pixel */
"16 16 9 2",
"   c black",
".  c #101010",
"X  c #202020",
"o  c gray19",
"O  c gray25",
"+  c #505050",
"@  c #606060",
"#  c gray50",
"UX c None",
/* pixels */
"UXUXUXUXUXUXUXUXUXUXUXUXUXUXUXUX",
"UXUXUXUXUXUXUXUXUXUXUXUXUXUXUXUX",
"UXUXUXUXUXUXUXUXUXUXUXUXUXUXUXUX",
"UX# O O O O O UXUX# X   X UXUXUX",
"UXO o UXUXUXUXUXUXO UXUX+ . UXUX",
"UXO O UXUXUXUXUXUXUXUXUXUX  UXUX",
"UXO O UXUXUXUXUXUXUXUXUXUX  UXUX",
"UXO X # # # UXUXUXUXUXUX# X UXUX",
"UXO X # # # UXUXUXUXUXUX. UXUXUX",
"UXO O UXUXUXUXUXUXUXUX. # UXUXUX",
"UXO O UXUXUXUXUXUXUXo @ UXUXUXUX",
"UXO O UXUXUXUXUXUXo @ UXUXUXUXUX",
"UXO . O O O O UX#           O UX",
"UXUXUXUXUXUXUXUXUXUXUXUXUXUXUXUX",
"UXUXUXUXUXUXUXUXUXUXUXUXUXUXUXUX",
"UXUXUXUXUXUXUXUXUXUXUXUXUXUXUXUX"
};
