/* XPM */
static const char * eyedrop_xpm[] = {
/* columns rows colors chars-per-pixel */
"40 24 12 1",
" 	c None",
"#	c #040205",
"$	c #F8FD0A",
"%	c #FCA71C",
"&	c #F90306",
"'	c #8A0204",
"(	c #0C4804",
")	c white",
"*	c #FBFEFB",
"+	c #B3AA9D",
",	c #D5DAF1",
"-	c #848284",
/* pixels */
"                                        ",
"                      ##                ",
"                     #$%#               ",
"                    #$%&&#              ",
"                   #$%&&'#              ",
"                  #$%&&'(#              ",
"                ##$%&&'(#               ",
"               #$'%&&'(#                ",
"               )#$'&'(#                 ",
"               #*+$''#                  ",
"              #*,+-$(#                  ",
"             #*,+-# #  '''''''          ",
"            #*,+-#      '''''''         ",
"           #*,+-#        '''''''        ",
"          #*,+-#          ''''''        ",
"         #*,+-#              '''        ",
"        #*,+-#               '''        ",
"       #*,+-#                '''        ",
"      #*,+-#              '''''''''     ",
"     #*,+-#                '''''''      ",
"     #,+-#                  '''''       ",
"    #-+##                    '''        ",
"    #-#                       '         ",
"                                        "
};
