/* XPM */
static const char * green_person_xpm[] = {
/* columns rows colors chars-per-pixel */
"16 16 4 1",
" 	c None",
".	c Black",
"X	c Green",
"o	c #851d1d",
/* colors */
"                ",
"     ..         ",
"   ..XX..       ",
"  .XXXXXX.      ",
"   .XX.X.       ",
"   .XXX.        ",
"    .X..   ..   ",
"   .XXXX...o.   ",
"   .XXXXXXX.    ",
"   .XXX..   .   ",
"   .XXXXX...X.  ",
"  .XX...XXXX.   ",
"  .XX.  .XX.    ",
"  .XXX.  ..     ",
"   ...          ",
"                "
};
