/* XPM */
static const char *hall_of_fame_xpm[] = {
/* columns rows colors chars-per-pixel */
"85 28 17 1 ",
"  c #FFCB00",
". c #FFCC00",
"X c #FFCD00",
"o c #DDCD86",
"O c #DDCC87",
"+ c #DDCD87",
"@ c #DECD86",
"# c #DECC87",
"$ c #DFCC87",
"% c #DECD87",
"& c #DFCD87",
"* c #DECE86",
"= c #DECE87",
"- c #DDCD88",
"; c #DECC88",
": c #DFCD88",
"> c None",
/* pixels */
">>>>>>>>>>>>>>>>>>>>>>>>>>>>>>>>>>.................>>>>>>>>>>>>>>>>>>>>>>>>>>>>>>>>>>",
">>>>>>>>>>>>>>>>>>>>>>>>>>>>>>>>>>.................>>>>>>>>>>>>>>>>>>>>>>>>>>>>>>>>>>",
">>>>>>>>>>>>>>>>>>>>>>>>>>>>>>>>>>.................>>>>>>>>>>>>>>>>>>>>>>>>>>>>>>>>>>",
">>>>>>>>>>>>>>>>>>>>>>>>>>>>>>>>>...................>>>>>>>>>>>>>>>>>>>>>>>>>>>>>>>>>",
">>>>>>>>>;=>>>>>>>>>>>>>>>>...............................>>>>>>>>>>>>>>>>#$>>>>>>>>>",
">>>>>>>>>#==>>>>>>>>>>>>>>>...............................>>>>>>>>>>>>>>>==#>>>>>>>>>",
">>>>>>>>;==#>>>>>>>>>>>>>>>...............................>>>>>>>>>>>>>>>=#=$>>>>>>>>",
">>>>>>>>=====>>>>>>>>>>>>>>...>>>>.................>>>>...>>>>>>>>>>>>>>===#=>>>>>>>>",
">>>>>>>#=#=#=>>>>>>>>>>>>>>... >>>.................>>>....>>>>>>>>>>>>>>#=#==#>>>>>>>",
">>>>>>>=#=#=##>>>>>>>>>>>>>....>>>.................>>>....>>>>>>>>>>>>>#=#=#==>>>>>>>",
">>=#===#=#=#=#==#==>>>>>>>>>....>>.................>>....>>>>>>>>>#=;=#=#=#=#==###=>>",
"==#=#=#=#=#=#=#==#=#=>>>>>>>..... ................. .....>>>>>>>##=====#=#=#=##======",
"==#==#=#=#=#=#=##=#=;>>>>>>>>...........................>>>>>>>>;==##=#=#=#==#=##==#=",
">==##=#=#=#=#=#==#=#>>>>>>>>>>.........................>>>>>>>>>>====#=#=#=##=#==#==>",
">>#==#=#=#=#=#=#===>>>>>>>>>>>>>.....................>>>>>>>>>>>>>#=#=#=#=#==#=##=#>>",
">>>##=#=#=#=#=#===>>>>>>>>>>>>>>>>>...............>>>>>>>>>>>>>>>>>#=#=#=#=##=#==#>>>",
">>>>=#=##=#=#=#=#>>>>>>>>>>>>>>>>>>>>...........>>>>>>>>>>>>>>>>>>>>===#=#=#=#=#=>>>>",
">>>>==#==#=#=#=#>>>>>>>>>>>>>>>>>>>>>>.........>>>>>>>>>>>>>>>>>>>>>>=#=#=#=#=#=;>>>>",
">>>>=#=##=#=#=#=;>>>>>>>>>>>>>>>>>>>>>.........>>>>>>>>>>>>>>>>>>>>>=#=#=#=#=#=#=>>>>",
">>>>#=#==#===#=#=>>>>>>>>>>>>>>>>>>>>>>>.....>>>>>>>>>>>>>>>>>>>>>>>==#=#=#=#=#==>>>>",
">>>>=#=#=#===#=#=>>>>>>>>>>>>>>>>>>>>>>>.....>>>>>>>>>>>>>>>>>>>>>>>=#=#=#===#=#=>>>>",
">>>>#=#===>;#=#==>>>>>>>>>>>>>>>>>>>>>>>.....>>>>>>>>>>>>>>>>>>>>>>>#=#=#=>=#=#==>>>>",
">>>>===#>>>>>====>>>>>>>>>>>>>>>>>>>>>>>.....>>>>>>>>>>>>>>>>>>>>>>>=#==>>>>>====>>>>",
">>>>=$>>>>>>>>>==>>>>>>>>>>>>>>>>>>>>>>>.....>>>>>>>>>>>>>>>>>>>>>>>#=>>>>>>>>>#=>>>>",
">>>>>>>>>>>>>>>>>>>>>>>>>>>>>>>>>>>...............>>>>>>>>>>>>>>>>>>>>>>>>>>>>>>>>>>>",
">>>>>>>>>>>>>>>>>>>>>>>>>>>>>>>>>>.................>>>>>>>>>>>>>>>>>>>>>>>>>>>>>>>>>>",
">>>>>>>>>>>>>>>>>>>>>>>>>>>>>>>>>>.................>>>>>>>>>>>>>>>>>>>>>>>>>>>>>>>>>>",
">>>>>>>>>>>>>>>>>>>>>>>>>>>>>>>>>>.................>>>>>>>>>>>>>>>>>>>>>>>>>>>>>>>>>>"
};
