/* XPM */
static const char *lanepedestrian[] = {
/* columns rows colors chars-per-pixel */
"16 16 21 1",
"  c #000000",
"o c #060606",
"@ c #0B0B0B",
"# c #0C0C0C",
"$ c #111111",
"% c #161616",
"* c #262626",
"- c #2B2B2B",
"> c #333333",
", c #343434",
"2 c #393939",
"3 c #414141",
"5 c #474747",
"7 c #4D4D4D",
"q c #555555",
"w c #585858",
"e c #5F5F5F",
"y c #636363",
"i c #686868",
"p c #6C6C6C",
"s c None",
/* pixels */
"sssssss  sssssss",
"sssssss  sssssss",
"ssssssssssssssss",
"ssssssp@wsssssss",
"sssssw   sssssss",
"ssss7%   3ssssss",
"ssss$i  7@ysssss",
"ssss%s  ss%5ssss",
"ssssqs  ssssssss",
"ssssss  ,sssssss",
"sssss#*3 qssssss",
"sssss 7s> ssssss",
"ssss5 sss esssss",
"ssss 2ssso5sssss",
"sss2ossss--sssss",
"sss>yssssy2sssss"
};
