/* XPM */
static const char * locate_person_xpm[] = {
/* columns rows colors chars-per-pixel */
"16 16 3 1",
" 	c None",
".	c Black",
"X	c Red",
/* pixels */
"           ...  ",
"     ..   .   . ",
"   ..XX..     . ",
"  .XXXXXX.   .  ",
"   .XX.X.   .   ",
"   .XXX.        ",
"    .X..    .   ",
"   .XXXX...     ",
"   .XXXXXXX.    ",
"   .XXX..   .   ",
"   .XXXXX...X.  ",
"  .XX...XXXX.   ",
"  .XX.  .XX.    ",
"  .XXX.  ..     ",
"   ...          ",
"                "
};
