/* XPM */
static const char *locate_add_xpm[] = {
/* columns rows colors chars-per-pixel */
"16 16 4 1",
" 	c None",
".	c Black",
"X	c Gray50",
"o	c Red",
/* pixels */
" ...       ...  ",
".XXX.     .   . ",
".XXX.         . ",
".XXX..       .  ",
" ...XX.  .  .   ",
"   .XXX..o.     ",
"    .XX.ooo..   ",
"     ..ooo.     ",
"     .ooo..     ",
"    .ooo.XX.    ",
"     .o..XXX.   ",
"      .  .XX... ",
"          ..XXX.",
"           .XXX.",
"           .XXX.",
"            ... "
};
