/* XPM */
static const char *modetrafficlight_xpm[] = {
/* columns rows colors chars-per-pixel */
"16 16 9 1",
"  c black",
". c red",
"X c #FF5101",
"o c #4CFF00",
"O c #FFD800",
"+ c #FEF168",
"@ c #FAFF7C",
"# c #B6B6B6",
"$ c None",
/* pixels */
"$$$$#      #$$$$",
"$$$$#  X.  #$$$$",
"$$$$# XX.. #$$$$",
"$$$$# .... #$$$$",
"$$$$#  ..  #$$$$",
"$$$$#      #$$$$",
"$$$$#  +O  #$$$$",
"$$$$# ++OO #$$$$",
"$$$$# OOOO #$$$$",
"$$$$#  OO  #$$$$",
"$$$$#      #$$$$",
"$$$$#  @o  #$$$$",
"$$$$# @@oo #$$$$",
"$$$$# oooo #$$$$",
"$$$$#  oo  #$$$$",
"$$$$#      #$$$$"
};
