/* XPM */
static const char *modecontainerplan_xpm[] = {
/* columns rows colors chars-per-pixel */
"16 16 5 1",
" 	c None",
".	c Black",
"+	c #c2c2c2",
"X  c red",
"o  c #0026FF",
/* pixels */
"  o             ",
"  o             ",
"  o             ",
"ooooo   . . .   ",
" ooo            ",
"  o     .   .   ",
"                ",
"  X . . .   .   ",
"                ",
"............... ",
".+++++++++++++. ",
".+.+.+.+.+.+.+. ",
".+.+.+.+.+.+.+. ",
".+.+.+.+.+.+.+. ",
".+++++++++++++. ",
"............... "
};
