/* XPM */
static const char *modeadditional_xpm[] = {
/* columns rows colors chars-per-pixel */
"16 16 10 1",
"  c #45992D",
". c #4CAA32",
"X c #65B02A",
"o c #6AB129",
"O c #C6C90F",
"+ c #C9CA0E",
"@ c #F6D502",
"# c #F9D601",
"$ c #FFD800",
"% c None",
/* pixels */
"%%%%%.    .%%%%%",
"%%%%  ....  %%%%",
"%%% .XO##OX. %%%",
"%%. X@$$$$@X .%%",
"%% .O$ $$ $O. %%",
"%% .#$ $$ $#. %%",
"%% .#$    $#. %%",
"%% .+$ $$ $+. %%",
"%%. o@ $$ @o .%%",
"%%% .o+##+o. %%%",
"    ........    ",
" .............. ",
" .............. ",
" .............. ",
" .............. ",
"                "
};
