/* XPM */
static const char *modecreateedge_xpm[] = {
/* columns rows colors chars-per-pixel */
"16 16 6 1",
"  c black",
". c #CC0000",
"X c #830808",
"@ c #00FF00",
"# c #27d827",
"* c None",
/* pixels */
"**XXXX**********",
"*X....X*********",
"X......X********",
"X......X********",
"X......X********",
"X......X********",
"*X....   *******",
"**XXX     ******",
"******     ###**",
"*******   @@@@#*",
"********#@@@@@@#",
"********#@@@@@@#",
"********#@@@@@@#",
"********#@@@@@@#",
"*********#@@@@#*",
"**********####**"
};
