/* XPM */
static const char *netgenerate_randomgrid_xpm[] = {
/* columns rows colors chars-per-pixel */
"128 128 3 1",
"  c white",
". c black",
"X c red",
/* pixels */
"         .....                                            ....                                                    ....          ",
"          .....                                           ....                                                    ....          ",
"           .....                                          ....                                                    ....          ",
"            .....                                         ....                                                    ....          ",
"             .....                                        ....                                                    ....          ",
"              .....                                       ....                                                    ....          ",
"               .....                                      ....                                                    ....          ",
"                .....                                     ....                                                    ....          ",
"                 .....                                    ....                                                    ....          ",
"                  .....                                   ....                                                    ....          ",
"                   .....                                  ....                                                    ....          ",
"                    .....                                 ....                                                    ....          ",
"                     .....                                ....                                                    ....          ",
"                      .....                               ....                                                    ....          ",
"                       .....                              ....                                                    ....          ",
"                        ......                            ....                                                    ....          ",
"                         .....XXXX                        XXXX                                                    XXXX          ",
"                          ...XXXXXX                      XXXXXX                                                  XXXXXX         ",
"............................XXXXXXXX....................XXXXXXXX................................................XXXXXXXX        ",
"............................XXXXXXXX....................XXXXXXXX................................................XXXXXXXX        ",
"............................XXXXXXXX....................XXXXXXXX................................................XXXXXXXX        ",
"............................XXXXXXXX....................XXXXXXXX................................................XXXXXXXX.       ",
"                             XXXXXX                      XXXXXX                                                  XXXXXX..       ",
"                              XXXX                        XXXX                                                    XXXX....      ",
"                              ....                        ....                                                    .........     ",
"                              ....                        ....                                                    .... .....    ",
"                              ....                        ....                                                    ....  .....   ",
"                              ....                        ....                                                    ....   .....  ",
"                              ....                        ....                                                    ....    ..... ",
"                              ....                        ....                                                    ....     .....",
"                              ....                        ....                                                    ....      ....",
"                              ....                        ....                                                    ....       ...",
"                              ....                        ....                                                    ....        ..",
"                              ....                        ....                                                    ....         .",
"                              ....                        ....                                                    ....          ",
"                              ....                        ....                                                    ....          ",
"                              ....                        ....                                                    ....          ",
"                              ....                        ....                                                    ....          ",
"                              ....                        ....                                                    ....          ",
"                              ....                        ....                                                    ....          ",
"                              ....                        ....                                                    ....          ",
"                              ....                        ....                                                    ....          ",
"                              ....                        ....                                                    ....          ",
"                              ....                        ....                                                    ....          ",
"                              ....                        ....                                                    ....          ",
"                              ....                        ....                                                    ....          ",
"                              ....                        ....                                                    ....          ",
"                              ....                        ....                                                    ....          ",
"                              ....                        ....                                                    ....          ",
"                              ....                        ....                                                    ....          ",
"                              ....                        ....                                                    ....          ",
"                              ....                        ....                                                    ....          ",
"                              ....                        ....                                                    ....          ",
"                              ....                        ....                                                    ....          ",
"                              ....                        ....                                                    ....          ",
"                              ....                        ....                                                    ....          ",
"                              ....                        ....                        XXXX                        ....          ",
"                              ....                        ....                       XXXXXX                       ....          ",
"                              ....                        ....                      XXXXXXXX                      ....          ",
"                              ....                        ....                      XXXXXXXX                      ....          ",
"                              ....                        ....                      XXXXXXXX                      ....          ",
"                              ....                        ....                      XXXXXXXX                      ....          ",
"                              ....                        ....                       XXXXXX                       ....          ",
"                              ....                        ....                        XXXX                        ....          ",
"                              ....                        ....                        ....                        ....          ",
"                              ....                        ....                        ....                        ....          ",
"                              ....                        ....                        ....                        ....          ",
"                              ....                        ....                        ....                        ....          ",
"                              ....                        ....                        ....                        ....          ",
"                              ....                        ....                        ....                        ....          ",
"                              ....                        ....                        ....                        ....          ",
"                              ....                        ....                        ....                        ....          ",
"                              ....                        ....                        ....                        ....          ",
"                              ....                        ....                        ....                        ....          ",
"                              ....                        ....                        ....                        ....          ",
"                              ....                        ....                        ....                        ....          ",
"                              ....                        ....                        ....                        ....          ",
"                              ....                        ....                        ....                        ....          ",
"                              ....                        ....                        ....                        ....          ",
"                              ....                        ....                        ....                        ....          ",
"                              ....                        ....                        ....                        ....          ",
"                              ....                        ....                        ....                        ....          ",
"                              ....                        ....                        ....                        ....          ",
"                              ....                        ....                        ....                        ....          ",
"                              ....                        ....                        ....                        ....          ",
"                              ....                        ....                        ....                        ....          ",
"                              XXXX                        XXXX                        XXXX                        XXXX          ",
"                             XXXXXX                      XXXXXX                      XXXXXX                      XXXXXX         ",
"............................XXXXXXXX....................XXXXXXXX....................XXXXXXXX....................XXXXXXXX........",
"............................XXXXXXXX....................XXXXXXXX....................XXXXXXXX....................XXXXXXXX........",
"............................XXXXXXXX....................XXXXXXXX....................XXXXXXXX....................XXXXXXXX........",
"............................XXXXXXXX....................XXXXXXXX....................XXXXXXXX....................XXXXXXXX........",
"                           ..XXXXXX..                    XXXXXX                      XXXXXX                      XXXXXX         ",
"                          ....XXXX....                    XXXX                        XXXX                        XXXX          ",
"                         ......  ......                   ....                                                    ....          ",
"                        .....      .....                  ....                                                    ....          ",
"                       .....        .....                 ....                                                    ....          ",
"                      .....          .....                ....                                                    ....          ",
"                     .....            .....               ....                                                    ....          ",
"                    .....              .....              ....                                                    ....          ",
"                   .....                .....             ....                                                    ....          ",
"                  .....                  .....            ....                                                    ....          ",
"                 .....                    .....           ....                                                    ....          ",
"                .....                      .....          ....                                                    ....          ",
"               .....                        .....         ....                                                    ....          ",
"              .....                          .....        ....                                                    ....          ",
"             .....                            .....       ....                                                    ....          ",
"            .....                              .....      ....                                                    ....          ",
"           .....                                .....     ....                                                    ....          ",
"          .....                                  .....    ....                                                    ....          ",
"         .....                                    .....   ....                                                    ....          ",
"       ......                                      .....  ....                                                    ....          ",
"    XXXX....                                        ......XXXX                                                    ....          ",
"   XXXXXX..                                          ....XXXXXX                                                   ....          ",
"..XXXXXXXX.                                           ..XXXXXXXX                                                  ....          ",
"..XXXXXXXX                                             .XXXXXXXX                                                  ....          ",
"..XXXXXXXX                                              XXXXXXXX                                                  ....          ",
"..XXXXXXXX                                              XXXXXXXX.                                                 ....          ",
"   XXXXXX                                                XXXXXX..                                                 ....          ",
"    XXXX                                                  XXXX....                                                ....          ",
"    ....                                                     ......                                               ....          ",
"    ....                                                       .....                                              ....          ",
"    ....                                                        .....                                             ....          ",
"    ....                                                         .....                                            ....          ",
"    ....                                                          .....                                           ....          ",
"    ....                                                           .....                                          ....          ",
"    ....                                                            .....                                         ....          ",
"    ....                                                             .....                                        ....          "
};
