/* XPM */
static const char *netgenerate_randomgrid_xpm[] = {
/* columns rows colors chars-per-pixel */
"128 128 3 1",
"  c white",
". c red",
"X c black",
/* pixels */
"                            ........                        ........                        ........XXXXXXXXXXXXXXXXXXXXXXXXXXXX",
"                            ........                        ........                        ........XXXXXXXXXXXXXXXXXXXXXXXXXXXX",
"                             ......                        XX......XX                        ......XX                           ",
"                              ....                        XXXX....XXXX                        ....XXXX                          ",
"                              XXXX                       XXXXX    XXXXX                           XXXXX                         ",
"                              XXXX                      XXXXX      XXXXX                           XXXXX                        ",
"                              XXXX                     XXXXX        XXXXX                           XXXXX                       ",
"                              XXXX                    XXXXX          XXXXX                           XXXXX                      ",
"                              XXXX                   XXXXX            XXXXX                           XXXXX                     ",
"                              XXXX                  XXXXX              XXXXX                           XXXXX                    ",
"                              XXXX                 XXXXX                XXXXX                           XXXXX                   ",
"                              XXXX                XXXXX                  XXXXX                           XXXXX                  ",
"                              XXXX               XXXXX                    XXXXX                           XXXXX                 ",
"                              XXXX              XXXXX                      XXXXX                           XXXXX                ",
"                              XXXX             XXXXX                        XXXXX                           XXXXX               ",
"                              XXXX            XXXXX                          XXXXX                           XXXXX              ",
"                              XXXX           XXXXX                            XXXXX                           XXXXX             ",
"                              XXXX          XXXXX                              XXXXX                           XXXXX            ",
"                              XXXX         XXXXX                                XXXXX                           XXXXX           ",
"                              XXXX        XXXXX                                  XXXXX                           XXXXX          ",
"                              XXXX       XXXXX                                    XXXXX                           XXXXX         ",
"                              XXXX      XXXXX                                      XXXXX                           XXXXX        ",
"                              XXXX     XXXXX                                        XXXXX                           XXXXX       ",
"                              XXXX    XXXXX                                          XXXXX                           XXXXX      ",
"                              XXXX   XXXXX                                            XXXXX                           XXXXX     ",
"                              XXXX  XXXXX                                              XXXXX                           XXXXX    ",
"                              XXXX XXXXX                                                XXXXX                           XXXXX   ",
"                              XXXXXXXXX                                                  XXXXX                           XXXXX  ",
"..                            ....XXXX                        ....                        XXXX....                        XXXX..",
"...                          ......XX                        ......                        XX......                        XX...",
"....XXXXXXXXXXXXXXXXXXXXXXXX........XXXXXXXXXXXXXXXXXXXXXXXX........                        ........                        ....",
"....XXXXXXXXXXXXXXXXXXXXXXXX........XXXXXXXXXXXXXXXXXXXXXXXX........                        ........                        ....",
"....XXXXXXXXXXXXXXXXXXXXXXXX........XXXXXXXXXXXXXXXXXXXXXXXX........                        ........                        ....",
"....XXXXXXXXXXXXXXXXXXXXXXXX........XXXXXXXXXXXXXXXXXXXXXXXX........                        ........                        ....",
"...XX                        ......                          ......                        XX......                          ...",
"..XXXX                        ....                            ....                        XXXX....                            ..",
"  XXXXX                                                                                  XXXXXXXXX                            XX",
"   XXXXX                                                                                XXXXX XXXX                            XX",
"    XXXXX                                                                              XXXXX  XXXX                            XX",
"     XXXXX                                                                            XXXXX   XXXX                            XX",
"      XXXXX                                                                          XXXXX    XXXX                            XX",
"       XXXXX                                                                        XXXXX     XXXX                            XX",
"        XXXXX                                                                      XXXXX      XXXX                            XX",
"         XXXXX                                                                    XXXXX       XXXX                            XX",
"          XXXXX                                                                  XXXXX        XXXX                            XX",
"           XXXXX                                                                XXXXX         XXXX                            XX",
"            XXXXX                                                              XXXXX          XXXX                            XX",
"             XXXXX                                                            XXXXX           XXXX                            XX",
"              XXXXX                                                          XXXXX            XXXX                            XX",
"               XXXXX                                                        XXXXX             XXXX                            XX",
"                XXXXX                                                      XXXXX              XXXX                            XX",
"                 XXXXX                                                    XXXXX               XXXX                            XX",
"                  XXXXX                                                  XXXXX                XXXX                            XX",
"                   XXXXX                                                XXXXX                 XXXX                            XX",
"                    XXXXX                                              XXXXX                  XXXX                            XX",
"                     XXXXX                                            XXXXX                   XXXX                            XX",
"                      XXXXX                                          XXXXX                    XXXX                            XX",
"                       XXXXX                                        XXXXX                     XXXX                            XX",
"                        XXXXX                                      XXXXX                      XXXX                            XX",
"                         XXXXX                                    XXXXX                       XXXX                            XX",
"..                        XXXX....                            ....XXXX                        ....                            ..",
"...                        XX......                          ......XX                        ......                          ...",
"....                        ........                        ........XXXXXXXXXXXXXXXXXXXXXXXX........XXXXXXXXXXXXXXXXXXXXXXXX....",
"....                        ........                        ........XXXXXXXXXXXXXXXXXXXXXXXX........XXXXXXXXXXXXXXXXXXXXXXXX....",
"....                        ........                        ........XXXXXXXXXXXXXXXXXXXXXXXX........XXXXXXXXXXXXXXXXXXXXXXXX....",
"....                        ........                        ........XXXXXXXXXXXXXXXXXXXXXXXX........XXXXXXXXXXXXXXXXXXXXXXXX....",
"...XX                        ......                        XX......                          ......                        XX...",
"..XXXX                        ....                        XXXX....                            ....                        XXXX..",
"XXXXXXX                                                  XXXXX                                                           XXXXX  ",
"XX XXXXX                                                XXXXX                                                           XXXXX   ",
"XX  XXXXX                                              XXXXX                                                           XXXXX    ",
"XX   XXXXX                                            XXXXX                                                           XXXXX     ",
"XX    XXXXX                                          XXXXX                                                           XXXXX      ",
"XX     XXXXX                                        XXXXX                                                           XXXXX       ",
"XX      XXXXX                                      XXXXX                                                           XXXXX        ",
"XX       XXXXX                                    XXXXX                                                           XXXXX         ",
"XX        XXXXX                                  XXXXX                                                           XXXXX          ",
"XX         XXXXX                                XXXXX                                                           XXXXX           ",
"XX          XXXXX                              XXXXX                                                           XXXXX            ",
"XX           XXXXX                            XXXXX                                                           XXXXX             ",
"XX            XXXXX                          XXXXX                                                           XXXXX              ",
"XX             XXXXX                        XXXXX                                                           XXXXX               ",
"XX              XXXXX                      XXXXX                                                           XXXXX                ",
"XX               XXXXX                    XXXXX                                                           XXXXX                 ",
"XX                XXXXX                  XXXXX                                                           XXXXX                  ",
"XX                 XXXXX                XXXXX                                                           XXXXX                   ",
"XX                  XXXXX              XXXXX                                                           XXXXX                    ",
"XX                   XXXXX            XXXXX                                                           XXXXX                     ",
"XX                    XXXXX          XXXXX                                                           XXXXX                      ",
"XX                     XXXXX        XXXXX                                                           XXXXX                       ",
"XX                      XXXXX      XXXXX                                                           XXXXX                        ",
"XX                       XXXXX    XXXXX                                                           XXXXX                         ",
"..                        XXXX....XXXX                        ....                            ....XXXX                        ..",
"...                        XX......XX                        ......                          ......XX                        ...",
"....                        ........XXXXXXXXXXXXXXXXXXXXXXXX........                        ........XXXXXXXXXXXXXXXXXXXXXXXX....",
"....                        ........XXXXXXXXXXXXXXXXXXXXXXXX........                        ........XXXXXXXXXXXXXXXXXXXXXXXX....",
"....                        ........XXXXXXXXXXXXXXXXXXXXXXXX........                        ........XXXXXXXXXXXXXXXXXXXXXXXX....",
"....                        ........XXXXXXXXXXXXXXXXXXXXXXXX........                        ........XXXXXXXXXXXXXXXXXXXXXXXX....",
"...XX                        ......                          ......XX                        ......                          ...",
"..XXXX                        ....                            ....XXXX                        ....                            ..",
"  XXXXX                       XXXX                                XXXXX                                                         ",
"   XXXXX                      XXXX                                 XXXXX                                                        ",
"    XXXXX                     XXXX                                  XXXXX                                                       ",
"     XXXXX                    XXXX                                   XXXXX                                                      ",
"      XXXXX                   XXXX                                    XXXXX                                                     ",
"       XXXXX                  XXXX                                     XXXXX                                                    ",
"        XXXXX                 XXXX                                      XXXXX                                                   ",
"         XXXXX                XXXX                                       XXXXX                                                  ",
"          XXXXX               XXXX                                        XXXXX                                                 ",
"           XXXXX              XXXX                                         XXXXX                                                ",
"            XXXXX             XXXX                                          XXXXX                                               ",
"             XXXXX            XXXX                                           XXXXX                                              ",
"              XXXXX           XXXX                                            XXXXX                                             ",
"               XXXXX          XXXX                                             XXXXX                                            ",
"                XXXXX         XXXX                                              XXXXX                                           ",
"                 XXXXX        XXXX                                               XXXXX                                          ",
"                  XXXXX       XXXX                                                XXXXX                                         ",
"                   XXXXX      XXXX                                                 XXXXX                                        ",
"                    XXXXX     XXXX                                                  XXXXX                                       ",
"                     XXXXX    XXXX                                                   XXXXX                                      ",
"                      XXXXX   XXXX                                                    XXXXX                                     ",
"                       XXXXX  XXXX                                                     XXXXX                                    ",
"                        XXXXX XXXX                                                      XXXXX                                   ",
"                         XXXXXXXXX                                                       XXXXX                                  ",
"                          XXXX....                            ....                        XXXX....                              ",
"                           XX......                          ......                        XX......                             ",
"                            ........XXXXXXXXXXXXXXXXXXXXXXXX........                        ........                            ",
"                            ........XXXXXXXXXXXXXXXXXXXXXXXX........                        ........                            "
};
