/* XPM */
static const char *netgenerate_random_xpm[] = {
/* columns rows colors chars-per-pixel */
"128 128 3 1",
"  c white",
". c black",
"X c red",
/* pixels */
"                              ....         ....     ....   ....             .....                   ....                        ",
"                              ....        ....      ....   ....             ....                     ....                       ",
"                              ....       .....      ....    ....            ....                     .....                      ",
"                              ....      .....       ....    ....           .....                      ....                      ",
"                              ....      ....        ....    ....           ....                        ....                     ",
"                              ....     ....         ....     ....          ....                        ....                     ",
"                              ....    .....         ....     ....         ....                          ....                    ",
"                              ....   .....          ....      ....        ....                           ....                   ",
"                              ....   ....           ....      ....       .....                           ....                   ",
"                              ....  ....            ....      ....       ....                             ....                  ",
"                              .... .....            ....       ....      ....                             ....                  ",
"                              .........             ....       ....     .....                              ....               ..",
"                              ........              ....       .....    ....                                ....           .....",
"                              XXXX...               ....        ....    ....                                ....         .......",
"                             XXXXXX..               ....        ....   ....                                 XXXX       .........",
"                          ..XXXXXXXX                ....         ....  ....                                XXXXXX   ........... ",
"                        ....XXXXXXXX                ....         ....  ....                            ...XXXXXXXX..........    ",
"                      ......XXXXXXXX                ....         .... ....                       .........XXXXXXXX.......       ",
"                   .........XXXXXXXX                ....          ........                 ...............XXXXXXXX.....         ",
"                 .........   XXXXXX                 ....          ....XXXX            ....................XXXXXXXX..            ",
"               .........      XXXX                  ....          ...XXXXXX     .......................    XXXXXX               ",
"             .........                              ....           .XXXXXXXX.....................           XXXX                ",
"          ..........                                ....           .XXXXXXXX...............                                     ",
"        ..........                                  ....            XXXXXXXX..........                                          ",
"      .........                                     ....            XXXXXXXX....                                                ",
"    .........                                       ....             XXXXXX                                                     ",
"  .........                                         ....              XXXX                                                      ",
".........                                           ....                                                                        ",
".......                                             ....                                                                        ",
".....                                               ....                                                                        ",
"...                                                 ....                                                                        ",
".                                                   ....                                                                        ",
"                                                    ....                                                                        ",
"                                                    ....                                                                        ",
"                                                    ....                                                                        ",
"                                                    ....                                                                        ",
"                                                    ....                                                                        ",
"                                                    ....                                                                        ",
"                                                    ....                                                                        ",
"                                                    ....                                                                        ",
"                                                    ....                                                                        ",
"                                                    ....                                                                        ",
"                                                    ....                                                                        ",
"                                                    ....                                                                        ",
"                                                    ....                                                                        ",
"                                                    ....                                                                        ",
"                                                    ....                                                                       .",
"                                                    ....                                                                     ...",
"                                                    ....                                                                   .....",
"                                                    ....                                                                 .......",
"                                                    ....                                                                ........",
"                                                    ....                                                              ........  ",
"                                                    ....                                                  XXXX      ........    ",
"                                                    ....                                                 XXXXXX   ........      ",
"                                                    ....                                               .XXXXXXXX........        ",
"                                                    ....                                            ....XXXXXXXX......          ",
"                                                    ....                                          ......XXXXXXXX....            ",
"                                                    ....                                       .........XXXXXXXX..              ",
"                                                    ....                                     ..........  XXXXXX                 ",
"                                                    ....                        XXXX       .........      XXXX                  ",
"                                                    ....                       XXXXXX   ..........        ....                  ",
"                                                    ....                      XXXXXXXX.........           ....                  ",
"                                                    ....                      XXXXXXXX.......            .....                  ",
"                                                    ....                      XXXXXXXX.....              ....                   ",
"                          XXXX                      ....                     .XXXXXXXX..                 ....                   ",
"                         XXXXXX                     ....                     ..XXXXXX..                 .....                   ",
"                        XXXXXXXX...                 ....                    ....XXXX...                 ....                    ",
"                        XXXXXXXX......              ....                    ....    ....                ....                    ",
"                        XXXXXXXX.........           ....                    ....     ....              .....                    ",
"                       .XXXXXXXX.............       XXXX                   ....      ....              .....                    ",
"                      ...XXXXXX    .............   XXXXXX                  ....       ....             ....                     ",
"                     .....XXXX        ............XXXXXXXX                 ....        ...             ....                     ",
"                     ....                .........XXXXXXXX                ....         ....           .....                     ",
"                    ....                     .....XXXXXXXX                ....          ...           ....                      ",
"                    ....                        ..XXXXXXXX                ....          ....          ....                      ",
"                   ....                            XXXXXX                 ...            ....        .....                      ",
"                  .....                             XXXX.                ....            ....        .....                      ",
"                  ....                               .....               ....             ....       ....                       ",
"                 ....                                 ....               ....             ....      .....                      .",
"                .....                                 ....              ....               ....     .....                     ..",
"                ....                                  .....             ....                ....    .....                    ...",
"               ....                                    ....             ....                ....   .....                    ....",
"               ....                                    .....           ....                  ....  .....                   .....",
"              ....                                      ....           ....                  ...XXX.....                  ..... ",
"             ....                                       .....          ....                   .XXXXXX..                  .....  ",
"             ....                                       .....         ....                    XXXXXXXX.                 .....   ",
"            ....                                         ....         ....                    XXXXXXXX                 .....    ",
".          ....                                          .....        ....                    XXXXXXXX                .....     ",
"..         ....                                           ....        ...                     XXXXXXXX               .....      ",
"...       ....                                            .....      ....                     .XXXXXX               .....       ",
"....      ....                                             ....      ....                   ....XXXX               .....        ",
".....    ....                                              .....     ....                ........                 .....         ",
" .....  .....                                              .....    ....               .........                 .....          ",
"  ..... ....                                                ....    ....             .........               XXXX....         ..",
"   ........                                                 .....   ....           .........                XXXXXX..   .........",
"    XXXX...                                                  ....  ....          ........                  XXXXXXXX.............",
"   XXXXXX..                                                  ..... ....        ........                    XXXXXXXX.............",
"..XXXXXXXX...                                                ..... ....     .........                      XXXXXXXX............ ",
"..XXXXXXXX.......                                             ..XXXX..    .........                        XXXXXXXX.....        ",
"..XXXXXXXX............        XXXX                            .XXXXXX.  .........                         ..XXXXXX..            ",
"..XXXXXXXX................   XXXXXX              .............XXXXXXXX.........                          ....XXXX....           ",
"   XXXXXX   ................XXXXXXXX..........................XXXXXXXX......                            .....    .....          ",
"    XXXX        ............XXXXXXXX..........................XXXXXXXX....                             .....      .....         ",
"                     .......XXXXXXXX..........................XXXXXXXX..                              .....        .....        ",
"                         ...XXXXXXXX.............              XXXXXX                                .....          .....       ",
"                            .XXXXXX                             XXXX                                .....            .....      ",
"                           ...XXXX                                                                 .....              .....     ",
"                           .....                                                                  .....                .....    ",
"                          .....                                                                  .....                  .....   ",
"                         .....                                                                  .....                    .....  ",
"                        .....                                                                  .....                      ..... ",
"                       .....                                                                  .....                        .....",
"                      ......                                                                 .....                          ....",
"                     ......                                                                 .....                            ...",
"                    ......                                                                 .....                              ..",
"                   ......                                                                 .....                                .",
"                  ......                                                                 .....                                  ",
"               XXX.....                                                                 .....                                   ",
"              XXXXXX...                                                                .....                                   .",
"             XXXXXXXX.                                                                .....                                   ..",
"             XXXXXXXX                                                                .....                                   ...",
"             XXXXXXXX                                                               .....                                   ....",
"             XXXXXXXX                                                              .....                                   .....",
"              XXXXXX                                                              .....                                   ......",
"               XXXX                         XXXX                                 .....                                   ...... ",
"                                           XXXXXX                               .....                                   ......  ",
"                                          XXXXXXXX                             .....                                   ......   ",
"                                          XXXXXXXX                            .....                                   ......    "
};
