/* XPM */
static const char *parkingarea_xpm[] = {
/* columns rows colors chars-per-pixel */
"16 16 35 2",
"`` c #00007f",
"`a c #1c1c8d",
"`b c #4444a1",
"`c c #4343a0",
"`d c #3b3b9d",
"`e c #1d1d8d",
"`f c #6b6bb4",
"`g c #ffffff",
"`h c #a6a6d2",
"`i c #050581",
"`j c #e0e0ef",
"`k c #8989c4",
"`l c #8c8cc5",
"`m c #aeaed6",
"`n c #fefefe",
"`o c #7171b7",
"`p c #bbbbdd",
"`q c #9999cc",
"`r c #b5b5da",
"`s c #9292c8",
"`t c #b6b6da",
"`u c #d9d9ec",
"`v c #6f6fb7",
"`w c #7373b9",
"`x c #9898cb",
"`y c #fbfbfd",
"`z c #060682",
"`A c #d5d5ea",
"`B c #6060af",
"`C c #5e5eae",
"`D c #5353a9",
"`E c #2c2c95",
"`F c #2a2a94",
"`G c #6565b2",
"`H c #4a4aa4",
/* pixels */
"````````````````````````````````",
"````````````````````````````````",
"`````````a`b`b`b`c`d`e``````````",
"`````````f`g`g`g`g`g`g`h`i``````",
"`````````f`g`j`k`l`m`n`g`o``````",
"`````````f`g`p```````q`g`r``````",
"`````````f`g`p```````s`g`t``````",
"`````````f`g`u`v`w`x`y`g`w``````",
"`````````f`g`g`g`g`g`g`m`z``````",
"`````````f`g`A`B`C`D`E``````````",
"`````````f`g`p``````````````````",
"`````````f`g`p``````````````````",
"`````````f`g`p``````````````````",
"`````````F`G`H``````````````````",
"````````````````````````````````",
"````````````````````````````````"
};
