/* XPM */
static char *ParkingSpace_ergebnis_xpm[] = {
/* width height num_colors chars_per_pixel */
"    16    16      256            2",
/* colors */
"`` c #000000",
"`. c #221f22",
"`# c #211e1f",
"`a c #251f22",
"`b c #231e23",
"`c c #231f20",
"`d c #231f1f",
"`e c #231f21",
"`f c #272222",
"`g c #232020",
"`h c #231e20",
"`i c #221f21",
"`j c #282828",
"`k c #262121",
"`l c #242424",
"`m c #241f20",
"`n c #2b2525",
"`o c #221e20",
"`p c #241f21",
"`q c #6b6869",
"`r c #e1e0e0",
"`s c #828080",
"`t c #908e8f",
"`u c #dfdfdf",
"`v c #5e5b5c",
"`w c #bab8b9",
"`x c #ffffff",
"`y c #d7d6d7",
"`z c #e8e8e8",
"`A c #a9a7a8",
"`B c #4c494a",
"`C c #b0aeaf",
"`D c #5d5a5b",
"`E c #676565",
"`F c #aeadad",
"`G c #434041",
"`H c #221e1f",
"`I c #251e25",
"`J c #261e1e",
"`K c #1f1f1f",
"`L c #232323",
"`M c #000000",
"`N c #000000",
"`O c #000000",
"`P c #000000",
"`Q c #000000",
"`R c #000000",
"`S c #000000",
"`T c #000000",
"`U c #000000",
"`V c #000000",
"`W c #000000",
"`X c #000000",
"`Y c #000000",
"`Z c #000000",
"`0 c #000000",
"`1 c #000000",
"`2 c #000000",
"`3 c #000000",
"`4 c #000000",
"`5 c #000000",
"`6 c #000000",
"`7 c #000000",
"`8 c #000000",
".` c #000000",
".. c #000000",
".# c #000000",
".a c #000000",
".b c #000000",
".c c #000000",
".d c #000000",
".e c #000000",
".f c #000000",
".g c #000000",
".h c #000000",
".i c #000000",
".j c #000000",
".k c #000000",
".l c #000000",
".m c #000000",
".n c #000000",
".o c #000000",
".p c #000000",
".q c #000000",
".r c #000000",
".s c #000000",
".t c #000000",
".u c #000000",
".v c #000000",
".w c #000000",
".x c #000000",
".y c #000000",
".z c #000000",
".A c #000000",
".B c #000000",
".C c #000000",
".D c #000000",
".E c #000000",
".F c #000000",
".G c #000000",
".H c #000000",
".I c #000000",
".J c #000000",
".K c #000000",
".L c #000000",
".M c #000000",
".N c #000000",
".O c #000000",
".P c #000000",
".Q c #000000",
".R c #000000",
".S c #000000",
".T c #000000",
".U c #000000",
".V c #000000",
".W c #000000",
".X c #000000",
".Y c #000000",
".Z c #000000",
".0 c #000000",
".1 c #000000",
".2 c #000000",
".3 c #000000",
".4 c #000000",
".5 c #000000",
".6 c #000000",
".7 c #000000",
".8 c #000000",
"#` c #000000",
"#. c #000000",
"## c #000000",
"#a c #000000",
"#b c #000000",
"#c c #000000",
"#d c #000000",
"#e c #000000",
"#f c #000000",
"#g c #000000",
"#h c #000000",
"#i c #000000",
"#j c #000000",
"#k c #000000",
"#l c #000000",
"#m c #000000",
"#n c #000000",
"#o c #000000",
"#p c #000000",
"#q c #000000",
"#r c #000000",
"#s c #000000",
"#t c #000000",
"#u c #000000",
"#v c #000000",
"#w c #000000",
"#x c #000000",
"#y c #000000",
"#z c #000000",
"#A c #000000",
"#B c #000000",
"#C c #000000",
"#D c #000000",
"#E c #000000",
"#F c #000000",
"#G c #000000",
"#H c #000000",
"#I c #000000",
"#J c #000000",
"#K c #000000",
"#L c #000000",
"#M c #000000",
"#N c #000000",
"#O c #000000",
"#P c #000000",
"#Q c #000000",
"#R c #000000",
"#S c #000000",
"#T c #000000",
"#U c #000000",
"#V c #000000",
"#W c #000000",
"#X c #000000",
"#Y c #000000",
"#Z c #000000",
"#0 c #000000",
"#1 c #000000",
"#2 c #000000",
"#3 c #000000",
"#4 c #000000",
"#5 c #000000",
"#6 c #000000",
"#7 c #000000",
"#8 c #000000",
"a` c #000000",
"a. c #000000",
"a# c #000000",
"aa c #000000",
"ab c #000000",
"ac c #000000",
"ad c #000000",
"ae c #000000",
"af c #000000",
"ag c #000000",
"ah c #000000",
"ai c #000000",
"aj c #000000",
"ak c #000000",
"al c #000000",
"am c #000000",
"an c #000000",
"ao c #000000",
"ap c #000000",
"aq c #000000",
"ar c #000000",
"as c #000000",
"at c #000000",
"au c #000000",
"av c #000000",
"aw c #000000",
"ax c #000000",
"ay c #000000",
"az c #000000",
"aA c #000000",
"aB c #000000",
"aC c #000000",
"aD c #000000",
"aE c #000000",
"aF c #000000",
"aG c #000000",
"aH c #000000",
"aI c #000000",
"aJ c #000000",
"aK c #000000",
"aL c #000000",
"aM c #000000",
"aN c #000000",
"aO c #000000",
"aP c #000000",
"aQ c #000000",
"aR c #000000",
"aS c #000000",
"aT c #000000",
"aU c #000000",
"aV c #000000",
"aW c #000000",
"aX c #000000",
"aY c #000000",
"aZ c #000000",
"a0 c #000000",
"a1 c #000000",
"a2 c #000000",
"a3 c #000000",
"a4 c #000000",
"a5 c #000000",
"a6 c #000000",
"a7 c #000000",
"a8 c #000000",
/* pixels */
"````````````````````````````````",
"```````.`#`#`#`#`#`#`#`#`a``````",
"`````b`c`d`d`d`d`d`d`d`e`c`f````",
"`````g`g`````````````````h`i````",
"```j`c`k`````````````````b`h`l``",
"```e`m`n`n`n`n`n`n`n`n`n`n`c`o``",
"`d`c`c`c`c`c`c`c`c`c`c`c`c`c`c`p",
"`c`q`r`s`c`c`c`c`c`c`c`c`t`u`v`c",
"`c`w`x`y`c`c`c`c`c`c`c`c`z`x`A`c",
"`c`B`C`D`c`c`c`c`c`c`c`c`E`F`G`c",
"`c`c`c`c`c`c`c`c`c`c`c`c`c`c`c`c",
"`h`c`c`c`h`h`h`h`h`h`h`h`c`c`c`h",
"```e`c`c`````````````````o`c`H``",
"```e`c`c`````````````````d`c`c``",
"```I`o`J`````````````````K`o`L``",
"````````````````````````````````"
};
