/* XPM */
static const char * poly_xpm[] = {
/* columns rows colors chars-per-pixel */
"16 16 4 1",
" 	c None",
".	c Black",
"X	c Gray50",
"o	c Red",
/* pixels */
"  ...           ",
" .XXX.     ...  ",
" .XXX.    .   . ",
" .XXX.        . ",
"  ...        .  ",
"            .   ",
"                ",
"   .     .. .   ",
"  .o.   .oo.    ",
"  .oo.  .ooo.   ",
" .ooo.  .ooo.   ",
" .oooo...oo..   ",
" .oooooooo.     ",
" .ooooooo.      ",
"  .......       ",
"                "
};
