/* XPM */
static const char * rubber1x_xpm[] = {
/* columns rows colors chars-per-pixel */
"17 17 2 1",
" 	c None",
"!	c black",
/* pixels */
"        !!!!!!!  ",
"       !     !!  ",
"      !     ! !  ",
"     !     !  !  ",
"    !     !   !  ",
"   !     !   !   ",
"  !     !   !    ",
" !     !   !     ",
"!     !   !      ",
"!!!!!!   !       ",
"!    !  !        ",
"!    ! !  !!     ",
"!!!!!!!  ! !     ",
"           ! !  !",
"           !  !! ",
"           !  !! ",
"           ! !  !"
};
