/* XPM */
static const char *save_dataelements_xpm[] = {
/* columns rows colors chars-per-pixel */
"16 16 9 1",
". c #040404",
"X c #007F0E",
"o c red",
"O c #808304",
"+ c #FFD800",
"@ c #0026FF",
"# c #BFC2BF",
"$ c #bfc2bf",
"% c None",
/* pixels */
"%%%%%%%%%%%%%%%%",
"%..............%",
"%.O.$$$$$$$$.#.%",
"%.O.$$@@$$$$...%",
"%.O.oo@@$$$$.O.%",
"%.O.oo@@XX$$.O.%",
"%.O.oo@@XX++.O.%",
"%.O.oo@@XX++.O.%",
"%.OO........OO.%",
"%.OOOOOOOOOOOO.%",
"%.OO.........O.%",
"%.OO......##.O.%",
"%.OO......##.O.%",
"%.OO......##.O.%",
"%%.............%",
"%%%%%%%%%%%%%%%%"
};
