/* XPM */
static const char* sumo_icon64_xpm[] = {
/* columns rows colors chars-per-pixel */
"64 64 248 2 ",
"   c #338033",
".  c #348034",
"X  c #348134",
"o  c #358135",
"O  c #368136",
"+  c #378137",
"@  c #378237",
"#  c #388238",
"$  c #398239",
"%  c #3A823A",
"&  c #3B833B",
"*  c #3C833C",
"=  c #3D833D",
"-  c #3E833E",
";  c #3E843E",
":  c #3F843F",
">  c #408440",
",  c #408540",
"<  c #418541",
"1  c #428542",
"2  c #438543",
"3  c #428642",
"4  c #438643",
"5  c #448644",
"6  c #458645",
"7  c #468646",
"8  c #468746",
"9  c #478747",
"0  c #488848",
"q  c #498849",
"w  c #498A49",
"e  c #4C894C",
"r  c #4D8A4D",
"t  c #4D8B4D",
"y  c #4E8A4E",
"u  c #4F8B4F",
"i  c #508A50",
"p  c #508B50",
"a  c #518B51",
"s  c #518C51",
"d  c #528C52",
"f  c #538C53",
"g  c #548D54",
"h  c #568E56",
"j  c #578E57",
"k  c #598F59",
"l  c #5A905A",
"z  c #5C905C",
"x  c #5D915D",
"c  c #5E915E",
"v  c #609260",
"b  c #619361",
"n  c #629362",
"m  c #639363",
"M  c #629462",
"N  c #649464",
"B  c #659565",
"V  c #679667",
"C  c #689668",
"Z  c #689768",
"A  c #699769",
"S  c #6A976A",
"D  c #6B986B",
"F  c #6C986C",
"G  c #6C996C",
"H  c #6D996D",
"J  c #6E9A6E",
"K  c #6F9A6F",
"L  c #729C72",
"P  c #739D73",
"I  c #749D74",
"U  c #759E75",
"Y  c #769E76",
"T  c #779E77",
"R  c #779F77",
"E  c #789F78",
"W  c #79A079",
"Q  c #7AA07A",
"!  c #7CA27C",
"~  c #7DA27D",
"^  c #7DA37D",
"/  c #7FA37F",
"(  c #7FA47F",
")  c #80A480",
"_  c #81A481",
"`  c #82A582",
"'  c #83A683",
"]  c #85A785",
"[  c #86A786",
"{  c #86A886",
"}  c #87A887",
"|  c #87A987",
" . c #88A988",
".. c #8AAA8A",
"X. c #8BAB8B",
"o. c #8AAC8A",
"O. c #8CAC8C",
"+. c #8DAC8D",
"@. c #8EAD8E",
"#. c #8FAE8F",
"$. c #91AE91",
"%. c #92AF92",
"&. c #93AF93",
"*. c #93B093",
"=. c #94B094",
"-. c #95B195",
";. c #96B296",
":. c #98B398",
">. c #9AB59A",
",. c #9BB59B",
"<. c #9CB69C",
"1. c #9DB69D",
"2. c #9FB89F",
"3. c #A0B9A0",
"4. c #A1B9A1",
"5. c #A0BAA0",
"6. c #A1BAA1",
"7. c #A3BAA3",
"8. c #A4BAA4",
"9. c #A4BBA4",
"0. c #A5BBA5",
"q. c #A4BCA4",
"w. c #A5BCA5",
"e. c #A6BDA6",
"r. c #A7BDA7",
"t. c #A7BEA7",
"y. c #A9BFA9",
"u. c #AABFAA",
"i. c #AAC0AA",
"p. c #ABC1AB",
"a. c #ACC1AC",
"s. c #ADC1AD",
"d. c #ADC2AD",
"f. c #AEC2AE",
"g. c #B0C3B0",
"h. c #B1C4B1",
"j. c #B2C5B2",
"k. c #B3C5B3",
"l. c #B3C6B3",
"z. c #B4C6B4",
"x. c #B5C7B5",
"c. c #B6C8B6",
"v. c #B8C9B8",
"b. c #B9CAB9",
"n. c #B9CBB9",
"m. c #BACABA",
"M. c #BACBBA",
"N. c #BBCBBB",
"B. c #BBCCBB",
"V. c #BCCCBC",
"C. c #BDCDBD",
"Z. c #BFCDBF",
"A. c #BECEBE",
"S. c #C0CFC0",
"D. c #C1D0C1",
"F. c #C2D0C2",
"G. c #C2D1C2",
"H. c #C3D1C3",
"J. c #C4D2C4",
"K. c #C5D2C5",
"L. c #C5D3C5",
"P. c #C6D3C6",
"I. c #C6D4C6",
"U. c #C7D4C7",
"Y. c #C8D5C8",
"T. c #C9D6C9",
"R. c #CAD6CA",
"E. c #CAD7CA",
"W. c #CBD8CB",
"Q. c #CCD8CC",
"!. c #CDD9CD",
"~. c #CED9CE",
"^. c #CFDACF",
"/. c #CFDBCF",
"(. c #D1DBD1",
"). c #D0DCD0",
"_. c #D1DCD1",
"`. c #D2DCD2",
"'. c #D2DDD2",
"]. c #D3DED3",
"[. c #D4DED4",
"{. c #D5DFD5",
"}. c #D6DFD6",
"|. c #D6E0D6",
" X c #D7E0D7",
".X c #D7E1D7",
"XX c #D8E1D8",
"oX c #D8E2D8",
"OX c #D9E2D9",
"+X c #DAE2DA",
"@X c #DAE3DA",
"#X c #DBE3DB",
"$X c #DCE4DC",
"%X c #DCE5DC",
"&X c #DDE5DD",
"*X c #DEE6DE",
"=X c #DFE6DF",
"-X c #DFE7DF",
";X c #E0E7E0",
":X c #E1E8E1",
">X c #E1E9E1",
",X c #E2E8E2",
"<X c #E2E9E2",
"1X c #E3E9E3",
"2X c #E3EAE3",
"3X c #E4EBE4",
"4X c #E5EBE5",
"5X c #E6ECE6",
"6X c #E7ECE7",
"7X c #E7EDE7",
"8X c #E8EDE8",
"9X c #E9EEE9",
"0X c #EAEFEA",
"qX c #EBEFEB",
"wX c #EBF0EB",
"eX c #ECF0EC",
"rX c #ECF1EC",
"tX c #EDF1ED",
"yX c #EDF2ED",
"uX c #EEF2EE",
"iX c #EFF3EF",
"pX c #F0F4F0",
"aX c #F1F4F1",
"sX c #F1F5F1",
"dX c #F2F5F2",
"fX c #F3F6F3",
"gX c #F4F6F4",
"hX c #F4F7F4",
"jX c #F5F7F5",
"kX c #F5F8F5",
"lX c #F6F8F6",
"zX c #F6F9F6",
"xX c #F7F9F7",
"cX c #F8F9F8",
"vX c #F8FAF8",
"bX c #F9FAF9",
"nX c #F9FBF9",
"mX c #FAFBFA",
"MX c #FAFCFA",
"NX c #FBFCFB",
"BX c #FBFDFB",
"VX c #FCFDFC",
"CX c #FDFDFD",
"ZX c #FDFEFD",
"AX c #FEFEFE",
"SX c #FEFFFE",
"DX c gray100",
"FX c None",
/* pixels */
"FXFXFXFXFXFXFXFXFXFXFXFXFXFXFXFXFXFXFXFXFXFXFXFXFXFXFXFXFXFXFXFXFXFXFXFXFXFXFXFXFXFXFXFXFXFXFXFXFXFXFXFXFXFXFXFXFXFXFXFXFXFXFXFX",
"FXFXFXFXFXFXFXFXFXFXFXFXFXFXFXFXFXFXFXFXFXFXFXFXFXFXFXFXFXFXFXFXFXFXFXFXFXFXFXFXFXFXFXFXFXFXFXFXFXFXFXFXFXFXFXFXFXFXFXFXFXFXFXFX",
"FXFXFXFXFX  , r r r t r t r t t r t t r t r t r t r t t r t t r t r t r t r t t r t r r t r t r t r t t r t t r e . FXFXFXFXFXFX",
"FXFXFXFX) $XNXDXDXDXDXDXDXDXDXDXDXDXDXDXDXDXDXDXDXDXDXDXDXDXDXDXDXDXDXDXDXDXDXDXDXDXDXDXDXDXDXDXDXDXDXDXDXDXDXDXDXpXA.9 FXFXFXFX",
"FXFXFX%.NXDXDXDXDXDXDXDXDXDXDXDXDXDXDXDXDXDXDXDXDXDXDXDXDXDXDXDXDXDXDXDXDXDXDXDXDXDXDXDXDXDXDXDXDXDXDXDXDXDXDXDXDXDXDX$X8 FXFXFX",
"FXFXr fXDXDXDXDXDXDXDXDXDXDXDXDXDXDXDXDXDXDXDXDXDXDXDXDXDXDXDXDXDXDXDXDXDXDXDXDXDXDXDXDXDXDXDXDXDXDXDXDXDXDXDXDXDXDXDXDXc.FXFXFX",
"FXFX<.DXDXDXDXDXDXDXDXDXDXDXDXDXDXDXDXDXDXDXDXDXDXDXDXDXDXDXDXDXDXDXDXDXDXDXDXDXDXDXDXDXDXDXDXDXDXDXDXDXDXDXDXDXDXDXDXDXuX. FXFX",
"FXFXv.DXDXDXDXDXDXDXDXDXDXDXDXDXDXDXDXDXDXDXDXDXDXDXDXDXDXDXDXDXDXDXDXDXDXDXDXDXDXDXDXDXDXDXDXDXDXDXDXDXDXDXDXDXDXDXDXDXNX- FXFX",
"FXFXv.DXDXDXDXDXDXDXDXDXDXDXDXDXDXDXDXDXDXDXDXDXDXDXDXDXDXDXDXDXDXDXDXDXDXDXDXDXDXDXDXDXDXDXDXDXDXDXDXDXDXDXDXDXDXDXDXDXDX: FXFX",
"FXFXM.DXDXDXDXDXDXDXDXDXDXDXDXDXDXDXDXDXDXDXDXDXDXDXDXDXDXDXDXDXDXDXDXDXDXDXDXDXDXDXDXDXDXDXDXDXDXDXDXDXDXDXDXDXDXDXDXDXDX: FXFX",
"FXFXM.DXDXDXDXDXDXDXDXDXDXDXDXDXDXDXDXDXDXDXDXDXDXDXDXDXDXDXDXDXDXDXDXDXDXDXDXDXDXDXDXDXDXDXDXDXDXDXDXDXDXDXDXDXDXDXDXDXDX: FXFX",
"FXFXv.DXDXDXDXDXDXDXDXDXDXDXDXDXDXDXDXDXDXDXDXDXDXDXDXDXDXDXDXDXDXDXDXDXDXDXDXDXDXDXDXDXDXDXDXDXDXDXDXDXDXDXDXDXDXDXDXDXDX: FXFX",
"FXFXM.DXDXDXDXDXDXDXDXDXDXDXDXDXDXDXDXDXDXDXDXDXDXDXDXDXDXDXDXDXDXDXDXDXDXDXDXDXDXDXDXDXh.s ) t.`.>XpXNXDXDXDXDXDXDXDXDXDX: FXFX",
"FXFXv.DXDXDXDXDXDXDXDXDXDXDXDXDXDXDXDXDXDXDXDXDXDXDXDXDXDXDXDXDXDXDXDXDXDXDXDXDXDXDXlX#.  .   W 2.    e t.DXDXDXDXDXDXDXDX: FXFX",
"FXFXM.DXDXDXDXDXDXDXDXDXDXDXDXDXDXDXDXDXDXDXDXDXDXDXDXDXDXDXDXDXDXDXDXDXDXDXDXDXDX5XA       o.2.      W lXDXDXDXDXDXDXDXDX: FXFX",
"FXFXv.DXDXDXDXDXDXDXDXDXDXDXDXDXDXDXDXDXDXDXDXDXDXDXDXDXDXDXDXDXDXDXDXDXDXDXDXDX`.e       ,.,.      R lXDXDXDXDXDXDXDXDXDX: FXFX",
"FXFXM.DXDXDXDXDXDXDXDXDXDXDXDXDXDXDXDXDXDXDXDXDXDXDXDXDXDXDXDXDXDXDXDXDXDXDXNXh..   . . y.-.      L fXDXDXDXDXDXDXDXDXDXDX: FXFX",
"FXFXv.DXDXDXDXDXDXDXDXDXDXDXDXDXDXDXDXDXDXDXDXDXDXDXDXDXDXDXDXDXDXDXDXDXDXgX#.  . . + v.o.      K pXDXDXDXDXDXDXDXDXDXDXDX: FXFX",
"FXFXM.DXDXDXDXDXDXDXDXDXDXDXDXDXDXDXDXDXDXDXDXDXT.h.oXvXDXDXDXDXDXDXDXDX5XA       4 J.] .   . A uXDXDXDXDXDXDXDXDXDXDXDXDX: FXFX",
"FXFXM.DXDXDXDXDXDXDXDXDXDXDXDXDXDXDXDXDXDXDX8X]   . . : { v.$XDXDXDXDXvXt.m     s /.Y       v uXDXDXDXDXDXDXDXDXDXDXDXDXDX: FXFX",
"FXFXv.DXDXDXDXDXDXDXDXDXDXDXDXDXDXDXDXDXNXc., .               9 %.S.5XDXDXDXwX/.5Xo.      c 8XDXDXDXDXDXDXDXDXDXDXDXDXDXDX: FXFX",
"FXFXM.DXDXDXDXDXDXDXDXDXDXDXDXDXDXDXDX$XL                             h ,.T.wXDXDXDXuX/.t.5XDXDXDXDXDXDXDXDXDXDXDXDXDXDXDX: FXFX",
"FXFXM.DXDXDXDXDXDXDXDXDXDXDXDXDXDXlXA.`.T.-.8                                 B t./.fXDXDXDXDXDXDXDXDXDXDXDXDXDXDXDXDXDXDX: FXFX",
"FXFXv.DXDXDXDXDXDXDXDXDXDXDXDXDX`.c     v f.oX`.2.s                               . . K f.|.lXDXDXDXDXDXDXDXDXDXDXDXDXDXDX: FXFX",
"FXFXM.DXDXDXDXDXDXDXDXDXDXDXuX*..             B h.$X%Xy.c                                   + _ z.$XvXDXDXDXDXDXDXDXDXDXDX: FXFX",
"FXFXv.DXDXDXDXDXDXDXDXDXDXJ.e                       A z.>X>Xh.K .                               . . , o.A.>XDXDXDXDXDXDXDX- FXFX",
"FXFXM.DXDXDXDXDXDXDXDXDX%XY                             . K c.5X5Xv.W . . .                                 r -.J.8XDXDXDX: FXFX",
"FXFXv.DXDXDXDXDXDXDXDXDXDXDX>X7.e                               Y v.uXuXH.{ +                                       ^ DXDX: FXFX",
"FXFXM.DXDXDXDXDXDXDXDXDXDXDXDXDXlXL.Y                               . Y A.uXfXT.&.8                                 W.DXDX: FXFX",
"FXFXv.DXDXDXDXDXDXDXDXDXDXDXDXDXDXDXDX-X7.e                         .     . ^ A.uXvX(.<.r                         Y DXDXDX: FXFX",
"FXFXM.DXDXDXDXDXDXDXDXDXDXDXDXDXDXDXDXDXDXlXL.Y .                               . ) H.aXvXoXt.k   .               |.DXDXDX: FXFX",
"FXFXM.DXDXDXDXDXDXDXDXDXDXDXDXDXDXDXDXDX8XDXDXDX>X9.e                                 + ] T.fXDX$Xh.B .         { DXDXDXDX: FXFX",
"FXFXv.DXDXDXDXDXDXDXDXDXDXDXDXDXDXDXDXf.. Y Q.vXDXDXlXL.Y                                   + o.T.fXDX4Xv.Y . . >XDXDXDXDX: FXFX",
"FXFXM.DXDXDXDXDXDXDXDXDXDXDXDXDXDXfX{   .   . i h.vXDXDXDX-Xt.9                                   - #.T.gXDXuX`.DXDXDXDXDX: FXFX",
"FXFXv.DXDXDXDXDXDXDXDXDXDXDXDXDX>XB     .     + L.$X-.%XDXDXDXlXL.Y .                                   : %.[.DXDXDXDXDXDX: FXFX",
"FXFXv.DXDXDXDXDXDXDXDXDXDXDXDXW.8           8 `.%Xe     K J.lXDXDXDX>X9.8                                   A.DXDXDXDXDXDX: FXFX",
"FXFXM.DXDXDXDXDXDXDXDXDXDXvXp..         . i $X$X8           7.DXDXDXDXDXlXJ.Y .                           c vXDXDXDXDXDXDX: FXFX",
"FXFXv.DXDXDXDXDXDXDXDXDXfXo.            c 6XoX9           #.vXDXDXDXDXDXDXDXDX>X7.8                       J.DXDXDXDXDXDXDX: FXFX",
"FXFXM.DXDXDXDXDXDXDXDX>Xv .           K uXoX8           { vXDXDXDXDXDXDXDXDXDXDXlX%X{                   A NXDXDXDXDXDXDXDX: FXFX",
"FXFXv.DXDXDXDXDXDXDXT.8             W fXoX,           ^ gXDXDXDXDXDXgX$XA.t.^ h .                       (.DXDXDXDXDXDXDXDX: FXFX",
"FXFXM.DXDXDXDXDXNXy.              #.vX X8           Y gXDXDXfX/.t.A . .                               R DXDXDXDXDXDXDXDXDX: FXFX",
"FXFXv.DXDXDXDXfX]               <.vX X,           K fX5Xv.Y .       . .                               |.DXDXDXDXDXDXDXDXDX: FXFX",
"FXFXM.DXDXDX;Xv               f.DXoX,           , y.L .                                             { DXDXDXDXDXDXDXDXDXDX: FXFX",
"FXFXM.DXDXT., .           . v.DX[., .               .                                           . . $XDXDXDXDXDXDXDXDXDXDX: FXFX",
"FXFXv.DXy..             + T.DX[.>                                                                 *.DXDXDXDXDXDXDXDXDXDXDX: FXFX",
"FXFXM.DX[.l           8 |.DX[.-                                       .                         + 8XDXDXDXDXDXDXDXDXDXDXDX: FXFX",
"FXFXM.DXDXfX*.      h $XDX[.-                                         .         . s W *.9.h.S.H.`.DXDXDXDXDXDXDXDXDXDXDXDX: FXFX",
"FXFXv.DXDXDXDXL.e v 8XDX`.:                                         . A ,.c.`.2XlXDXDXDXDXDXDXDXDXDXDXDXDXDXDXDXDXDXDXDXDX: FXFX",
"FXFXM.DXDXDXDXDXwXuXDX`.-                                   s %.V.$XgXDXDXDXDXDXDXDXDXDXDXDXDXDXDXDXDXDXDXDXDXDXDXDXDXDXDX: FXFX",
"FXFXv.DXDXDXDXDXDXDXwX8                       .     8 #.H.4XDXDXDXDXDXDXDXDXDXDXDXDXDXDXDXDXDXDXDXDXDXDXDXDXDXDXDXDXDXDXDX: FXFX",
"FXFXM.DXDXDXDXDXDXDXDX>XK           . .       r 9.[.lXDXDXDXDXDXDXDXDXDXDXDXDXDXDXDXDXDXDXDXDXDXDXDXDXDXDXDXDXDXDXDXDXDXDX: FXFX",
"FXFXv.DXDXDXDXDXDXDXDXDXlXp..         . : -.|.NXDXDXDXDXDXDXDXDXDXDXDXDXDXDXDXDXDXDXDXDXDXDXDXDXDXDXDXDXDXDXDXDXDXDXDXDXDX: FXFX",
"FXFXM.DXDXDXDXDXDXDXDXDXDXDXoXc     z v.aXDXDXDXDXDXDXDXDXDXDXDXDXDXDXDXDXDXDXDXDXDXDXDXDXDXDXDXDXDXDXDXDXDXDXDXDXDXDXDXDX: FXFX",
"FXFXv.DXDXDXDXDXDXDXDXDXDXDXDXgX7.J.vXDXDXDXDXDXDXDXDXDXDXDXDXDXDXDXDXDXDXDXDXDXDXDXDXDXDXDXDXDXDXDXDXDXDXDXDXDXDXDXDXDXDX: FXFX",
"FXFXM.DXDXDXDXDXDXDXDXDXDXDXDXDXDXDXDXDXDXDXDXDXDXDXDXDXDXDXDXDXDXDXDXDXDXDXDXDXDXDXDXDXDXDXDXDXDXDXDXDXDXDXDXDXDXDXDXDXDX: FXFX",
"FXFXM.DXDXDXDXDXDXDXDXDXDXDXDXDXDXDXDXDXDXDXDXDXDXDXDXDXDXDXDXDXDXDXDXDXDXDXDXDXDXDXDXDXDXDXDXDXDXDXDXDXDXDXDXDXDXDXDXDXDX: FXFX",
"FXFXc.DXDXDXDXDXDXDXDXDXDXDXDXDXDXDXDXDXDXDXDXDXDXDXDXDXDXDXDXDXDXDXDXDXDXDXDXDXDXDXDXDXDXDXDXDXDXDXDXDXDXDXDXDXDXDXDXDXDX, FXFX",
"FXFXp.DXDXDXDXDXDXDXDXDXDXDXDXDXDXDXDXDXDXDXDXDXDXDXDXDXDXDXDXDXDXDXDXDXDXDXDXDXDXDXDXDXDXDXDXDXDXDXDXDXDXDXDXDXDXDXDXDXfX. FXFX",
"FXFXK DXDXDXDXDXDXDXDXDXDXDXDXDXDXDXDXDXDXDXDXDXDXDXDXDXDXDXDXDXDXDXDXDXDXDXDXDXDXDXDXDXDXDXDXDXDXDXDXDXDXDXDXDXDXDXDXDX`.. FXFX",
"FXFX  H.DXDXDXDXDXDXDXDXDXDXDXDXDXDXDXDXDXDXDXDXDXDXDXDXDXDXDXDXDXDXDXDXDXDXDXDXDXDXDXDXDXDXDXDXDXDXDXDXDXDXDXDXDXDXDXlXK FXFXFX",
"FXFXFX+ H.DXDXDXDXDXDXDXDXDXDXDXDXDXDXDXDXDXDXDXDXDXDXDXDXDXDXDXDXDXDXDXDXDXDXDXDXDXDXDXDXDXDXDXDXDXDXDXDXDXDXDXDXDXuX) FXFXFXFX",
"FXFXFXFX. B <.z.h.z.h.z.h.z.z.h.z.z.h.z.h.z.h.z.h.z.z.h.z.z.h.z.h.z.h.z.h.z.z.h.z.z.h.z.h.z.h.z.h.z.z.h.z.h.h.z.f.o.- FXFXFXFXFX",
"FXFXFXFXFXFXFXFXFXFXFXFXFXFXFXFXFXFXFXFXFXFXFXFXFXFXFXFXFXFXFXFXFXFXFXFXFXFXFXFXFXFXFXFXFXFXFXFXFXFXFXFXFXFXFXFXFXFXFXFXFXFXFXFX",
"FXFXFXFXFXFXFXFXFXFXFXFXFXFXFXFXFXFXFXFXFXFXFXFXFXFXFXFXFXFXFXFXFXFXFXFXFXFXFXFXFXFXFXFXFXFXFXFXFXFXFXFXFXFXFXFXFXFXFXFXFXFXFXFX"
};
