/* XPM */
static const char *tool_vissim_xpm[] = {
/* columns rows colors chars-per-pixel */
"16 16 39 1",
"  c #CE3734",
". c #CE3833",
"X c #CE3834",
"o c #CF3B37",
"O c #CF3C38",
"+ c #CF3D39",
"@ c #CF3D3A",
"# c #CF3F3C",
"$ c #D03E3A",
"% c #D03F3B",
"& c #D0403C",
"* c #D0413D",
"= c #D0413E",
"- c #D1433F",
"; c #D14642",
": c #DF7D7B",
"> c #DF7E7C",
", c #E18481",
"< c #E28A88",
"1 c #E28B88",
"2 c #E79D9B",
"3 c #E79F9D",
"4 c #EAA8A7",
"5 c #EAA9A8",
"6 c #EFC0BF",
"7 c #F0C2C1",
"8 c #F0C3C2",
"9 c #F1C6C5",
"0 c #F1C8C6",
"q c #F2CBCA",
"w c #F3D0CF",
"e c #FBF1F0",
"r c #FCF2F2",
"t c #FDF6F6",
"y c #FDF8F7",
"u c #FEFAFA",
"i c #FEFBFB",
"p c white",
"a c None",
/* pixels */
"aaXXXXX=&XXXXXaa",
"aXXXXX17q<XXXXXa",
"XXXXX@0**6%XXXX.",
"XXXXX+9;;woXXXXX",
"XXXXXX>q8:XXXXXX",
"XXXXXXX#%XXXXXXX",
"XXXXXX,8q,XXXXXX",
"XXXXXOq--8$XXXXX",
"XXXXX$8--qOXXXXX",
"XXXXXX,q8,XXXXXX",
"XXXXXXX&#XXXXXXX",
"XXXXXX5iu2XXXXXX",
"XXXXXoippr+XXXXX",
"XXXXX%yppe@XXXX.",
"aXXXXX4tr3XXXXXa",
"aa.XXXX&=XXXX aa"
};
