/* XPM */
static const char *tool_netdiff_xpm[] = {
/* columns rows colors chars-per-pixel */
"16 16 4 1",
"  c #f0f0f0",
"x c #7f7f7f",
"p c #007f46",
"n c #cc0000",
/* pixels */
"                ",
" xxxxxxxxxx  xx ",
" x           xx ",
" x   pp     x   ",
" x   pp    x  x ",
" x ppppp xx   x ",
" x ppppp xx   x ",
" x   pp x     x ",
" x     x      x ",
" x   xx       x ",
" x   xx nnnnn x ",
"    x   nnnnn x ",
"   x          x ",
" xx           x ",
" xx  xxxxxxxxxx ",
"                "
};
