/* XPM */
static const char *tool_visum_xpm[] = {
/* columns rows colors chars-per-pixel */
"16 16 68 1",
"  c #CE3734",
". c #CE3833",
"X c #CE3834",
"o c #CF3A36",
"O c #CF3B37",
"+ c #CF3D39",
"@ c #CF3F3B",
"# c #D03F3B",
"$ c #D0413E",
"% c #D0423E",
"& c #D1433F",
"* c #D14440",
"= c #D24843",
"- c #D24946",
"; c #D24A46",
": c #D44F4B",
"> c #D3504C",
", c #D55653",
"< c #D75E5B",
"1 c #D8625F",
"2 c #DA6966",
"3 c #DB6C69",
"4 c #DB6E6B",
"5 c #DD7572",
"6 c #DE7674",
"7 c #DE7875",
"8 c #DE7977",
"9 c #E18381",
"0 c #E28885",
"q c #E28886",
"w c #E28987",
"e c #E28B88",
"r c #E38B89",
"t c #E38C8A",
"y c #E38D8B",
"u c #E38E8C",
"i c #E48E8C",
"p c #E4908E",
"a c #E69B99",
"s c #E8A3A1",
"d c #E9A4A3",
"f c #EAAAA8",
"g c #EBAEAD",
"h c #EBAFAD",
"j c #EBAFAE",
"k c #ECB0AF",
"l c #ECB1AF",
"z c #EDB4B2",
"x c #EEBAB9",
"c c #EEBCBB",
"v c #EFBDBB",
"b c #F0C3C2",
"n c #F1C4C3",
"m c #F2CAC9",
"M c #F3CCCB",
"N c #F4D3D2",
"B c #F6D9D8",
"V c #F7DEDE",
"C c #F8E4E3",
"Z c #F9E7E6",
"A c #FCF2F1",
"S c #FCF3F2",
"D c #FDF6F5",
"F c #FDF6F6",
"G c #FDF7F7",
"H c #FFFEFE",
"J c white",
"K c None",
/* pixels */
"KKXXXXXXXXXXXXKK",
"KXXXXXXXXXXXXXXK",
"XXXXX;tkkt;XXXX.",
"XXXXwFJJJJDqXXXX",
"XXXwJJJJJJJJ9XXX",
"XX;FJJJJJCs1OoXX",
"XXyJJJAd<#7i>=XX",
"XXlJSp$4cN2:xgXX",
"XXjm-5VGu%aGJhXX",
"XX6*vJB,3ZJJJeXX",
"XX+fJn*dHJJJD-XX",
"XXX8M&bJJJJJ0XXX",
"XXXX@zJJJJD0XXXX",
"XXXXX-rjje-XXXX.",
"KXXXXXXXXXXXXXXK",
"KK.XXXXXXXXXX KK"
};
