/* XPM */
static const char *uncollapse_xpm[] = {
/* columns rows colors chars-per-pixel */
"16 16 3 1",
"X c #457C20",
"+ c #66FF00",
"@ c None",
/* pixels */
"@@@@@XXXXXX@@@@@",
"@@@@@X++++X@@@@@",
"@@@@@X++++X@@@@@",
"@@@@@X++++X@@@@@",
"@@@@@X++++X@@@@@",
"XXXXXX++++XXXXXX",
"X++++++++++++++X",
"X++++++++++++++X",
"X++++++++++++++X",
"X++++++++++++++X",
"XXXXXX++++XXXXXX",
"@@@@@X++++X@@@@@",
"@@@@@X++++X@@@@@",
"@@@@@X++++X@@@@@",
"@@@@@X++++X@@@@@",
"@@@@@XXXXXX@@@@@"
};
