/* XPM */
static const char *undolist_xpm[] = {
/* columns rows colors chars-per-pixel */
"16 16 24 1",
"  c black",
". c #237733",
"X c None",
"o c #76B648",
"O c #7EBB51",
"+ c #8FC467",
"@ c #94C66C",
"# c #9CCB77",
"$ c #A0CD7C",
"% c #A5D082",
"& c #A9D288",
"* c #ABD38A",
"= c #ACD38C",
"- c #AED58E",
"; c #B5D997",
": c #B6D997",
"> c #B7D99A",
", c #B9DB9A",
"< c #BFDEA2",
"1 c #CBE4B3",
"2 c #D3E8BC",
"3 c #D4E9BE",
"4 c #D5E9C1",
"5 c white",
/* pixels */
"XXXXXX..........",
"XXXXXX.55555555.",
"XXXXXX.55555555.",
"XXXXXX.55.....5.",
"XXX      555555.",
"XX 422223 5...5.",
"X 11111111 5555.",
" <::< <::,< 5.5.",
" >==> >===> 555.",
" ;&&; ;&&&; 5.5.",
" -$$-    $- 555.",
" *########* 5.5.",
" %@@@@@@@@% 555.",
"X OOOOOOOO 5555.",
"XX +oooo+ ......",
"XXX      XXXXXXX"
};
