/* XPM */
static const char *vclass_small_tram_xpm[] = {
/* columns rows colors chars-per-pixel */
"16 16 14 1",
"  c black",
". c #58525F",
"X c #71605B",
"o c #6C6773",
"O c gray48",
"+ c None",
"@ c #FFAD3B",
"# c #FFF200",
"$ c #FFD543",
"% c #898094",
"& c gray58",
"* c #B8B5BB",
"= c #FFEEB5",
"- c white",
/* pixels */
"+++++OOOOOO+++++",
"+++++++O&+++++++",
"+++++++O&+++++++",
"++++=$$$$$@=++++",
"++++$$$$$$$@++++",
"+++%        %+++",
"+++% .....X %+++",
"+++% .....X %+++",
"++++ ..  .X ++++",
"++++        ++++",
"++++###$$##@++++",
"++++--#$$#--++++",
"++++$$$$$$$@++++",
"++++o@@@@@@o++++",
"+++o*++++++*o+++",
"++o*++++++++*o++"
};
