/* XPM */
static const char *vclass_small_bicycle_xpm[] = {
/* columns rows colors chars-per-pixel */
"16 16 75 1",
"R c #947172",
". c #C48278",
"X c #FD977E",
"o c #9F8E93",
"O c #928E98",
"+ c #94909A",
"@ c #96919A",
"# c #97929C",
"$ c #9A969F",
"% c #9B979F",
"& c #BE928E",
"* c #A09096",
"= c #A3979C",
"- c #9C98A1",
"; c #9E9AA3",
": c #A09CA5",
"> c #A09DA5",
", c #A19DA6",
"< c #A89EA5",
"1 c #A4A1A9",
"2 c #A7A2AA",
"3 c #A7A4AC",
"4 c #A8A5AD",
"5 c #ABA8AE",
"6 c #AEAAB2",
"7 c #B0ADB4",
"8 c #B5AFB5",
"9 c #B3B0B7",
"0 c #B6B5BB",
"q c #C98B80",
"w c #C39D9A",
"e c #FFA98B",
"r c #ECAA9B",
"t c #FFA990",
"y c #FFAF96",
"u c #FFB197",
"i c #FCB29F",
"p c #FFB89F",
"a c #C8A9A6",
"s c #D7BBB7",
"d c #FCB2A0",
"f c #FFB9A1",
"g c #FFBAA3",
"h c #FFBDA5",
"j c #F8B9AA",
"k c #FFBEA8",
"l c #FFC0AB",
"z c #FFC5B1",
"x c #FFCCBF",
"c c #FFCEBE",
"v c #BCB9C0",
"b c #C0BDC3",
"n c #C1BFC4",
"m c #C1C0C4",
"M c #C5C2C8",
"N c #C6C4C9",
"B c #C9C7CC",
"V c #CDCACE",
"C c #CCCBCE",
"Z c #D1CFD3",
"A c #D1CFD4",
"S c #D3D0D5",
"D c #D5D4D7",
"F c #DAD8DC",
"G c #DBD9DC",
"H c #DCDBDE",
"J c #E2E0E2",
"K c #E5E5E7",
"L c #E7E6E8",
"P c #E9E7E8",
"I c #E8E8E9",
"U c #EBE9EC",
"Y c #ECECED",
"T c gray96",
"  c None",
/* pixels */
"                ",
"                ",
"                ",
"         CM     ",
"     FS   w     ",
"     8&  he     ",
"  G46Pp fgya2Z  ",
" n3IJqXucj*iY97 ",
" #  zxord<Kl  , ",
" 1 stk.R=;T g 0 ",
" @   U%2:5H   - ",
" Z$ABO    +mD>b ",
"   bN      VvL  ",
"                ",
"                ",
"                "
};
