/* XPM */
static const char *vclass_small_authority_xpm[] = {
/* columns rows colors chars-per-pixel */
"16 16 14 1",
"  c #514B5B",
". c gray44",
"X c #D1371E",
"o c #0166A6",
"O c #7E8585",
"+ c #5EA4C4",
"@ c #98A1A1",
"# c #FF8785",
"$ c #A3D3E8",
"% c #C3C3C3",
"& c #DEEDF4",
"* c #FFE6E6",
"= c #E5F2F2",
"- c None",
/* pixels */
"---*###==+++&---",
"---*XXX%%ooo&---",
"----%%%%%%%%----",
"---..........---",
"--..$$$$$$$$..--",
"--.$$$$$$$$$$.--",
"-..$$$$$$$$$$..-",
"-..............-",
"................",
"..==........==..",
"..==........==..",
"................",
"................",
"OOO@@@@@@@@@@OOO",
"   ----------   ",
"   ----------   "
};
