/* XPM */
static const char *vclass_tram_xpm[] = {
/* columns rows colors chars-per-pixel */
"52 26 256 2 ",
"   c #60575C",
".  c #675E63",
"X  c #625D6A",
"o  c #635E6A",
"O  c #645E6A",
"+  c #6C6468",
"@  c #6F6769",
"#  c #6F6869",
"$  c #6B6673",
"%  c #6E6A76",
"&  c #756C68",
"*  c #786C66",
"=  c #7B6E65",
"-  c #716D79",
";  c #74707B",
":  c #76727E",
">  c #7F7A83",
",  c #8A7862",
"<  c #8D7B61",
"1  c #8F7C61",
"2  c #917D61",
"3  c #927E60",
"4  c #927E61",
"5  c #FF6464",
"6  c #FF7A78",
"7  c #877F80",
"8  c #8F8165",
"9  c #8E8166",
"0  c #9D8D64",
"q  c #A68B5D",
"w  c #A68C5D",
"e  c #A98E5C",
"r  c #BB9A58",
"t  c #BE9C58",
"y  c #A59363",
"u  c #A69463",
"i  c #B29E62",
"p  c #D2AA54",
"a  c #D5AC53",
"s  c #FF9760",
"d  c #E4B54D",
"f  c #FEA554",
"g  c #FEA95E",
"h  c #F3B94F",
"j  c #F1BF4C",
"k  c #F8BC4E",
"l  c #FBBF4D",
"z  c #F9BE4E",
"x  c #FEBC56",
"c  c #DEC25D",
"v  c #E3C65D",
"b  c #E7C95C",
"n  c #E7CA5C",
"m  c #E8CA5C",
"M  c #ECCD5C",
"N  c #EDCE5C",
"B  c #F3C24E",
"V  c #F8C54D",
"C  c #F9C64D",
"Z  c #FDC04D",
"A  c #FEC84B",
"S  c #FDC84C",
"D  c #FECA4C",
"F  c #FECA4D",
"G  c #F1C350",
"H  c #F2C752",
"J  c #F2CE57",
"K  c #FEC557",
"L  c #FECC52",
"P  c #FECE50",
"I  c #F1D15B",
"U  c #F3D259",
"Y  c #F3D35A",
"T  c #F4D35A",
"R  c #FED051",
"E  c #FED152",
"W  c #FED154",
"Q  c #FED454",
"!  c #FDD958",
"~  c #FDDB5A",
"^  c #FCDB5C",
"/  c #FEDC5A",
"(  c #EBD06C",
")  c #ECD06C",
"_  c #FED169",
"`  c #FED67A",
"'  c #FED67B",
"]  c #FED77C",
"[  c #FEE277",
"{  c #8D8991",
"}  c #928F98",
"|  c #94909A",
" . c #9C98A1",
".. c #A19EA6",
"X. c #A6A3A8",
"o. c #A5A2AA",
"O. c #A7A4AC",
"+. c #AAA7AC",
"@. c #B4B2B8",
"#. c #BFBDC2",
"$. c #C2B194",
"%. c #CCBC9D",
"&. c #E0C385",
"*. c #E6D69B",
"=. c #FEC598",
"-. c #F7D89C",
";. c #FEDE96",
":. c #FEE895",
">. c #FEEABB",
",. c #CCCACC",
"<. c #CDCBCD",
"1. c #D3D1D5",
"2. c #DEDDE0",
"3. c #FEC7C5",
"4. c #F9E9C3",
"5. c #FEEBC0",
"6. c #FEF1C0",
"7. c #FEF1D5",
"8. c #FEF2D5",
"9. c #E3E2E4",
"0. c #EDEDEE",
"q. c #FEEEEC",
"w. c #FEF8EA",
"e. c #FEF9EC",
"r. c #F3F2F1",
"t. c #F5F5F6",
"y. c #FEFBF4",
"u. c #FBFBFB",
"i. c #FEFDFB",
"p. c #FEFEFE",
"a. c black",
"s. c black",
"d. c black",
"f. c black",
"g. c black",
"h. c black",
"j. c black",
"k. c black",
"l. c black",
"z. c black",
"x. c black",
"c. c black",
"v. c black",
"b. c black",
"n. c black",
"m. c black",
"M. c black",
"N. c black",
"B. c black",
"V. c black",
"C. c black",
"Z. c black",
"A. c black",
"S. c black",
"D. c black",
"F. c black",
"G. c black",
"H. c black",
"J. c black",
"K. c black",
"L. c black",
"P. c black",
"I. c black",
"U. c black",
"Y. c black",
"T. c black",
"R. c black",
"E. c black",
"W. c black",
"Q. c black",
"!. c black",
"~. c black",
"^. c black",
"/. c black",
"(. c black",
"). c black",
"_. c black",
"`. c black",
"'. c black",
"]. c black",
"[. c black",
"{. c black",
"}. c black",
"|. c black",
" X c black",
".X c black",
"XX c black",
"oX c black",
"OX c black",
"+X c black",
"@X c black",
"#X c black",
"$X c black",
"%X c black",
"&X c black",
"*X c black",
"=X c black",
"-X c black",
";X c black",
":X c black",
">X c black",
",X c black",
"<X c black",
"1X c black",
"2X c black",
"3X c black",
"4X c black",
"5X c black",
"6X c black",
"7X c black",
"8X c black",
"9X c black",
"0X c black",
"qX c black",
"wX c black",
"eX c black",
"rX c black",
"tX c black",
"yX c black",
"uX c black",
"iX c black",
"pX c black",
"aX c black",
"sX c black",
"dX c black",
"fX c black",
"gX c black",
"hX c black",
"jX c black",
"kX c black",
"lX c black",
"zX c black",
"xX c black",
"cX c black",
"vX c black",
"bX c black",
"nX c black",
"mX c black",
"MX c black",
"NX c black",
"BX c black",
"VX c black",
"CX c black",
"ZX c black",
"AX c black",
"SX c black",
"DX c black",
"FX c black",
"GX c black",
"HX c black",
"JX c black",
"KX c black",
"LX c black",
"PX c black",
"IX c black",
"UX c black",
/* pixels */
"p.p.p.p.p.p.p.p.p.p.p.p.p.p.p.p.p.p.p.p.p.p.p.p.p.2.2.p.p.p.p.p.p.p.p.p.p.p.p.p.p.p.p.p.p.p.p.p.p.p.p.p.",
"p.p.p.p.p.p.p.p.p.p.p.p.p.p.p.p.p.p.p.p.p.p.p.p.w.$.$.w.p.p.p.p.p.p.p.p.p.p.p.p.p.p.p.p.p.p.p.p.p.p.p.p.",
"p.p.p.p.p.p.p.p.p.p.p.p.p.p.p.p.p.p.p.p.p.p.w.;._ %.%._ ;.w.p.p.p.p.p.p.p.p.p.p.p.p.p.p.p.p.p.p.p.p.p.p.",
"p.p.p.p.p.p.p.p.p.p.p.p.p.p.p.p.p.p.p.p.w.;._ >.i.p.p.i.>._ ;.w.p.p.p.p.p.p.p.p.p.p.p.p.p.p.p.p.p.p.p.p.",
"p.p.p.p.p.p.p.p.p.p.p.p.p.p.p.p.p.p.y.;._ >.i.p.p.p.p.p.p.i.>._ ;.y.p.p.p.p.p.p.p.p.p.p.p.p.p.p.p.p.p.p.",
"p.p.p.p.p.p.p.p.p.p.p.p.p.p.p.p.p.p.e.' ` 8.p.p.p.p.p.p.p.p.8.` ' e.p.p.p.p.p.p.p.p.p.p.p.p.p.p.p.p.p.p.",
"p.p.p.p.p.p.p.p.p.p.p.p.p.p.p.p.p.p.p.p.7.' ] 8.p.p.p.p.8.] ' 7.p.p.p.p.p.p.p.p.p.p.p.p.p.p.p.p.p.p.p.p.",
"p.p.p.p.p.p.p.p.p.p.p.p.p.p.p.p.p.p.p.p.p.p.7.' &.,.,.&.' 7.p.p.p.p.p.p.p.p.p.p.p.p.p.p.p.p.p.p.p.p.p.p.",
"p.p.p.t.1.1.1.1.1.1.1.1.1.1.1.1.1.1.1.1.1.1.1.1.{ - - { 1.1.1.1.1.1.1.1.1.1.1.1.1.1.1.1.1.1.1.1.t.p.p.p.",
"p.6.:.*.O.O.O.O.O.O.O.O.O.O.O.O.O.O.O.O.O.O.O.O. .| |  .O.O.O.O.O.O.O.O.O.O.O.O.O.O.O.O.O.O.O.O.*.:.6.p.",
"p.[ / ^ ) ( ( ( ( ( ( ( ( ( ( ( ( ( ( ( ( ( ( ( ( ( ( ( ( ( ( ( ( ( ( ( ( ( ( ( ( ( ( ( ( ( ( ) ^ / [ p.",
"p.4.B C S F F F F F S C B B V S B B B B B C S D F F F F D S C B B C S B B B B B C S F F F F F S C B 4.p.",
"p.X.X 2 P I c ~ v M E e X X = a X X X X X 4 A ! c I I c ! A 4 X X 3 t X X X X X e E M v ~ c I P 2 X X.p.",
"p.> X < R u X n O 8 Q w X X * p X X X X X < A m X u u X m A < X X 1 r X X X X X q Q 8 O n X u R < X > p.",
"r.o X < R u X b o 9 Q w X X * p X X X X X < A m X y y X m A < X X 1 r X X X X X q Q 9 o b X u R < X o r.",
"<.X X < R u X b o 9 Q w X X * p X X X X X < A m X y y X m A < X X 1 r X X X X X q Q 9 o b X u R < X X <.",
"+.X X 2 R u X b o 9 Q e X X = a X X X X X 4 A m X y y X m A 3 X X 3 t X X X X X e Q 9 o b X u R 2 X X +.",
"-.h h z L i @ N & 0 W l h h k Z h h h h h z Z N # i i # N Z z h h z Z h h h h h l W 0 & N @ i L z h h -.",
"3.5 5 5 s / / / / / g 5 5 5 5 5 5 5 5 5 5 5 5 / / / / / / 5 5 5 5 5 5 5 5 5 5 5 5 g / / / / / s 5 5 5 3.",
"q.5 5 5 s / / / / / g 5 5 5 5 5 5 5 5 5 5 5 5 / / / / / / 5 5 5 5 5 5 5 5 5 5 5 5 g / / / / / s 5 5 5 q.",
"p.6 5 5 s / / / / / g 5 5 5 5 5 5 5 5 5 5 5 5 / / / / / / 5 5 5 5 5 5 5 5 5 5 5 5 g / / / / / s 5 5 6 p.",
"p.=.f f x / / / / / K f f f f f f f f f f f f / / / / / / f f f f f f f f f f f f K / / / / / x f f =.p.",
"p.5.A A R / / / / / Q A A A A A A A A A A A A / / / / / / A A A A A A A A A A A A Q / / / / / R A A 5.p.",
"p.7 d j G U T T T Y H , + +       . + + a j j J T T T T J j j a + + .       + + , H Y T T T U G j d 7 p.",
"p.} : : : : : : : : : X X $ : : : ; X X % : : : : : : : : : : % X X ; : : : $ X X : : : : : : : : : } p.",
"p.p.p.p.p.p.p.p.p.p.p.#...9.p.p.p.u.@.o.0.p.p.p.p.p.p.p.p.p.p.0.o.@.u.p.p.p.9...#.p.p.p.p.p.p.p.p.p.p.p."
};
