/* XPM */
static const char *vshape_rickshaw_xpm[] = {
/* columns rows colors chars-per-pixel */
"64 32 5 1 ",
"  c #B3B300",
". c #B4B400",
"X c #FCFC00",
"o c yellow",
"O c None",
/* pixels */
"OOOOOOOOOOOOOOOOOOOOOOOOOOOOOO     OOOOOOOOOOOOOOOOOOOOOOOOOOOOO",
"OOOOOOOOOOOOOOOOOOOOOOOOO .             OOOOOOOOOOOOOOOOOOOOOOOO",
"OOOOOOOOOOOOOOOOOOOO .                    . OOOOOOOOOOOOOOOOOOOO",
"OOOOOOOOOOOOOOOOOO                            OOOOOOOOOOOOOOOOOO",
"OOOOOOOOOOOOOOOOOO                            OOOOOOOOOOOOOOOOOO",
"OOOOOOOOOOOOOOOOOO                            OOOOOOOOOOOOOOOOOO",
"OOOOOOooooooooooooooooooooooooooooooooooooooooXoooOOOOOOOOOOOOOO",
"OOOOOoooooooooooooooooooooooooooooooooooooooooooooooooooOOOOOOOO",
"OOOOoooooooooooooooooooooooooooooooooooooooooooooooooooooOOOOOOO",
"OOOOoooooooooooooooooooooooooooooooooooooooooooooooooooooooOOOOO",
"OOOOooooooooooooooooooooooooooooooooooooooooooooooooooooooooOOOO",
"OOOOooooooooooooooooooooooooooooooooooooooooooooooooooooooooOOOO",
"OOOOooooooooooooooooooooooooooooooooooooooooooooooooooooooooOOOO",
"OOOOooooooooooooooooooooooooooooooooooooooooooooooooooooooooOOOO",
"OOOOooooooooooooooooooooooooooooooooooooooooooooooooooooooooOOOO",
"OOOOooooooooooooooooooooooooooooooooooooooooooooooooooooooooOOOO",
"OOOOooooooooooooooooooooooooooooooooooooooooooooooooooooooooOOOO",
"OOOOooooooooooooooooooooooooooooooooooooooooooooooooooooooooOOOO",
"OOOOooooooooooooooooooooooooooooooooooooooooooooooooooooooooOOOO",
"OOOOooooooooooooooooooooooooooooooooooooooooooooooooooooooooOOOO",
"OOOOooooooooooooooooooooooooooooooooooooooooooooooooooooooooOOOO",
"OOOOooooooooooooooooooooooooooooooooooooooooooooooooooooooooOOOO",
"OOOOoooooooooooooooooooooooooooooooooooooooooooooooooooooooOOOOO",
"OOOOoooooooooooooooooooooooooooooooooooooooooooooooooooooOOOOOOO",
"OOOOOoooooooooooooooooooooooooooooooooooooooooooooooooooOOOOOOOO",
"OOOOOOooooooooooooooooooooooooooooooooooooooooXoooOOOOOOOOOOOOOO",
"OOOOOOOOOOOOOOOOOO                            OOOOOOOOOOOOOOOOOO",
"OOOOOOOOOOOOOOOOOO                            OOOOOOOOOOOOOOOOOO",
"OOOOOOOOOOOOOOOOOO                            OOOOOOOOOOOOOOOOOO",
"OOOOOOOOOOOOOOOOOOOO .                    . OOOOOOOOOOOOOOOOOOOO",
"OOOOOOOOOOOOOOOOOOOOOOOOO .             OOOOOOOOOOOOOOOOOOOOOOOO",
"OOOOOOOOOOOOOOOOOOOOOOOOOOOOOO.  .OOOOOOOOOOOOOOOOOOOOOOOOOOOOOO"
};
