/* XPM */
static const char *vshape_firebrigade_xpm[] = {
/* columns rows colors chars-per-pixel */
"64 32 64 1 ",
"  c black",
". c #030000",
"X c #040000",
"o c #060606",
"O c #110000",
"+ c #1D0000",
"@ c gray8",
"# c #220000",
"$ c #260000",
"% c #330000",
"& c #350000",
"* c #202020",
"= c #2A2A2A",
"- c #510000",
"; c #520000",
": c #770000",
"> c #555555",
", c gray36",
"< c #606060",
"1 c #616060",
"2 c gray50",
"3 c #870000",
"4 c #890000",
"5 c #8A0000",
"6 c #980000",
"7 c #B60000",
"8 c #BB0000",
"9 c #C00000",
"0 c #C10000",
"q c #C40000",
"w c #DE0000",
"e c #EC0000",
"r c #F40000",
"t c #F50000",
"y c red",
"u c #FF0202",
"i c #FF0303",
"p c #EA1414",
"a c #FF1F1F",
"s c #FF2500",
"d c #FF2A00",
"f c #FF2121",
"g c #FF2323",
"h c #FF3030",
"j c #FF3333",
"k c #FF5B00",
"l c #FF7F00",
"z c #EA7F14",
"x c #A95555",
"c c #A35C5C",
"v c #A96355",
"b c #A3685C",
"n c #A97F55",
"m c #A37F5C",
"M c #866060",
"N c #9E6060",
"B c #9E6A60",
"V c #9E7F60",
"C c #8B7272",
"Z c #FF4343",
"A c #FF4646",
"S c #FF4747",
"D c #FF4C4C",
"F c None",
/* pixels */
"FFFFFFFFFFFFFFFFFFFFFFFFFFFFFFFFFFFFFFFFFFFFFFFFFFFFFFFFFFFFFFFF",
"FFFFFFFFFFFFFFFFFFFFFFFFFFFFFFFFFFFFFFFFFFFFFFFFFFFFFFFFFFFFFFFF",
"FFFFFFFFFFFFFFFFFFFFFFFFFFFFFFFFFFFFFFFFFFFFFFFFFFFFFFFFFFFFFFFF",
"FFFFFFFFFFFFFFFFFFFFFFFFFFFFFFFFFFFFFFFFFFFFFFFFFFFFFFFFFFFFFFFF",
"FFFFFFFFFFFFFFFFFFFFFFFFFFFFFFFFFFFFFFFFFFFFFFFFFFFFFFFFFFFFFFFF",
"FFFFFFFFFFFFFFFFFFFFFFFFFFFFFFFFFFFFFFFFFFFFFFFFFFFFFFFFFFFFFFFF",
"FFFFFFFFFFFFyyyykkkkkkkkkkkkkkkkkkkkksyyyyyyyyyyyyyyyyyyyyyFFFFF",
"FFFFFFFFFFFyyyyyllllllllllllllllllllldyyyyy8       X&eyyyyyyyyFF",
"FFFFFFFFFFFyyyyyllllllllllllllllllllldyyyyyq###$;50ryw67yaiyyyyy",
"FFFFFFFFFFFyyyyyllllllllllllllllllllldyyyyyyyyyyyt8:%  3ySAguyyy",
"2222222222CNNNNNVVVVVVVVVVVVVVVVVVVVVBNNNNNNNNNNM1<<<* 3ySDDZfuy",
"22222222222222222222222222222222222222222222222222222= 3ySDDDDhy",
"FFF22FFFFFFppc22zzzzzzzz22mzzzzzzzzzzb22pppppppp22,@@o 3ySDDDDjy",
"FFF22FFFFFFyyx22llllllll22nllllllllllv22yyyyyyyy22>    3ySDDDDjy",
"FFF22FFFFFFyyx22llllllll22nllllllllllv22yyyyyyyy22>    3ySDDDDjy",
"FFF22FFFFFFyyx22llllllll22nllllllllllv22yyyyyyyy22>    3ySDDDDjy",
"FFF22FFFFFFyyx22llllllll22nllllllllllv22yyyyyyyy22>    3ySDDDDjy",
"FFF22FFFFFFyyx22llllllll22nllllllllllv22yyyyyyyy22>    3ySDDDDjy",
"FFF22FFFFFFyyx22llllllll22nllllllllllv22yyyyyyyy22>    3ySDDDDjy",
"FFF22FFFFFFppc22zzzzzzzz22mzzzzzzzzzzb22pppppppp22,@@o 3ySDDDDjy",
"22222222222222222222222222222222222222222222222222222= 3ySDDDDhy",
"2222222222CNNNNNVVVVVVVVVVVVVVVVVVVVVBNNNNNNNNNNM1<<<* 3ySDDZfuy",
"FFFFFFFFFFFyyyyyllllllllllllllllllllldyyyyyyyyyyyt8:%  3ySAguyyy",
"FFFFFFFFFFFyyyyyllllllllllllllllllllldyyyyy9OOO+-49ryw67yaiyyyyy",
"FFFFFFFFFFFyyyyyllllllllllllllllllllldyyyyy8       .&eyyyyyyyyFF",
"FFFFFFFFFFFFyyyykkkkkkkkkkkkkkkkkkkkksyyyyyyyyyyyyyyyyyyyyyFFFFF",
"FFFFFFFFFFFFFFFFFFFFFFFFFFFFFFFFFFFFFFFFFFFFFFFFFFFFFFFFFFFFFFFF",
"FFFFFFFFFFFFFFFFFFFFFFFFFFFFFFFFFFFFFFFFFFFFFFFFFFFFFFFFFFFFFFFF",
"FFFFFFFFFFFFFFFFFFFFFFFFFFFFFFFFFFFFFFFFFFFFFFFFFFFFFFFFFFFFFFFF",
"FFFFFFFFFFFFFFFFFFFFFFFFFFFFFFFFFFFFFFFFFFFFFFFFFFFFFFFFFFFFFFFF",
"FFFFFFFFFFFFFFFFFFFFFFFFFFFFFFFFFFFFFFFFFFFFFFFFFFFFFFFFFFFFFFFF",
"FFFFFFFFFFFFFFFFFFFFFFFFFFFFFFFFFFFFFFFFFFFFFFFFFFFFFFFFFFFFFFFF"
};
