/* XPM */
static const char *vshape_pedestrian_xpm[] = {
/* columns rows colors chars-per-pixel */
"64 32 26 1 ",
"  c blue",
". c #0202FF",
"X c #0303FF",
"o c #0404FF",
"O c #0909FF",
"+ c #0A0AFF",
"@ c #0F0FFF",
"# c #1111FF",
"$ c #1212FF",
"% c #1515FF",
"& c #1717FF",
"* c #1B1BFF",
"= c #1C1CFF",
"- c #2121FF",
"; c #2626FF",
": c #2B2BFF",
"> c #2C2CFF",
", c #2E2EFF",
"< c #3A3AFF",
"1 c #3E3EFF",
"2 c #4444FF",
"3 c #4848FF",
"4 c #4B4BFF",
"5 c #4C4CFF",
"6 c #4D4DFF",
"7 c None",
/* pixels */
"7777777777777777777777777777777477777777777777777777777777777777",
"7777777777777777777777777777775547777777777777777777777777777777",
"7777777777777777777777777777755556777777777777777777777777777777",
"7777777777777777777777777777555555577777777777777777777777777777",
"7777777777777777777777777775555555567777777777777777777777777777",
"7777777777777777777777777775555555567777777777777777777777777777",
"7777777777777777777777777755555555557777777777777777777777777777",
"7777777777777777777777777755555555557777777777777777777777777777",
"777777777777777777777777775551=O;3555777777777777777777777777777",
"777777777777777777777777775<&    o-25777777777777777777777777777",
"77777777777777777777777777$        .,777777777777777777777777777",
"7777777777777777777777777>          @777777777777777777777777777",
"7777777777777777777777777%           777777777777777777777777777",
"7777777777777777777777777X           #77777777777777777777777777",
"7777777777777777777777777            o77777777777777777777777777",
"777777777777777777777777X              7777777777777777777777777",
"777777777777777777777777X              7777777777777777777777777",
"7777777777777777777777777            o77777777777777777777777777",
"7777777777777777777777777X           #77777777777777777777777777",
"7777777777777777777777777%           777777777777777777777777777",
"7777777777777777777777777>          @777777777777777777777777777",
"77777777777777777777777777$        .,777777777777777777777777777",
"777777777777777777777777775<&    o-25777777777777777777777777777",
"777777777777777777777777775551*+:3555777777777777777777777777777",
"7777777777777777777777777755555555557777777777777777777777777777",
"7777777777777777777777777755555555557777777777777777777777777777",
"7777777777777777777777777775555555567777777777777777777777777777",
"7777777777777777777777777775555555567777777777777777777777777777",
"7777777777777777777777777777555555577777777777777777777777777777",
"7777777777777777777777777777755556777777777777777777777777777777",
"7777777777777777777777777777775547777777777777777777777777777777",
"7777777777777777777777777777777577777777777777777777777777777777"
};
