/* XPM */
static const char *vshape_emergency_xpm[] = {
/* columns rows colors chars-per-pixel */
"64 32 120 2",
"  	c None",
". 	c #FFFFFF",
"+ 	c #9BC9B0",
"@ 	c #6FB18C",
"# 	c #7AB593",
"$ 	c #81BA9A",
"% 	c #2D8C56",
"& 	c #2E8C56",
"* 	c #2F8D58",
"= 	c #808080",
"- 	c #3C3C3C",
"; 	c #4A4A4A",
"> 	c #535353",
", 	c #595959",
"' 	c #5C5C5C",
") 	c #5A5A5A",
"! 	c #565656",
"~ 	c #4D4D4D",
"{ 	c #414141",
"] 	c #252525",
"^ 	c #262626",
"/ 	c #F3F3F3",
"( 	c #79B593",
"_ 	c #2E8D57",
": 	c #ADADAD",
"< 	c #000000",
"[ 	c #050505",
"} 	c #1D1D1D",
"| 	c #303030",
"1 	c #3D3D3D",
"2 	c #474747",
"3 	c #787878",
"4 	c #D1D1D1",
"5 	c #E7E7E7",
"6 	c #FDFDFD",
"7 	c #74B390",
"8 	c #2F8D57",
"9 	c #2E8D56",
"0 	c #D9D9D9",
"a 	c #919191",
"b 	c #969696",
"c 	c #939393",
"d 	c #898989",
"e 	c #B5B5B5",
"f 	c #F7F7F7",
"g 	c #F5F5F5",
"h 	c #AFAFAF",
"i 	c #6A6A6A",
"j 	c #2A2A2A",
"k 	c #5E5E5E",
"l 	c #EFEFEF",
"m 	c #D5D5D5",
"n 	c #EEEEEE",
"o 	c #D4D4D4",
"p 	c #868686",
"q 	c #373737",
"r 	c #060606",
"s 	c #CFCFCF",
"t 	c #CCCCCC",
"u 	c #F1F1F1",
"v 	c #74B38F",
"w 	c #FCFDFD",
"x 	c #F9FCFB",
"y 	c #F8FBFA",
"z 	c #B0D4C0",
"A 	c #838383",
"B 	c #010101",
"C 	c #383838",
"D 	c #EDEDED",
"E 	c #D6D6D6",
"F 	c #D8D8D8",
"G 	c #F2F2F2",
"H 	c #B3D5C1",
"I 	c #6F6F6F",
"J 	c #CECECE",
"K 	c #CCE3D6",
"L 	c #717171",
"M 	c #030303",
"N 	c #D7D7D7",
"O 	c #EAEAEA",
"P 	c #CDE3D7",
"Q 	c #2E8C57",
"R 	c #D2D2D2",
"S 	c #3B9461",
"T 	c #73B28E",
"U 	c #A6CEB7",
"V 	c #FEFFFF",
"W 	c #FCFDFC",
"X 	c #E1EFE7",
"Y 	c #84BC9C",
"Z 	c #72B28E",
"` 	c #55A277",
" .	c #57A378",
"..	c #FEFEFE",
"+.	c #FBFDFB",
"@.	c #ABD1BB",
"#.	c #CDCDCD",
"$.	c #FBFDFC",
"%.	c #FDFEFE",
"&.	c #FDFEFD",
"*.	c #F8FBF9",
"=.	c #F6FAF8",
"-.	c #FBFDFD",
";.	c #020202",
">.	c #3B9462",
",.	c #6FB08B",
"'.	c #74B28F",
").	c #BCDAC9",
"!.	c #DEECE4",
"~.	c #308D58",
"{.	c #FBFCFB",
"].	c #6EAF8A",
"^.	c #F1F7F4",
"/.	c #C2DECE",
"(.	c #333333",
"_.	c #5D5D5D",
":.	c #F0F0F0",
"<.	c #E6E6E6",
"[.	c #318D59",
"}.	c #A4CCB4",
"                                                                                                                                ",
"                                                                                                                                ",
"                                                                                                                                ",
"                                                                                                                                ",
"      . . . + @ @ @ @ @ @ @ @ @ @ @ @ @ @ @ @ @ @ @ @ @ @ @ @ # . . . . . . . . . . . . . . . . . . . . . . . . .               ",
". . . . . . $ % % % % % % % % % % % % % % % % % % % % % % % & * . . . . . . . = - ; > , ' ) ! ~ { ] ^ / . . . . . . . . .       ",
". . . . . . ( % % % % % % % % % % % % % % % % % % % % % % _ * % . . . . . . . : < < < [ } | | 1 2 3 4 . . 5 . 6 . . . . . . .   ",
". . . . . . 7 % % % % % % % % % % % % % % % % % % % % % 8 9 % % . . . . . . . 0 a b c d a e f . . g h i j k . l m n . . . . . . ",
". . . . . . $ % % % % % % % % % % % % % % % % % % % % % % % % % . . . . . . . . . . . . . . o p q r < < < ! . l s t m u . . . . ",
". . . . . . $ % % % % % % % % % v w x y . z % % % % % % % % % % . . . . . . . . . . . . . A B < < < < < < C . D E t t t F G . . ",
". . . . . . $ % % % % % % % % % ( . . . . H % % % % % % % % % % . . . . . . . . . . . . . I < < < < < < < 1 . l 0 t t t t J n . ",
". . . . . . $ % % % % % % % % % ( . . . . K % % % % % % % % % % . . . . . . . . . . . . . L M < < < < B < 1 . l N t t t t t O . ",
". . . . . . $ % % % % % % % % % ( . . . . P % Q % % % % % % % % . . . . . . . . . . . . . i < M < < < < < 1 . l R t t t t t O . ",
". . . . . . $ % % % % % S T T T U . . V W X Y T Z ` % % % % % % . . . . . . . . . . . . . L < < < B < < < 1 . l t t t t t t O . ",
". . . . . . $ % % % % %  .. . . . . . . . . . ..+.@.% % % % % % . . . . . . . . . . . . . L < < < < B < < 1 . l t t t #.t t O . ",
". . . . . . $ % % % % %  .. . . . . . $.. . . . . @.% % % % % % . . . . . . . . . . . . . L < < < < < < < 1 . l t #.#.t t t O . ",
". . . . . . $ % % % % %  .. . . %.. ... . . . . . @.% % % % % % . . . . . . . . . . . . . L < < < B < < < 1 . l t #.t t t t O . ",
". . . . . . $ % % % % %  .&.*.=.-.. . . . . . . . @.% % % % % % . . . . . . . . . . . . . L < < < < ;.< < 1 . l t t t #.t t O . ",
". . . . . . $ % % % % % >.,.T '.).. . . . !.T T T  .% % % % % % . . . . . . . . . . . . . L < < < B < < < 1 . l t t t #.t t O . ",
". . . . . . $ % % % % % % % % ~.( $.&.. . P % % % % % % % % % % . . . . . . . . . . . . . i < < < < < < < 1 . l 4 t t t t t O . ",
". . . . . . $ % % % % % % % % % ( $.. . . P % % % % % % % % % % . . . . . . . . . . . . . L M < < < < < < 1 . l N t t t t t O . ",
". . . . . . $ % % % % % % % % % ( {.. . . P % % % % % % % % % % . . . . . . . . . . . . . I < < < < < < < 1 . l 0 t t t t J l . ",
". . . . . . $ % % % % % 8 % % % ].^.^.^.^./.% % % % % % % % % % . . . . . . . . . . . . . A ;.< < < < < < C . D E t t t F G . . ",
". . . . . . $ % % % % % % % % % % % % % % % % % % % % % % % % % . . . . . . . . . . . . . . o p q r < < < ! . n J t m u . . . . ",
". . . . . . 7 % % % % % % % % % % % % % % % % % % % % % % % % % . . . . . . . 0 a b c d a e f . . g h i (._.. :.N :.. . . . . . ",
". . . . . . ( % % % % % % % % % % % % % % % % % % % % % % % % % . . . . . . . : < < < [ } | | 1 2 3 4 . . <.. 6 . . . . . . .   ",
". . . . . . $ [.Q % % % % % % % % % % % % % % % % % % % % % % % . . . . . . . = - ; > , ' ) ! ~ { ] ^ / . . . . . . . . .       ",
"      . . . }.@ @ @ @ @ @ @ @ @ @ @ @ @ @ @ @ @ @ @ @ @ @ @ @ @ . . . . . . . . . . . . . . . . . . . . . . . . .               ",
"                                                                                                                                ",
"                                                                                                                                ",
"                                                                                                                                ",
"                                                                                                                                "
};
