/* XPM */
static const char *vshape_bus_xpm[] = {
/* columns rows colors chars-per-pixel */
"64 32 14 1 ",
"  c #131300",
". c #5B5B00",
"X c #939300",
"o c #9C9C00",
"O c #A3A300",
"+ c #B7B700",
"@ c #B8B800",
"# c #CACA00",
"$ c #DADA00",
"% c #E6E600",
"& c #E9E900",
"* c #EBEB00",
"= c yellow",
"- c None",
/* pixels */
"----------------------------------------------------------------",
"----------------------------------------------------------------",
"----------------------------------------------------------------",
"----------------------------------------------------------------",
"-=#XXXXXXXXXXXXXXXXXXXXXXXXXXXXXXXXXXXXXXXXXXXXXXXXXXXXXXXXXX#&-",
"$%@..........................................................+ o",
"O+============================================================ O",
"O+============================================================ O",
"O+============================================================ O",
"O+============================================================ O",
"O+============================================================ O",
"O+============================================================ O",
"O+============================================================ O",
"O+============================================================ O",
"O+============================================================ O",
"O+============================================================ O",
"O+============================================================ O",
"O+============================================================ O",
"O+============================================================ O",
"O+============================================================ O",
"O+============================================================ O",
"O+============================================================ O",
"O+============================================================ O",
"O+============================================================ O",
"O+============================================================ O",
"O+============================================================ O",
"$%@..........................................................+ o",
"-=#XXXXXXXXXXXXXXXXXXXXXXXXXXXXXXXXXXXXXXXXXXXXXXXXXXXXXXXXXX#*-",
"----------------------------------------------------------------",
"----------------------------------------------------------------",
"----------------------------------------------------------------",
"----------------------------------------------------------------"
};
