/* XPM */
static const char *vshape_police_xpm[] = {
/* columns rows colors chars-per-pixel */
"64 32 47 1 ",
"  c black",
". c #000007",
"X c #000033",
"o c #000044",
"O c #000077",
"+ c #00007B",
"@ c #00007E",
"# c gray50",
"$ c #000090",
"% c #0000BB",
"& c #777788",
"* c #666699",
"= c #5454AA",
"- c #5555AA",
"; c #5151AD",
": c #4D4DB2",
"> c #0000DD",
", c #3A3AC5",
"< c #3333CB",
"1 c #3636C8",
"2 c #2525DA",
"3 c #0000EB",
"4 c #1E1EE0",
"5 c #1414EA",
"6 c #0000F5",
"7 c #0808F6",
"8 c blue",
"9 c #0101FF",
"0 c #0404FF",
"q c #0606FF",
"w c #0D0DFF",
"e c #0F0FFF",
"r c #1515FF",
"t c #1717FF",
"y c #1818FF",
"u c #1E1EFF",
"i c #1F1FFF",
"p c #2121FF",
"a c #2929FF",
"s c #3030FF",
"d c #3A3AFF",
"f c #3F3FFF",
"g c #4242FF",
"h c #4848FF",
"j c #4B4BFF",
"k c #4C4CFF",
"l c None",
/* pixels */
"llllllllllllllllllllllllllllllllllllllllllllllllllllllllllllllll",
"llllllllllllllllllllllllllllllllllllllllllllllllllllllllllllllll",
"llllllllllllllllllllllllllllllllllllllllllllllllllllllllllllllll",
"llllllllllllllllllllllllllllllllllllllllllllllllllllllllllllllll",
"lll888,=========================8888888888888888llllllllllllllll",
"ll8888:#########################888888888888888888888888llllllll",
"888888:#########################8888888888883800888888888888llll",
"888888:#########################888888886%OXX8rjfspe9888888888ll",
"888888:#########################88888>$o.   X8rkkkkkhdatq888888l",
"888888:#########=77772##########8888@       X8rkkkkkkkkkkgspe988",
"888888:#########;88884##########8888+       X8rkkkkkkkkkkkkkkhy8",
"888888:#########;88884##########8888+       X8rkkkkkkkkkkkkkkki8",
"888888:#########;88884##########8888+       X8rkkkkkkkkkkkkkkki8",
"888888:#####&---188885---*######8888+       X8rkkkkkkkkkkkkkkki8",
"888888:#####*888888888888<######8888+       X8rkkkkkkkkkkkkkkki8",
"888888:#####*888888888888<######8888+       X8rkkkkkkkkkkkkkkki8",
"888888:#####*888888888888<######8888+       X8rkkkkkkkkkkkkkkki8",
"888888:#####*888888888888<######8888+       X8rkkkkkkkkkkkkkkki8",
"888888:#####&---188885---*######8888+       X8rkkkkkkkkkkkkkkki8",
"888888:#########;88884##########8888+       X8rkkkkkkkkkkkkkkki8",
"888888:#########;88884##########8888+       X8rkkkkkkkkkkkkkkki8",
"888888:#########;88884##########8888+       X8rkkkkkkkkkkkkkkhy8",
"888888:#########=77772##########8888@       X8rkkkkkkkkkkgspe988",
"888888:#########################88888>$o.   X8rkkkkkhdatq888888l",
"888888:#########################888888886%OXX8rjfsuw9888888888ll",
"888888:#########################8888888888883800888888888888llll",
"ll8888:#########################888888888888888888888888llllllll",
"lll888,=========================8888888888888888llllllllllllllll",
"llllllllllllllllllllllllllllllllllllllllllllllllllllllllllllllll",
"llllllllllllllllllllllllllllllllllllllllllllllllllllllllllllllll",
"llllllllllllllllllllllllllllllllllllllllllllllllllllllllllllllll",
"llllllllllllllllllllllllllllllllllllllllllllllllllllllllllllllll"
};
