/* XPM */
static const char *vshape_delivery_xpm[] = {
/* columns rows colors chars-per-pixel */
"64 32 44 1 ",
"  c black",
". c #070700",
"X c #0A0A00",
"o c #2A2A00",
"O c #333300",
"+ c #3D3D00",
"@ c #444400",
"# c #4C4C00",
"$ c #717100",
"% c #737300",
"& c #747400",
"* c #777700",
"= c #888800",
"- c #989800",
"; c #ABAB00",
": c #ACAC00",
"> c #ADAD00",
", c #BBBB00",
"< c #BEBE00",
"1 c #CFCF00",
"2 c #D4D400",
"3 c #D9D900",
"4 c #E7E700",
"5 c #EBEB00",
"6 c #F5F500",
"7 c #F8F800",
"8 c #F9F900",
"9 c #FBFB00",
"0 c yellow",
"q c #FFFF06",
"w c #FFFF25",
"e c #FFFF26",
"r c #FFFF28",
"t c #FFFF2E",
"y c #FFFF31",
"u c #FFFF33",
"i c #FFFF35",
"p c #FFFF3E",
"a c #FFFF76",
"s c #FFFF77",
"d c #FFFF78",
"f c #FFFF7D",
"g c #FFFF99",
"h c None",
/* pixels */
"hhhhhhhhhhhhhhhhhhhhhhhhhhhhhhhhhhhhhhhhhhhhhhhhhhhhhhhhhhhhhhhh",
"hhhhhhhhhhhhhhhhhhhhhhhhhhhhhhhhhhhhhhhhhhhhhhhhhhhhhhhhhhhhhhhh",
"hhhhhhhhhhhhhhhhhhhhhhhhhhhhhhhhhhhhhhhhhhhhhhhhhhhhhhhhhhhhhhhh",
"hhhhhhhhhhhhhhhhhhhhhhhhhhhhhhhhhhhhhhhhhhhhhhhhhhhhhhhhhhhhhhhh",
"hh0000000000000000000000000000000000000000000000000000000hhhhhhh",
"000000000000000000000000000000000000000<OOOOOOOOOO#700000000hhhh",
"000000000000000000000000000000000000000>      X+%;40050q0000000h",
"0000000000000000000000000000000000000003====-19006,*o+0yfu000000",
"00000000000000000000000000000000000000000000002=@.   +0yggsr0000",
"000000000000000000000000000000000000000000000&       +0yggggae00",
"000000000000000000000000000000000000000000000$       +0yggggggi0",
"000000000000000000000000000000000000000000000$       +0yggggggp0",
"000000000000000000000000000000000000000000000$       +0yggggggp0",
"000000000000000000000000000000000000000000000$       +0yggggggp0",
"000000000000000000000000000000000000000000000$       +0yggggggp0",
"000000000000000000000000000000000000000000000$       +0yggggggp0",
"000000000000000000000000000000000000000000000$       +0yggggggp0",
"000000000000000000000000000000000000000000000$       +0yggggggp0",
"000000000000000000000000000000000000000000000$       +0yggggggp0",
"000000000000000000000000000000000000000000000$       +0yggggggp0",
"000000000000000000000000000000000000000000000$       +0yggggggp0",
"000000000000000000000000000000000000000000000$       +0yggggggi0",
"000000000000000000000000000000000000000000000&       +0yggggaw00",
"00000000000000000000000000000000000000000000002=@.   +0yggar0000",
"0000000000000000000000000000000000000003====-19006,*O+0ydt000000",
"000000000000000000000000000000000000000>      X+&:40050q0000000h",
"000000000000000000000000000000000000000<OOOOOOOOOO#800000000hhhh",
"hh0000000000000000000000000000000000000000000000000000000hhhhhhh",
"hhhhhhhhhhhhhhhhhhhhhhhhhhhhhhhhhhhhhhhhhhhhhhhhhhhhhhhhhhhhhhhh",
"hhhhhhhhhhhhhhhhhhhhhhhhhhhhhhhhhhhhhhhhhhhhhhhhhhhhhhhhhhhhhhhh",
"hhhhhhhhhhhhhhhhhhhhhhhhhhhhhhhhhhhhhhhhhhhhhhhhhhhhhhhhhhhhhhhh",
"hhhhhhhhhhhhhhhhhhhhhhhhhhhhhhhhhhhhhhhhhhhhhhhhhhhhhhhhhhhhhhhh"
};
