/* XPM */
static const char *vshape_truck_xpm[] = {
/* columns rows colors chars-per-pixel */
"64 32 17 1 ",
"  c black",
". c #121200",
"X c #2C2C00",
"o c #333300",
"O c #6F6F00",
"+ c #707000",
"@ c #767600",
"# c #777700",
"$ c #A3A300",
"% c #CACA00",
"& c #CCCC00",
"* c #D0D000",
"= c #E1E100",
"- c #E3E300",
"; c #E9E900",
": c yellow",
"> c None",
/* pixels */
">>>>>>>>>>>>>>>>>>>>>>>>>>>>>>>>>>>>>>>>>>>>>>>>>>>>>>>>>>>>>>>>",
">>>>>>>>>>>>>>>>>>>>>>>>>>>>>>>>>>>>>>>>>>>>>>>>>>>>>>>>>>>>>>>>",
">>>>>>>>>>>>>>>>>>>>>>>>>>>>>>>>>>>>>>>>>>>>>>>>>>>>>>>>>>>>>>>>",
">>>>>>>>>>>>>>>>>>>>>>>>>>>>>>>>>>>>>>>>>>>>>>>>>>>>>>>>>>>>>>>>",
"::::::::::::::::::::::::::::::::::>>::::::::::::==============;>",
"::::::::::::::::::::::::::::::::::>>::::::::::::             o*-",
"::::::::::::::::::::::::::::::::::>>::::::::::::oooooooooooo+@.$",
"::::::::::::::::::::::::::::::::::>>::::::::::::::::::::::::&  $",
"::::::::::::::::::::::::::::::::::>>::::::::::::::::::::::::&  $",
"::::::::::::::::::::::::::::::::::>>::::::::::::::::::::::::&  $",
"::::::::::::::::::::::::::::::::::>>::::::::::::::::::::::::&  $",
"::::::::::::::::::::::::::::::::::>>::::::::::::::::::::::::&  $",
"::::::::::::::::::::::::::::::::::>>::::::::::::::::::::::::&  $",
"::::::::::::::::::::::::::::::::::>>::::::::::::::::::::::::&  $",
"::::::::::::::::::::::::::::::::::>>::::::::::::::::::::::::&  $",
"::::::::::::::::::::::::::::::::::>>::::::::::::::::::::::::&  $",
"::::::::::::::::::::::::::::::::::>>::::::::::::::::::::::::&  $",
"::::::::::::::::::::::::::::::::::>>::::::::::::::::::::::::&  $",
"::::::::::::::::::::::::::::::::::>>::::::::::::::::::::::::&  $",
"::::::::::::::::::::::::::::::::::>>::::::::::::::::::::::::&  $",
"::::::::::::::::::::::::::::::::::>>::::::::::::::::::::::::&  $",
"::::::::::::::::::::::::::::::::::>>::::::::::::::::::::::::&  $",
"::::::::::::::::::::::::::::::::::>>::::::::::::::::::::::::&  $",
"::::::::::::::::::::::::::::::::::>>::::::::::::::::::::::::&  $",
"::::::::::::::::::::::::::::::::::>>::::::::::::::::::::::::&  $",
"::::::::::::::::::::::::::::::::::>>::::::::::::ooooooooooooO#.$",
"::::::::::::::::::::::::::::::::::>>::::::::::::             X%-",
"::::::::::::::::::::::::::::::::::>>::::::::::::==============;>",
">>>>>>>>>>>>>>>>>>>>>>>>>>>>>>>>>>>>>>>>>>>>>>>>>>>>>>>>>>>>>>>>",
">>>>>>>>>>>>>>>>>>>>>>>>>>>>>>>>>>>>>>>>>>>>>>>>>>>>>>>>>>>>>>>>",
">>>>>>>>>>>>>>>>>>>>>>>>>>>>>>>>>>>>>>>>>>>>>>>>>>>>>>>>>>>>>>>>",
">>>>>>>>>>>>>>>>>>>>>>>>>>>>>>>>>>>>>>>>>>>>>>>>>>>>>>>>>>>>>>>>"
};
