/* XPM */
static const char *vshape_passenger_hatchback_xpm[] = {
/* columns rows colors chars-per-pixel */
"64 32 69 1 ",
"  c black",
". c #070700",
"X c #0D0D00",
"o c #131300",
"O c #181800",
"+ c #1C1C00",
"@ c #333300",
"# c #373700",
"$ c #444400",
"% c #4C4C00",
"& c #4E4E00",
"* c #4F4F00",
"= c #565600",
"- c #575700",
"; c #5E5E00",
": c #777700",
"> c #7B7B00",
", c #7D7D00",
"< c #7E7E00",
"1 c #7F7F00",
"2 c #888800",
"3 c #8C8C00",
"4 c #8D8D00",
"5 c #909000",
"6 c #979700",
"7 c #989800",
"8 c #999900",
"9 c #9A9A00",
"0 c #9F9F00",
"q c #A0A000",
"w c #BBBB00",
"e c #C9C900",
"r c #CACA00",
"t c #CCCC00",
"y c #D4D400",
"u c #D9D900",
"i c #DADA00",
"p c #DDDD00",
"a c #E1E100",
"s c #E7E700",
"d c #E8E800",
"f c #EBEB00",
"g c #F5F500",
"h c #F8F800",
"j c #FBFB00",
"k c #FDFD00",
"l c #FEFE00",
"z c yellow",
"x c #FFFF01",
"c c #FFFF07",
"v c #FFFF08",
"b c #FFFF0B",
"n c #FFFF1A",
"m c #FFFF1F",
"M c #FFFF2B",
"N c #FFFF2E",
"B c #FFFF31",
"V c #FFFF3D",
"C c #FFFF3E",
"Z c #FFFF43",
"A c #FFFF52",
"S c #FFFF61",
"D c #FFFF76",
"F c #FFFF80",
"G c #FFFF85",
"H c #FFFF91",
"J c #FFFF97",
"K c #FFFF99",
"L c None",
/* pixels */
"LLLLLLLLLLLLLLLLLLLLLLLLLLLLLLLLLLLLLLLLLLLLLLLLLLLLLLLLLLLLLLLL",
"LLLLLLLLLLLLLLLLLLLLLLLLLLLLLLLLLLLLLLLLLLLLLLLLLLLLLLLLLLLLLLLL",
"LLLLLLLLLLLLLLLLLLLLLLLLLLLLLLLLLLLLLLLLLLLLLLLLLLLLLLLLLLLLLLLL",
"LLLLLLLLLLLLLLLLLLLLLLLLLLLLLLLLLLLLLLLLLLLLLLLLLLLLLLLLLLLLLLLL",
"LLLzzzzzzzzzzzzzzzzzzzzzzzzzzzzzzzzzzzzzzzzzzzzzLLLLLLLLLLLLLLLL",
"LLzzu6=@@@@@@@@@@@@@@@@@@@@@@@@@@@@@@@@@@,jzzzzzzzzzzzzzLLLLLLLL",
"zzzszzza0;+                          o&3elzzfzvvzzzzzzzzzzzzLLLL",
"zzz@O%2tkzzi922222222222222222222227ylzzgw:@@zMJFSZmxzzzzzzzzzLL",
"zzz@    X$1whzzzzzzzzzzzzzzzzzzzzzzzzp5$.   @zMKKKKKHDANbzzzzzzL",
"zzz@        #zzzzzzzzzzzzzzzzzzzzzzz<       @zMKKKKKKKKKKGSZmxzz",
"zzz@        @zzzzzzzzzzzzzzzzzzzzzzz>       @zMKKKKKKKKKKKKKKHBz",
"zzz@        @zzzzzzzzzzzzzzzzzzzzzzz>       @zMKKKKKKKKKKKKKKKCz",
"zzz@        @zzzzzzzzzzzzzzzzzzzzzzz>       @zMKKKKKKKKKKKKKKKCz",
"zzz@        @zzzzzzzzzzzzzzzzzzzzzzz>       @zMKKKKKKKKKKKKKKKCz",
"zzz@        @zzzzzzzzzzzzzzzzzzzzzzz>       @zMKKKKKKKKKKKKKKKCz",
"zzz@        @zzzzzzzzzzzzzzzzzzzzzzz>       @zMKKKKKKKKKKKKKKKCz",
"zzz@        @zzzzzzzzzzzzzzzzzzzzzzz>       @zMKKKKKKKKKKKKKKKCz",
"zzz@        @zzzzzzzzzzzzzzzzzzzzzzz>       @zMKKKKKKKKKKKKKKKCz",
"zzz@        @zzzzzzzzzzzzzzzzzzzzzzz>       @zMKKKKKKKKKKKKKKKCz",
"zzz@        @zzzzzzzzzzzzzzzzzzzzzzz>       @zMKKKKKKKKKKKKKKKCz",
"zzz@        @zzzzzzzzzzzzzzzzzzzzzzz>       @zMKKKKKKKKKKKKKKKCz",
"zzz@        @zzzzzzzzzzzzzzzzzzzzzzz>       @zMKKKKKKKKKKKKKKHBz",
"zzz@        #zzzzzzzzzzzzzzzzzzzzzzz<       @zMKKKKKKKKKKGSZmxzz",
"zzz@    X$1whzzzzzzzzzzzzzzzzzzzzzzzzp5$.   @zMKKKKKHDANbzzzzzzL",
"zzz@O%2tkzzi922222222222222222222228ylzzgw:@@zMJFSVnxzzzzzzzzzLL",
"zzzdzzzaq;+                          o*4rlzzfzvczzzzzzzzzzzzLLLL",
"LLzzi7-@@@@@@@@@@@@@@@@@@@@@@@@@@@@@@@@@@<jzzzzzzzzzzzzzLLLLLLLL",
"LLLzzzzzzzzzzzzzzzzzzzzzzzzzzzzzzzzzzzzzzzzzzzzzLLLLLLLLLLLLLLLL",
"LLLLLLLLLLLLLLLLLLLLLLLLLLLLLLLLLLLLLLLLLLLLLLLLLLLLLLLLLLLLLLLL",
"LLLLLLLLLLLLLLLLLLLLLLLLLLLLLLLLLLLLLLLLLLLLLLLLLLLLLLLLLLLLLLLL",
"LLLLLLLLLLLLLLLLLLLLLLLLLLLLLLLLLLLLLLLLLLLLLLLLLLLLLLLLLLLLLLLL",
"LLLLLLLLLLLLLLLLLLLLLLLLLLLLLLLLLLLLLLLLLLLLLLLLLLLLLLLLLLLLLLLL"
};
