/* XPM */
static const char *walkroute_xpm[] = {
/* columns rows colors chars-per-pixel */
"16 16 5 1 ",
"  c None",
". c black",
"X c red",
"o c #FF6A00",
"O c #0026FF",
/* pixels */
"  O             ",
"  O             ",
"  O    ooooooo  ",
"OOOOO  o.o.o.o  ",
" OOO   ooooooo  ",
"  O    o.o o.o  ",
"oooooooooo ooo  ",
"ooXo.o.o.o o.o  ",
"oooooooooo ooo  ",
"           o.o  ",
"           ooo  ",
"  O        o.o  ",
"ooOOoooooooooo  ",
"OOOOOoXo.o.o.o  ",
"ooOOoooooooooo  ",
"  O             "
};
