/* XPM */
static const char *filedialog_bigfolder_xpm[] = {
/* columns rows colors chars-per-pixel */
"32 32 10 1 ",
"  c #040204",
". c #343204",
"X c #9C9E04",
"o c #D1BA78",
"O c #CCCE64",
"+ c #DEC77C",
"@ c #F5D092",
"# c #FCFEA4",
"$ c #FCCECC",
"% c None",
/* pixels */
"%%%%%%%%%%%%%%%%%%%%%%%%%%%%%%%%",
"%%%%%%%%%%%%%%%%%%%%%%%%%%%%%%%%",
"%%%%XXXXXXXXX %%%%%%%%%%%%%%%%%%",
"%%%X%########X %%%%%%%%%%%%%%%%%",
"%%X%##########X %%%%%%%%%%%%%%%%",
"%X%############X %%%%%%%%%%%%%%%",
"XOOOOOOOOOOOOOOOXXXXXXXXXXXXXX%%",
"X%%%%%%%%%%%%%%%%%%%%%%%%%%%%% %",
"X%###################@##@###@#O ",
"X%#############@#@#@###@###@#@O.",
"X%####################@##@@###O.",
"X%################@#@###@####@O.",
"X%##########@#@#@########@#@#@O.",
"X%################@#@#@#@###@#O.",
"X%########@####@#######@##@@#@O.",
"X%###########@##@#@##@##@###@#O.",
"X%######@###########@#@##@@##@O.",
"X%########@#@#@#@@#@####@##@@#O.",
"X%####@#############@#@@#@@@#@O.",
"X%######@###@#@#@#@##@##@##@@@O.",
"X%#########@#####@#@@#@@#@@#@#O.",
"X%#@#@##@#@##@#@#####@@@@#@$@@O.",
"X%#########@##@#@@#@@###@@@@#@O.",
"X%##@#@##@###@#@##@##@@@#@##@@O.",
"X%@#####@##@@##@#@##@@$#@@@@$@+.",
"X%###@#@##@##@@#@#@@##@@@#$@@@O.",
"X%@#@#@##@#@###@#@##@@#@#@@@#@O.",
"XOOOOOOOOOOOOOOOOOOO+OOOO+OOoOO.",
"%..............................%",
"%%%%%%%%%%%%%%%%%%%%%%%%%%%%%%%%",
"%%%%%%%%%%%%%%%%%%%%%%%%%%%%%%%%",
"%%%%%%%%%%%%%%%%%%%%%%%%%%%%%%%%"
};
