<?xml version="1.0" encoding="UTF-8" standalone="no"?>
<svg
   xmlns:dc="http://purl.org/dc/elements/1.1/"
   xmlns:cc="http://creativecommons.org/ns#"
   xmlns:rdf="http://www.w3.org/1999/02/22-rdf-syntax-ns#"
   xmlns:svg="http://www.w3.org/2000/svg"
   xmlns="http://www.w3.org/2000/svg"
   xmlns:sodipodi="http://sodipodi.sourceforge.net/DTD/sodipodi-0.dtd"
   xmlns:inkscape="http://www.inkscape.org/namespaces/inkscape"
   width="1277px"
   height="705px"
   viewBox="0 0 1277 705"
   id="svg2"
   version="1.1"
   inkscape:version="0.48.2 r9819"
   sodipodi:docname="t1.svg">
  <metadata
     id="metadata998">
    <rdf:RDF>
      <cc:Work
         rdf:about="">
        <dc:format>image/svg+xml</dc:format>
        <dc:type
           rdf:resource="http://purl.org/dc/dcmitype/StillImage" />
        <dc:title>D:\t1.svg</dc:title>
      </cc:Work>
    </rdf:RDF>
  </metadata>
  <sodipodi:namedview
     pagecolor="#ffffff"
     bordercolor="#666666"
     borderopacity="1"
     objecttolerance="10"
     gridtolerance="10"
     guidetolerance="10"
     inkscape:pageopacity="0"
     inkscape:pageshadow="2"
     inkscape:window-width="1280"
     inkscape:window-height="878"
     id="namedview996"
     showgrid="false"
     inkscape:zoom="1.0086139"
     inkscape:cx="329.57247"
     inkscape:cy="294.85268"
     inkscape:window-x="-8"
     inkscape:window-y="-8"
     inkscape:window-maximized="1"
     inkscape:current-layer="svg2" />
  <title
     id="title4">D:\t1.svg</title>
  <desc
     id="desc6">
Creator: GL2PS 1.3.6, (C) 1999-2011 C. Geuzaine
For: sumo-gui; http://sumo.sf.net
CreationDate: Mon Sep 26 12:23:32 2011
</desc>
  <defs
     id="defs8" />
  <polygon
     points="1277,0 1277,705 0,705 0,0 "
     id="polygon10"
     transform="scale(0.76552795,1)"
     style="fill:#337f33" />
  <g
     shape-rendering="crispEdges"
     id="g12">
    <polygon
       fill="#ffffff"
       points="3.80576e-005,264.945 979.265,86.8612 3.80576e-005,86.8611"
       id="polygon386" />
    <polygon
       fill="#ffffff"
       points="3.80576e-005,264.945 979.265,278.976 979.265,86.8612"
       id="polygon388" />
    <polygon
       fill="#ffffff"
       points="3.80576e-005,278.976 979.265,278.976 3.80576e-005,264.945"
       id="polygon390" />
    <polygon
       fill="#ffffff"
       points="3.80576e-005,637.873 979.265,651.904 979.265,459.789"
       id="polygon398" />
    <polygon
       fill="#ffffff"
       points="3.80576e-005,637.873 979.265,459.789 3.80576e-005,459.789"
       id="polygon400" />
    <polygon
       fill="#ffffff"
       points="3.80576e-005,465.44 979.265,465.44 3.80576e-005,451.409"
       id="polygon404" />
    <polygon
       fill="#ffffff"
       points="3.80576e-005,451.409 979.265,465.44 979.265,273.325"
       id="polygon406" />
    <polygon
       fill="#ffffff"
       points="3.80576e-005,451.409 979.265,273.325 3.80576e-005,273.325"
       id="polygon408" />
    <polygon
       fill="#000000"
       points="631.543,284.626 631.543,126.414 461.923,126.414"
       id="polygon410" />
    <polygon
       fill="#000000"
       points="970.784,284.626 970.784,126.414 801.164,126.414"
       id="polygon412" />
    <polygon
       fill="#000000"
       points="801.164,284.626 970.784,284.626 801.164,126.414"
       id="polygon414" />
    <polygon
       fill="#000000"
       points="970.784,471.09 970.784,312.878 801.164,312.878"
       id="polygon416" />
    <polygon
       fill="#000000"
       points="801.164,471.09 970.784,471.09 801.164,312.878"
       id="polygon418" />
    <polygon
       fill="#000000"
       points="631.543,471.09 631.543,312.878 461.923,312.878"
       id="polygon420" />
    <polygon
       fill="#000000"
       points="461.923,471.09 631.543,471.09 461.923,312.878"
       id="polygon422" />
    <polygon
       fill="#000000"
       points="292.303,471.09 292.303,312.878 122.682,312.878"
       id="polygon424" />
    <polygon
       fill="#000000"
       points="122.682,284.626 292.303,284.626 122.682,126.414"
       id="polygon426" />
    <polygon
       fill="#000000"
       points="122.682,471.09 292.303,471.09 122.682,312.878"
       id="polygon428" />
    <polygon
       fill="#000000"
       points="461.923,284.626 631.543,284.626 461.923,126.414"
       id="polygon430" />
    <polygon
       fill="#000000"
       points="292.303,284.626 292.303,126.414 122.682,126.414"
       id="polygon432" />
    <polygon
       fill="#000000"
       points="3.80576e-005,459.789 979.265,459.789 3.80576e-005,446.584"
       id="polygon434" />
    <polygon
       fill="#000000"
       points="3.80576e-005,446.584 979.265,459.789 979.265,278.976"
       id="polygon436" />
    <polygon
       fill="#000000"
       points="3.80576e-005,446.584 979.265,278.976 3.80576e-005,278.976"
       id="polygon438" />
    <polygon
       fill="#000000"
       points="3.80576e-005,633.048 979.265,465.44 3.80576e-005,465.44"
       id="polygon440" />
    <polygon
       fill="#000000"
       points="3.80576e-005,633.048 979.265,646.253 979.265,465.44"
       id="polygon442" />
    <polygon
       fill="#000000"
       points="3.80576e-005,260.12 979.265,273.325 979.265,92.5116"
       id="polygon446" />
    <polygon
       fill="#000000"
       points="3.80576e-005,260.12 979.265,92.5116 3.80576e-005,92.5116"
       id="polygon448" />
    <polygon
       fill="#000000"
       points="3.80576e-005,273.325 979.265,273.325 3.80576e-005,260.12"
       id="polygon450" />
    <polygon
       fill="#ff0000"
       points="950.994,646.253 950.994,465.44 979.264,465.44"
       id="polygon534" />
    <polygon
       fill="#ff0000"
       points="979.264,459.789 950.994,459.789 979.264,278.975"
       id="polygon546" />
    <polygon
       fill="#ff0000"
       points="950.994,459.789 950.994,278.975 979.264,278.975"
       id="polygon548" />
    <polygon
       fill="#ffffff"
       points="753.104,372.208 866.184,372.208 753.104,366.557"
       id="polygon550" />
    <polygon
       fill="#ffffff"
       points="866.184,372.208 866.184,366.557 753.104,366.557"
       id="polygon552" />
    <polygon
       fill="#ffffff"
       points="922.724,369.382 866.184,383.508 866.184,355.256"
       id="polygon554" />
    <polygon
       fill="#ff0000"
       points="979.264,273.325 950.994,273.325 979.264,182.918"
       id="polygon556" />
    <polygon
       fill="#ff0000"
       points="950.994,273.325 950.994,182.918 979.264,182.918"
       id="polygon558" />
    <polygon
       fill="#ff0000"
       points="979.264,646.253 950.994,646.253 979.264,465.44"
       id="polygon586" />
    <polygon
       fill="#ffff00"
       points="0,385.665 0,369.382 73.4612,369.382"
       id="polygon592" />
    <polygon
       fill="#ffff00"
       points="0,385.665 73.4612,369.382 73.4612,403.285"
       id="polygon594" />
    <polygon
       fill="#ffff00"
       points="0,397.813 0,385.665 73.4612,403.285"
       id="polygon596" />
    <polygon
       fill="#ffff00"
       points="0,397.813 73.4612,403.285 50.8451,419.106"
       id="polygon598" />
    <polygon
       fill="#ffff00"
       points="0,423.659 0,397.813 50.8451,419.106"
       id="polygon600" />
    <polygon
       fill="#ffff00"
       points="0,423.659 50.8451,419.106 2.786,425.887"
       id="polygon602" />
    <polygon
       fill="#ffff00"
       points="0,423.659 2.786,425.887 0,425.887"
       id="polygon604" />
    <polygon
       fill="#ffff00"
       points="0,315.105 0,312.878 2.786,312.878"
       id="polygon606" />
    <polygon
       fill="#ffff00"
       points="0,340.952 0,315.105 2.786,312.878"
       id="polygon608" />
    <polygon
       fill="#ffff00"
       points="0,340.952 2.786,312.878 50.8451,319.659"
       id="polygon610" />
    <polygon
       fill="#ffff00"
       points="0,353.099 0,340.952 50.8451,319.659"
       id="polygon612" />
    <polygon
       fill="#ffff00"
       points="0,353.099 50.8451,319.659 73.4612,335.48"
       id="polygon614" />
    <polygon
       fill="#ffff00"
       points="0,369.382 0,353.099 73.4612,335.48"
       id="polygon616" />
    <polygon
       fill="#ffff00"
       points="0,369.382 73.4612,335.48 73.4612,369.382"
       id="polygon618" />
    <polygon
       fill="#ffff00"
       points="328.221,369.382 469.571,369.382 469.571,403.285"
       id="polygon620" />
    <polygon
       fill="#ffff00"
       points="328.221,369.382 469.571,403.285 446.955,419.106"
       id="polygon622" />
    <polygon
       fill="#ffff00"
       points="328.221,369.382 446.955,419.106 398.896,425.887"
       id="polygon624" />
    <polygon
       fill="#ffff00"
       points="328.221,369.382 398.896,425.887 201.005,425.887"
       id="polygon626" />
    <polygon
       fill="#ffff00"
       points="328.221,369.382 201.005,425.887 186.87,414.586"
       id="polygon650" />
    <polygon
       fill="#ffff00"
       points="328.221,369.382 186.87,414.586 186.87,324.179"
       id="polygon652" />
    <polygon
       fill="#ffff00"
       points="328.221,369.382 186.87,324.179 201.005,312.878"
       id="polygon654" />
    <polygon
       fill="#ffff00"
       points="328.221,369.382 201.005,312.878 398.896,312.878"
       id="polygon656" />
    <polygon
       fill="#ffff00"
       points="328.221,369.382 398.896,312.878 446.955,319.659"
       id="polygon658" />
    <polygon
       fill="#ffff00"
       points="328.221,369.382 446.955,319.659 469.571,335.48"
       id="polygon660" />
    <polygon
       fill="#ffff00"
       points="328.221,369.382 469.571,335.48 469.571,369.382"
       id="polygon662" />
    <polygon
       fill="#ffff00"
       points="724.5,369.382 865.85,369.382 865.85,403.285"
       id="polygon664" />
    <polygon
       fill="#ffff00"
       points="724.5,369.382 865.85,403.285 843.234,419.106"
       id="polygon666" />
    <polygon
       fill="#ffff00"
       points="724.5,369.382 843.234,419.106 795.175,425.887"
       id="polygon668" />
    <polygon
       fill="#ffff00"
       points="724.5,369.382 795.175,425.887 597.285,425.887"
       id="polygon670" />
    <polygon
       fill="#ffff00"
       points="724.5,369.382 597.285,425.887 583.15,414.586"
       id="polygon672" />
    <polygon
       fill="#ffff00"
       points="724.5,369.382 583.15,414.586 583.15,324.179"
       id="polygon674" />
    <polygon
       fill="#ffff00"
       points="724.5,369.382 583.15,324.179 597.285,312.878"
       id="polygon676" />
    <polygon
       fill="#ffff00"
       points="724.5,369.382 597.285,312.878 795.175,312.878"
       id="polygon678" />
    <polygon
       fill="#ffff00"
       points="724.5,369.382 795.175,312.878 843.234,319.659"
       id="polygon680" />
    <polygon
       fill="#ffff00"
       points="724.5,369.382 843.234,319.659 865.85,335.48"
       id="polygon682" />
    <polygon
       fill="#ffff00"
       points="724.5,369.382 865.85,335.48 865.85,369.382"
       id="polygon684" />
    <polygon
       fill="#000000"
       points="639.69,369.382 667.96,335.48 667.96,369.382"
       id="polygon792" />
    <polygon
       fill="#000000"
       points="639.69,369.382 631.209,324.179 667.96,335.48"
       id="polygon794" />
    <polygon
       fill="#000000"
       points="639.69,369.382 631.209,414.586 631.209,324.179"
       id="polygon796" />
    <polygon
       fill="#000000"
       points="639.69,369.382 667.96,403.285 631.209,414.586"
       id="polygon798" />
    <polygon
       fill="#000000"
       points="639.69,369.382 667.96,369.382 667.96,403.285"
       id="polygon800" />
    <polygon
       fill="#000000"
       points="764.078,417.976 738.635,411.195 769.732,422.496"
       id="polygon802" />
    <polygon
       fill="#000000"
       points="764.078,417.976 676.441,411.195 738.635,411.195"
       id="polygon804" />
    <polygon
       fill="#000000"
       points="764.078,417.976 648.171,422.496 676.441,411.195"
       id="polygon806" />
    <polygon
       fill="#000000"
       points="764.078,417.976 769.732,422.496 648.171,422.496"
       id="polygon808" />
    <polygon
       fill="#000000"
       points="764.078,320.789 738.635,327.569 769.732,316.268"
       id="polygon810" />
    <polygon
       fill="#000000"
       points="764.078,320.789 676.441,327.569 738.635,327.569"
       id="polygon812" />
    <polygon
       fill="#000000"
       points="764.078,320.789 648.171,316.268 676.441,327.569"
       id="polygon814" />
    <polygon
       fill="#000000"
       points="764.078,320.789 769.732,316.268 648.171,316.268"
       id="polygon816" />
    <polygon
       fill="#000000"
       points="766.905,369.382 781.04,324.179 781.04,369.382"
       id="polygon818" />
    <polygon
       fill="#000000"
       points="766.905,369.382 744.289,335.48 781.04,324.179"
       id="polygon820" />
    <polygon
       fill="#000000"
       points="766.905,369.382 744.289,403.285 744.289,335.48"
       id="polygon822" />
    <polygon
       fill="#000000"
       points="766.905,369.382 781.04,414.586 744.289,403.285"
       id="polygon824" />
    <polygon
       fill="#000000"
       points="766.905,369.382 781.04,369.382 781.04,414.586"
       id="polygon826" />
    <polygon
       fill="#ffff33"
       points="837.58,369.382 858.783,341.13 858.783,369.382"
       id="polygon828" />
    <polygon
       fill="#ffff33"
       points="837.58,369.382 789.521,324.179 858.783,341.13"
       id="polygon830" />
    <polygon
       fill="#ffff33"
       points="837.58,369.382 789.521,414.586 789.521,324.179"
       id="polygon832" />
    <polygon
       fill="#ffff33"
       points="837.58,369.382 858.783,397.634 789.521,414.586"
       id="polygon834" />
    <polygon
       fill="#ffff33"
       points="837.58,369.382 858.783,369.382 858.783,397.634"
       id="polygon836" />
    <polygon
       fill="#000000"
       points="243.41,369.382 271.68,335.48 271.68,369.382"
       id="polygon860" />
    <polygon
       fill="#000000"
       points="243.41,369.382 234.929,324.179 271.68,335.48"
       id="polygon862" />
    <polygon
       fill="#000000"
       points="243.41,369.382 234.929,414.586 234.929,324.179"
       id="polygon864" />
    <polygon
       fill="#000000"
       points="243.41,369.382 271.68,403.285 234.929,414.586"
       id="polygon866" />
    <polygon
       fill="#000000"
       points="243.41,369.382 271.68,369.382 271.68,403.285"
       id="polygon868" />
    <polygon
       fill="#000000"
       points="367.799,417.976 342.356,411.195 373.453,422.496"
       id="polygon870" />
    <polygon
       fill="#000000"
       points="367.799,417.976 280.161,411.195 342.356,411.195"
       id="polygon872" />
    <polygon
       fill="#000000"
       points="367.799,417.976 251.891,422.496 280.161,411.195"
       id="polygon874" />
    <polygon
       fill="#000000"
       points="367.799,417.976 373.453,422.496 251.891,422.496"
       id="polygon876" />
    <polygon
       fill="#000000"
       points="367.799,320.789 342.356,327.569 373.453,316.268"
       id="polygon878" />
    <polygon
       fill="#000000"
       points="367.799,320.789 280.161,327.569 342.356,327.569"
       id="polygon880" />
    <polygon
       fill="#000000"
       points="367.799,320.789 251.891,316.268 280.161,327.569"
       id="polygon882" />
    <polygon
       fill="#000000"
       points="367.799,320.789 373.453,316.268 251.891,316.268"
       id="polygon884" />
    <polygon
       fill="#000000"
       points="370.626,369.382 384.761,324.179 384.761,369.382"
       id="polygon886" />
    <polygon
       fill="#000000"
       points="370.626,369.382 348.01,335.48 384.761,324.179"
       id="polygon888" />
    <polygon
       fill="#000000"
       points="370.626,369.382 348.01,403.285 348.01,335.48"
       id="polygon890" />
    <polygon
       fill="#000000"
       points="370.626,369.382 384.761,414.586 348.01,403.285"
       id="polygon892" />
    <polygon
       fill="#000000"
       points="370.626,369.382 384.761,369.382 384.761,414.586"
       id="polygon894" />
    <polygon
       fill="#ffff33"
       points="441.301,369.382 462.503,341.13 462.503,369.382"
       id="polygon896" />
    <polygon
       fill="#ffff33"
       points="441.301,369.382 393.242,324.179 462.503,341.13"
       id="polygon898" />
    <polygon
       fill="#ffff33"
       points="441.301,369.382 393.242,414.586 393.242,324.179"
       id="polygon900" />
    <polygon
       fill="#ffff33"
       points="441.301,369.382 462.503,397.634 393.242,414.586"
       id="polygon902" />
    <polygon
       fill="#ffff33"
       points="441.301,369.382 462.503,369.382 462.503,397.634"
       id="polygon904" />
    <polygon
       fill="#ffff33"
       points="45.1911,369.382 66.3936,341.13 66.3936,369.382"
       id="polygon928" />
    <polygon
       fill="#ffff33"
       points="45.1911,369.382 0,324.881 66.3936,341.13"
       id="polygon930" />
    <polygon
       fill="#ffff33"
       points="45.1911,369.382 0,326.876 0,324.881"
       id="polygon932" />
    <polygon
       fill="#ffff33"
       points="0,326.876 45.1911,369.382 0,411.888"
       id="polygon934" />
    <polygon
       fill="#ffff33"
       points="0,411.888 66.3936,397.634 0,413.884"
       id="polygon936" />
    <polygon
       fill="#ffff33"
       points="0,411.888 45.1911,369.382 66.3936,397.634"
       id="polygon938" />
    <polygon
       fill="#ffff33"
       points="45.1911,369.382 66.3936,369.382 66.3936,397.634"
       id="polygon940" />
  </g>
  <rect
     style="fill:#000000;fill-opacity:1;stroke:#000000;stroke-width:6.16720819;stroke-miterlimit:4;stroke-opacity:1;stroke-dasharray:none"
     id="rect3123"
     width="373.7803"
     height="18.854815"
     x="178.46274"
     y="455.15216" />
  <path
     style="fill:#ff0000;stroke:#ffffff;stroke-width:4;stroke-linecap:butt;stroke-linejoin:miter;stroke-opacity:1;stroke-miterlimit:4;stroke-dasharray:none"
     d="M 583.24246,450.47336 186.67288,449.48187"
     id="path4747"
     inkscape:connector-curvature="0" />
  <path
     style="fill:#ffffff;stroke:#ffffff;stroke-width:4;stroke-linecap:butt;stroke-linejoin:miter;stroke-opacity:1;stroke-miterlimit:4;stroke-dasharray:none"
     d="m 186.80654,427.14811 0,33.94815"
     id="path4749"
     inkscape:connector-curvature="0" />
  <path
     style="fill:#ffffff;stroke:#ffffff;stroke-width:4;stroke-linecap:butt;stroke-linejoin:miter;stroke-opacity:1;stroke-miterlimit:4;stroke-dasharray:none"
     d="m 468.9604,428.04512 0,37.11193"
     id="path4749-1"
     inkscape:connector-curvature="0" />
  <path
     style="fill:#ffffff;stroke:#ffffff;stroke-width:4;stroke-linecap:butt;stroke-linejoin:miter;stroke-opacity:1;stroke-miterlimit:4;stroke-dasharray:none"
     d="m 582.97826,427.65599 0,37.11193"
     id="path4749-1-4"
     inkscape:connector-curvature="0" />
  <text
     xml:space="preserve"
     style="font-size:40px;font-style:normal;font-weight:normal;line-height:125%;letter-spacing:0px;word-spacing:0px;fill:#000000;fill-opacity:1;stroke:none;font-family:Sans"
     x="272.63431"
     y="553.56287"
     id="text4805"
     sodipodi:linespacing="125%"><tspan
       sodipodi:role="line"
       id="tspan4807"
       x="272.63431"
       y="553.56287"
       style="font-size:40px;fill:#ffffff;fill-opacity:1">length</tspan></text>
  <text
     xml:space="preserve"
     style="font-size:40px;font-style:normal;font-weight:normal;line-height:125%;letter-spacing:0px;word-spacing:0px;fill:#000000;fill-opacity:1;stroke:none;font-family:Sans"
     x="456.09003"
     y="552.76428"
     id="text4805-0"
     sodipodi:linespacing="125%"><tspan
       sodipodi:role="line"
       id="tspan4807-9"
       x="456.09003"
       y="552.76428"
       style="font-size:40px;line-height:125%;fill:#ffffff;fill-opacity:1">minGap</tspan></text>
  <text
     xml:space="preserve"
     style="font-size:192.96629333px;font-style:normal;font-weight:normal;line-height:125%;letter-spacing:0px;word-spacing:0px;fill:#ffffff;fill-opacity:1;stroke:none;font-family:Sans"
     x="718.10889"
     y="-160.35417"
     id="text4830"
     sodipodi:linespacing="125%"
     transform="matrix(0,0.64346054,-1.5540969,0,0,0)"><tspan
       sodipodi:role="line"
       id="tspan4832"
       x="718.10889"
       y="-160.35417">}</tspan></text>
  <text
     xml:space="preserve"
     style="font-size:122.21309662px;font-style:normal;font-weight:normal;line-height:125%;letter-spacing:0px;word-spacing:0px;fill:#ffffff;fill-opacity:1;stroke:none;font-family:Sans"
     x="454.26068"
     y="-502.24384"
     id="text4830-4"
     sodipodi:linespacing="125%"
     transform="matrix(0,1.0159811,-0.98427028,0,0,0)"><tspan
       sodipodi:role="line"
       id="tspan4832-8"
       x="454.26068"
       y="-502.24384">}</tspan></text>
</svg>
