/* XPM */
static const char * flag_xpm[] = {
"16 16 26 1",
" 	c Gray100",
".	c Gray80",
"X	c Gray31",
"o	c Gray98",
"O	c Gray20",
"+	c Red",
"@	c Black",
"#	c #868686",
"$	c #535353",
"%	c #dadada",
"&	c Gray11",
"*	c #1200ff",
"=	c #414141",
"-	c #08007b",
";	c Gray62",
":	c Gray91",
">	c Gray69",
",	c Gray18",
"<	c #f1f1f1",
"1	c #202020",
"2	c Gray42",
"3	c #747474",
"4	c Gray78",
"5	c #f6f6f6",
"6	c #6f6f6f",
"7	c #b9b9b9",
"                ",
"        .X      ",
"       oO+@     ",
"       #$++@    ",
"      %&*++@    ",
"      =-**+@    ",
"     ;=***++@   ",
"    :&%@**+++@@ ",
"    $#  @**++++@",
"   >,o  @****++@",
"  <1.   @*****@ ",
"  23     @***@  ",
" 415      @@*@  ",
" 67         @   ",
"                ",
"                "};
