/* XPM */
static const char *flag_minus_xpm[] = {
"16 16 26 1",
" 	c Gray100",
".	c Gray80",
"X	c Gray31",
"o	c Black",
"O	c Gray98",
"+	c Gray20",
"@	c Red",
"#	c #868686",
"$	c #535353",
"%	c #dadada",
"&	c Gray11",
"*	c #1200ff",
"=	c #414141",
"-	c #08007b",
";	c Gray62",
":	c Gray91",
">	c Gray69",
",	c Gray18",
"<	c #f1f1f1",
"1	c #202020",
"2	c Gray42",
"3	c #747474",
"4	c Gray78",
"5	c #f6f6f6",
"6	c #6f6f6f",
"7	c #b9b9b9",
"                ",
"        .X      ",
"oooooo O+@o     ",
"oooooo #$@@o    ",
"      %&*@@o    ",
"      =-**@o    ",
"     ;=***@@o   ",
"    :&%o**@@@oo ",
"    $#  o**@@@@o",
"   >,O  o****@@o",
"  <1.   o*****o ",
"  23     o***o  ",
" 415      oo*o  ",
" 67         o   ",
"                ",
"                "};
