/* XPM */
static const char * show_geometry_xpm[] = {
"16 16 5 1",
" 	c None",
".	c Black",
"X	c Gray50",
"o	c Red",
"O	c Gray71",
"     ...        ",
"   ..XXX.       ",
"  .o.XXX.       ",
" .oo.XXX.       ",
".ooo....O.      ",
".oo.  .OOO.     ",
".oo.   .OO.     ",
".oo.    .OO.    ",
".oo.    .OOO.   ",
".oo.     .OO.   ",
" .oo..    .OO.  ",
" .oooo..  .O... ",
"  ..oooo....XXX.",
"    ..ooooo.XXX.",
"      ....o.XXX.",
"         .. ... "};
