/* XPM */
static const char *checkbox_hideconnections_xpm[] = {
/* columns rows colors chars-per-pixel */
"16 16 3 1",
"  c #CC0000",
"x c black",
"v c none",
/* pixels */
"vvvvvvvvvvvvvvxx",
"vvvvvvvvvvvv xxv",
"vvvvvvvvvvvvxxvv",
"v          xx  v",
"vvvvvvvvvvxx  vv",
"vvvvvvvvvxxv vvv",
"vvvvvvvvxxvvvvvv",
"v      xxvvvvvvv",
"vvvvvvxx vvvvvvv",
"vvvvvxxv vvvvvvv",
"vvvvxxvv vvvvvvv",
"vvvxxvvv vvvvvvv",
"vvxxvv     vvvvv",
"vxxvvvv   vvvvvv",
"xxvvvvvv vvvvvvv",
"xvvvvvvvvvvvvvvv"
};
