/* XPM */
static const char * closing_xpm[] = {
/* columns rows colors chars-per-pixel */
"17 17 4 1",
" 	c None",
"!	c black",
"#	c #D90000",
"$	c #7C0000",
/* pixels */
"                 ",
" !!!  !!!!!  !!! ",
" !!!  !!!!!  !!! ",
" !!!  !!!!!  !!! ",
" !!!  !!!!!  !!! ",
" !!!  !!!#!  !!! ",
" !!!  !!!!#  !!! ",
" !!!  !!!!!$ !!! ",
" !!#$$#####$$!!! ",
" !!!  !!!!!$ !!! ",
" !!!  !!!!#  !!! ",
" !!!  !!!#!  !!! ",
" !!!  !!!!!  !!! ",
" !!!  !!!!!  !!! ",
" !!!  !!!!!  !!! ",
" !!!  !!!!!  !!! ",
"                 "
};
