/* XPM */
static const char *connection_xpm[] = {
/* columns rows colors chars-per-pixel */
"16 16 79 2",
".  c #2B2C7C",
"X  c #2C2D7C",
"o  c #2D2E7D",
"O  c #2F307E",
"+  c #30317F",
"@  c #31327F",
"#  c #323380",
"$  c #373783",
"%  c #373883",
"&  c #373884",
"*  c #404189",
"=  c #42438A",
"-  c #44458B",
";  c #494A8D",
":  c #4A4B8F",
">  c #4C4D90",
",  c #515191",
"<  c #515291",
"1  c #565797",
"2  c #595A96",
"3  c #595A99",
"4  c #5D5E9B",
"5  c #626398",
"6  c #636399",
"7  c #63639B",
"8  c #61619D",
"9  c #62639E",
"0  c #636499",
"q  c #6869A2",
"w  c #6B6CA4",
"e  c #6C6CA4",
"r  c #7778A5",
"t  c #7879A6",
"y  c #7B7BA7",
"u  c #7878AB",
"i  c #7F80AA",
"p  c #7F80B0",
"a  c #8788B5",
"s  c #8A8BB7",
"d  c #8D8EB9",
"f  c #9090B4",
"g  c #9191B5",
"h  c #9494B7",
"j  c #9A9BBB",
"k  c #9D9DC2",
"l  c #A0A0C4",
"z  c #AAAAC4",
"x  c #ADAECD",
"c  c #B7B7CB",
"v  c #BABACE",
"b  c #B7B7D2",
"n  c #B7B8D3",
"m  c #BDBDD6",
"M  c #BEBED7",
"N  c #C1C1D2",
"B  c #C2C2D3",
"V  c #C7C7D5",
"C  c #C0C1D8",
"Z  c #C3C3DA",
"A  c #C5C5DB",
"S  c #C8C8D6",
"D  c #C8C8D7",
"F  c #CFCFDB",
"G  c #D0D0DB",
"H  c #CDCDE0",
"J  c #DBDBE9",
"K  c #DDDDEA",
"L  c #DEDFEB",
"P  c #EAEAF2",
"I  c #EBEBF3",
"U  c #ECECF3",
"Y  c #F1F1F6",
"T  c #F1F1F7",
"R  c #F2F2F7",
"E  c #F3F3F8",
"W  c #F4F4F8",
"Q  c #F5F5F9",
"!  c gray100",
"UX c None",
/* pixels */
"UXUXUXUXUXv i 0 5 y UXUXUXUXUXUX",
"UXUXUXN , : + . . . . ; UXUXUXUX",
"UXUXz @ X H d . . . . . o j UXUX",
"UXV # . u ! Q = . . . . . o UXUX",
"UX2 . $ P ! ! n . . . . . . ; UX",
"D . . l ! ! ! ! 9 . . . . . . UX",
"f . . e > W C 9 4 . . . . . . y ",
"r . . . . E m . . a b = . . . 6 ",
"t . . . . E M O = w ! Q d + . 0 ",
"h . . . . R I R ! ! ! ! ! L - i ",
"F . . . . R ! K k x ! ! J 8 . v ",
"UX7 . . . R U % . p W s O . < UX",
"UXG & . . T A . . 1 * . . @ B UX",
"UXUXc & . Y Z . . . . . # z UXUX",
"UXUXUXG 7 q 3 . . . . 2 S UXUXUX",
"UXUXUXUXUXF h t r g D UXUXUXUXUX"
};
