/* XPM */
static const char *copy_xpm[] = {
/* columns rows colors chars-per-pixel */
"16 16 7 1",
". c #396BBD",
"1 c #6A92D2",
"2 c #73B5EF",
"3 c white",
"e c #C6DEF7",
"i c #DEE7F7",
"  c None",
/* pixels */
"........        ",
".3333331.       ",
".32222311.      ",
".3eeeei33.      ",
".3222e........  ",
".3eeee.3333331. ",
".3222e.32222311.",
".3eeee.3eeeei33.",
".3222e.32222223.",
".3eeee.3eeeeee3.",
".33333.32222223.",
".......3eeeeee3.",
"      .32222223.",
"      .3eeeeee3.",
"      .33333333.",
"      .........."
};
