/* XPM */
static const char *current_xpm[] = {
/* columns rows colors chars-per-pixel */
"16 16 3 1",
". c black",
"* c white",
"  c None",
/* pixels */
"       .        ",
"       .        ",
"       .        ",
"     .....      ",
"      ...       ",
"       .        ",
"                ",
"    ......      ",
"    .***.*.     ",
"    .***.**.    ",
"    .***.**.    ",
"    .***....    ",
"    .******.    ",
"    .******.    ",
"    .******.    ",
"    ........    "
};
