/* XPM */
static const char *e3exit_xpm[] = {
/* columns rows colors chars-per-pixel */
"16 16 3 1",
". c #D01C1C",
"* c #E95656",
"  c None",
/* pixels */
"           *    ",
"           *****",
"           *    ",
"                ",
"           *   *",
"....  ...  *****",
".    .   . *   *",
".        .      ",
"....   ..  ** **",
".        .   ** ",
".    .   .  **  ",
"....  ...  ** **",
"                ",
"           * * *",
"           * * *",
"           *****"
};
