/* XPM */
static const char * edit_graph_xpm[] = {
/* columns rows colors chars-per-pixel */
"17 17 2 1",
" 	c None",
"!	c black",
/* pixels */
"                 ",
"       !!!!!!!!! ",
"        !!!!!!!! ",
"             !!! ",
"            ! !! ",
"           !  !! ",
"          !   !! ",
"         !    !! ",
"        !     !! ",
"       !      !! ",
"      !        ! ",
"     !           ",
"    !            ",
"   !             ",
"  !              ",
" !               ",
"                 "
};
