/* XPM */
static const char *geohack_xpm[] = {
/* columns rows colors chars-per-pixel */
"16 16 83 1",
"  c #0B1626",
". c #0B1627",
"X c #0B1727",
"o c #0B1628",
"O c #0B1629",
"+ c #0B172A",
"@ c #0F1E36",
"# c #0E232B",
"$ c #133330",
"% c #133433",
"& c #133832",
"* c #184939",
"= c #184B39",
"- c #162D4F",
"; c #162D50",
": c #162E50",
"> c #162E51",
", c #1C3863",
"< c #1C3964",
"1 c #1C3965",
"2 c #1B5143",
"3 c #1C5A47",
"4 c #1F5F54",
"5 c #206255",
"6 c #21605F",
"7 c #1E4562",
"8 c #23477D",
"9 c #23477E",
"0 c #255579",
"q c #287C69",
"w c #2C7C7D",
"e c #2C7E7D",
"r c #2C9F5A",
"t c #2C9E5B",
"y c #2C9F5B",
"u c #2B985D",
"i c #2C9C5D",
"p c #2C9D5D",
"a c #2C9E5C",
"s c #2C9C5E",
"d c #2CA05A",
"f c #298963",
"g c #2C8F6B",
"h c #2C8B6F",
"j c #2C8C6C",
"k c #2C8E6D",
"l c #2C9663",
"z c #2C9763",
"x c #2C9664",
"c c #2C9A60",
"v c #2C9862",
"b c #2C9863",
"n c #2C8377",
"m c #2C8575",
"M c #2C8674",
"N c #2C8476",
"B c #2C8872",
"V c #2C807A",
"C c #234880",
"Z c #2C589D",
"A c #2C5B9F",
"S c #2C5E9C",
"D c #2C5C9E",
"F c #2C6B8F",
"G c #2C6D8D",
"H c #2C6E8C",
"J c #2C7783",
"K c #2C7585",
"L c #2C7486",
"P c #2B7981",
"I c #2C7981",
"U c #2C7882",
"Y c #2C708A",
"T c #2C6793",
"R c #2C6595",
"E c #2C6694",
"W c #2C6496",
"Q c #2C6991",
"! c #2C6A90",
"~ c #2C6199",
"^ c #2C609A",
"/ c #2C5AA0",
"( c None",
/* pixels */
"(((((#:,,:O(((((",
"(((*upk!~//9o(((",
"((3ddddddn~/Z@((",
"(XjddddddU///Z.(",
"(CwdddyBT^///Rq(",
"+//lvIT////SUgy%",
">//DS//////Gtmz4",
"1///KbU///EpzQA7",
"<///xddQ//Vddsh6",
":///eddxW/Faddd5",
"O///^dddL//!ddd&",
"(C//wdrJA//!ddf(",
"( Z/McF////Pdi$(",
"((@ZYH/////Nt2((",
"(((.8//////0=(((",
"(((((o;,,- ((((("
};
