/* XPM */
static const char *github_xpm[] = {
/* columns rows colors chars-per-pixel */
"16 16 81 1",
"  c #24292E",
". c #252A2F",
"X c #272C31",
"o c #292D33",
"O c #292E32",
"+ c #2A2F34",
"@ c #2B3035",
"# c #2D3236",
"$ c #2E3237",
"% c #2F3439",
"& c #31363A",
"* c #32363C",
"= c #33373D",
"- c #34383E",
"; c #363B3F",
": c #3B4045",
"> c #3C4046",
", c #3F4348",
"< c #44484C",
"1 c #45494F",
"2 c #484C51",
"3 c #4A4E53",
"4 c #4D5155",
"5 c #4E5257",
"6 c #4F5357",
"7 c #53575C",
"8 c #54585C",
"9 c #55585D",
"0 c #56595D",
"q c #5B5E63",
"w c #616467",
"e c #65686C",
"r c #676B6F",
"t c #6B6F73",
"y c #6C6F74",
"u c #6F7276",
"i c #717478",
"p c #74777C",
"a c #75787D",
"s c #76797D",
"d c #787B7F",
"f c #797C80",
"g c #7C7E82",
"h c #7D8084",
"j c #8C8E92",
"k c #8D9093",
"l c #8E9194",
"z c #8F9195",
"x c #909296",
"c c #999B9F",
"v c #9C9EA2",
"b c #A7A8AC",
"n c #AFB1B4",
"m c #B2B3B7",
"M c #B5B7BA",
"N c #B8B9BD",
"B c #B9BBBE",
"V c #BDBEC1",
"C c #BFC0C4",
"Z c #C6C7CA",
"A c #C7C8CB",
"S c #C9CACC",
"D c #CDCED1",
"F c #D2D2D6",
"G c #D4D4D8",
"H c #D4D5D9",
"J c #D5D6D9",
"K c #D7D8DB",
"L c #DBDCDF",
"P c #DCDCE0",
"I c #DDDDE1",
"U c #DFDFE2",
"Y c #DFE0E3",
"T c #E0E1E4",
"R c #E2E2E5",
"E c #E3E3E6",
"W c #E5E5E7",
"Q c #E5E5E9",
"! c #E6E6E9",
"~ c #E9E9EC",
"^ c None",
/* pixels */
"^^^^Fk8%%0zG^^^^",
"^^Uw        rR^^",
"^R1          5Q^",
"^t 6v>$99&:c8 h^",
"A  a^EP^^UY^d OJ",
"s  y^^^^^^^^i  j",
",  A^^^^^^^^D  7",
"+ +^^^^^^^^^^= *",
"@ .W^^^^^^^^!O #",
"<  n^^^^^^^^m  2",
"a  -S^^^^^^Z&  g",
"C bfO7B^^V;X   A",
"^toCeqI^^L    p^",
"^T13MN^^^^   4W^",
"^^Uu. ~^^! OaE^^",
"^^^^Hl^^^~xK^^^^"
};
