/* XPM */
static const char *googlemaps_xpm[] = {
/* columns rows colors chars-per-pixel */
"16 16 42 1",
"  c #EC512F",
". c #E94335",
"X c #EA4335",
"o c #EB4336",
"O c #EC4933",
"+ c #E74338",
"@ c #E65335",
"# c #EE6429",
"$ c #DB4642",
"% c #78AE38",
"& c #3FA94F",
"* c #34A754",
"= c #33A953",
"- c #34A853",
"; c #35A953",
": c #36A852",
"> c #34A465",
", c #36A36A",
"< c #54AB46",
"1 c #CEB716",
"2 c #E4BA0D",
"3 c #FBB706",
"4 c #F5BB07",
"5 c #FCBD03",
"6 c #FABB05",
"7 c #FBBC04",
"8 c #FABD05",
"9 c #306DD5",
"0 c #1A74E7",
"q c #1A72E8",
"w c #1A73E8",
"e c #1B73E8",
"r c #1C74E9",
"t c #2175EA",
"y c #2D7BEF",
"u c #456AC1",
"i c #3D83F2",
"p c #4287ED",
"a c #4184F3",
"s c #4285F4",
"d c #4286F5",
"f c None",
/* pixels */
"ffffffffffffffff",
"fffff0qwtdffffff",
"ffffwwwrassfffff",
"fff$9weissssffff",
"ffXX+uyfsssssfff",
"ffoXX@fffsp--fff",
"ff.X#fffff,--fff",
"ffX 68fff>---fff",
"ffO3775f%----fff",
"fff77771----ffff",
"fff7772:----ffff",
"ffff74&---;fffff",
"fffff<----ffffff",
"fffff*---=ffffff",
"ffffff---fffffff",
"fffffff-ffffffff"
};
