/* XPM */
static const char *grid3_xpm[] = {
/* columns rows colors chars-per-pixel */
"17 17 2 2",
/* colors */
"`` c #000000",
"`. c #ffffff",
/* pixels */
"``````````````````````````````````",
"```.```.```.```.```.```.```.```.``",
"``````````````````````````````````",
"```.```.```.```.```.```.```.```.``",
"``````````````````````````````````",
"```.```.```.```.```.```.```.```.``",
"``````````````````````````````````",
"```.```.```.```.```.```.```.```.``",
"``````````````````````````````````",
"```.```.```.```.```.```.```.```.``",
"``````````````````````````````````",
"```.```.```.```.```.```.```.```.``",
"``````````````````````````````````",
"```.```.```.```.```.```.```.```.``",
"``````````````````````````````````",
"```.```.```.```.```.```.```.```.``",
"``````````````````````````````````"
};
