/* XPM */
static const char * locate_container_xpm[] = {
/* columns rows colors chars-per-pixel */
"16 16 4 1",
" 	c None",
".	c Black",
"+	c Red",
"@	c #851d1d",
/* pixels */
"           ...  ",
"          .   . ",
"              . ",
"             .  ",
"            .   ",
"                ",
"            .   ",
"                ",
"                ",
"............... ",
".+++++++++++++. ",
".+@+@+@+@+@+@+. ",
".+@+@+@+@+@+@+. ",
".+@+@+@+@+@+@+. ",
".+++++++++++++. ",
"............... "
};
