/* XPM */
static const char *locate_route_xpm[] = {
/* columns rows colors chars-per-pixel */
"16 16 3 1",
" 	c None",
".	c Black",
"o	c Red",
/* pixels */
"           ...  ",
"          .   . ",
"              . ",
"...          .  ",
".o.         .   ",
".o.             ",
".o.         .   ",
".o.       ..    ",
".o.       .o.   ",
".o.       .oo.  ",
".oo........ooo. ",
" .ooooooooooooo.",
"  .........ooo. ",
"          .oo.  ",
"          .o.   ",
"          ..    "
};
