/* XPM */
static const char *lockselected_xpm[] = {
/* columns rows colors chars-per-pixel */
"16 16 39 1",
" 	c None",
".	c #C5C7C5",
"+	c #91948E",
"@	c #676965",
"#	c #6D6E6B",
"$	c #6C6E6A",
"%	c #686A65",
"&	c #747671",
"*	c #6C6E68",
"=	c #636561",
"-	c #686A66",
";	c #5B6368",
">	c #3844DE",
",	c #282992",
"'	c #191A92",
")	c #2433C8",
"!	c #1829CE",
"~	c #182995",
"{	c #061993",
"]	c #010280",
"^	c #1829BC",
"/	c #3844F6",
"(	c #C6E6F6",
"_	c #B0DAF0",
":	c #9BCEE8",
"<	c #89C3E0",
"[	c #78B8D7",
"}	c #62ABCF",
"|	c #44A1CF",
"1	c #00AAFF",
"2	c #007CFF",
"3	c #3844BD",
"4	c #0061FF",
"5	c #009BFF",
"6	c #008BFF",
"7	c #0074FF",
"8	c #006CFF",
"9	c #303DC1",
"0	c #1829C2",
/* pixels */
"      ....      ",
"     .++++.     ",
"    .+@#$%+.    ",
"   .+&    *+.   ",
"   .+=    -+.   ",
"   .+;    -+.   ",
"   >,')!~{]]^   ",
"  /)(_:<[}|123  ",
"  42|15627845{  ",
"  42|15627845{  ",
"  42|15627845{  ",
"  42|15627845{  ",
"  />:<[}|1564^  ",
"   '39)!0^~{]   ",
"                ",
"                "
};
