/* XPM */
static const char *manip_xpm[] = {
/* columns rows colors chars-per-pixel */
"16 16 6 1",
"  c black",
". c #9E660D",
"X c #EFC001",
"o c #F2E83A",
"O c #A0A5C7",
"+ c none",
/* pixels */
"++++++++++++   +",
"++++++++++++ OO ",
"++++++++++++ OO ",
"+++++++++++ O   ",
"++++++++++ O +++",
"+++++++++ O ++++",
"++++++++ O +++++",
"+++++   O ++++++",
"++++ oXX +++++++",
"+++ oXX. +++++++",
"++ oX.X. +++++++",
"+ oX.X. ++++++++",
"+ XXX. +++++++++",
"+ X.. ++++++++++",
"++   +++++++++++",
"++++++++++++++++"
};
