/* XPM */
static const char *meandatalane_xpm[] = {
/* columns rows colors chars-per-pixel */
"16 16 11 1",
"  c black",
". c #007F0E",
"X c gray50",
"o c red",
"O c #FFD800",
"+ c #0026FF",
"@ c #C3C3C3",
"# c none",
"$ c white",
"a c #0000CC",
"b c #000080",
/* pixels */
"@@@@@@@@@@@@@@@@",
"aaaaaaaaaaaaaaaa",
"aaaaaaaaaaaaaaaa",
"aaaaaaaaaaaaaaaa",
"aaaaaaaaaaaaaaaa",
"b$$bb$$bb$$bb$$b",
"                ",
"                ",
"       $$$$$$$$X",
"       $$++$$$$X",
"@@@@@@@oo++$$$$X",
"#######oo++..$$X",
"#######oo++..OOX",
"#######oo++..OOX",
"#######oo++..OOX",
"#######XXXXXXXXX"
};
