/* XPM */
static const char *modecrossing_xpm[] = {
/* columns rows colors chars-per-pixel */
"16 16 2 1",
". c black",
"x c gray100",
/* pixels */
"................",
"xxxxxxxxxxxxxxxx",
"xxxxxxxxxxxxxxxx",
"................",
"................",
"xxxxxxxxxxxxxxxx",
"xxxxxxxxxxxxxxxx",
"................",
"................",
"xxxxxxxxxxxxxxxx",
"xxxxxxxxxxxxxxxx",
"................",
"................",
"xxxxxxxxxxxxxxxx",
"xxxxxxxxxxxxxxxx",
"................"
};
