/* XPM */
static const char *modecontainer_xpm[] = {
/* columns rows colors chars-per-pixel */
"16 16 4 1",
" 	c None",
".	c Black",
"+	c #63b8ff",
"@  c #666666",
/* pixels */
"                ",
"                ",
"                ",
"                ",
"  @@@@@@@@@@@@@@",
"...............@",
".+++++++++++++.@",
".+.+.+.+.+.+.+.@",
".+.+.+.+.+.+.+.@",
".+.+.+.+.+.+.+.@",
".+.+.+.+.+.+.+.@",
".+++++++++++++.@",
"............... ",
"                ",
"                ",
"                "
};
