/* XPM */
static const char *netgenerate_grid_xpm[] = {
/* columns rows colors chars-per-pixel */
"128 128 3 1",
"  c white",
". c red",
"X c black",
/* pixels */
"                            ........                        ........                        ........                            ",
"                            ........                        ........                        ........                            ",
"                             ......                          ......                          ......                             ",
"                              ....                            ....                            ....                              ",
"                              XXXX                            XXXX                            XXXX                              ",
"                              XXXX                            XXXX                            XXXX                              ",
"                              XXXX                            XXXX                            XXXX                              ",
"                              XXXX                            XXXX                            XXXX                              ",
"                              XXXX                            XXXX                            XXXX                              ",
"                              XXXX                            XXXX                            XXXX                              ",
"                              XXXX                            XXXX                            XXXX                              ",
"                              XXXX                            XXXX                            XXXX                              ",
"                              XXXX                            XXXX                            XXXX                              ",
"                              XXXX                            XXXX                            XXXX                              ",
"                              XXXX                            XXXX                            XXXX                              ",
"                              XXXX                            XXXX                            XXXX                              ",
"                              XXXX                            XXXX                            XXXX                              ",
"                              XXXX                            XXXX                            XXXX                              ",
"                              XXXX                            XXXX                            XXXX                              ",
"                              XXXX                            XXXX                            XXXX                              ",
"                              XXXX                            XXXX                            XXXX                              ",
"                              XXXX                            XXXX                            XXXX                              ",
"                              XXXX                            XXXX                            XXXX                              ",
"                              XXXX                            XXXX                            XXXX                              ",
"                              XXXX                            XXXX                            XXXX                              ",
"                              XXXX                            XXXX                            XXXX                              ",
"                              XXXX                            XXXX                            XXXX                              ",
"                              XXXX                            XXXX                            XXXX                              ",
"..                            ....                            ....                            ....                            ..",
"...                          ......                          ......                          ......                          ...",
"....XXXXXXXXXXXXXXXXXXXXXXXX........XXXXXXXXXXXXXXXXXXXXXXXX........XXXXXXXXXXXXXXXXXXXXXXXX........XXXXXXXXXXXXXXXXXXXXXXXX....",
"....XXXXXXXXXXXXXXXXXXXXXXXX........XXXXXXXXXXXXXXXXXXXXXXXX........XXXXXXXXXXXXXXXXXXXXXXXX........XXXXXXXXXXXXXXXXXXXXXXXX....",
"....XXXXXXXXXXXXXXXXXXXXXXXX........XXXXXXXXXXXXXXXXXXXXXXXX........XXXXXXXXXXXXXXXXXXXXXXXX........XXXXXXXXXXXXXXXXXXXXXXXX....",
"....XXXXXXXXXXXXXXXXXXXXXXXX........XXXXXXXXXXXXXXXXXXXXXXXX........XXXXXXXXXXXXXXXXXXXXXXXX........XXXXXXXXXXXXXXXXXXXXXXXX....",
"...                          ......                          ......                          ......                          ...",
"..                            ....                            ....                            ....                            ..",
"                              XXXX                            XXXX                            XXXX                              ",
"                              XXXX                            XXXX                            XXXX                              ",
"                              XXXX                            XXXX                            XXXX                              ",
"                              XXXX                            XXXX                            XXXX                              ",
"                              XXXX                            XXXX                            XXXX                              ",
"                              XXXX                            XXXX                            XXXX                              ",
"                              XXXX                            XXXX                            XXXX                              ",
"                              XXXX                            XXXX                            XXXX                              ",
"                              XXXX                            XXXX                            XXXX                              ",
"                              XXXX                            XXXX                            XXXX                              ",
"                              XXXX                            XXXX                            XXXX                              ",
"                              XXXX                            XXXX                            XXXX                              ",
"                              XXXX                            XXXX                            XXXX                              ",
"                              XXXX                            XXXX                            XXXX                              ",
"                              XXXX                            XXXX                            XXXX                              ",
"                              XXXX                            XXXX                            XXXX                              ",
"                              XXXX                            XXXX                            XXXX                              ",
"                              XXXX                            XXXX                            XXXX                              ",
"                              XXXX                            XXXX                            XXXX                              ",
"                              XXXX                            XXXX                            XXXX                              ",
"                              XXXX                            XXXX                            XXXX                              ",
"                              XXXX                            XXXX                            XXXX                              ",
"                              XXXX                            XXXX                            XXXX                              ",
"                              XXXX                            XXXX                            XXXX                              ",
"..                            ....                            ....                            ....                            ..",
"...                          ......                          ......                          ......                          ...",
"....XXXXXXXXXXXXXXXXXXXXXXXX........XXXXXXXXXXXXXXXXXXXXXXXX........XXXXXXXXXXXXXXXXXXXXXXXX........XXXXXXXXXXXXXXXXXXXXXXXX....",
"....XXXXXXXXXXXXXXXXXXXXXXXX........XXXXXXXXXXXXXXXXXXXXXXXX........XXXXXXXXXXXXXXXXXXXXXXXX........XXXXXXXXXXXXXXXXXXXXXXXX....",
"....XXXXXXXXXXXXXXXXXXXXXXXX........XXXXXXXXXXXXXXXXXXXXXXXX........XXXXXXXXXXXXXXXXXXXXXXXX........XXXXXXXXXXXXXXXXXXXXXXXX....",
"....XXXXXXXXXXXXXXXXXXXXXXXX........XXXXXXXXXXXXXXXXXXXXXXXX........XXXXXXXXXXXXXXXXXXXXXXXX........XXXXXXXXXXXXXXXXXXXXXXXX....",
"...                          ......                          ......                          ......                          ...",
"..                            ....                            ....                            ....                            ..",
"                              XXXX                            XXXX                            XXXX                              ",
"                              XXXX                            XXXX                            XXXX                              ",
"                              XXXX                            XXXX                            XXXX                              ",
"                              XXXX                            XXXX                            XXXX                              ",
"                              XXXX                            XXXX                            XXXX                              ",
"                              XXXX                            XXXX                            XXXX                              ",
"                              XXXX                            XXXX                            XXXX                              ",
"                              XXXX                            XXXX                            XXXX                              ",
"                              XXXX                            XXXX                            XXXX                              ",
"                              XXXX                            XXXX                            XXXX                              ",
"                              XXXX                            XXXX                            XXXX                              ",
"                              XXXX                            XXXX                            XXXX                              ",
"                              XXXX                            XXXX                            XXXX                              ",
"                              XXXX                            XXXX                            XXXX                              ",
"                              XXXX                            XXXX                            XXXX                              ",
"                              XXXX                            XXXX                            XXXX                              ",
"                              XXXX                            XXXX                            XXXX                              ",
"                              XXXX                            XXXX                            XXXX                              ",
"                              XXXX                            XXXX                            XXXX                              ",
"                              XXXX                            XXXX                            XXXX                              ",
"                              XXXX                            XXXX                            XXXX                              ",
"                              XXXX                            XXXX                            XXXX                              ",
"                              XXXX                            XXXX                            XXXX                              ",
"                              XXXX                            XXXX                            XXXX                              ",
"..                            ....                            ....                            ....                            ..",
"...                          ......                          ......                          ......                          ...",
"....XXXXXXXXXXXXXXXXXXXXXXXX........XXXXXXXXXXXXXXXXXXXXXXXX........XXXXXXXXXXXXXXXXXXXXXXXX........XXXXXXXXXXXXXXXXXXXXXXXX....",
"....XXXXXXXXXXXXXXXXXXXXXXXX........XXXXXXXXXXXXXXXXXXXXXXXX........XXXXXXXXXXXXXXXXXXXXXXXX........XXXXXXXXXXXXXXXXXXXXXXXX....",
"....XXXXXXXXXXXXXXXXXXXXXXXX........XXXXXXXXXXXXXXXXXXXXXXXX........XXXXXXXXXXXXXXXXXXXXXXXX........XXXXXXXXXXXXXXXXXXXXXXXX....",
"....XXXXXXXXXXXXXXXXXXXXXXXX........XXXXXXXXXXXXXXXXXXXXXXXX........XXXXXXXXXXXXXXXXXXXXXXXX........XXXXXXXXXXXXXXXXXXXXXXXX....",
"...                          ......                          ......                          ......                          ...",
"..                            ....                            ....                            ....                            ..",
"                              XXXX                            XXXX                            XXXX                              ",
"                              XXXX                            XXXX                            XXXX                              ",
"                              XXXX                            XXXX                            XXXX                              ",
"                              XXXX                            XXXX                            XXXX                              ",
"                              XXXX                            XXXX                            XXXX                              ",
"                              XXXX                            XXXX                            XXXX                              ",
"                              XXXX                            XXXX                            XXXX                              ",
"                              XXXX                            XXXX                            XXXX                              ",
"                              XXXX                            XXXX                            XXXX                              ",
"                              XXXX                            XXXX                            XXXX                              ",
"                              XXXX                            XXXX                            XXXX                              ",
"                              XXXX                            XXXX                            XXXX                              ",
"                              XXXX                            XXXX                            XXXX                              ",
"                              XXXX                            XXXX                            XXXX                              ",
"                              XXXX                            XXXX                            XXXX                              ",
"                              XXXX                            XXXX                            XXXX                              ",
"                              XXXX                            XXXX                            XXXX                              ",
"                              XXXX                            XXXX                            XXXX                              ",
"                              XXXX                            XXXX                            XXXX                              ",
"                              XXXX                            XXXX                            XXXX                              ",
"                              XXXX                            XXXX                            XXXX                              ",
"                              XXXX                            XXXX                            XXXX                              ",
"                              XXXX                            XXXX                            XXXX                              ",
"                              XXXX                            XXXX                            XXXX                              ",
"                              ....                            ....                            ....                              ",
"                             ......                          ......                          ......                             ",
"                            ........                        ........                        ........                            ",
"                            ........                        ........                        ........                            "
};
