/* XPM */
static const char *netgenerate_spider_xpm[] = {
/* columns rows colors chars-per-pixel */
"128 128 3 1",
"  c red",
". c white",
"X c black",
/* pixels */
"     .........................................................XXXX.........................................................     ",
"     .........................................................XXXX.........................................................     ",
"     .........................................................XXXX.........................................................     ",
"    XX........................................................XXXX........................................................XX    ",
"   XXXX.......................................................XXXX.......................................................XXXX   ",
"...XXXXX......................................................XXXX......................................................XXXXX...",
"....XXXXX.....................................................XXXX.....................................................XXXXX....",
".....XXXXX....................................................XXXX....................................................XXXXX.....",
"......XXXXX...................................................XXXX...................................................XXXXX......",
".......XXXXX..................................................XXXX..................................................XXXXX.......",
"........XXXXX.................................................XXXX.................................................XXXXX........",
".........XXXXX................................................XXXX................................................XXXXX.........",
"..........XXXXX...............................................    ...............................................XXXXX..........",
"...........XXXXX.............................................      .............................................XXXXX...........",
"............XXXXX..........................................X        X..........................................XXXXX............",
".............XXXXX.......................................XXX        XXX.......................................XXXXX.............",
"..............XXXXX....................................XXXXX        XXXXX....................................XXXXX..............",
"...............XXXXX.................................XXXXXXX        XXXXXXX.................................XXXXX...............",
"................XXXXX..............................XXXXXXXX..      ..XXXXXXXX..............................XXXXX................",
".................XXXXX...........................XXXXXXXX.....    .....XXXXXXXX...........................XXXXX.................",
"..................XXXXX........................XXXXXXXX.......XXXX.......XXXXXXXX........................XXXXX..................",
"...................XXXXX.....................XXXXXXXX.........XXXX.........XXXXXXXX.....................XXXXX...................",
"....................XXXXX..................XXXXXXXX...........XXXX...........XXXXXXXX..................XXXXX....................",
".....................XXXXX...............XXXXXXXX.............XXXX.............XXXXXXXX...............XXXXX.....................",
"......................XXXXX............XXXXXXXX...............XXXX...............XXXXXXXX............XXXXX......................",
".......................XXXXX.........XXXXXXXX.................XXXX.................XXXXXXXX.........XXXXX.......................",
"........................XXXXX......XXXXXXXX...................XXXX...................XXXXXXXX......XXXXX........................",
".........................XXXXX...XXXXXXXX.....................XXXX.....................XXXXXXXX...XXXXX.........................",
"..........................XXXX    XXXXX.......................XXXX.......................XXXXX    XXXX..........................",
"...........................XX      XX.........................XXXX.........................XX      XX...........................",
"............................        ..........................XXXX..........................        ............................",
"............................        ..........................XXXX..........................        ............................",
"............................        ..........................XXXX..........................        ............................",
"............................        ..........................XXXX..........................        ............................",
"............................X      XX.........................XXXX.........................XX      X............................",
"............................XX    XXXX........................XXXX........................XXXX    XX............................",
"...........................XXXX...XXXXX.......................XXXX.......................XXXXX...XXXX...........................",
"..........................XXXXX....XXXXX......................XXXX......................XXXXX....XXXXX..........................",
"..........................XXXX......XXXXX.....................XXXX.....................XXXXX......XXXX..........................",
".........................XXXXX.......XXXXX....................XXXX....................XXXXX.......XXXXX.........................",
".........................XXXX.........XXXXX...................XXXX...................XXXXX.........XXXX.........................",
"........................XXXX...........XXXXX..................XXXX..................XXXXX...........XXXX........................",
"........................XXXX............XXXXX.................XXXX.................XXXXX............XXXX........................",
".......................XXXX..............XXXXX................XXXX................XXXXX..............XXXX.......................",
"......................XXXXX...............XXXXX...............XXXX...............XXXXX...............XXXXX......................",
"......................XXXX.................XXXXX..............XXXX..............XXXXX.................XXXX......................",
".....................XXXX...................XXXXX.............XXXX.............XXXXX...................XXXX.....................",
".....................XXXX....................XXXXX............XXXX............XXXXX....................XXXX.....................",
"....................XXXX......................XXXXX...........XXXX...........XXXXX......................XXXX....................",
"....................XXXX.......................XXXXX..........XXXX..........XXXXX.......................XXXX....................",
"...................XXXX.........................XXXXX.........XXXX.........XXXXX.........................XXXX...................",
"..................XXXXX..........................XXXXX........XXXX........XXXXX..........................XXXXX..................",
"..................XXXX............................XXXXX.......XXXX.......XXXXX............................XXXX..................",
".................XXXX..............................XXXXX......XXXX......XXXXX..............................XXXX.................",
".................XXXX...............................XXXXX.....XXXX.....XXXXX...............................XXXX.................",
"................XXXX.................................XXXXX....XXXX....XXXXX.................................XXXX................",
"...............XXXXX..................................XXXXX...XXXX...XXXXX..................................XXXXX...............",
"...............XXXX....................................XXXXX..XXXX..XXXXX....................................XXXX...............",
"..............XXXXX.....................................XXXXX.XXXX.XXXXX.....................................XXXXX..............",
"..............XXXX.......................................XXXXXXXXXXXXXX.......................................XXXX..............",
"..............    ........................................XXXX    XXXX........................................    ..............",
".............      ........................................XX      XX........................................      .............",
"XXXXXXXXXXXX        XXXXXXXXXXXXXXXXXXXXXXXXXXXXXXXXXXXXXXXX        XXXXXXXXXXXXXXXXXXXXXXXXXXXXXXXXXXXXXXXX        XXXXXXXXXXXX",
"XXXXXXXXXXXX        XXXXXXXXXXXXXXXXXXXXXXXXXXXXXXXXXXXXXXXX        XXXXXXXXXXXXXXXXXXXXXXXXXXXXXXXXXXXXXXXX        XXXXXXXXXXXX",
"XXXXXXXXXXXX        XXXXXXXXXXXXXXXXXXXXXXXXXXXXXXXXXXXXXXXX        XXXXXXXXXXXXXXXXXXXXXXXXXXXXXXXXXXXXXXXX        XXXXXXXXXXXX",
"XXXXXXXXXXXX        XXXXXXXXXXXXXXXXXXXXXXXXXXXXXXXXXXXXXXXX        XXXXXXXXXXXXXXXXXXXXXXXXXXXXXXXXXXXXXXXX        XXXXXXXXXXXX",
".............      ........................................XX      XX........................................      .............",
"..............    ........................................XXXX    XXXX........................................    ..............",
"..............XXXX.......................................XXXXXXXXXXXXXX.......................................XXXX..............",
"..............XXXXX.....................................XXXXX.XXXX.XXXXX.....................................XXXXX..............",
"...............XXXX....................................XXXXX..XXXX..XXXXX....................................XXXX...............",
"...............XXXXX..................................XXXXX...XXXX...XXXXX..................................XXXXX...............",
"................XXXX.................................XXXXX....XXXX....XXXXX.................................XXXX................",
".................XXXX...............................XXXXX.....XXXX.....XXXXX...............................XXXX.................",
".................XXXX..............................XXXXX......XXXX......XXXXX..............................XXXX.................",
"..................XXXX............................XXXXX.......XXXX.......XXXXX............................XXXX..................",
"..................XXXXX..........................XXXXX........XXXX........XXXXX..........................XXXXX..................",
"...................XXXX.........................XXXXX.........XXXX.........XXXXX.........................XXXX...................",
"....................XXXX.......................XXXXX..........XXXX..........XXXXX.......................XXXX....................",
"....................XXXX......................XXXXX...........XXXX...........XXXXX......................XXXX....................",
".....................XXXX....................XXXXX............XXXX............XXXXX....................XXXX.....................",
".....................XXXX...................XXXXX.............XXXX.............XXXXX...................XXXX.....................",
"......................XXXX.................XXXXX..............XXXX..............XXXXX.................XXXX......................",
"......................XXXXX...............XXXXX...............XXXX...............XXXXX...............XXXXX......................",
".......................XXXX..............XXXXX................XXXX................XXXXX..............XXXX.......................",
"........................XXXX............XXXXX.................XXXX.................XXXXX............XXXX........................",
"........................XXXX...........XXXXX..................XXXX..................XXXXX...........XXXX........................",
".........................XXXX.........XXXXX...................XXXX...................XXXXX.........XXXX.........................",
".........................XXXXX.......XXXXX....................XXXX....................XXXXX.......XXXXX.........................",
"..........................XXXX......XXXXX.....................XXXX.....................XXXXX......XXXX..........................",
"..........................XXXXX....XXXXX......................XXXX......................XXXXX....XXXXX..........................",
"...........................XXXX...XXXXX.......................XXXX.......................XXXXX...XXXX...........................",
"............................XX    XXXX........................XXXX........................XXXX    XX............................",
"............................X      XX.........................XXXX.........................XX      X............................",
"............................        ..........................XXXX..........................        ............................",
"............................        ..........................XXXX..........................        ............................",
"............................        ..........................XXXX..........................        ............................",
"............................        ..........................XXXX..........................        ............................",
"...........................XX      XX.........................XXXX.........................XX      XX...........................",
"..........................XXXX    XXXXX.......................XXXX.......................XXXXX    XXXX..........................",
".........................XXXXX...XXXXXXXX.....................XXXX.....................XXXXXXXX...XXXXX.........................",
"........................XXXXX......XXXXXXXX...................XXXX...................XXXXXXXX......XXXXX........................",
".......................XXXXX.........XXXXXXXX.................XXXX.................XXXXXXXX.........XXXXX.......................",
"......................XXXXX............XXXXXXXX...............XXXX...............XXXXXXXX............XXXXX......................",
".....................XXXXX...............XXXXXXXX.............XXXX.............XXXXXXXX...............XXXXX.....................",
"....................XXXXX..................XXXXXXXX...........XXXX...........XXXXXXXX..................XXXXX....................",
"...................XXXXX.....................XXXXXXXX.........XXXX.........XXXXXXXX.....................XXXXX...................",
"..................XXXXX........................XXXXXXXX.......XXXX.......XXXXXXXX........................XXXXX..................",
".................XXXXX...........................XXXXXXXX.....    .....XXXXXXXX...........................XXXXX.................",
"................XXXXX..............................XXXXXXXX..      ..XXXXXXXX..............................XXXXX................",
"...............XXXXX.................................XXXXXXX        XXXXXXX.................................XXXXX...............",
"..............XXXXX....................................XXXXX        XXXXX....................................XXXXX..............",
".............XXXXX.......................................XXX        XXX.......................................XXXXX.............",
"............XXXXX..........................................X        X..........................................XXXXX............",
"...........XXXXX.............................................      .............................................XXXXX...........",
"..........XXXXX...............................................    ...............................................XXXXX..........",
".........XXXXX................................................XXXX................................................XXXXX.........",
"........XXXXX.................................................XXXX.................................................XXXXX........",
".......XXXXX..................................................XXXX..................................................XXXXX.......",
"......XXXXX...................................................XXXX...................................................XXXXX......",
".....XXXXX....................................................XXXX....................................................XXXXX.....",
"....XXXXX.....................................................XXXX.....................................................XXXXX....",
"...XXXXX......................................................XXXX......................................................XXXXX...",
"   XXXX.......................................................XXXX.......................................................XXXX   ",
"    XX........................................................XXXX........................................................XX    ",
"     .........................................................XXXX.........................................................     ",
"     .........................................................XXXX.........................................................     ",
"     .........................................................XXXX.........................................................     "
};
