/* XPM */
static const char * poi_xpm[] = {
/* columns rows colors chars-per-pixel */
"16 16 6 1",
"  c gray50",
". c #880015",
"X c #ED1C24",
"o c #CFCFCF",
"O c white",
"# c None",
/* pixels */
"################",
"######XXX#######",
"#####XXXX.######",
"####XXOXXX.#####",
"####XXXXXX.#####",
"####XXXXXX.#####",
"#####XXXX.######",
"######X..#######",
"######o o#######",
"######o o#######",
"######o o#######",
"######o o#######",
"######o o#######",
"######o o#######",
"####### ########",
"################"
};
