/* XPM */
static const char * recenter_view_xpm[] = {
/* columns rows colors chars-per-pixel */
"17 17 4 1",
" 	c None",
".	c Black",
"X	c #f9f9f8",
"o	c Gray100",
/* pixels */
"       ...       ",
"       .X.       ",
"     ...X...     ",
"     .o.X.o.     ",
"     ..oXo..     ",
"  ... ..X.. ...  ",
"  .o.. ... ..o.  ",
"....o..   ..o....",
".ooooo.   .ooooo.",
"....o..   ..o....",
"  .o.. ... ..o.  ",
"  ... ..X.. ...  ",
"     ..oXo..     ",
"     .o.X.o.     ",
"     ...X...     ",
"       .X.       ",
"       ...       "
};
