/* XPM */
static const char *remove_xpm[] = {
/* columns rows colors chars-per-pixel */
"16 16 3 1",
"  c #860000",
"$ c red",
"% c None",
/* pixels */
"%%%%%%%%%%%%%%%%",
"%%%  %%%%%%  %%%",
"%% $$ %%%% $$ %%",
"% $$$$ %% $$$$ %",
"% $$$$$  $$$$$ %",
"%% $$$$$$$$$$ %%",
"%%% $$$$$$$$ %%%",
"%%%% $$$$$$ %%%%",
"%%%% $$$$$$ %%%%",
"%%% $$$$$$$$ %%%",
"%% $$$$$$$$$$ %%",
"% $$$$$  $$$$$ %",
"% $$$$ %% $$$$ %",
"%% $$ %%%% $$ %%",
"%%%  %%%%%%  %%%",
"%%%%%%%%%%%%%%%%"
};
