/* XPM */
static const char *rerouter_xpm[] = {
/* columns rows colors chars-per-pixel */
"16 16 57 2",
"   c black",
".  c #100D00",
"X  c #241D00",
"o  c #501F1F",
"O  c #403300",
"+  c #483900",
"@  c #4C3D00",
"#  c #582222",
"$  c #5C2424",
"%  c #602626",
"&  c #642727",
"*  c #682929",
"=  c #6C2A2A",
"-  c #742D2D",
";  c #7C3030",
":  c #5C4900",
">  c #803232",
",  c #833434",
"<  c #873535",
"1  c #8B3737",
"2  c #933A3A",
"3  c #973B3B",
"4  c #9B3D3D",
"5  c #9F3E3E",
"6  c #9B7C00",
"7  c #BF6334",
"8  c #BF7226",
"9  c #A74242",
"0  c #AB4343",
"q  c #AF4545",
"w  c #B34646",
"e  c #B74848",
"r  c #BB4949",
"t  c #BF4B4B",
"y  c #AF795D",
"u  c #AF6B6B",
"i  c #C34D4D",
"p  c #D35353",
"a  c #D75454",
"s  c #DB5656",
"d  c #DF5858",
"f  c #E75B5B",
"g  c #EB5C5C",
"h  c #EF5E5E",
"j  c #F35F5F",
"k  c #F76161",
"l  c #FF6464",
"z  c #9F8000",
"x  c #AF8C00",
"c  c #BF9900",
"v  c #C79F00",
"b  c #DFB200",
"n  c #FF8D3D",
"m  c #E7B900",
"M  c #FFA526",
"N  c #F7C600",
"B  c #FFCC00",
/* pixels */
"u t t t t t t t t t t t t t t u ",
"e d g l h d j l l l l l l l l t ",
"> & - 0 > 1 # d l l l l l l l t ",
"> 1 9 4 > i - a l l l l l l l t ",
"> & # f > < $ l l l l l l l l t ",
"> 5 s ; > d 4 r l l l l l l l t ",
"q f l a d k k d l l l l l l l t ",
"t l l l l l l l l l l l l l l t ",
"7 M M M M M M n l l l l l l l t ",
"8 m X B B : x M l l l l f 1 l t ",
"8 b   B B O z M l l l f 3 5 l t ",
"8 b   B B O z M l 3 < * * < o 9 ",
"8 b   B B O z M a 2 % = , 4 f t ",
"8 N . 6 v . v M l l - e p g d w ",
"8 B c @ + z B M l l a l 5 1 9 1 ",
"y 8 8 8 8 8 8 7 t t t t t t t u "
};
