/* XPM */
static const char *sum_xpm[] = {
/* columns rows colors chars-per-pixel */
"16 16 38 1",
"C c gray14",
". c #252525",
"X c #2C2C2C",
"o c #2D2D2D",
"O c #343434",
"+ c #353535",
"@ c gray21",
"# c gray23",
"$ c #3C3C3C",
"% c gray24",
"& c #464646",
"* c gray28",
"= c #484848",
"- c #494949",
"; c gray32",
": c #555555",
"> c #5A5A5A",
", c #5B5B5B",
"< c #606060",
"1 c gray38",
"2 c #656565",
"3 c #676767",
"4 c #6A6A6A",
"5 c gray43",
"6 c #6F6F6F",
"7 c #808080",
"8 c #818181",
"9 c gray51",
"0 c #838383",
"q c #888888",
"w c gray54",
"e c #8B8B8B",
"r c gray55",
"t c #8D8D8D",
"y c gray56",
"u c #979797",
"i c #989898",
"  c None",
/* pixels */
"  <>>>>>>>,>>1  ",
" 0.C..C.C.C.C.r ",
"  &..2iiuiuu=Cw ",
"   *Co      4.t ",
"    =Co      7  ",
"     =.X        ",
"      -.X       ",
"       =.X      ",
"       @.#      ",
"      @C#       ",
"     +.#        ",
"    +.$      ;  ",
"   O.%      3.w ",
"  OCC:565565$.e ",
" 8..C..C...C..y ",
"  q0000090900e  "
};
