/* XPM */
static const char *tlsphaseallyellow_xpm[] = {
/* columns rows colors chars-per-pixel */
"16 16 5 1",
". c #D6D6D6",
"o c #FFD800",
"@ c #FEF168",
"# c #7A8B9C",
"$ c None",
/* pixels */
"$$$$########$$$$",
"$$$$###..###$$$$",
"$$$$##....##$$$$",
"$$$$##....##$$$$",
"$$$$###..###$$$$",
"$$$$########$$$$",
"$$$$###@o###$$$$",
"$$$$##@@oo##$$$$",
"$$$$##oooo##$$$$",
"$$$$###oo###$$$$",
"$$$$########$$$$",
"$$$$###..###$$$$",
"$$$$##....##$$$$",
"$$$$##....##$$$$",
"$$$$###..###$$$$",
"$$$$########$$$$"
};
