/* XPM */
static const char *tool_python_xpm[] = {
/* columns rows colors chars-per-pixel */
"16 16 103 2",
"  	c None",
". 	c #377AB1",
"+ 	c #3879AE",
"@ 	c #3777AC",
"# 	c #3776A9",
"$ 	c #3775A8",
"% 	c #3773A4",
"& 	c #387AB1",
"* 	c #3677AD",
"= 	c #397BB1",
"- 	c #3774A8",
"; 	c #3874A7",
"> 	c #3C7DB3",
", 	c #3770A0",
"' 	c #3779AF",
") 	c #3676AC",
"! 	c #3775AA",
"~ 	c #3C7FB7",
"{ 	c #3772A5",
"] 	c #3771A3",
"^ 	c #3872A3",
"/ 	c #386F9E",
"( 	c #3772A3",
"_ 	c #3972A2",
": 	c #346E9C",
"< 	c #DFBA2F",
"[ 	c #387BB0",
"} 	c #3879AF",
"| 	c #3877AC",
"1 	c #3775A7",
"2 	c #3773A5",
"3 	c #3871A3",
"4 	c #3770A1",
"5 	c #386F9F",
"6 	c #3C72A1",
"7 	c #01669C",
"8 	c #FFE147",
"9 	c #FFE348",
"0 	c #3D85C0",
"a 	c #397BB2",
"b 	c #397AB0",
"c 	c #3979AF",
"d 	c #3A78AC",
"e 	c #3A77A9",
"f 	c #3A74A6",
"g 	c #38709E",
"h 	c #386F9B",
"i 	c #3D709D",
"j 	c #0B6599",
"k 	c #FFDB46",
"l 	c #FFD140",
"m 	c #3778AF",
"n 	c #3776AA",
"o 	c #3674A7",
"p 	c #3C75A6",
"q 	c #3F78A9",
"r 	c #3873A4",
"s 	c #38709F",
"t 	c #3A76A7",
"u 	c #005C99",
"v 	c #FFD242",
"w 	c #FFCF3E",
"x 	c #3776AB",
"y 	c #3674A8",
"z 	c #FFCE3E",
"A 	c #FFCD3C",
"B 	c #3C76A7",
"C 	c #FFF457",
"D 	c #FFE14E",
"E 	c #FFE14C",
"F 	c #FFDE4A",
"G 	c #FFDC48",
"H 	c #FFDB47",
"I 	c #FFD142",
"J 	c #FFCE3F",
"K 	c #FFCD3D",
"L 	c #FFCF3B",
"M 	c #3874A6",
"N 	c #3C78AA",
"O 	c #FFDF4F",
"P 	c #FFD84A",
"Q 	c #FED647",
"R 	c #FFD944",
"S 	c #FFD841",
"T 	c #FFD53F",
"U 	c #FFD13C",
"V 	c #3873A5",
"W 	c #3D7CB1",
"X 	c #3475AB",
"Y 	c #FFE04D",
"Z 	c #FFD747",
"` 	c #FFD446",
" .	c #3A71A1",
"..	c #316D9F",
"+.	c #FFDD4A",
"@.	c #FFD646",
"#.	c #FFD947",
"$.	c #FFD344",
"%.	c #FFE94B",
"&.	c #FFD443",
"*.	c #FFD040",
"=.	c #FFD640",
"-.	c #FFCC3C",
/* pixels */
"          . + @ # $ %           ",
"        &   * = - ; > ,         ",
"        ' ) ! ~ { ] ^ /         ",
"                ( , _ :   < <   ",
"  [ } | # 1 2 3 4 5 6 7   8 9 < ",
"  0 a b c d e f g h i j   k l < ",
"m } n o p q ; r ( s t u   v w < ",
"@ x y                     z A < ",
"# - B   < C D E F G H I J K L < ",
"o M N   < O P Q G k R S T U <   ",
"V W X   < Y Z ` < < < < < < <   ",
"   ...  < +.@.<                 ",
"        < #.$.v < < < <         ",
"        < %.&.*.=.-.  <         ",
"          < < < < < <           ",
"                                "
};
