/* XPM */
static const char * tracker_xpm[] = {
/* columns rows colors chars-per-pixel */
"16 16 5 1",
"a c #000000",
"c c #0000ff",
"# c #585858",
". c #c3c3c3",
"b c #ffffff",
/* pixels */
"................",
"...............#",
"..aaaaaaaaaaaa##",
"..abbbbbbbbbba##",
"..abbbbbbbbbba##",
"..a..........a##",
"..abbbbbbcbbba##",
"..a.....c.c..a##",
"..abbbbcbbcbba##",
"..a...c....cca##",
"..abbcbbbbbbba##",
"..acc........a##",
"..abbbbbbbbbba##",
"..aaaaaaaaaaaa##",
"..##############",
".###############"
};
