/* XPM */
static const char *unlockselected_xpm[] = {
/* columns rows colors chars-per-pixel */
"16 16 36 1",
" 	c None",
".	c #C5C7C5",
"+	c #787F84",
"@	c #91948E",
"#	c #676965",
"$	c #6D6E6B",
"%	c #6C6E6A",
"&	c #686A65",
"*	c #686A66",
"=	c #3844DE",
"-	c #282992",
";	c #191A92",
">	c #2433C8",
",	c #1829CE",
"'	c #182995",
")	c #061993",
"!	c #010280",
"~	c #1829BC",
"{	c #3844F6",
"]	c #C6E6F6",
"^	c #B0DAF0",
"/	c #9BCEE8",
"(	c #89C3E0",
"_	c #78B8D7",
":	c #62ABCF",
"<	c #44A1CF",
"[	c #00AAFF",
"}	c #007CFF",
"|	c #3844BD",
"1	c #0061FF",
"2	c #009BFF",
"3	c #008BFF",
"4	c #0074FF",
"5	c #006CFF",
"6	c #303DC1",
"7	c #1829C2",
/* pixels */
"      ....      ",
"     +@@@@.     ",
"      #$%&@.    ",
"          *@.   ",
"          *@.   ",
"          *@.   ",
"   =-;>,')!!~   ",
"  {>]^/(_:<[}|  ",
"  1}<[23}4512)  ",
"  1}<[23}4512)  ",
"  1}<[23}4512)  ",
"  1}<[23}4512)  ",
"  {=/(_:<[231~  ",
"   ;|6>,7~')!   ",
"                ",
"                "
};
