/* XPM */
static const char *vclass_small_emergency_xpm[] = {
/* columns rows colors chars-per-pixel */
"16 16 44 1",
"z c #AA0000",
". c #AB0A0A",
"X c #B13232",
"o c #B13434",
"O c #B44343",
"+ c #B85D5D",
"@ c #BA6A6A",
"# c #BB7777",
"$ c #BC7E7E",
"% c #51859B",
"& c #888989",
"* c #898A8A",
"= c #8A8B8B",
"- c #8B8C8C",
"; c #8C8E8E",
": c #8E9090",
"> c #8F9191",
", c #949797",
"< c #9C9F9F",
"1 c #BD8080",
"2 c #9CA0A0",
"3 c #9EA2A2",
"4 c #81A4B1",
"5 c #85A6B2",
"6 c #91AFB9",
"7 c #B0B7B7",
"8 c #B4BBBB",
"9 c #B5BCBC",
"0 c #B6BDBD",
"q c #B6BEBE",
"w c #C2A8A8",
"e c #C3AAAA",
"r c #C4B5B5",
"t c #A0B9C0",
"y c #ACC1C6",
"u c #C7C6C6",
"i c #C7CACA",
"p c #C6CFCF",
"a c #C6D0D0",
"s c #C7D0D0",
"d c #C7D1D1",
"f c #C8D0D0",
"g c #C8D2D2",
"  c None",
/* pixels */
"                ",
"                ",
"gggggggggg      ",
"gggg#ogggg      ",
"ggfeOzwuggggg   ",
"ggezzzz@ggytgg  ",
"ggi1Xz$rgg4%5gg ",
"gggg+.gggg4%%6g ",
"ggggggggggggggg ",
"ggg98dggggg98dg ",
"gg,*=>sggg,*=>sd",
"gq&pd;7gg0&pd;7g",
"  *ad:<   *ad:< ",
"  >-;-    >-;-  ",
"   32      32   ",
"                "
};
