/* XPM */
static const char *language_fr_xpm[] = {
/* columns rows colors chars-per-pixel */
"16 12 117 2",
"   c #EB233A",
".  c #EB263C",
"X  c #DB3245",
"o  c #F52A41",
"O  c #F52B42",
"+  c #F52C43",
"@  c #F32E45",
"#  c #F42E45",
"$  c #F42F46",
"%  c #E43449",
"&  c #E2384B",
"*  c #E23B4E",
"=  c #F43046",
"-  c #F33248",
";  c #F43248",
":  c #F43348",
">  c #F3354B",
",  c #F43449",
"<  c #F4344B",
"1  c #F4364C",
"2  c #F4374C",
"3  c #F3384E",
"4  c #F33A4F",
"5  c #F4384E",
"6  c #F4394F",
"7  c #E23E50",
"8  c #F33C51",
"9  c #F23F53",
"0  c #F43C51",
"q  c #F43D52",
"w  c #F53E54",
"e  c #F43F54",
"r  c #E24153",
"t  c #E04556",
"y  c #E24456",
"u  c #E34759",
"i  c #E34A5B",
"p  c #F34155",
"a  c #F34357",
"s  c #F54155",
"d  c #F54257",
"f  c #F44357",
"g  c #F54357",
"h  c #F54458",
"j  c #001A97",
"k  c #001C97",
"l  c #001D98",
"z  c #001D99",
"x  c #001E99",
"c  c #06249C",
"v  c #102A94",
"b  c #102B94",
"n  c #1D369A",
"m  c #1F389F",
"M  c #0928A3",
"N  c #0D2BA5",
"B  c #0E2CA4",
"V  c #0F2CA5",
"C  c #102DA5",
"Z  c #1230A5",
"A  c #1330A5",
"S  c #1431A6",
"D  c #1532A6",
"F  c #1633A7",
"G  c #1734A7",
"H  c #1834A7",
"J  c #1C37A7",
"K  c #1935A8",
"L  c #1A36A8",
"P  c #1B37A8",
"I  c #1C38A9",
"U  c #1D39A9",
"Y  c #1F3AAA",
"T  c #233CA0",
"R  c #263EA1",
"E  c #203BAA",
"W  c #213CAB",
"Q  c #233EAB",
"!  c #243FAC",
"~  c #2941A2",
"^  c #2C44A3",
"/  c #2540AC",
"(  c #2741AD",
")  c #2842AD",
"_  c #2842AE",
"`  c #2943AE",
"'  c #2D47AF",
"]  c #3047A4",
"[  c #334AA6",
"{  c #F2A6AF",
"}  c #FBB1B9",
"|  c #FBB1BA",
" . c #FBB3BB",
".. c #FDB0B9",
"X. c #FBB4BC",
"o. c #FBB5BD",
"O. c #F9B6BE",
"+. c #FBB7BE",
"@. c #FBB8BF",
"#. c #98A4D3",
"$. c #A0ABD7",
"%. c #A3AEDD",
"&. c #A4AFDC",
"*. c #A5B0DD",
"=. c #A7B1DD",
"-. c #A8B3DE",
";. c #AAB4DF",
":. c #ABB5DF",
">. c #ADB7E0",
",. c #F6F6F6",
"<. c gray98",
"1. c #FBFBFB",
"2. c gray99",
"3. c #FDFDFD",
"4. c #FEFEFE",
"5. c white",
"6. c None",
/* pixels */
"6.6.6.6.6.6.6.6.6.6.6.6.6.6.6.6.",
"m C V N M %.5.5.5.5...o + O o % ",
"T D S A B &.5.5.5.5.} @ = $ # & ",
"R K H G Z *.5.5.5.5.| - , : ; * ",
"~ U I L F =.5.5.5.5. .> 2 1 < 7 ",
"^ W E Y P -.5.5.5.5.X.3 4 6 5 r ",
"] / ! Q Y ;.5.5.5.5.o.0 q q 8 y ",
"[ ` ) ( Q :.5.5.5.5.+.e s e w u ",
"n J ) ' _ >.4.5.5.5.@.f h g d i ",
"b l k x c $.<.1.2.3.O.p a p 9 t ",
"v z z z j #.,.,.,.,.{   . . . X ",
"6.6.6.6.6.6.6.6.6.6.6.6.6.6.6.6."
};
