/* XPM */
static const char *language_hu_xpm[] = {
/* columns rows colors chars-per-pixel */
"16 12 102 2",
"   c #0F7F52",
".  c #CF1026",
"X  c #CF1227",
"o  c #CE1328",
"O  c #CF1328",
"+  c #CF1429",
"@  c #CE1529",
"#  c #CE162A",
"$  c #CE172B",
"%  c #CF172B",
"&  c #CE182C",
"*  c #CF192D",
"=  c #CF1A2E",
"-  c #CF1B2F",
";  c #D0152A",
":  c #D0162B",
">  c #D0172C",
",  c #D0192D",
"<  c #D11A2E",
"1  c #D11B2F",
"2  c #C21F31",
"3  c #CF1B30",
"4  c #CF1C30",
"5  c #CF1D31",
"6  c #D01B30",
"7  c #D11C30",
"8  c #D01D31",
"9  c #D11D31",
"0  c #D01E31",
"q  c #D01E32",
"w  c #D01F32",
"e  c #D21E32",
"r  c #D21F33",
"t  c #D11F34",
"y  c #C12132",
"u  c #C12234",
"i  c #C52C3E",
"p  c #C42E3E",
"a  c #D02034",
"s  c #D12035",
"d  c #D02135",
"f  c #D02235",
"g  c #D12236",
"h  c #D12337",
"j  c #D12437",
"k  c #C43040",
"l  c #00804B",
"z  c #00804C",
"x  c #00814C",
"c  c #00814D",
"v  c #00824E",
"b  c #098755",
"n  c #108053",
"m  c #188559",
"M  c #108B5A",
"N  c #168E5E",
"B  c #168F5E",
"V  c #179160",
"C  c #199161",
"Z  c #1A9161",
"A  c #189261",
"S  c #1A9362",
"D  c #1B9362",
"F  c #1C9363",
"G  c #1D9264",
"H  c #1C9364",
"J  c #1D9464",
"K  c #1E9464",
"L  c #1E9465",
"P  c #1F9465",
"I  c #258C63",
"U  c #258E64",
"Y  c #209566",
"T  c #219667",
"R  c #229667",
"E  c #239668",
"W  c #259869",
"Q  c #27996B",
"!  c #E1BABE",
"~  c #E2BDC1",
"^  c #BAD4C9",
"/  c #BDD6CC",
"(  c #F3C5CA",
")  c #F3C6CB",
"_  c #F3C7CB",
"`  c #F3C7CC",
"'  c #F3C8CD",
"]  c #F3C9CD",
"[  c #F4C9CD",
"{  c #C5E3D7",
"}  c #C5E4D7",
"|  c #C6E4D8",
" . c #C7E4D8",
".. c #C7E4D9",
"X. c #C7E5D9",
"o. c #C8E5D9",
"O. c #C8E5DA",
"+. c #C9E5DA",
"@. c gray92",
"#. c #ECECEC",
"$. c white",
"%. c None",
/* pixels */
"%.%.%.%.%.%.%.%.%.%.%.%.%.%.%.%.",
"i r e 9 7 1 < , > : ; + O X . 2 ",
"k j h g s t q 0 5 6 - * & % # u ",
"p f d a w 8 4 3 = * & $ # @ o y ",
"~ [ [ ] ' ' ` ` _ ` ) ) ) ) ( ! ",
"@.$.$.$.$.$.$.$.$.$.$.$.$.$.$.@.",
"@.$.$.$.$.$.$.$.$.$.$.$.$.$.$.#.",
"/ +.o.O.o.X.....|  .| | } { { ^ ",
"m B R Q W E T Y L J H D S A V U ",
"n c z v b M N Z G P P P K F C I ",
"n x x x x x x x x l l l l z x   ",
"%.%.%.%.%.%.%.%.%.%.%.%.%.%.%.%."
};
