/* XPM */
static const char *language_ko_xpm[] = {
"16 16 40 1",
"  c #5E3B71",
". c #503D78",
"X c #6E3969",
"o c #7C3761",
"O c gray32",
"+ c #535353",
"@ c gray35",
"# c #606060",
"$ c #646464",
"% c #676767",
"& c gray42",
"* c gray46",
"= c #7B7B7B",
"- c #CD2E3A",
"; c #D03B46",
": c #0047A0",
"> c #1052A5",
", c #7F9FCC",
"< c #7CA0CD",
"1 c #BB98AE",
"2 c #A69BB9",
"3 c #A5A5A5",
"4 c gray66",
"5 c gray67",
"6 c #AFAFAF",
"7 c #E5939A",
"8 c #E2949B",
"9 c #E5949A",
"0 c #D7D7D7",
"q c #DFE6F1",
"w c #DDE6F2",
"e c gray89",
"r c #E7E7E7",
"t c #F7E3E5",
"y c #F8E3E5",
"u c #F6F6F6",
"i c gray97",
"p c #FEFEFE",
"a c white",
"b c None",
/* pixels */
"bbbbbbbbbbbbbbbb",
"bbbbbbbbbbbbbbbb",
"bbbbbbbbbbbbbbbb",
"aaapiaaaaaaipaaa",
"aaa3*0aaaa0*6aaa",
"aaeO+ry97yr&#eaa",
"aau45t;--;y54uaa",
"aaaaa1--oX8aaaaa",
"aaaaa, .::2aaaaa",
"aau45w>::>q54uaa",
"aae@$rw<<wr=%eaa",
"aaa3*0aaaa0*6aaa",
"aaapiaaaaaaipaaa",
"bbbbbbbbbbbbbbbb",
"bbbbbbbbbbbbbbbb",
"bbbbbbbbbbbbbbbb"
};
