#define inspect_cursor_width 32
#define inspect_cursor_height 32
#define inspect_cursor_x_hot 7
#define inspect_cursor_y_hot 7
static unsigned char inspect_cursor_bits[] = {
  0x00, 0x00, 0x00, 0x00, 
  0xC0, 0x01, 0x00, 0x00, 
  0x30, 0x06, 0x00, 0x00, 
  0x08, 0x08, 0x00, 0x00, 
  0x04, 0x10, 0x00, 0x00, 
  0x04, 0x10, 0x0C, 0x00, 
  0x02, 0x20, 0x12, 0x00, 
  0x02, 0x20, 0x10, 0x00, 
  0x02, 0x20, 0x08, 0x00, 
  0x04, 0x10, 0x04, 0x00, 
  0x04, 0x10, 0x04, 0x00, 
  0x08, 0x18, 0x00, 0x00, 
  0x30, 0x2E, 0x04, 0x00, 
  0xC0, 0x51, 0x00, 0x00, 
  0x00, 0xA0, 0x00, 0x00, 
  0x00, 0x40, 0x01, 0x00, 
  0x00, 0x80, 0x02, 0x00, 
  0x00, 0x00, 0x05, 0x00, 
  0x00, 0x00, 0x0A, 0x00, 
  0x00, 0x00, 0x04, 0x00, 
  0x00, 0x00, 0x00, 0x00, 
  0x00, 0x00, 0x00, 0x00, 
  0x00, 0x00, 0x00, 0x00, 
  0x00, 0x00, 0x00, 0x00, 
  0x00, 0x00, 0x00, 0x00, 
  0x00, 0x00, 0x00, 0x00, 
  0x00, 0x00, 0x00, 0x00, 
  0x00, 0x00, 0x00, 0x00, 
  0x00, 0x00, 0x00, 0x00, 
  0x00, 0x00, 0x00, 0x00, 
  0x00, 0x00, 0x00, 0x00, 
  0x00, 0x00, 0x00, 0x00, 
  };