#define inspect_cursor_mask_width 32
#define inspect_cursor_mask_height 32
#define inspect_cursor_mask_x_hot 7
#define inspect_cursor_mask_y_hot 7
static unsigned char inspect_cursor_mask_bits[] = {
  0xE0, 0x03, 0x00, 0x00, 
  0xF8, 0x0F, 0x00, 0x00, 
  0xFC, 0x1F, 0x00, 0x00, 
  0x7E, 0x3F, 0x00, 0x00, 
  0x1E, 0x3C, 0x1E, 0x00, 
  0x0F, 0x78, 0x3F, 0x00, 
  0x0F, 0x78, 0x3F, 0x00, 
  0x07, 0x70, 0x3F, 0x00, 
  0x0F, 0x78, 0x3E, 0x00, 
  0x0F, 0x78, 0x1E, 0x00, 
  0x1E, 0x3C, 0x0E, 0x00, 
  0x7E, 0x3F, 0x0E, 0x00, 
  0xFC, 0x7F, 0x0E, 0x00, 
  0xF8, 0xFF, 0x0E, 0x00, 
  0xE0, 0xF3, 0x01, 0x00, 
  0x00, 0xE0, 0x03, 0x00, 
  0x00, 0xC0, 0x07, 0x00, 
  0x00, 0x80, 0x0F, 0x00, 
  0x00, 0x00, 0x1F, 0x00, 
  0x00, 0x00, 0x0E, 0x00, 
  0x00, 0x00, 0x04, 0x00, 
  0x00, 0x00, 0x00, 0x00, 
  0x00, 0x00, 0x00, 0x00, 
  0x00, 0x00, 0x00, 0x00, 
  0x00, 0x00, 0x00, 0x00, 
  0x00, 0x00, 0x00, 0x00, 
  0x00, 0x00, 0x00, 0x00, 
  0x00, 0x00, 0x00, 0x00, 
  0x00, 0x00, 0x00, 0x00, 
  0x00, 0x00, 0x00, 0x00, 
  0x00, 0x00, 0x00, 0x00, 
  0x00, 0x00, 0x00, 0x00, 
  };