#define inspect_lane_cursor_mask_width 32
#define inspect_lane_cursor_mask_height 32
#define inspect_lane_cursor_mask_x_hot 9
#define inspect_lane_cursor_mask_y_hot 9
static unsigned char inspect_lane_cursor_mask_bits[] = {
  0xFF, 0xFF, 0x0F, 0x00, 
  0xFF, 0xFF, 0x0F, 0x00, 
  0xFF, 0xFF, 0x0F, 0x00, 
  0xFF, 0xFF, 0x0F, 0x00, 
  0x0F, 0x00, 0x0F, 0x00, 
  0x0F, 0x00, 0x0F, 0x00, 
  0x0F, 0x00, 0x0F, 0x00, 
  0x0F, 0x03, 0x0F, 0x00, 
  0x0F, 0x07, 0x0F, 0x00, 
  0x0F, 0x0F, 0x0F, 0x00, 
  0x0F, 0x1F, 0x0F, 0x00, 
  0x0F, 0x3F, 0x0F, 0x00, 
  0x0F, 0x7F, 0x0F, 0x00, 
  0x0F, 0xFF, 0x0F, 0x00, 
  0x0F, 0xFF, 0x0F, 0x00, 
  0x0F, 0xFF, 0x0F, 0x00, 
  0xFF, 0xFF, 0x0F, 0x00, 
  0xFF, 0xFF, 0x0F, 0x00, 
  0xFF, 0xFF, 0x0F, 0x00, 
  0xFF, 0xFF, 0x0F, 0x00, 
  0x00, 0xF7, 0x01, 0x00, 
  0x00, 0xF0, 0x01, 0x00, 
  0x00, 0xE0, 0x01, 0x00, 
  0x00, 0xE0, 0x01, 0x00, 
  0x00, 0x00, 0x00, 0x00, 
  0x00, 0x00, 0x00, 0x00, 
  0x00, 0x00, 0x00, 0x00, 
  0x00, 0x00, 0x00, 0x00, 
  0x00, 0x00, 0x00, 0x00, 
  0x00, 0x00, 0x00, 0x00, 
  0x00, 0x00, 0x00, 0x00, 
  0x00, 0x00, 0x00, 0x00, 
  };