#define select_lane_cursor_width 32
#define select_lane_cursor_height 32
#define select_lane_cursor_x_hot 9
#define select_lane_cursor_y_hot 9
static unsigned char select_lane_cursor_bits[] = {
  0x00, 0x00, 0x00, 0x00, 
  0x66, 0x66, 0x06, 0x00, 
  0x66, 0x66, 0x06, 0x00, 
  0x00, 0x00, 0x00, 0x00, 
  0x00, 0x00, 0x00, 0x00, 
  0x06, 0x00, 0x06, 0x00, 
  0x06, 0x00, 0x06, 0x00, 
  0x00, 0x00, 0x00, 0x00, 
  0x00, 0x00, 0x00, 0x00, 
  0x06, 0x02, 0x06, 0x00, 
  0x06, 0x06, 0x06, 0x00, 
  0x00, 0x0E, 0x00, 0x00, 
  0x00, 0x1E, 0x00, 0x00, 
  0x06, 0x3E, 0x06, 0x00, 
  0x06, 0x7E, 0x06, 0x00, 
  0x00, 0xFE, 0x00, 0x00, 
  0x00, 0xFE, 0x01, 0x00, 
  0x66, 0x3E, 0x04, 0x00, 
  0x66, 0x36, 0x06, 0x00, 
  0x00, 0x62, 0x00, 0x00, 
  0x00, 0x60, 0x00, 0x00, 
  0x00, 0xC0, 0x00, 0x00, 
  0x00, 0xC0, 0x00, 0x00, 
  0x00, 0x00, 0x00, 0x00, 
  0x00, 0x00, 0x00, 0x00, 
  0x00, 0x00, 0x00, 0x00, 
  0x00, 0x00, 0x00, 0x00, 
  0x00, 0x00, 0x00, 0x00, 
  0x00, 0x00, 0x00, 0x00, 
  0x00, 0x00, 0x00, 0x00, 
  0x00, 0x00, 0x00, 0x00, 
  0x00, 0x00, 0x00, 0x00, 
  };