#define move_element_cursor_width 32
#define move_element_cursor_height 32
#define move_element_cursor_x_hot 1
#define move_element_cursor_y_hot 2
static unsigned char move_element_cursor_bits[] = {
  0x00, 0x00, 0x00, 0x00,
  0x00, 0x00, 0x00, 0x00,  
  0x02, 0x00, 0x00, 0x00, 
  0x06, 0x00, 0x00, 0x00, 
  0x0E, 0x00, 0x00, 0x00, 
  0x1E, 0x00, 0x00, 0x00, 
  0x3E, 0x00, 0x00, 0x00, 
  0x7E, 0x00, 0x00, 0x00, 
  0xFE, 0x00, 0x00, 0x00, 
  0xFE, 0x01, 0x00, 0x00, 
  0x3E, 0x00, 0x00, 0x00, 
  0x36, 0x00, 0x00, 0x00, 
  0x62, 0x80, 0x00, 0x00, 
  0x60, 0xC0, 0x01, 0x00, 
  0xC0, 0xA0, 0x02, 0x00, 
  0xC0, 0x80, 0x00, 0x00, 
  0x00, 0x88, 0x08, 0x00, 
  0x00, 0x84, 0x10, 0x00, 
  0x00, 0xFE, 0x3F, 0x00, 
  0x00, 0x84, 0x10, 0x00, 
  0x00, 0x88, 0x08, 0x00, 
  0x00, 0x80, 0x00, 0x00, 
  0x00, 0xA0, 0x02, 0x00, 
  0x00, 0xC0, 0x01, 0x00, 
  0x00, 0x80, 0x00, 0x00,  
  0x00, 0x00, 0x00, 0x00, 
  0x00, 0x00, 0x00, 0x00, 
  0x00, 0x00, 0x00, 0x00, 
  0x00, 0x00, 0x00, 0x00, 
  0x00, 0x00, 0x00, 0x00, 
  0x00, 0x00, 0x00, 0x00, 
  0x00, 0x00, 0x00, 0x00, 
  };